<svg xmlns="http://www.w3.org/2000/svg" width="688.57" height="476.664" viewBox="0 0 688.57 476.664"><defs><style>.a,.b{fill:#e9ebfb;}.a{opacity:0.53;}.c{fill:#1553a5;}.d{fill:#fff;}.e{fill:#8585d3;}.f,.h,.t{fill:none;stroke-linecap:round;stroke-linejoin:round;}.f,.h{stroke:#5d5dba;}.f{stroke-width:0.75px;}.g{fill:#9292f7;}.i{opacity:0.31;}.j{fill:#5146af;}.k{opacity:0.3;}.l{opacity:0.78;}.m{fill:#1d294a;}.n{fill:#072955;}.o{fill:#f4af9a;}.p{fill:#fdc3ad;}.q{fill:#292660;}.r{fill:#092850;}.s{fill:#ffc20e;}.t{stroke:#302e5e;}</style></defs><g transform="translate(0)"><g transform="translate(0 30.709)"><path class="a" d="M453.443,588.558S320.927,576.194,323.551,466.224,445.074,346.747,485.065,292.488c71.27-96.694,105.347-102.052,166.215-68.685,103.446,56.709,127.328-113.438,232.569-65.015,78.471,36.107,105.1,109.565,123.658,211.8,21.88,120.536-38.624,191.56-98.685,219.883-1.675.791-35.774-1.254-37.168,0Z" transform="translate(-323.512 -145.482)"/><path class="b" d="M436.667,591.016S330.06,536.508,332.539,426.538,410.024,264.754,473.57,260.1c96.254-7.048,137.008,48.528,183.91,0,50.071-51.808,86.466-147.276,185.918-98.854,74.154,36.107,132.565,172.173,129.143,264.79-2.256,61.008-24.173,127.279-62.806,166.892-1.256,1.289-76.544-1.254-77.862,0Z" transform="translate(-312.802 -147.94)"/></g><g transform="translate(529.697)"><path class="c" d="M586.491,176.627h38.793a21.346,21.346,0,0,0,21.345-21.347h0a21.346,21.346,0,0,0-21.345-21.347H586.491a21.348,21.348,0,0,0-21.347,21.347h0A21.348,21.348,0,0,0,586.491,176.627Z" transform="translate(-565.144 -133.932)"/><g transform="translate(16.373 15.843)"><path class="d" d="M589.825,146.664a5.5,5.5,0,1,0,5.5-5.5A5.5,5.5,0,0,0,589.825,146.664Z" transform="translate(-552.093 -141.159)"/><path class="d" d="M581.219,146.664a5.5,5.5,0,1,0,5.5-5.5A5.5,5.5,0,0,0,581.219,146.664Z" transform="translate(-562.353 -141.159)"/><path class="d" d="M572.613,146.664a5.5,5.5,0,1,0,5.5-5.5A5.5,5.5,0,0,0,572.613,146.664Z" transform="translate(-572.613 -141.159)"/></g><path class="c" d="M585.4,152.32,569.89,167.833V150.452Z" transform="translate(-559.486 -114.237)"/></g><path class="b" d="M469.665,203.112c-4.4-3.9-10.494-8.221-16.325-7.513-2.646.322-5.518,1.111-7.839-.2a10.918,10.918,0,0,1-3.08-3.214,45.663,45.663,0,0,0-76.121,4.562c-8.288-4.656-20.076-1.3-24.666,7.024Z" transform="translate(-301.909 -86.292)"/><path class="b" d="M540.7,160.889c-2.409-2.135-5.75-4.5-8.946-4.117-1.449.178-3.021.609-4.295-.107a5.987,5.987,0,0,1-1.686-1.76,25.017,25.017,0,0,0-41.706,2.5,10.285,10.285,0,0,0-13.513,3.847Z" transform="translate(-148.208 -120.882)"/><g transform="translate(148.601 52.832)"><rect class="c" width="77.198" height="40.447" rx="9.225"/><g transform="translate(15.51 15.009)"><path class="d" d="M408.805,170.094a5.215,5.215,0,1,1-5.215-5.215A5.215,5.215,0,0,1,408.805,170.094Z" transform="translate(-398.375 -164.879)"/><path class="d" d="M416.957,170.094a5.214,5.214,0,1,1-5.215-5.215A5.215,5.215,0,0,1,416.957,170.094Z" transform="translate(-388.654 -164.879)"/><path class="d" d="M425.11,170.094a5.214,5.214,0,1,1-5.213-5.215A5.214,5.214,0,0,1,425.11,170.094Z" transform="translate(-378.934 -164.879)"/></g><path class="c" d="M415.315,175.453l14.7,14.7V173.683Z" transform="translate(-362.669 -139.374)"/></g><g transform="translate(81.942 270.004)"><g transform="translate(101.465 85.727)"><path class="e" d="M419.194,405.705c-.533-4.316,6.026-8.144,9.786-10.332,6.793-3.95,18.576-4.2,21.99-12.62,1.475-3.641.684-7.9,2.179-11.537,3.779-9.2,18.714-8.514,23.421-17.274,3.944-7.337-1.738-16.525.281-24.6,2.118-8.479,21.816-24.853.824-32.444-8.42-3.045-15.24,4.757-20.188,9.139-9.279,8.219-29.884,5.79-33.273,19.657-1.486,6.079,2.17,12.526.734,18.618-.969,4.119-4.086,7.326-6.905,10.483-6.719,7.521-12.7,17.349-10.34,27.154C409.491,389.376,413.376,400.747,419.194,405.705Z" transform="translate(-407.177 -296.205)"/><g transform="translate(9.706 20.239)"><path class="f" d="M412.739,405.541s-5.509-54.3,45.558-100.1" transform="translate(-410.46 -305.438)"/><path class="f" d="M417.671,339.751a47.77,47.77,0,0,0-6.066-7.765" transform="translate(-411.605 -273.788)"/><path class="f" d="M416.731,329.828a102.376,102.376,0,0,0,10.834-1.462" transform="translate(-405.494 -278.104)"/><path class="f" d="M422.717,324.594a13.881,13.881,0,0,0-3.152-8.216" transform="translate(-402.115 -292.396)"/><path class="f" d="M425.883,313.63a56,56,0,0,1,10.551.088" transform="translate(-394.583 -295.919)"/><path class="f" d="M431.034,312.494q-1.167-3.239-2.6-6.379" transform="translate(-391.54 -304.631)"/></g></g><path class="g" d="M462.354,445c1.383-7.1-9.047-14.2-15.027-18.263-10.8-7.337-30.309-9.115-34.989-23.469-2.023-6.208-.221-13.182-2.275-19.379-5.2-15.687-30.042-16.283-36.831-31.352-5.684-12.62,4.8-27.194,2.389-40.823-2.53-14.3-33.288-43.727,2.389-53.879,14.315-4.073,24.712,9.648,32.409,17.487,14.433,14.7,48.87,13.059,52.884,36.443,1.758,10.251-5.049,20.514-3.376,30.778,1.131,6.943,5.925,12.62,10.235,18.182,10.264,13.247,19.045,30.232,14,46.213C480.332,419.056,472.574,437.457,462.354,445Z" transform="translate(-360.892 -257.1)"/><g transform="translate(36.328 34.65)"><path class="h" d="M441.392,444.136s15.424-89.375-63.928-171.23" transform="translate(-377.464 -272.906)"/><path class="h" d="M405.567,331.615a79.417,79.417,0,0,1,10.959-12.169" transform="translate(-343.96 -217.423)"/><path class="h" d="M412.083,315.959a170.174,170.174,0,0,1-17.789-3.681" transform="translate(-357.4 -225.968)"/><path class="h" d="M396.359,305.9a23.072,23.072,0,0,1,6.177-13.256" transform="translate(-354.938 -249.37)"/><path class="h" d="M398.552,287.787a93.146,93.146,0,0,0-17.5-1.076" transform="translate(-373.186 -256.509)"/><path class="h" d="M383.358,284.88q2.315-5.235,5.046-10.273" transform="translate(-370.437 -270.877)"/></g><g transform="translate(463.612 47.943)"><g transform="translate(0 72.686)"><path class="e" d="M633.056,389.41c-.009-3.3-5.31-5.557-8.35-6.846-5.487-2.328-14.38-1.392-17.75-7.407-1.456-2.6-1.267-5.882-2.738-8.475-3.72-6.563-14.9-4.628-19.274-10.772-3.665-5.147-.263-12.6-2.552-18.493-2.4-6.182-18.787-16.63-3.709-24.34,6.048-3.1,11.923,2.129,16.064,4.957,7.767,5.3,23.044,1.513,26.915,11.627,1.7,4.435-.441,9.635,1.219,14.083,1.122,3.01,3.773,5.128,6.2,7.234,5.772,5.022,11.211,11.849,10.367,19.453C638.806,376.2,636.962,385.124,633.056,389.41Z" transform="translate(-572.377 -312.127)"/><g transform="translate(17.915 14.431)"><path class="f" d="M624.367,389.719s-1.019-41.392-43.817-71.009" transform="translate(-580.55 -318.71)"/><path class="f" d="M597.756,343.036a36.256,36.256,0,0,1,3.828-6.421" transform="translate(-560.038 -297.364)"/><path class="f" d="M599.871,334.918a77.476,77.476,0,0,1-8.291-.07" transform="translate(-567.4 -299.471)"/><path class="f" d="M591.32,332.109a10.523,10.523,0,0,1,1.589-6.484" transform="translate(-567.754 -310.466)"/><path class="f" d="M591.312,324.073a42.435,42.435,0,0,0-7.933,1.07" transform="translate(-577.177 -312.316)"/><path class="f" d="M583.756,323.794q.572-2.552,1.35-5.049" transform="translate(-576.728 -318.668)"/></g></g><g transform="translate(41.57)"><path class="g" d="M610.238,423.5c-1.234-5.345,6.491-11,10.921-14.234,8-5.844,22.746-7.695,25.922-18.7,1.375-4.761-.171-10,1.226-14.751,3.538-12.031,22.358-13.125,27.115-24.725,3.985-9.716-4.34-20.495-2.865-30.89,1.55-10.91,24.11-34.016-3.2-40.792-10.956-2.718-18.487,7.955-24.12,14.1-10.564,11.518-36.717,11.163-39.154,29-1.07,7.815,4.356,15.424,3.352,23.25-.677,5.292-4.167,9.72-7.289,14.047-7.442,10.312-13.662,23.417-9.42,35.4C595.934,404.288,602.293,418.039,610.238,423.5Z" transform="translate(-591.341 -278.97)"/><g transform="translate(11.939 26.644)"><path class="h" d="M601.4,422.606s-14-67.367,44.049-131.482" transform="translate(-593.061 -291.124)"/><path class="h" d="M605.409,336.209a60.248,60.248,0,0,0-8.622-8.942" transform="translate(-596.787 -248.035)"/><path class="h" d="M602.829,324.661a129.4,129.4,0,0,0,13.394-3.249" transform="translate(-589.584 -255.016)"/><path class="h" d="M609.754,316.545a17.51,17.51,0,0,0-5.024-9.891" transform="translate(-587.318 -272.61)"/><path class="h" d="M612.278,302.931a70.827,70.827,0,0,1,13.241-1.269" transform="translate(-578.319 -278.561)"/><path class="h" d="M618.6,300.285q-1.891-3.913-4.093-7.659" transform="translate(-575.656 -289.333)"/></g></g></g></g><g transform="translate(88.97 117.849)"><g class="i" transform="translate(528.391 82.296)"><g transform="translate(3.043)"><path class="j" d="M607.618,233.507a1.1,1.1,0,0,1-1.1-1.1v-6.083a1.1,1.1,0,1,1,2.192,0v6.083A1.1,1.1,0,0,1,607.618,233.507Z" transform="translate(-606.522 -225.232)"/></g><g transform="translate(0 3.041)"><path class="j" d="M612.315,228.811H606.23a1.1,1.1,0,1,1,0-2.192h6.085a1.1,1.1,0,0,1,0,2.192Z" transform="translate(-605.134 -226.619)"/></g></g><g class="i" transform="translate(283.55 133.306)"><g transform="translate(3.043)"><path class="j" d="M495.929,256.776a1.094,1.094,0,0,1-1.1-1.1V249.6a1.1,1.1,0,1,1,2.192,0v6.083A1.1,1.1,0,0,1,495.929,256.776Z" transform="translate(-494.833 -248.501)"/></g><g transform="translate(0 3.041)"><path class="j" d="M500.624,252.08h-6.083a1.1,1.1,0,0,1,0-2.192h6.083a1.1,1.1,0,1,1,0,2.192Z" transform="translate(-493.445 -249.888)"/></g></g><g class="i" transform="translate(88.778 38.922)"><g transform="translate(3.043)"><path class="j" d="M407.08,213.721a1.1,1.1,0,0,1-1.1-1.1v-6.083a1.1,1.1,0,1,1,2.192,0v6.083A1.1,1.1,0,0,1,407.08,213.721Z" transform="translate(-405.984 -205.446)"/></g><g transform="translate(0 3.041)"><path class="j" d="M411.775,209.025h-6.083a1.1,1.1,0,1,1,0-2.192h6.083a1.1,1.1,0,0,1,0,2.192Z" transform="translate(-404.596 -206.833)"/></g></g><g class="i" transform="translate(520.541 176.647)"><g transform="translate(3.043)"><path class="j" d="M604.037,276.547a1.1,1.1,0,0,1-1.1-1.1v-6.083a1.1,1.1,0,0,1,2.192,0v6.083A1.1,1.1,0,0,1,604.037,276.547Z" transform="translate(-602.941 -268.272)"/></g><g transform="translate(0 3.041)"><path class="j" d="M608.734,271.851h-6.085a1.1,1.1,0,0,1,0-2.192h6.085a1.1,1.1,0,0,1,0,2.192Z" transform="translate(-601.553 -269.659)"/></g></g><g class="i" transform="translate(330.938 0.684)"><g transform="translate(5.163)"><path class="j" d="M518.513,200.516a1.094,1.094,0,0,1-1.1-1.1V189.1a1.1,1.1,0,1,1,2.192,0V199.42A1.1,1.1,0,0,1,518.513,200.516Z" transform="translate(-517.417 -188.003)"/></g><g transform="translate(0 5.16)"><path class="j" d="M526.479,192.549H516.158a1.1,1.1,0,0,1,0-2.192h10.321a1.1,1.1,0,0,1,0,2.192Z" transform="translate(-515.062 -190.357)"/></g></g><g class="k" transform="translate(481.312)"><path class="j" d="M588.838,198.053a5.181,5.181,0,1,1,5.182-5.18A5.187,5.187,0,0,1,588.838,198.053Zm0-8.17a2.989,2.989,0,1,0,2.99,2.99A2.992,2.992,0,0,0,588.838,189.883Z" transform="translate(-583.658 -187.691)"/></g><g class="k" transform="translate(0 90.526)"><path class="j" d="M369.28,239.348a5.181,5.181,0,1,1,5.18-5.18A5.188,5.188,0,0,1,369.28,239.348Zm0-8.17a2.989,2.989,0,1,0,2.988,2.99A2.994,2.994,0,0,0,369.28,231.178Z" transform="translate(-364.098 -228.986)"/></g></g><g class="l" transform="translate(117.86 179.807)"><path class="d" d="M690.537,325.862V301.535a3.84,3.84,0,0,0-3.841-3.841H671.5a3.811,3.811,0,0,1-3.691-2.806,72.013,72.013,0,0,0-7.19-17.347,3.813,3.813,0,0,1,.627-4.6l10.748-10.75a3.843,3.843,0,0,0,0-5.432l-17.2-17.2a3.838,3.838,0,0,0-5.432,0l-10.748,10.748a3.815,3.815,0,0,1-4.6.625,71.881,71.881,0,0,0-17.347-7.188,3.817,3.817,0,0,1-2.8-3.694V224.86a3.843,3.843,0,0,0-3.841-3.843H585.694a3.843,3.843,0,0,0-3.843,3.843v15.194a3.814,3.814,0,0,1-2.8,3.694,71.918,71.918,0,0,0-17.347,7.188,3.812,3.812,0,0,1-4.6-.625l-10.748-10.748a3.838,3.838,0,0,0-5.432,0l-17.2,17.2a3.842,3.842,0,0,0,0,5.432l10.748,10.748a3.816,3.816,0,0,1,.625,4.6,72.007,72.007,0,0,0-7.188,17.347,3.811,3.811,0,0,1-3.692,2.806h-15.2a3.841,3.841,0,0,0-3.841,3.841v24.326a3.842,3.842,0,0,0,3.841,3.841h15.2a3.812,3.812,0,0,1,3.692,2.8,72.09,72.09,0,0,0,7.188,17.347,3.816,3.816,0,0,1-.625,4.6L523.722,365.2a3.84,3.84,0,0,0,0,5.43l17.2,17.2a3.838,3.838,0,0,0,5.432,0L557.1,377.084a3.812,3.812,0,0,1,4.6-.625,71.92,71.92,0,0,0,17.347,7.188,3.81,3.81,0,0,1,2.8,3.694v15.194a3.843,3.843,0,0,0,3.843,3.843h24.326a3.843,3.843,0,0,0,3.841-3.843V387.341a3.813,3.813,0,0,1,2.8-3.694,71.883,71.883,0,0,0,17.347-7.188,3.816,3.816,0,0,1,4.6.625l10.748,10.748a3.838,3.838,0,0,0,5.432,0l17.2-17.2a3.84,3.84,0,0,0,0-5.43l-10.748-10.75a3.813,3.813,0,0,1-.627-4.6,71.919,71.919,0,0,0,7.188-17.347,3.817,3.817,0,0,1,3.694-2.8h15.2A3.841,3.841,0,0,0,690.537,325.862Zm-92.681,34.443A46.608,46.608,0,1,1,644.464,313.7,46.606,46.606,0,0,1,597.856,360.305Z" transform="translate(-224.799 -209.919)"/><path class="d" d="M554.991,318.97l-1.745-10.233a1.6,1.6,0,0,0-1.8-1.355l-6.044,1.03a1.554,1.554,0,0,1-1.668-.93,31.734,31.734,0,0,0-4.1-6.811,1.694,1.694,0,0,1-.081-1.977l3.5-5.25a1.7,1.7,0,0,0-.39-2.284l-8.076-6.07a1.489,1.489,0,0,0-2.159.368l-3.505,5.25a1.471,1.471,0,0,1-1.782.574,28.282,28.282,0,0,0-7.416-1.848,1.617,1.617,0,0,1-1.381-1.361l-1.09-6.392a1.6,1.6,0,0,0-1.8-1.357l-9.674,1.651a1.6,1.6,0,0,0-1.254,1.876l1.092,6.392a1.616,1.616,0,0,1-.851,1.743,28.357,28.357,0,0,0-6.386,4.2,1.474,1.474,0,0,1-1.872.05l-5.046-3.792a1.49,1.49,0,0,0-2.161.368l-5.608,8.4a1.706,1.706,0,0,0,.39,2.284l5.046,3.792a1.7,1.7,0,0,1,.579,1.892,31.727,31.727,0,0,0-1.616,7.787,1.552,1.552,0,0,1-1.267,1.429l-6.044,1.033a1.6,1.6,0,0,0-1.254,1.874l1.745,10.235a1.6,1.6,0,0,0,1.8,1.355l6.044-1.03a1.555,1.555,0,0,1,1.671.929,31.719,31.719,0,0,0,4.1,6.809,1.7,1.7,0,0,1,.081,1.977l-3.505,5.25a1.709,1.709,0,0,0,.39,2.286l8.076,6.068a1.49,1.49,0,0,0,2.161-.368l3.5-5.25a1.479,1.479,0,0,1,1.784-.574,28.154,28.154,0,0,0,7.414,1.848,1.613,1.613,0,0,1,1.381,1.364l1.089,6.392a1.6,1.6,0,0,0,1.8,1.355l9.676-1.648a1.6,1.6,0,0,0,1.252-1.877l-1.09-6.395a1.614,1.614,0,0,1,.85-1.743,28.192,28.192,0,0,0,6.384-4.2,1.474,1.474,0,0,1,1.874-.048l5.046,3.792a1.491,1.491,0,0,0,2.159-.368l5.607-8.4a1.709,1.709,0,0,0-.388-2.286l-5.046-3.792a1.7,1.7,0,0,1-.579-1.892,31.682,31.682,0,0,0,1.613-7.784,1.558,1.558,0,0,1,1.269-1.431l6.044-1.03A1.6,1.6,0,0,0,554.991,318.97ZM520.6,339.745c-10.237,1.747-20.034-5.616-21.88-16.446s4.956-21.023,15.194-22.768,20.034,5.618,21.882,16.446S530.838,338,520.6,339.745Z" transform="translate(-255.416 -139.24)"/><path class="d" d="M452.773,254.621l-1.745-10.233a1.6,1.6,0,0,0-1.8-1.357l-6.044,1.03a1.553,1.553,0,0,1-1.67-.929,31.683,31.683,0,0,0-4.1-6.809,1.694,1.694,0,0,1-.081-1.977l3.5-5.25a1.7,1.7,0,0,0-.39-2.284l-8.076-6.07a1.487,1.487,0,0,0-2.159.368l-3.505,5.25a1.479,1.479,0,0,1-1.784.574,28.158,28.158,0,0,0-7.414-1.848,1.615,1.615,0,0,1-1.381-1.363l-1.089-6.392a1.6,1.6,0,0,0-1.8-1.355l-9.676,1.651A1.6,1.6,0,0,0,402.3,219.5l1.092,6.392a1.616,1.616,0,0,1-.851,1.743,28.206,28.206,0,0,0-6.386,4.2,1.471,1.471,0,0,1-1.872.048l-5.046-3.792a1.493,1.493,0,0,0-2.161.368l-5.608,8.4a1.706,1.706,0,0,0,.39,2.284l5.046,3.792a1.7,1.7,0,0,1,.579,1.892,31.73,31.73,0,0,0-1.616,7.787,1.554,1.554,0,0,1-1.267,1.429l-6.046,1.03a1.6,1.6,0,0,0-1.252,1.877l1.745,10.235a1.6,1.6,0,0,0,1.8,1.355l6.044-1.03a1.551,1.551,0,0,1,1.67.929,31.723,31.723,0,0,0,4.1,6.809,1.7,1.7,0,0,1,.081,1.977l-3.505,5.25a1.706,1.706,0,0,0,.39,2.284l8.076,6.07a1.492,1.492,0,0,0,2.161-.368l3.5-5.25a1.476,1.476,0,0,1,1.784-.574,28.156,28.156,0,0,0,7.414,1.848,1.613,1.613,0,0,1,1.381,1.361l1.09,6.395a1.6,1.6,0,0,0,1.8,1.355l9.676-1.651a1.6,1.6,0,0,0,1.252-1.876l-1.089-6.392a1.613,1.613,0,0,1,.851-1.743,28.194,28.194,0,0,0,6.384-4.2,1.477,1.477,0,0,1,1.874-.05l5.046,3.795a1.49,1.49,0,0,0,2.159-.368l5.608-8.4a1.706,1.706,0,0,0-.388-2.284l-5.046-3.792a1.7,1.7,0,0,1-.579-1.892,31.833,31.833,0,0,0,1.613-7.784,1.556,1.556,0,0,1,1.269-1.432l6.044-1.03A1.6,1.6,0,0,0,452.773,254.621ZM418.38,275.4c-10.237,1.745-20.034-5.616-21.88-16.446s4.956-21.023,15.194-22.768,20.034,5.616,21.88,16.446S428.618,273.651,418.38,275.4Z" transform="translate(-377.277 -215.955)"/><path class="d" d="M503.312,319.372l7.258-12.109a2.171,2.171,0,0,0-.662-3l-7.151-4.286a2.113,2.113,0,0,1-.9-2.438,43.136,43.136,0,0,0,1.791-10.665,2.312,2.312,0,0,1,1.666-2.111l8.267-2.319a2.326,2.326,0,0,0,1.622-2.705l-2.964-13.414a2.027,2.027,0,0,0-2.558-1.532l-8.264,2.317a2.012,2.012,0,0,1-2.352-.984,38.32,38.32,0,0,0-6.02-8.473,2.2,2.2,0,0,1-.217-2.631l4.533-7.563a2.171,2.171,0,0,0-.662-3l-11.45-6.862a2.17,2.17,0,0,0-2.953.829L477.762,246a2.2,2.2,0,0,1-2.422,1.048,38.367,38.367,0,0,0-10.31-1.315,2.007,2.007,0,0,1-1.977-1.609l-1.852-8.381a2.025,2.025,0,0,0-2.556-1.532l-13.228,3.709a2.322,2.322,0,0,0-1.622,2.705L445.647,249a2.306,2.306,0,0,1-1.079,2.464,43.172,43.172,0,0,0-8.558,6.607,2.112,2.112,0,0,1-2.576.355l-7.151-4.288a2.176,2.176,0,0,0-2.955.829l-7.258,12.112a2.17,2.17,0,0,0,.662,2.994l7.153,4.288a2.114,2.114,0,0,1,.9,2.438,43.22,43.22,0,0,0-1.793,10.663,2.309,2.309,0,0,1-1.666,2.113l-8.264,2.317a2.324,2.324,0,0,0-1.622,2.705l2.964,13.414a2.027,2.027,0,0,0,2.558,1.532l8.264-2.317a2.006,2.006,0,0,1,2.35.987,38.433,38.433,0,0,0,6.02,8.47,2.2,2.2,0,0,1,.219,2.628l-4.533,7.565a2.172,2.172,0,0,0,.66,3l11.45,6.862a2.172,2.172,0,0,0,2.955-.829l4.533-7.563A2.2,2.2,0,0,1,451.3,327.3a38.364,38.364,0,0,0,10.31,1.315,2.009,2.009,0,0,1,1.977,1.607l1.85,8.385A2.031,2.031,0,0,0,468,340.139l13.228-3.711a2.326,2.326,0,0,0,1.622-2.705L481,325.34a2.308,2.308,0,0,1,1.076-2.464,43.189,43.189,0,0,0,8.56-6.607,2.115,2.115,0,0,1,2.574-.355l7.153,4.288A2.17,2.17,0,0,0,503.312,319.372Zm-53.9-9c-12.116-7.263-15.711-23.535-8.03-36.35s23.726-17.314,35.842-10.053,15.709,23.535,8.03,36.351S461.529,317.634,449.415,310.374Z" transform="translate(-336.61 -194.291)"/></g></g><g transform="translate(224.71 63.38)"><path class="m" d="M612.579,468.3H600.625s-6.515-36.473-13.265-80.4c-7.063-45.972-11.868-85.427-12.167-89.2,2.194,53.5-5.82,170.121-5.82,170.121H557.36s-4.2-35.108-13.186-117.169,3.58-103.389,3.58-103.389l43.83,4.547,17.263-.537c.818,4.709.7,9.615,2.256,14.047C622.49,298.7,612.579,468.3,612.579,468.3Z" transform="translate(-289.013 -61.011)"/><path class="n" d="M583.561,264.138a16.167,16.167,0,0,1-3.233.081,15.946,15.946,0,0,1-9.06-3.692,28.007,28.007,0,0,1-7.225-9.9l17.263-.537c.32,1.855.638,3.711.938,5.566.039.241.079.48.1.7C582.783,258.971,583.182,261.565,583.561,264.138Z" transform="translate(-261.471 -58.831)"/><path class="o" d="M580,253.579c-1.916,3.334-3.646,8.047-3.606,10a15.946,15.946,0,0,1-9.06-3.692,3.5,3.5,0,0,1,1.416-1.079c1.975-.6,5.721-8.186,5.721-8.186l5.428,2.256.419.18C580.2,253.241,580.1,253.421,580,253.579Z" transform="translate(-257.541 -58.193)"/><path class="o" d="M439.233,253.343c1.916,3.332,3.646,8.045,3.606,10a15.938,15.938,0,0,0,9.06-3.692,3.5,3.5,0,0,0-1.418-1.079c-1.975-.6-5.719-8.186-5.719-8.186l-5.428,2.256-.421.18C439.033,253,439.134,253.183,439.233,253.343Z" transform="translate(-410.646 -58.477)"/><path class="o" d="M524.248,227.119c-1.245.25-11.89.083-11.724,2.078l.167,2s-3.909,0-2,5.654,16.049-1.5,16.049-1.5Z" transform="translate(-325.698 -86.217)"/><path class="p" d="M510.433,226.917s12.721-1.331,13.221,2.078c0,0,2.578.167,2.495,5.239s-10.229,4.823-17.3,1.164Z" transform="translate(-327.265 -86.763)"/><rect class="p" width="18.235" height="22.239" transform="translate(281.677 48.681)"/><path class="m" d="M511.254,251.429l-40.623,5.844c.013.2.026.4.037.592l-24.739-5.073s-15.99,9.31,0,209.438h12.322s16.663-116.924,16.663-160.451c5.494,68.428,12.956,160.451,12.956,160.451h12.658C520.08,325.77,511.254,251.429,511.254,251.429Z" transform="translate(-410.753 -57.236)"/><path class="p" d="M489.931,183.587c1.6,12.375-1.4,27.007-13.662,27.007s-28.564-10.6-28.564-22.864c0-8.856,5.522-13.3,16.963-17.711C472.764,166.9,487.523,165.007,489.931,183.587Z" transform="translate(-400.164 -156.674)"/><rect class="p" width="16.09" height="19.832" transform="translate(55.524 45.65)"/><path class="c" d="M458.118,195.007s-28.1,32.137-31.806,54.011,28.855,73.872,28.855,73.872l6.618-3.407s-20.455-55.3-15.994-63.558,17.873-20.644,17.873-20.644S489.163,204.935,458.118,195.007Z" transform="translate(-426.018 -124.5)"/><path class="q" d="M494.041,162.844s6.252,23.7-15.334,24.072c0,0,1.366,8.981-3.126,11.226,0,0-3.234-4.864-5.857-3.119s-1.008,8.289,3.049,10.132c0,0-1.791,6.112-13.655,5.614a96.645,96.645,0,0,1-10.726-12.5c-5.231-7.3-5.739-20.769,5.612-25.2C468.338,167.48,479.718,168.671,494.041,162.844Z" transform="translate(-403.593 -162.844)"/><path class="c" d="M465.394,189.995s3.124,2.832,16.091.6c0,0,13.591,3.334,21.569,7.844,5.961,3.372,8.146,7.548,8.146,14.484,0,16.215-.829,111.748-.829,111.748s-37.615,16.761-65.324,1.363c0,0-10.426-120.291-2.521-125.4S465.394,189.995,465.394,189.995Z" transform="translate(-409.869 -130.475)"/><path class="c" d="M467.262,197.888c.866-2.981,1.44-5.415,4.246-4.091,6.6,3.113,16.351,6.886,22.9,21.909,9.635,22.108,24.447,41.888,70.248,49.55l-2.705,11.3s-35.612-4.283-51.805-13.026C493.187,254.375,455.988,236.772,467.262,197.888Z" transform="translate(-379.341 -126.384)"/><path class="r" d="M442.551,348l-.989,8.5H470.38a2.483,2.483,0,0,0,2.451-2.089h0a2.484,2.484,0,0,0-1.646-2.74l-15.762-5.412Z" transform="translate(-407.488 55.816)"/><path class="r" d="M461.78,348l-.986,8.5H489.61a2.483,2.483,0,0,0,2.451-2.089h0a2.482,2.482,0,0,0-1.644-2.74l-15.762-5.412Z" transform="translate(-384.56 55.816)"/><path class="r" d="M589.608,348.312,591.7,356.5H562.883a2.483,2.483,0,0,1-2.451-2.089h0a2.484,2.484,0,0,1,1.646-2.74l15.762-5.412Z" transform="translate(-265.812 55.816)"/><path class="r" d="M570.619,348l.987,8.5H542.79a2.482,2.482,0,0,1-2.451-2.089h0a2.482,2.482,0,0,1,1.644-2.74l15.762-5.412Z" transform="translate(-289.766 55.816)"/><path class="p" d="M590.965,193.157c0,4.139-9.113,7.14-10.6,10.47-2.983,6.673-8.516,11.156-14.85,11.156-9.5,0-15.455-8.705-16.917-21.045-1.453-12.283-.221-25.337,9.275-25.337S590.965,180.73,590.965,193.157Z" transform="translate(-280.491 -156.219)"/><path class="q" d="M545.916,163.7s-3.909,27.939,28.728,19.583c0,0,3.369,11.121,8.981,10.426,0,0,2.62-2.58,5.112-.2s2.541,8.473-3.843,10.163a24.98,24.98,0,0,1-2.633,7.311s15.372-7.212,15.082-20.51-8.107-13.611-8.107-13.611-1.164-9.593-10.809-10.542S553.317,169.269,545.916,163.7Z" transform="translate(-283.254 -161.827)"/><path class="s" d="M585.7,191.918s-8.361,10.255-18.44,4.047l-13.918,4.6s-13.179,25.063-8.813,114.867c0,0,12.908,17.969,61.091,4.016,0,0-.962-84.317,1.907-115.819C607.529,203.631,594.264,195.41,585.7,191.918Z" transform="translate(-285.789 -128.183)"/><path class="s" d="M516.059,264.985s29.439-7,40.415-20.133,17.853-41.36,22.709-44.676,12.2-5.09,12.2-5.09L581.14,249.675s-4.814,9.744-21.472,15.025-40.95,9.88-40.95,9.88Z" transform="translate(-318.675 -124.406)"/><path class="s" d="M578.168,197.261s9.4,6.355,12.642,16.489,15.937,44.611,11.882,54.706-25.026,53.112-25.026,53.112l-7.352-3.889s13.719-38.238,16.005-54.127-15.6-35.48-15.6-35.48S561.745,200.492,578.168,197.261Z" transform="translate(-256.429 -121.813)"/></g><line class="t" x2="584.813" transform="translate(61.473 475.697)"/></svg>