<svg xmlns="http://www.w3.org/2000/svg" width="532.431" height="489.911" viewBox="0 0 532.431 489.911"><defs><style>.a{fill:#ffc20e;}.b{fill:#d0cde1;}.c{fill:#3f3d56;}</style></defs><g transform="translate(9754.466 3913)"><path class="a" d="M951.606,250.291c0,28.987-6.865,52.847-18.775,73.288a146.415,146.415,0,0,1-13.344,19.163C875.706,396.29,794.308,425.6,720.74,473.072,503.581,613.2,480.058,388.657,489.866,250.291c3.956-55.831,25.7-106.972,60.241-146.13a229.286,229.286,0,0,1,23.448-23.053C612.77,47.712,663.434,27.5,720.74,27.5c98.318,0,182.279,59.3,215.569,142.866A215.809,215.809,0,0,1,951.606,250.291Z" transform="translate(-10219.822 -3940.503)"/><path class="b" d="M783.166,88.423,563.344,114.871a229.308,229.308,0,0,1,23.448-23.053Z" transform="translate(-10233.06 -3951.212)"/><path class="b" d="M984.694,385.989a146.425,146.425,0,0,1-13.344,19.163L783.054,382.5Z" transform="translate(-10271.687 -4002.913)"/><path class="b" d="M973.175,219.894,654.054,178.5l311.439,18.413A214.675,214.675,0,0,1,973.175,219.894Z" transform="translate(-10249.01 -3967.049)"/><path class="a" d="M506.674,94.582c0,.569-.017,1.129-.066,1.681A23.075,23.075,0,1,1,463.189,83.81a21.188,21.188,0,0,1,1.7-2.728,23.068,23.068,0,0,1,41.7,11.621C506.649,93.321,506.674,93.947,506.674,94.582Z" transform="translate(-10214.984 -3948.238)"/><path class="b" d="M509.135,98.977c0,.569-.016,1.129-.066,1.681L474.519,96.5l34.534.593C509.11,97.716,509.135,98.343,509.135,98.977Z" transform="translate(-10217.446 -3952.634)"/><path class="b" d="M499.18,113.615l-31.962,3.849a23.128,23.128,0,0,1-2.44-3.256Z" transform="translate(-10215.731 -3955.641)"/><path class="b" d="M489.935,82.615l-26.176,3.148a21.21,21.21,0,0,1,1.7-2.728Z" transform="translate(-10215.554 -3950.191)"/><path class="a" d="M890.98,596.4c-.267.5-.544.99-.847,1.454A23.075,23.075,0,1,1,857.619,566.5a21.212,21.212,0,0,1,2.779-1.614A23.068,23.068,0,0,1,891.788,594.7C891.55,595.275,891.278,595.84,890.98,596.4Z" transform="translate(-10283.02 -4034.558)"/><path class="b" d="M893.977,599.7c-.267.5-.544.99-.847,1.454l-28.572-19.865L894.785,598C894.546,598.578,894.274,599.143,893.977,599.7Z" transform="translate(-10286.016 -4037.861)"/><path class="b" d="M878.263,608.078,848.226,596.5a23.119,23.119,0,0,1-.629-4.019Z" transform="translate(-10283.035 -4039.826)"/><path class="b" d="M884.373,576.5l-24.6-9.49a21.209,21.209,0,0,1,2.779-1.614Z" transform="translate(-10285.174 -4035.065)"/><path class="a" d="M1090.118,119.47c.4.407.776.82,1.126,1.25a23.075,23.075,0,1,1-39.779,21.4,21.214,21.214,0,0,1-.689-3.138,23.069,23.069,0,0,1,37.97-20.8C1089.22,118.584,1089.675,119.015,1090.118,119.47Z" transform="translate(-10318.708 -3955.447)"/><path class="b" d="M1092.91,120.681c.4.407.776.82,1.126,1.25L1066.4,143.079l25.137-23.687C1092.011,119.8,1092.467,120.226,1092.91,120.681Z" transform="translate(-10321.499 -3956.657)"/><path class="b" d="M1096.091,138.039,1075.9,163.11a23.121,23.121,0,0,1-4.02-.627Z" transform="translate(-10322.462 -3959.936)"/><path class="b" d="M1068.062,123.526l-16.542,20.53a21.261,21.261,0,0,1-.689-3.139Z" transform="translate(-10318.764 -3957.384)"/><path class="c" d="M545.678,327.917l-.383-.051.934,3.549a93.287,93.287,0,0,0,3.833,14.569l27.385,104.1a17.645,17.645,0,0,0,14.366,12.948l55.847,8.64a17.644,17.644,0,0,0,18.253-9.109l53.073-99.131a93.136,93.136,0,0,0,4.54-8.48l1.8-3.366-.281-.037a93.832,93.832,0,1,0-179.369-23.636Z" transform="translate(-10229.798 -3974.552)"/><path class="b" d="M650.049,477.1a19.191,19.191,0,0,1-2.937-.226l-58.377-9.032A19.263,19.263,0,0,1,573.048,453.7L544.423,344.886a98.152,98.152,0,0,1-4.02-15.294l-.724-4.76A98.925,98.925,0,0,1,652.917,214.5l-.253,1.629a97.312,97.312,0,0,0-111.21,109.546l.556,3.561A97.516,97.516,0,0,0,546,344.4l28.644,108.879a17.613,17.613,0,0,0,14.346,12.93l58.376,9.032a17.644,17.644,0,0,0,18.226-9.1l1.454.778A19.3,19.3,0,0,1,650.049,477.1Z" transform="translate(-10228.761 -3973.173)"/><rect class="b" width="103.283" height="2.132" transform="translate(-9599.421 -3525.986) rotate(-69.885)"/><rect class="b" width="2.132" height="103.283" transform="translate(-9624.024 -3631.854) rotate(-2.516)"/><path class="c" d="M651.434,589.841l-74.8-11.572a2.132,2.132,0,1,1,.652-4.214l74.8,11.572a2.132,2.132,0,0,1-.652,4.214Z" transform="translate(-10235.078 -4036.583)"/><path class="c" d="M653.761,570.568,578.959,559a2.132,2.132,0,0,1,.652-4.214l74.8,11.572a2.132,2.132,0,1,1-.652,4.214Z" transform="translate(-10235.489 -4033.196)"/><path class="c" d="M656.089,551.295l-74.8-11.572a2.132,2.132,0,1,1,.652-4.214l74.8,11.572a2.132,2.132,0,1,1-.652,4.214Z" transform="translate(-10235.898 -4029.808)"/><path class="c" d="M614.422,599.6c14.837,2.3,28.144-4.113,29.723-14.314l-53.731-8.312C588.835,587.177,599.584,597.307,614.422,599.6Z" transform="translate(-10237.794 -4037.102)"/><path class="b" d="M645.58,351.522c-3.192-.493-5.832-3.016-7.28-4.707-.475-.554-.937-1.129-1.4-1.706-1.686-2.1-3.278-4.08-5.495-5.114-4.893-2.283-10.659.906-15.65,4.327l-1.206-1.758c5.488-3.763,11.888-7.238,17.758-4.5,2.666,1.244,4.491,3.515,6.255,5.711.449.559.9,1.117,1.358,1.655,1.505,1.758,4.507,4.606,7.724,3.949a10.381,10.381,0,0,0,3.7-1.961,19.865,19.865,0,0,1,2.622-1.654,10.442,10.442,0,0,1,11.462,1.62,20.626,20.626,0,0,1,1.556,1.645,7.553,7.553,0,0,0,3.043,2.5c1.743.557,3.584-.439,5.536-1.491,2.013-1.086,4.093-2.21,6.453-1.932.077.009.154.02.23.031,4.2.65,6.136,5.294,7.232,8.761l-2.033.642c-1.489-4.712-3.3-7.055-5.678-7.316-1.691-.2-3.391.719-5.191,1.69-2.256,1.218-4.592,2.478-7.2,1.647a9.22,9.22,0,0,1-4-3.125,18.814,18.814,0,0,0-1.392-1.478,8.378,8.378,0,0,0-9.076-1.283,18,18,0,0,0-2.338,1.485,12.115,12.115,0,0,1-4.508,2.31A7.012,7.012,0,0,1,645.58,351.522Z" transform="translate(-10242.063 -3994.927)"/></g></svg>