<svg xmlns="http://www.w3.org/2000/svg" width="371.215" height="371.214" viewBox="0 0 371.215 371.214"><defs><style>.a{fill:#ffc20e;}.b{fill:#1553a5;}.c{opacity:0.3;}.d{opacity:0.1;}.e{fill:#f2f2f2;}</style></defs><g transform="matrix(0.921, 0.391, -0.391, 0.921, -11953.539, -5395.78)"><path class="a" d="M256.971,396.068A141.543,141.543,0,1,1,357.057,354.61,141.543,141.543,0,0,1,256.971,396.068Zm0-282.006c-77.451,0-140.462,63.011-140.462,140.462S179.52,394.987,256.971,394.987s140.462-63.011,140.462-140.463S334.422,114.062,256.971,114.062Z" transform="translate(13098 140.034)"/><path class="b" d="M301.535,248.505l-.016.008-69.762,38.846-76.391-38.2-1.316-.658,3.965-79.293L227,120.05l.761.476,71.4,44.721Z" transform="translate(13127.179 190.854)"/><path class="c" d="M302.933,336.215,233.17,375.061l-76.391-38.2,67.669-47.441Z" transform="translate(13125.766 103.152)"/><path class="d" d="M375.613,249.016l-78.5-46.783,4.726-81.2,71.4,44.721Z" transform="translate(13053.102 190.343)"/><path class="e" d="M159.749,219.285l-.388-.549L229.116,169.5,302.8,215.7l-.357.569-73.308-45.962Z" transform="translate(13124.429 165.248)"/><path class="e" d="M156.956,277.417l-.377-.555,69.4-47.118.182.1L301.425,272.5l-.332.584-75.081-42.553Z" transform="translate(13125.869 134.055)"/><path class="e" d="M211.9,279.592l-.354-.571,69.945-43.341V152.594h.672v83.461Z" transform="translate(13097.409 174.002)"/><path class="e" d="M268.826,310.034l-.357-.569,67.349-42.242V184.879h.672v82.716Z" transform="translate(13067.933 157.285)"/><path class="e" d="M323.5,281.509l-78.327-43.52.011-.209,4.123-81.5.671.034-4.113,81.29,77.961,43.317Z" transform="translate(13079.994 172.093)"/><path class="e" d="M273.342,313.083,195.9,272.5l.012-.216,4.565-81.54.671.038L196.59,272.1l77.064,40.384Z" transform="translate(13105.512 154.249)"/><circle class="a" cx="27.012" cy="27.012" r="27.012" transform="translate(13414.938 256.797)"/></g></svg>