<svg xmlns="http://www.w3.org/2000/svg" xmlns:xlink="http://www.w3.org/1999/xlink" width="282.509" height="54.732" viewBox="0 0 282.509 54.732"><defs><style>.a,.b{fill:none;}.b{clip-rule:evenodd;}.c{clip-path:url(#a);}.d{fill:#0068a5;}.e{clip-path:url(#b);}.f{fill:#1e82b8;}.g{clip-path:url(#c);}.h{fill:#005790;}.i{clip-path:url(#d);}.j{fill:#1553a5;}.k{clip-path:url(#e);}.l{fill:#121212;}.m{clip-path:url(#f);}.n{clip-path:url(#h);}</style><clipPath id="a"><path class="a" d="M23.4,41.759c0-.118,0-.224,0-.324q.058-6.159.119-12.318l.082-8.435c0-.239,0-.481-.006-.715s0-.454,0-.668c0-.116,0-.231,0-.346,0-3.138-.5-4.019-3.171-5.543C15.816,10.777,1.015,2.222.654,2.009L0,1.624l.612-.448A5.988,5.988,0,0,1,4.11,0,4.978,4.978,0,0,1,6.284.484C7.976,1.3,17.8,6.994,22.524,9.732c.945.548,1.651.957,1.992,1.154a6.608,6.608,0,0,1,2.511,2.368,6.317,6.317,0,0,1,.813,3.305c0,.12,0,12.129-.194,19.824a7.02,7.02,0,0,1-.809,3.408A6.173,6.173,0,0,1,24.122,42.2l-.71.358Z"/></clipPath><clipPath id="b"><path class="a" d="M23.4,41.76c0-.118,0-.224,0-.324q.058-6.159.119-12.318l.082-8.435c0-.239,0-.481-.007-.715s0-.454,0-.668c0-.116,0-.231,0-.346,0-3.138-.5-4.019-3.171-5.544C15.8,10.769,1.012,2.221.653,2.01L0,1.625l.612-.448A5.993,5.993,0,0,1,4.087,0h.046a4.973,4.973,0,0,1,2.15.484C7.976,1.3,17.8,6.994,22.522,9.732c.946.548,1.652.958,1.994,1.154a6.609,6.609,0,0,1,2.511,2.368,6.317,6.317,0,0,1,.813,3.305c0,.12,0,12.129-.194,19.824a7.017,7.017,0,0,1-.809,3.408A6.176,6.176,0,0,1,24.122,42.2l-.711.358Z"/></clipPath><clipPath id="c"><path class="b" d="M223.282,512.367a6.694,6.694,0,0,0-1.108-3.806c-.834-1.135-3.344-2.667-5.3-3.753l-.108-.06-.668-.38c-8.433-4.8-13.321-7.522-14.528-8.1a4.873,4.873,0,0,0-2.128-.484,5.6,5.6,0,0,0-3.339,1.155l-.632.469.694.371.136.073.006,0c.335.179.682.365,1.069.588,5.62,3.244,18.018,10.3,18.143,10.37a7,7,0,0,1,2.718,2.631,12.007,12.007,0,0,1,.656,4.451c-.141,5.559-.412,16.156-.429,16.457-.036.6-.062.686-.228.781a.355.355,0,0,1-.353,0l-.014-.008-.014-.007c-2.165-1.068-11.141-5.867-11.724-6.3l-.011-.008-.012-.008a2.881,2.881,0,0,1-1.612-2.932c0-.255,0-8.1,0-8.178v-.885l-.757.457a6.181,6.181,0,0,0-1.659,1.424,6.045,6.045,0,0,0-.878,3.725c0,.02,0,.072,0,.149-.025,1.909-.024,3.2,0,3.825v0a8.8,8.8,0,0,0,.258,2.677,5.571,5.571,0,0,0,1.128,1.766c.55.581,4.063,2.759,10.441,6.471l.348.2c.927.549,1.881,1.113,2.839,1.616a5.838,5.838,0,0,0,2.686.782,3.569,3.569,0,0,0,1.289-.238,4.666,4.666,0,0,0,1.863-1.336,5.292,5.292,0,0,0,.875-3.256c.182-3.679.222-7.424.262-11.046q.011-.973.022-1.945l0-.162.075-6.206c.005-.43.009-.889-.008-1.349" transform="translate(-195.468 -495.783)"/></clipPath><clipPath id="d"><path class="a" d="M0,3.891v-.65L24.471,0a3.892,3.892,0,0,1-3.844,3.891Z"/></clipPath><clipPath id="e"><path class="a" d="M10.567,26.682C3.751,26.682,0,22.35,0,15.8V10.567C0,3.434,4.016,0,10.884,0H26.207V26.682Zm-6.552-15.8V15.8c0,3.434.951,6.869,6.869,6.869h10.99V4.016H10.884C7.45,4.016,4.016,4.65,4.016,10.884Z"/></clipPath><clipPath id="f"><path class="a" d="M28.531,26.471V10.937c0-6.023-3.434-6.816-6.658-6.816H17.753v22.35H13.684V4.121H4.068v22.35H0V0H21.874C28.479,0,32.6,3.593,32.6,10.673v15.8Z"/></clipPath><clipPath id="h"><path class="a" d="M10.32,26.762A16.164,16.164,0,0,1,7.8,26.512a11.226,11.226,0,0,1-2.069-.593,9.092,9.092,0,0,1-1.751-.924,8.241,8.241,0,0,1-1.433-1.237,8.475,8.475,0,0,1-1.114-1.532,9.823,9.823,0,0,1-.8-1.81,12.311,12.311,0,0,1-.477-2.069A16.077,16.077,0,0,1,0,16.047V13.872H4.068v2.175c0,3.223.793,6.657,6.816,6.657h.471c6.023,0,6.816-3.434,6.816-6.657V4.123H10.82V0H22.239V16.047q0,.4-.018.8a14.634,14.634,0,0,1-.271,2.255,11.286,11.286,0,0,1-.6,2,9.208,9.208,0,0,1-.922,1.729,8.254,8.254,0,0,1-1.248,1.438,8.42,8.42,0,0,1-1.573,1.13,9.76,9.76,0,0,1-1.9.8,12.48,12.48,0,0,1-2.222.458,19.515,19.515,0,0,1-2.263.12Q10.774,26.777,10.32,26.762Z"/></clipPath></defs><g transform="translate(-69.871 -38.634)"><g transform="translate(9.87 5.634)"><g transform="translate(70.741 39.205)"><g class="c" transform="translate(0 0)"><rect class="d" width="30.27" height="44.986" transform="translate(-1.215 -1.215)"/></g></g><g transform="translate(81.401 33)"><g class="e" transform="translate(0 0)"><rect class="f" width="30.27" height="44.986" transform="translate(-1.215 -1.215)"/></g></g><g transform="translate(60.001 45.61)"><g class="g" transform="translate(0 0)"><rect class="a" width="194.198" height="58.332" transform="translate(0 -12.61)"/><rect class="h" width="30.257" height="44.553" transform="translate(-1.215 -1.215)"/></g></g></g><g transform="translate(19 11)"><g transform="translate(-135.148 -208.224)"><g transform="translate(348.38 241.224)"><g class="i" transform="translate(0 0)"><rect class="j" width="26.695" height="6.114" transform="translate(-1.112 -1.112)"/></g></g><g transform="translate(277.761 249.41)"><g class="k" transform="translate(0 0)"><rect class="l" width="28.43" height="28.905" transform="translate(-1.112 -1.112)"/></g></g><g transform="translate(309.252 249.357)"><g class="m" transform="translate(0 0)"><rect class="l" width="34.823" height="28.694" transform="translate(-1.112 -1.112)"/></g></g><g transform="translate(346.607 249.41)"><g class="k" transform="translate(0 0)"><rect class="l" width="28.43" height="28.905" transform="translate(-1.112 -1.112)"/></g></g><g transform="translate(251.148 249.303)"><g class="n"><rect class="l" width="24.463" height="29" transform="translate(-1.112 -1.112)"/></g></g></g><path class="j" d="M33.09-18.21v.48a16.467,16.467,0,0,1-1.83,6.9,27.593,27.593,0,0,1-4.5,6.81,14.735,14.735,0,0,1-3.375,2.7A7.639,7.639,0,0,1,19.47-.18q-3.72,0-3.72-5.58a24.56,24.56,0,0,1,.54-4.74,37.461,37.461,0,0,1-4.65,7.38Q8.82.12,5.73.12A2.949,2.949,0,0,1,3.4-.93,5.055,5.055,0,0,1,2.49-4.29a18.085,18.085,0,0,1,2.145-7.485,22.249,22.249,0,0,1,5.115-7.1,3.919,3.919,0,0,1,1.35-.81q-1.14.24-3.51.495t-3.15.435a3.629,3.629,0,0,0-3.21,3.84A2.936,2.936,0,0,1,.3-16.98q0-3.96,7.62-3.96h6.15q.06,0,.06.1t-.375.525a3.517,3.517,0,0,1-.7.63,11.174,11.174,0,0,0-2.97,3.24,31.433,31.433,0,0,0-3.06,5.835A16.221,16.221,0,0,0,5.64-4.56q0,2.67,1.89,2.67,2.13,0,6.66-6.72a28.176,28.176,0,0,0,2.13-4.215q1.2-2.8,1.68-3.72a5.954,5.954,0,0,1,1.725-1.86,3.9,3.9,0,0,1,2.28-.945q1.035,0,1.035.3a25.049,25.049,0,0,0-3,5.85,19.742,19.742,0,0,0-1.41,7.05q0,4.11,2.43,4.26a4.418,4.418,0,0,0,3.075-1.5,14.056,14.056,0,0,0,2.55-3.465A36.2,36.2,0,0,0,28.62-11.28a20.074,20.074,0,0,0,1.53-6.54q0-2.43-1.59-2.43a3.309,3.309,0,0,0-1.08.21,1.171,1.171,0,0,1,.735-.885,3.9,3.9,0,0,1,1.77-.345,3.239,3.239,0,0,1,2.055.765A3,3,0,0,1,33.09-18.21ZM43.08-7.8q.18,0,.18.585a2.863,2.863,0,0,1-.48,1.395q-.48.81-.945,1.53A19.691,19.691,0,0,1,40.59-2.61a9.185,9.185,0,0,1-1.53,1.53A6.406,6.406,0,0,1,35.265.3,4.646,4.646,0,0,1,32.19-.675,3.665,3.665,0,0,1,31.02-3.66a8.516,8.516,0,0,1,2.25-5.67,6.759,6.759,0,0,1,5.25-2.61,3.174,3.174,0,0,1,2.16.7,2.173,2.173,0,0,1,.81,1.7,3.089,3.089,0,0,1-1.59,2.7,6.793,6.793,0,0,1-3.75,1.02,4.011,4.011,0,0,1-1.86-.33,7.881,7.881,0,0,0-.57,2.7q0,2.52,2.13,2.52a4.423,4.423,0,0,0,2.6-.975,11.326,11.326,0,0,0,2.28-2.19A24.393,24.393,0,0,0,42.87-7.59Q42.99-7.8,43.08-7.8ZM39.9-10.17a.756.756,0,0,0-.84-.87A3.982,3.982,0,0,0,36.45-9.6a3.935,3.935,0,0,0-1.44,2.34q0,.6,1.14.6a3.678,3.678,0,0,0,2.385-1.11A3.689,3.689,0,0,0,39.9-10.17ZM54.09-12l1.5.03h.3a12.271,12.271,0,0,0-2.43,4.095A13.907,13.907,0,0,0,52.02-3.09q0,.78.54.78,1.74,0,4.44-5.13.12-.21.21-.21.18,0,.18.555a2.071,2.071,0,0,1-.3,1.065Q53.4.18,50.91.18q-1.62,0-1.62-2.49a11.007,11.007,0,0,1,.63-3.66Q46.5.09,43.59.09q-2.01,0-2.01-2.76A10.864,10.864,0,0,1,42.5-6.93a10.108,10.108,0,0,1,2.625-3.675,5.537,5.537,0,0,1,3.75-1.515,3.858,3.858,0,0,1,1.8.435,2.152,2.152,0,0,1,1.11,1.395,3.219,3.219,0,0,1,1.02-1.2A2.216,2.216,0,0,1,54.09-12ZM51.6-10.02a1.319,1.319,0,0,0-1.41-.96q-1.98,0-3.84,2.745A9.061,9.061,0,0,0,44.49-3.33q0,.93.72.93a2.945,2.945,0,0,0,1.83-.975,11.629,11.629,0,0,0,1.89-2.3Q50.79-8.61,51.6-10.02ZM67.38-18.3a28.235,28.235,0,0,1-3.3,4.965A44.893,44.893,0,0,1,60.09-8.88L59.61-7.5a23.681,23.681,0,0,0-.69,2.55,9.429,9.429,0,0,0-.3,2.13q0,.9.66.9a2.688,2.688,0,0,0,1.575-.75,8.317,8.317,0,0,0,1.335-1.3q.42-.555.975-1.455t.96-1.56a2.646,2.646,0,0,1,.465-.66q.18,0,.18.555a2.071,2.071,0,0,1-.3,1.065A26.936,26.936,0,0,1,61.8-2.1,5.854,5.854,0,0,1,57.54.18q-1.68,0-1.68-2.28,0-2.25,2.01-7.86.15-.48.69-2.01t.93-2.385q.39-.855,1.05-2.265a13.718,13.718,0,0,1,1.275-2.25q.615-.84,1.365-1.71a4.181,4.181,0,0,1,3.18-1.74q1.71,0,1.71,1.56A5.105,5.105,0,0,1,67.38-18.3Zm-.63-3.27h-.21q-1.83,0-5.85,10.98a41.094,41.094,0,0,0,5.61-7.92,8.385,8.385,0,0,0,.84-2.475Q67.14-21.57,66.75-21.57Zm5.94,4.38q-1.47,1.02-3.3,5.22h3.03l.03.03q0,.15-.33.525t-.57.375H68.97Q66.6-5.16,66.6-3.48q0,1.14.72,1.14,1.05,0,2.46-1.8a9.944,9.944,0,0,0,.87-1.32q1.38-2.22,1.44-2.22.18,0,.18.48-.03,1.14-2.49,4.44A11.526,11.526,0,0,1,67.83-.75a3.422,3.422,0,0,1-2.07.93q-1.71,0-1.71-2.4a13.622,13.622,0,0,1,.96-4.62v-.03a11.333,11.333,0,0,1-.975,1.56q-.405.51-.465.51-.12,0-.12-.375a3.32,3.32,0,0,1,.4-1.215q.405-.84,1.11-2.19t1.155-2.46H64.11q-.09,0-.09-.135a1.072,1.072,0,0,1,.225-.465q.225-.33.345-.33h2.28q2.16-5.19,4.38-5.19Q72.54-17.16,72.69-17.19ZM85.08-6.03Q81.39.18,78.84.18q-1.77,0-1.77-2.04a18.807,18.807,0,0,1,1.89-6.75,5.353,5.353,0,0,0,.42-1.53q0-.6-.54-.6a3.351,3.351,0,0,0-1.215.42A5.9,5.9,0,0,0,75.99-9.09a7.394,7.394,0,0,0-1.305,1.875q-.525,1.065-.84,1.845T73.2-3.465q-.33,1.125-.585,1.83T72.09,0H69.18q.81-2.07,2.325-6.615t2.6-7.14a37.766,37.766,0,0,1,2.115-4.38,12.192,12.192,0,0,1,2.37-2.985,4.173,4.173,0,0,1,2.82-1.2q1.485,0,1.485,1.41a6.289,6.289,0,0,1-.81,2.61,38.41,38.41,0,0,1-5.82,7.92,12.441,12.441,0,0,1,2.565-1.53,5.092,5.092,0,0,1,1.815-.36q1.71,0,1.71,1.5a2.887,2.887,0,0,1-.21,1.11q-.21.51-.465,1.17t-.42,1.08q-.165.42-.435,1.14T80.4-5.04a7.229,7.229,0,0,0-.39,2.01q0,.75.51.75,1.8,0,4.5-5.22.09-.21.225-.21t.135.555A2.4,2.4,0,0,1,85.08-6.03ZM81.45-21.57q-1.05,0-2.745,3.33a75.007,75.007,0,0,0-3.315,7.65A41.094,41.094,0,0,0,81-18.51a8.385,8.385,0,0,0,.84-2.475Q81.84-21.57,81.45-21.57Z" transform="translate(248 68)"/></g></g></svg>