<?xml version="1.0" encoding="utf-8"?>
<!-- Generator: Adobe Illustrator 23.0.2, SVG Export Plug-In . SVG Version: 6.00 Build 0)  -->
<svg version="1.1" id="Layer_1" xmlns="http://www.w3.org/2000/svg" xmlns:xlink="http://www.w3.org/1999/xlink" x="0px" y="0px"
	 viewBox="0 0 323 274.1" style="enable-background:new 0 0 323 274.1;" xml:space="preserve">
<style type="text/css">
	.st0{fill:none;}
	.st1{fill:#FFC20E;}
	.st2{fill:#1553A5;}
	.st3{opacity:0.3;enable-background:new    ;}
	.st4{opacity:0.1;enable-background:new    ;}
	.st5{fill:#F2F2F2;}
</style>
<rect class="st0" width="323" height="274.1"/>
<g transform="matrix(0.921, 0.391, -0.391, 0.921, -11953.539, -5395.78)">
	<path class="st1" d="M13302.5,495.7c-74.9,0-135.7-60.7-135.7-135.7c0-74.9,60.7-135.7,135.7-135.7s135.7,60.7,135.7,135.7
		c0,36-14.3,70.5-39.7,95.9C13373,481.4,13338.5,495.7,13302.5,495.7z M13302.5,225.4c-74.2,0-134.6,60.4-134.6,134.6
		s60.4,134.6,134.6,134.6s134.6-60.4,134.6-134.6S13376.7,225.4,13302.5,225.4L13302.5,225.4z"/>
	<path class="st2" d="M13373.2,403L13373.2,403l-66.9,37.2l-73.2-36.6l-1.3-0.6l3.8-76l66.1-47.1l0.7,0.5l68.4,42.9L13373.2,403z"/>
	<path class="st3" d="M13373.2,403l-66.9,37.2l-73.2-36.6l64.9-45.5L13373.2,403z"/>
	<path class="st4" d="M13373.2,403l-75.3-44.8l4.5-77.8l68.4,42.9L13373.2,403z"/>
	<path class="st5" d="M13234.6,350.4l-0.4-0.5l66.9-47.2l70.6,44.3l-0.3,0.5l-70.3-44.1L13234.6,350.4z"/>
	<path class="st5" d="M13233.3,376.2l-0.4-0.5l66.5-45.2l0.2,0.1l72.1,40.9l-0.3,0.6l-72-40.8L13233.3,376.2z"/>
	<path class="st5" d="M13258.7,416.6l-0.3-0.5l67-41.5v-79.6h0.6v80L13258.7,416.6z"/>
	<path class="st5" d="M13285,429.8l-0.3-0.5l64.6-40.5v-78.9h0.6v79.3L13285,429.8z"/>
	<path class="st5" d="M13349,416.6l-75.1-41.7l0-0.2l4-78.1l0.6,0l-3.9,77.9l74.7,41.5L13349,416.6z"/>
	<path class="st5" d="M13325.4,429.8l-74.2-38.9l0-0.2l4.4-78.2l0.6,0l-4.4,78l73.9,38.7L13325.4,429.8z"/>
	<circle class="st1" cx="13385.9" cy="253.9" r="25.9"/>
</g>
</svg>
