<svg xmlns="http://www.w3.org/2000/svg" width="56.081" height="60.7" viewBox="0 0 56.081 60.7"><defs><style>.a{fill:#121212;stroke:#fff;stroke-width:0.7px;}</style></defs><g transform="translate(-19.376 0.35)"><path class="a" d="M69.129,79.979,46.914,88.865V64.938A.938.938,0,0,0,45.976,64,26.252,26.252,0,1,0,70.348,80.5.937.937,0,0,0,69.129,79.979ZM45.039,87.473,31.966,70.315a24.234,24.234,0,0,1,13.073-4.422v21.58Zm.938,27.152a24.365,24.365,0,0,1-15.5-43.172L45.23,90.818c.008.01.017.019.025.029l.035.041c.015.016.03.03.045.045l.035.032c.018.016.037.03.057.044l.023.018.009.005c.022.014.044.027.067.039l.03.017c.023.012.048.022.072.031l.031.013c.026.009.052.017.079.023l.028.008a.932.932,0,0,0,.107.018l.043,0c.02,0,.041,0,.061,0h0a.932.932,0,0,0,.134-.011l.037-.007a.906.906,0,0,0,.1-.023l.046-.015.031-.01,22.615-9.046a24.375,24.375,0,0,1-22.963,32.551Z" transform="translate(0 -56.5)"/><path class="a" d="M301.035,16.5a26.238,26.238,0,0,0-9.492-11.875c-.2-.137-.4-.27-.6-.4l-.027-.017A26.08,26.08,0,0,0,276.664,0a.938.938,0,0,0-.937.938v3.75h0V9.375h0v4.687h0V18.75h0v4.687h0V26.25a.938.938,0,0,0,1.286.87l2.632-1.053h.014a.935.935,0,0,0,.657-.269l7.634-3.053.01,0,7.8-3.121.008,0,4.744-1.9a.937.937,0,0,0,.522-1.219Zm-9.542,2.807,5.892-5.892q.392.633.744,1.291l-3.243,3.243Zm-7.813,3.125L295.425,10.69c.309.372.6.755.891,1.145l-9.241,9.241ZM291.7,7.073l-14.1,14.1V19.138L290.532,6.207Q291.132,6.624,291.7,7.073Zm-14.1-2,2.9-2.9q.859.136,1.7.332l-4.6,4.6Zm0,4.688,6.676-6.676q.754.248,1.491.545L277.6,11.8Zm0,4.687,9.992-9.992q.669.337,1.32.716L277.6,16.487V14.451Zm.507-12.533-.507.506V1.893C277.77,1.9,277.939,1.908,278.108,1.918ZM277.6,23.826,293.138,8.289q.532.487,1.031,1.005L279.262,24.2l-1.661.664Z" transform="translate(-226)"/></g></svg>