<svg xmlns="http://www.w3.org/2000/svg" xmlns:xlink="http://www.w3.org/1999/xlink" width="699.528" height="585" viewBox="0 0 699.528 585"><defs><style>.a,.b{fill:#ffc20e;}.a,.c,.o{opacity:0.1;}.d{fill:#ffd037;}.e{fill:#a8a8a8;}.f,.q{opacity:0.2;}.g{opacity:0.03;}.h,.q{fill:#fff;}.h,.r{opacity:0.15;}.i{fill:url(#a);}.j{fill:#53517c;}.k{fill:#b3d7f7;}.l{fill:#c37871;}.m{fill:#e6eaed;}.n{fill:#4b3e3c;}.p{opacity:0.25;}.s{fill:#3acc6c;}.t{fill:#ff748e;}.u{fill:#5e5a6b;}</style><linearGradient id="a" x1="0.5" y1="1" x2="0.5" gradientUnits="objectBoundingBox"><stop offset="0" stop-color="gray" stop-opacity="0.251"/><stop offset="0.54" stop-color="gray" stop-opacity="0.122"/><stop offset="1" stop-color="gray" stop-opacity="0.102"/></linearGradient></defs><g transform="translate(0 -0.01)"><path class="a" d="M335.225,53.359c21.513-19.172,55.293-23.065,86.033-21.555,96.566,4.8,183.731,51.414,259.125,104.142,27.294,19.088,54.168,39.658,71.886,65.945,36.065,53.518,25.372,127.648-24.784,171.73-17.061,15-37.743,26.5-58.984,36.694-37.743,18.124-78.5,32.669-121.35,36.813-30.565,2.949-61.507.552-91.883-3.572-84.879-11.512-168.2-36.967-238.031-80.518-30.628-19.1-59.5-42.845-72.124-73.745s-4.543-70.062,26.728-88.353c12.937-7.563,28.4-10.98,43.544-14.188,22.289-4.725,44.935-9.38,65.043-18.976,20.773-9.918,45.375-29.1,41.238-51.023C317.276,93.192,313.733,72.51,335.225,53.359Z" transform="translate(-111.571 -31.5)"/><ellipse class="a" cx="23.359" cy="3.949" rx="23.359" ry="3.949" transform="translate(652.811 577.112)"/><ellipse class="a" cx="103.947" cy="18.403" rx="103.947" ry="18.403" transform="translate(171.045 513.969)"/><ellipse class="a" cx="52.833" cy="11.637" rx="52.833" ry="11.637" transform="translate(501.295 517.094)"/><path class="b" d="M1068.82,791.49s4.292,5.591-1.978,14.077-11.435,15.621-9.345,20.9c0,0,9.457-15.726,17.152-15.95S1077.277,800.933,1068.82,791.49Z" transform="translate(-387.827 -260.299)"/><path class="c" d="M1068.924,791.49a7.006,7.006,0,0,1,.881,1.761c7.506,8.828,11.511,17.061,4.292,17.264-6.724.2-14.8,12.224-16.726,15.258a5.71,5.71,0,0,0,.23.7s9.457-15.726,17.152-15.95S1077.381,800.933,1068.924,791.49Z" transform="translate(-387.931 -260.299)"/><path class="d" d="M1084.883,801.176c0,1.978-.224,3.572-.5,3.572s-.5-1.594-.5-3.572.28-1.041.552-1.041S1084.883,799.2,1084.883,801.176Z" transform="translate(-395.915 -262.834)"/><path class="d" d="M1087.772,804.509c-1.733.944-3.25,1.517-3.376,1.279s1.167-1.2,2.9-2.146,1.049-.259,1.181,0S1089.505,803.565,1087.772,804.509Z" transform="translate(-396.065 -263.812)"/><path class="b" d="M1037.344,791.49s-4.292,5.591,1.978,14.077,11.442,15.621,9.352,20.9c0,0-9.464-15.726-17.159-15.95S1028.873,800.933,1037.344,791.49Z" transform="translate(-379.004 -260.299)"/><path class="c" d="M1037.344,791.49a6.878,6.878,0,0,0-.874,1.761c-7.514,8.828-11.519,17.061-4.3,17.264,6.731.2,14.8,12.224,16.726,15.258-.063.238-.14.468-.224.7,0,0-9.464-15.726-17.159-15.95S1028.873,800.933,1037.344,791.49Z" transform="translate(-379.004 -260.299)"/><path class="d" d="M1030.08,801.176c0,1.978.224,3.572.5,3.572s.5-1.594.5-3.572-.28-1.041-.552-1.041S1030.08,799.2,1030.08,801.176Z" transform="translate(-379.715 -262.834)"/><path class="d" d="M1025.717,804.509c1.733.944,3.243,1.517,3.376,1.279s-1.174-1.2-2.908-2.146-1.048-.259-1.174,0S1023.983,803.565,1025.717,804.509Z" transform="translate(-378.085 -263.812)"/><path class="e" d="M1032,837.689s11.987-.37,15.6-2.943,18.452-5.647,19.347-1.517,18.019,20.528,4.48,20.633-31.452-2.1-35.066-4.306S1032,837.689,1032,837.689Z" transform="translate(-380.293 -272.257)"/><path class="f" d="M1071.718,855.215c-13.538.1-31.452-2.1-35.066-4.306-2.747-1.677-3.844-7.688-4.194-10.449h-.4s.755,9.673,4.362,11.882,21.528,4.417,35.066,4.305c3.907,0,5.256-1.4,5.186-3.495C1076.114,854.411,1074.653,855.187,1071.718,855.215Z" transform="translate(-380.311 -275.042)"/><ellipse class="a" cx="23.359" cy="3.949" rx="23.359" ry="3.949" transform="translate(0 547.756)"/><path class="e" d="M110.55,791.485s13.329-.412,17.341-3.271,20.5-6.291,21.5-1.684,20.025,22.806,4.983,22.932-34.947-2.349-38.966-4.788S110.55,791.485,110.55,791.485Z" transform="translate(-102.883 -258.127)"/><path class="f" d="M154.639,810.937c-15.048.119-34.947-2.341-38.966-4.788-3.054-1.859-4.271-8.527-4.676-11.609h-.447s.846,10.75,4.893,13.189,23.918,4.893,38.966,4.788c4.34,0,5.843-1.587,5.759-3.872C159.525,810.063,157.868,810.937,154.639,810.937Z" transform="translate(-102.883 -261.217)"/><ellipse class="b" cx="25.448" cy="4.305" rx="25.448" ry="4.305" transform="translate(83.796 562.21)"/><path class="b" d="M260.774,826.946a7.409,7.409,0,0,0,2.432-3.662,3.267,3.267,0,0,0-1.7-3.732c-1.559-.594-3.222.489-4.48,1.58s-2.712,2.334-4.361,2.1a6.647,6.647,0,0,0,2.055-6.214,2.565,2.565,0,0,0-.573-1.258c-.867-.93-2.432-.531-3.495.2-3.292,2.32-4.194,6.787-4.229,10.813a21.039,21.039,0,0,1-.063-4.452c-.014-1.489-.412-3.138-1.67-3.942a5.052,5.052,0,0,0-2.551-.6c-1.475-.049-3.124.1-4.138,1.181-1.251,1.342-.93,3.6.161,5.081a15.907,15.907,0,0,0,4.285,3.425,9.485,9.485,0,0,1,3.061,2.922,3.292,3.292,0,0,1,.231.524h9.275A25.8,25.8,0,0,0,260.774,826.946Z" transform="translate(-141.01 -267.441)"/><path class="b" d="M410.625,468.989l-4.305-1.279.2,3.131,9.638,3.683-1.747-5.186Z" transform="translate(-122.326 -140.805)"/><path class="g" d="M410.625,468.989l-4.305-1.279.2,3.131,9.638,3.683-1.747-5.186Z" transform="translate(-122.326 -140.805)"/><path class="b" d="M647.387,640.427A198.143,198.143,0,0,0,704.553,500.9V499.22H506.18Z" transform="translate(-221.99 -172.308)"/><path class="g" d="M647.387,640.427A198.143,198.143,0,0,0,704.553,500.9V499.22H506.18Z" transform="translate(-221.99 -172.308)"/><path class="b" d="M647.387,644.9a198.143,198.143,0,0,0,57.166-139.523V503.69H506.18Z" transform="translate(-221.99 -173.654)"/><path class="h" d="M647.387,644.9a198.143,198.143,0,0,0,57.166-139.523V503.69H506.18Z" transform="translate(-221.99 -173.654)"/><path class="i" d="M873.788,385.363l-3.062-27.629s-5.542-24.875-6.332-37.31-6.78-13.343-6.828-13.343h0s-7.388-4.319-8.045-5.759c-.51-1.1-4.613-3.453-6.472-4.487l-.909-.482s-2.306-9.61-5.053-8.234l-.224-.65a24.052,24.052,0,0,1-1.293-6.409c0-.273,0-.538,0-.8a23.457,23.457,0,0,0,6.291-10.715,23.17,23.17,0,0,0,.7-4.375v-.832c1.349-.944,1.573-2.943,1.929-4.613.657-3.061,2.376-5.8,3.194-8.821.07-.259.126-.524.175-.8v-.175a10.337,10.337,0,0,0,.161-1.677v-.119c0-2.279-.7-4.515-2.586-5.731a5.594,5.594,0,0,1-1.2-.839,3.6,3.6,0,0,1-.615-1.111l-1.4-3.327a3.445,3.445,0,0,0-.7-1.181,5.067,5.067,0,0,0-1.866-.888c-2.1-.8-3.495-2.754-4.522-4.7a21.28,21.28,0,0,0-3.572-5.592c-2.6-2.481-6.458-3.005-10.037-3.4a10.827,10.827,0,0,0-.251,3.418c-5.682-1.244-11.882-2.439-17.117.07a3.963,3.963,0,0,0-2.1,2.027h0a2.846,2.846,0,0,0-.084.328h0a2.173,2.173,0,0,0,0,.426,3.844,3.844,0,0,1,.091.93,1.4,1.4,0,0,1-.874.937c-1.719.762-3.8-.224-5.592.384-1.642.559-2.551,2.286-3.061,3.935s-.839,3.418-1.95,4.739c-.559.7-1.293,1.167-1.873,1.817a5.591,5.591,0,0,0-1.321,4.445.747.747,0,0,0,0,.126,2.522,2.522,0,0,0,.133.629,5.67,5.67,0,0,0,.266.7c.1.2.2.4.315.594h0c.783,1.321,1.95,2.467,2.244,3.963v.056c.342,1.922-.881,3.753-1.188,5.668h0c0,.154-.042.3-.049.454v.517c.1,2.8,2.67,4.648,4.194,6.7a12.59,12.59,0,0,0,1.971,2.726c.042.3.091.594.154.881a22.806,22.806,0,0,0,2.279,6.5,23.764,23.764,0,0,0,12.21,10.924c0,.273.056.552.084.832,0,.517.07,1.048.07,1.566v.755l-.231-1.775a6.871,6.871,0,0,0-2.628-.035,201.526,201.526,0,0,0-138.237-54.9v96.517c-5.773-1.733-10.484-1.929-10.135,2.153.322,4.194,4.892,8.443,10.135,11.959V433.96H769.792c.1,2.334.314,4.431.7,4.941,1.083,1.314.985,17.054.985,17.054s.531,2.887.664,3.4,1.713,13.881,1.713,14.531,1.454,5.242,1.321,7.073,2.376,7.849,2.376,7.849l.391,11s4.089,6.158,4.354,6.549.133,8.115,4.613,11.784a5.213,5.213,0,0,1,1.454,2.481c.336,1.328,11.589,20.227,15.069,26.057l-.419,1.978-2.8,13.077-.133,5.5s-1.719,4.711-1.188,6.675a7.166,7.166,0,0,1,.266,3.145s-1.845,2.873-.657,4.711.524,2.88-1.188,7.591c-.755,2.1-.1,3.334.859,4.1a5.782,5.782,0,0,1-.084.7c-.245,2.1-.517,4.494-.517,5.13s-.245,3.495-.258,6.011c0,1.992.126,3.781.657,4.075,1.188.65,7.786,1.4,7.912,3.662s2.642,5.494,7.912,5.494,14.377-1.831,16.614-1.573c.37.049.587-.2.7-.629a2.067,2.067,0,0,0,.049-.224,4.991,4.991,0,0,0,3.075,1.642c7.912,1.447,17.536-2.1,19.389-5.626a6.466,6.466,0,0,0,.531-1.4c.881-3.495-.531-7.891-.531-7.891a13.463,13.463,0,0,1-.168-5.41,4.606,4.606,0,0,1,1.083-2.174c1.265-1.328,2.488-4.976,3.313-7.912.636-2.286,1.042-4.145,1.042-4.145s-.832-1.272-2.1-3.019h0c-2.537-3.558-6.822-9.086-9.5-10.03a3.069,3.069,0,0,1-.28-.825c-.126-1.307-2.9-5.591-2.9-5.591s-3.823-6.158-3.823-6.675-5.27-8.513-5.27-8.513-2.027-4.4-3.362-6.78c.154-.419.307-.951.468-1.58,1.4-5.508,2.8-18.082,2.5-19.787a8.64,8.64,0,0,1,1.314-7.332c2.013-3.012,1.852-7.849,1.852-7.849s-.133-14.8,1.314-17.809,5.536-27.1,5.41-27.629a19.883,19.883,0,0,1,1.048-3.823l.245-9.5v-.58s.922-8.247,2.1-10.086a4.389,4.389,0,0,0,.363-1.8h21.758c0-1.314-.049-2.621-.084-3.928h.084a199.78,199.78,0,0,0-2.1-27.378c2.041-2.474,4.508-4.194,4.585-4.725a29.132,29.132,0,0,1,1.447-4.718C874.843,390.6,873.788,385.363,873.788,385.363ZM829.873,590.243s.559-.335,1.468-.8c.056.224.112.461.168.7.587,2.53,1.293,6.039,1.132,7.688-.272,2.747-.7,7.073-.7,7.073a22.931,22.931,0,0,0-1.671,4.893c-.419-1.726-.832-3.089-.832-3.089s-8.974-6.011-8.974-9.03a23.673,23.673,0,0,0-.615-4.494h0c-.077-.377-.161-.741-.245-1.1a7.849,7.849,0,0,1,.992,1.545s2.677-6.493,3.32-9.086a2.1,2.1,0,0,0,.112-.992,8.489,8.489,0,0,1-.161-2.684c.629.7,1.111,1.4.951,1.9C824.456,583.96,829.873,590.243,829.873,590.243Z" transform="translate(-267.945 -88.659)"/><path class="j" d="M890.524,775.465c-2.208-.259-11.183,1.558-16.4,1.558s-7.688-3.243-7.807-5.466-6.633-2.984-7.807-3.635c-.517-.294-.65-2.1-.643-4.054,0-2.495.252-5.319.252-5.976s.266-3.019.51-5.1c.21-1.8.405-3.355.405-3.355,6.116-7.416,20.046-1.957,20.046-1.957s.594,2.062,1.076,4.368h0a23.913,23.913,0,0,1,.608,4.466c0,3,8.855,8.981,8.855,8.981a59.105,59.105,0,0,1,1.468,6.172C891.447,773.676,891.51,775.584,890.524,775.465Z" transform="translate(-327.87 -246.468)"/><path class="c" d="M890.524,783.349c-2.208-.252-11.183,1.565-16.39,1.565s-7.688-3.25-7.807-5.466-6.64-2.992-7.814-3.642c-.517-.286-.65-2.1-.643-4.047,2.488.755,5.955,1.992,7.157,3.271,1.95,2.1,2.467,4.417,3.774,4.683s2.6,2.1,8.842.517c3.9-.979,9.659-.985,13.448-.853C891.447,781.566,891.51,783.467,890.524,783.349Z" transform="translate(-327.87 -254.359)"/><path class="j" d="M928.243,746.632c-2.209,2.341-.9,7.542-.9,7.542s1.817,5.731,0,9.247-11.323,6.989-19.13,5.592a4.592,4.592,0,0,1-3.551-2.432c-1.908-3.76,1.335-10.323,1.335-10.323s.391-4.292.657-7.024c.154-1.65-.545-5.137-1.118-7.653-.384-1.65-.7-2.887-.7-2.887s11.882-17.047,15.489-17.173a1.639,1.639,0,0,1,.51.056c2.614.643,7.066,6.416,9.659,10.072,1.237,1.747,2.062,3.012,2.062,3.012S930.466,744.291,928.243,746.632Z" transform="translate(-341.776 -239.233)"/><path class="c" d="M928.5,751c-2.209,2.341-.9,7.542-.9,7.542s1.817,5.731,0,9.24-11.323,7.031-19.13,5.592a4.6,4.6,0,0,1-3.551-2.425c2.25-.475,5.794-1.083,11.358-1.733,13.4-1.566,9.883-10.407,9.883-10.407s-1.559-6.249.391-9.373c1.4-2.216,3.236-9.436,4.194-13.42,1.244,1.74,2.062,3.005,2.062,3.005S930.725,748.654,928.5,751Z" transform="translate(-342.034 -243.596)"/><path class="c" d="M880.487,751.854c-1.866-2.551-7.388-7.465-18.522,2.139a6.292,6.292,0,0,1-3.005-1.2c.21-1.8.405-3.355.405-3.355,6.116-7.416,20.046-1.957,20.046-1.957S880.005,749.548,880.487,751.854Z" transform="translate(-328.198 -246.468)"/><path class="k" d="M905.613,538.633v.573l-.266,9.457s-1.174,3.257-1.041,3.774-3.9,24.463-5.34,27.454-1.307,17.7-1.307,17.7.126,4.809-1.831,7.807a8.79,8.79,0,0,0-1.272,7.318c.322,1.691-1.083,14.2-2.46,19.668a6.836,6.836,0,0,1-.93,2.453,1.938,1.938,0,0,0-.315.6c-1.873,4.83-6.71,34.661-6.71,34.661s-.049.573-.1,1.356a15.079,15.079,0,0,0,.1,4.11,2.1,2.1,0,0,1-.112.986c-.629,2.579-3.271,9.037-3.271,9.037s-5.074-11.323-19.263.909c0,0-5.466-.524-3.767-5.207s2.341-5.724,1.167-7.542.65-4.683.65-4.683a7.122,7.122,0,0,0-.259-3.124c-.524-1.95,1.174-6.633,1.174-6.633l.133-5.466,2.74-13,.825-3.914.853-4.047,4.543-78.876.175-2.936L871,528.924l30.7-5.074,1.048,8.059,1.663,3.956Z" transform="translate(-327.729 -179.723)"/><path class="c" d="M893.993,537.415,875.185,549.8l.7,10.841s1.95,17.439,1.95,19.256-.916,16.656-.916,16.656,4.69,6.989,4.194,8.723,4.026,6.5,4.026,6.5l7.744,14.818s1.307,4.837,2.1,5.745a6.845,6.845,0,0,1-.93,2.453c-1.559,1.558-7.024,35.261-7.024,35.261s-.049.573-.1,1.356c-.4-.356-.7-.573-.7-.573s-3.774-6.249-3.774-6.892-4.033-5.857-4.033-5.857l-9.2-17.564-2.153-3.642.853-4.047,5.99-103.96,30.7-5.074,1.048,8.059-27.958,7.122Z" transform="translate(-330.639 -179.708)"/><path class="c" d="M909.346,538.617,875,551.024l1.272-22.149,30.7-5.074,1.048,8.059,1.663,3.956C909.479,537.415,909.346,538.617,909.346,538.617Z" transform="translate(-333.027 -179.708)"/><path class="c" d="M886.688,688.525a2.1,2.1,0,0,1-.112.986,3.4,3.4,0,0,1-.7-1.761c.391-1.174-3.124-3.907-3.124-3.907s-3.767-6.249-3.767-6.892-4.04-5.857-4.04-5.857L865.86,653.8l.825-3.914.853-4.047L872.1,567l.273,6.661s1.971,17.4,1.971,19.2-.909,16.656-.909,16.656,4.683,6.989,4.194,8.723,4.033,6.5,4.033,6.5l7.807,14.839s1.4,5.34,2.216,5.857a13.673,13.673,0,0,1,1.761,2.943c-1.873,4.83-6.71,34.661-6.71,34.661s-.049.573-.1,1.356A13.784,13.784,0,0,0,886.688,688.525Z" transform="translate(-330.275 -192.714)"/><path class="c" d="M924.81,727.887s-5.857,10.54-10.281,10.806c-2.984.175-6.619,1.824-8.66,2.887-.385-1.65-.7-2.887-.7-2.887s11.882-17.047,15.489-17.173a1.635,1.635,0,0,1,.51.056v.063C921.295,722.945,924.81,727.887,924.81,727.887Z" transform="translate(-342.11 -239.233)"/><path class="k" d="M898.842,662.139s-5.857,10.54-10.281,10.806-10.275,3.774-10.275,3.774-5.34-6.249-4.955-7.416-3.117-3.907-3.117-3.907-3.774-6.249-3.774-6.892-4.04-5.857-4.04-5.857l-9.233-17.564s-15.482-26.036-15.873-27.594a5.154,5.154,0,0,0-1.44-2.467c-4.417-3.648-4.291-11.323-4.55-11.714l-4.292-6.507-.391-10.931s-2.474-5.983-2.341-7.807-1.307-6.374-1.307-7.031-1.559-13.916-1.684-14.44-.657-3.383-.657-3.383.133-15.614-.9-16.921c-.573-.7-.755-4.382-.8-7.583-.042-2.677,0-5.032,0-5.032l76.639-7.94s.475,4.368.748,8.744c.245,3.907.329,7.835-.224,8.695-1.174,1.824-2.1,10.023-2.1,10.023l-34.612,12.49.384,9.5s1.957,17.439,1.957,19.256-.916,16.656-.916,16.656,4.683,6.989,4.194,8.723,4.026,6.5,4.026,6.5l7.807,14.838s1.44,5.34,2.216,5.857,4.305,8.213,4.305,8.213,5.2,7.947,5.2,8.464,3.774,6.64,3.774,6.64,2.733,4.291,2.859,5.591S898.842,662.139,898.842,662.139Z" transform="translate(-316.141 -174.268)"/><path class="c" d="M866.25,635.68s6.374,7.29,9.624,7.423S866.25,635.68,866.25,635.68Z" transform="translate(-330.393 -213.391)"/><path class="c" d="M901.06,735.266s19.256-9.89,16.775-5.333-9.5,6.99-9.5,6.99Z" transform="translate(-340.872 -241.405)"/><path class="c" d="M865.13,734.92s11.84.776,13.4,2.733C878.529,737.653,865.913,735.046,865.13,734.92Z" transform="translate(-330.055 -243.268)"/><path class="c" d="M865.31,740.69s10.806.391,14.314,1.95C879.624,742.64,868.175,742.248,865.31,740.69Z" transform="translate(-330.11 -245.005)"/><path class="l" d="M697.742,403.987l-3.425-1.566-5.424-2.474s-25.763-10.281-26.56-20.556,30.054,6.766,30.054,6.766A29.647,29.647,0,0,0,695.247,390a5.913,5.913,0,0,0,3,2.139C700.621,392.4,697.742,403.987,697.742,403.987Z" transform="translate(-268.997 -135.241)"/><path class="l" d="M903.317,325.864l-8.457,9.785L874.3,328.891l-5.074-4.04,3.243-4.292c1.111-1.468,1.447-3.7,1.4-6.011a11.729,11.729,0,0,0-.07-1.566,39.947,39.947,0,0,0-1.454-7.646s29.272-7.423,27.189-1.307a10.884,10.884,0,0,0-.489,3.935,23.84,23.84,0,0,0,1.279,6.374,37.048,37.048,0,0,0,2.2,5.305Z" transform="translate(-331.29 -112.817)"/><path class="c" d="M900.889,303.963a10.886,10.886,0,0,0-.489,3.935,23.421,23.421,0,0,1-25.246,5.018,39.947,39.947,0,0,0-1.454-7.646S902.972,297.868,900.889,303.963Z" transform="translate(-332.635 -112.8)"/><path class="l" d="M901.73,275.58a14.749,14.749,0,0,1-.063,1.67,23.422,23.422,0,0,1-44.117,9.191,22.977,22.977,0,0,1-2.244-6.458,22.367,22.367,0,0,1-.426-4.4,23.16,23.16,0,0,1,.321-3.837,23.414,23.414,0,0,1,46.5,3.033C901.723,275.042,901.73,275.314,901.73,275.58Z" transform="translate(-326.97 -97.927)"/><path class="c" d="M903.317,331.349l-8.457,9.785L874.3,334.375l-5.074-4.04,3.243-4.292c1.111-1.468,1.447-3.7,1.4-6.011l.937,7.178.224.224,1.342,1.342h1.691l3.257,4.424s4.683-3.767,5.074-2.866,6.766-1.559,6.766-1.559h.245c5.773-.245,6.78-8.842,6.78-8.842a1.377,1.377,0,0,1,.14-.1,37.053,37.053,0,0,0,2.2,5.3Z" transform="translate(-331.29 -118.301)"/><path class="c" d="M896.342,514.474c-.147.566-.308,1.118-.482,1.671-5.074,16.131-41.643,16.523-41.643,16.523l-1.041-10.016-3.495,6.766s-22.632-6.249-30.719-10.715c-.042-2.677,0-5.032,0-5.032l76.639-7.94S896.069,510.112,896.342,514.474Z" transform="translate(-316.151 -174.268)"/><path class="c" d="M711.525,409.976,708.1,408.41c.79-3.718.93-11.1.951-12.42a5.913,5.913,0,0,0,3,2.139C714.4,398.387,711.525,409.976,711.525,409.976Z" transform="translate(-282.78 -141.23)"/><path class="j" d="M862.133,421.475s5.731,20.563.657,36.7-41.643,16.495-41.643,16.495l-1.041-10.016-3.495,6.773s-27.322-7.555-32.655-11.98-2.607-11.057-2.607-11.057,1.824-8.583,3.383-10.414,1.824-8.2,1.3-9.086,1.824-9.506,2.607-10.806-.133-36.044-.133-36.044-11.581,5.2-12.231,6.766-14.314,9.086-14.314,9.086-12.881,1.566-15.223,1.566-15.23-1.566-15.23-1.566-3.495-.133-4.55-.909a13.425,13.425,0,0,0-3.39-1.433s-3.635-.783-4.683-2.209-9.785-6.249-9.785-6.249c1.691-1.041,1.824-14.678,1.824-14.678l16.523,4.033s1.048-2.209,2.607-1.3,11.064,1.67,11.064,1.67,7.94-1.559,8.331-.916,1.559.524,1.559.524,1.566-.133,1.566-.643,1.4.119,1.4.119l2.607.391s-.391-3.376.783-3.635a1.719,1.719,0,0,0,1.293-1.433s3.495-4.683,5.207-4.683,2.866-4.683,2.866-4.683l6.249-6.374s-.783-3.257,0-3.39.9-1.559.9-1.559.266-2.859,1.7-3.495,2.209-4.417,2.209-4.417,6.633-7.416,7.157-10.023a4.247,4.247,0,0,1,3.257-3.124,16.078,16.078,0,0,1,4.809-2.1c2.216-.391,8.073-1.048,8.073-1.048s10.666-.9,11.714-2.1,2.859-1.048,4.026-1.048a1.335,1.335,0,0,0,.7-.259c1.055-.657,2.313-2.488,3.572-3.641,1.559-1.433,4.292-.783,4.292-.783l1.174,8.981.217.217,1.342,1.342h1.692l3.257,4.431s4.683-3.774,5.074-2.866,6.766-1.566,6.766-1.566h.245c5.773-.245,6.78-8.835,6.78-8.835,2.866-2.481,5.34,7.94,5.34,7.94l.9.482c1.831,1.02,5.885,3.355,6.381,4.459.65,1.4,7.94,5.717,7.94,5.717Z" transform="translate(-283.081 -117.859)"/><path class="l" d="M919.945,506.87l-3.844,3.1-4.354,3.495s-8.073,18.871-19.13,13.538,14.818-25.071,14.818-25.071l3.579-1.733,3.963-1.915Z" transform="translate(-337.503 -172.025)"/><path class="c" d="M872.425,329.982a49.653,49.653,0,0,0-9.086,5.64l-.189-10.407c1.055-.664,2.314-2.488,3.572-3.648,1.559-1.4,4.292-.776,4.292-.776l1.174,8.974Z" transform="translate(-329.459 -118.549)"/><path class="m" d="M873.554,327.77a49.65,49.65,0,0,0-9.086,5.64l-.168-10.379c1.055-.657,2.313-2.488,3.572-3.641,1.559-1.433,4.292-.783,4.292-.783l1.174,8.981Z" transform="translate(-329.806 -117.889)"/><path class="c" d="M916.851,332.658c-2,5.354-4.487,11.281-4.935,9.009-.538-2.691-5.228-6.493-8.087-8.6,5.773-.238,6.78-8.835,6.78-8.835,2.866-2.474,5.34,7.94,5.34,7.94Z" transform="translate(-341.706 -119.513)"/><path class="m" d="M916.851,329.308c-2,5.354-4.487,11.281-4.935,9.009-.538-2.691-5.228-6.493-8.087-8.6,5.773-.245,6.78-8.835,6.78-8.835,2.866-2.481,5.34,7.94,5.34,7.94Z" transform="translate(-341.706 -118.504)"/><path class="c" d="M884.49,626.825s14.832-2.1,14.182,1.041S884.49,626.825,884.49,626.825Z" transform="translate(-335.884 -210.518)"/><path class="c" d="M850.23,553.08s5.857-3.124,11.064-1.817Z" transform="translate(-325.57 -187.88)"/><path class="c" d="M836.64,541.592s9.373-1.433,12.881.133Z" transform="translate(-321.478 -184.884)"/><path class="c" d="M891.969,572.57s-8.2,8.716-7.688,11.057Z" transform="translate(-335.814 -194.391)"/><path class="c" d="M780.756,405.2s-1.3,4.683,6.64,6.633Z" transform="translate(-304.63 -144.003)"/><path class="c" d="M777.44,416.74s9.785,8.716,5.207,8.981S777.44,416.74,777.44,416.74Z" transform="translate(-303.656 -147.477)"/><path class="c" d="M808.53,366.66s11.973,8.324,11.183,10.281S808.53,366.66,808.53,366.66Z" transform="translate(-313.016 -132.4)"/><path class="c" d="M929.062,506.864l-3.844,3.1c-.8-2.754-2.467-7.367-5.067-9.785l3.963-1.915Z" transform="translate(-346.62 -172.019)"/><path class="j" d="M930.239,350.92l5.207-3.25s5.983.909,6.766,13.28,6.249,37.086,6.249,37.086l2.991,27.447s1.041,5.207.133,7.807a28.521,28.521,0,0,0-1.4,4.683c-.133.916-7.29,5.34-7.157,11.064s-9.086,11.057-9.086,11.057-5.99,3.495-7.94,5.99c0,0-2.216-10.414-7.024-13.014s10.149-23.289,10.149-23.289Z" transform="translate(-345.98 -126.683)"/><path class="c" d="M916.421,465.65s-15.615,6.507-14.314,8.59S916.421,465.65,916.421,465.65Z" transform="translate(-341.164 -162.202)"/><path class="c" d="M920.041,477.56s-6.493,2.873-5.955,3.788S920.041,477.56,920.041,477.56Z" transform="translate(-344.785 -165.787)"/><path class="c" d="M914.831,485.38s-6.493,2.873-5.955,3.788S914.831,485.38,914.831,485.38Z" transform="translate(-343.216 -168.142)"/><path class="b" d="M676.68,246.08v197.1H875.06C874.159,334.321,785.736,246.3,676.68,246.08Z" transform="translate(-273.321 -96.098)"/><path class="c" d="M676.68,246.08v197.1H875.06C874.159,334.321,785.736,246.3,676.68,246.08Z" transform="translate(-273.321 -96.098)"/><path class="b" d="M676.68,240.5V437.6H875.06C874.159,328.734,785.736,240.717,676.68,240.5Z" transform="translate(-273.321 -94.418)"/><path class="l" d="M895.236,528.126a5.129,5.129,0,0,1,.923-3.019,4.927,4.927,0,0,1,2.223-1.244c.741-.245,1.489-.475,2.237-.7a5.7,5.7,0,0,1,1.8-.294,6.318,6.318,0,0,1,3.32,1.552,1.4,1.4,0,0,1,.475.5c.224.517-.259,1.055-.7,1.4a33.291,33.291,0,0,1-4.97,3.656,9.982,9.982,0,0,1-4.354,1.5C894.4,531.523,895.117,529.426,895.236,528.126Z" transform="translate(-339.046 -179.428)"/><path class="c" d="M901.73,275.574a14.749,14.749,0,0,1-.063,1.67,3.227,3.227,0,0,1-.308.182,9.016,9.016,0,0,0-1.153.51c-1.139.776-.881,2.467-.776,3.837a10.34,10.34,0,0,1-1.188,5.724,2.048,2.048,0,0,1-1.81-1.705,13.71,13.71,0,0,1-.112-2.677c-.112-2.39-1.4-4.522-2.236-6.773-1.552-4.312-1.209-9.086-2.244-13.538a5.617,5.617,0,0,0-1.908-3.495c-1.482-1.02-3.537-.573-5.13.259s-3.019,2.048-4.746,2.572c-2.663.8-5.494-.168-8.143-.992s-5.647-1.524-8.122-.259c-2.6,1.335-3.767,4.375-4.564,7.2a7.064,7.064,0,0,0-.37,2.4,21.58,21.58,0,0,1,.3,2.167c0,1.566-1.335,2.8-1.852,4.278-.322.916-.245,3.173-1.573,3.159a.845.845,0,0,1-.426-.133,22.367,22.367,0,0,1-.426-4.4,23.161,23.161,0,0,1,.321-3.837,23.414,23.414,0,0,1,46.5,3.033C901.723,275.036,901.73,275.308,901.73,275.574Z" transform="translate(-326.97 -97.921)"/><path class="n" d="M845.782,261.8c-.084-2.258,1.628-4.368,1.237-6.591-.307-1.74-1.817-3.005-2.551-4.613a5.592,5.592,0,0,1,.888-5.892c.573-.643,1.293-1.146,1.845-1.8,1.1-1.314,1.4-3.082,1.922-4.718s1.4-3.348,3.026-3.907c1.754-.6,3.809.377,5.5-.384a1.4,1.4,0,0,0,.86-.923,3.251,3.251,0,0,0-.091-.93c-.119-1.244,1.063-2.216,2.195-2.761,5.172-2.5,11.281-1.307,16.886-.07a11.107,11.107,0,0,1,.245-3.4c3.537.391,7.346.909,9.9,3.369,1.587,1.531,2.474,3.613,3.495,5.543s2.418,3.865,4.466,4.669a4.964,4.964,0,0,1,1.845.881,3.5,3.5,0,0,1,.7,1.174l1.342,3.306a3.675,3.675,0,0,0,.615,1.111,5.694,5.694,0,0,0,1.181.832c2.6,1.7,2.984,5.438,2.174,8.443s-2.5,5.724-3.145,8.772c-.377,1.8-.594,3.991-2.237,4.809a9.519,9.519,0,0,0-1.153.517c-1.139.769-.888,2.46-.776,3.83a10.366,10.366,0,0,1-1.181,5.724,2.041,2.041,0,0,1-1.81-1.705,13.635,13.635,0,0,1-.119-2.677c-.112-2.39-1.4-4.522-2.237-6.773-1.552-4.312-1.209-9.086-2.237-13.538a5.649,5.649,0,0,0-1.922-3.495c-1.482-1.027-3.537-.587-5.13.259s-3.013,2.041-4.739,2.565c-2.663.8-5.494-.161-8.15-1s-5.641-1.517-8.115-.252c-2.6,1.335-3.76,4.382-4.557,7.2a7.1,7.1,0,0,0-.384,2.4,21.828,21.828,0,0,1,.307,2.167c0,1.573-1.335,2.8-1.852,4.284-.322.916-.245,3.166-1.573,3.159-1.007,0-2.027-2.279-2.523-2.943C848.417,266.425,845.887,264.559,845.782,261.8Z" transform="translate(-323.694 -89.996)"/><g class="o" transform="translate(520.305 137.492)"><path d="M847.019,263.026c-.307-1.74-1.817-3-2.551-4.606a5.218,5.218,0,0,1-.412-1.44,5.443,5.443,0,0,0,.412,3c.7,1.594,2.2,2.845,2.537,4.55a4.514,4.514,0,0,0,.014-1.5Z" transform="translate(-843.998 -236.871)"/><path d="M864.724,233.762a.552.552,0,0,0,0-.112,1.732,1.732,0,0,0-.084.328.8.8,0,0,0,.084-.217Z" transform="translate(-850.213 -229.848)"/><path d="M891.929,228.371a1.308,1.308,0,0,1,0-.161v.154Z" transform="translate(-858.427 -228.21)"/><path d="M925.888,264.648c-.8,3.005-2.5,5.731-3.145,8.772-.377,1.8-.594,3.991-2.237,4.816a10.68,10.68,0,0,0-1.153.51c-.943.643-.93,1.915-.832,3.117a2.041,2.041,0,0,1,.832-1.552,9.5,9.5,0,0,1,1.153-.517c1.642-.818,1.859-3.012,2.237-4.809.643-3.047,2.341-5.766,3.145-8.772a10.62,10.62,0,0,0,.349-3.614,11.005,11.005,0,0,1-.349,2.048Z" transform="translate(-866.421 -238.563)"/><path d="M899.959,286.983a2.041,2.041,0,0,1-1.81-1.705,13.735,13.735,0,0,1-.119-2.684c-.112-2.383-1.4-4.522-2.237-6.766-1.552-4.312-1.209-9.086-2.237-13.538a5.649,5.649,0,0,0-1.922-3.495c-1.482-1.02-3.537-.58-5.13.259s-3.012,2.048-4.739,2.565c-2.663.8-5.494-.161-8.15-.992s-5.641-1.524-8.115-.252c-2.6,1.335-3.76,4.382-4.557,7.192a7.139,7.139,0,0,0-.384,2.411,2.947,2.947,0,0,0,.07.489,10.626,10.626,0,0,1,.314-1.335c.8-2.8,1.957-5.864,4.557-7.2,2.474-1.265,5.466-.58,8.115.252s5.487,1.8,8.15,1c1.726-.524,3.145-1.726,4.739-2.565s3.648-1.286,5.13-.259a5.54,5.54,0,0,1,1.922,3.495c1.027,4.466.7,9.226,2.237,13.539.8,2.251,2.1,4.382,2.237,6.773a13.626,13.626,0,0,0,.119,2.677,2.041,2.041,0,0,0,1.81,1.705,10.4,10.4,0,0,0,1.188-5.675A10.48,10.48,0,0,1,899.959,286.983Z" transform="translate(-848.984 -237.24)"/><path d="M854.8,281.77c-.321.916-.245,3.166-1.573,3.159-1.007,0-2.027-2.272-2.523-2.936-1.4-1.894-3.677-3.635-4.089-6.074a4.964,4.964,0,0,0-.063.965c.1,2.761,2.635,4.627,4.152,6.668.5.7,1.516,2.936,2.523,2.943,1.328,0,1.251-2.244,1.573-3.159.517-1.482,1.817-2.712,1.852-4.284a4.289,4.289,0,0,0-.1-.895C856.25,279.422,855.251,280.505,854.8,281.77Z" transform="translate(-844.765 -242.574)"/></g><rect class="b" width="2.348" height="2.39" transform="translate(69.719 312.15)"/><rect class="p" width="2.348" height="2.39" transform="translate(69.719 312.15)"/><rect class="b" width="2.293" height="2.663" transform="translate(268.708 115.286)"/><rect class="p" width="2.293" height="2.663" transform="translate(268.708 115.286)"/><path class="q" d="M401.535,396.631h0V199.53h-.412c-109.251,0-197.905,88.122-198.793,197.164Z" transform="translate(-130.514 -82.084)"/><path class="b" d="M401.535,396.631h0V199.53h-.412c-109.251,0-197.905,88.122-198.793,197.164Z" transform="translate(-130.514 -82.084)"/><path class="p" d="M401.535,396.631h0V199.53h-.412c-109.251,0-197.905,88.122-198.793,197.164Z" transform="translate(-130.514 -82.084)"/><path class="b" d="M398.535,393.631h0V196.53h-.412c-109.251,0-197.905,88.123-198.793,197.164Z" transform="translate(-129.611 -81.181)"/><path class="r" d="M398.535,393.631h0V196.53h-.412c-109.251,0-197.905,88.123-198.793,197.164Z" transform="translate(-129.611 -81.181)"/><path class="b" d="M594.1,677.37l2.928,1.838V682.7l-3.977-.615Z" transform="translate(-178.543 -203.925)"/><path class="c" d="M594.1,677.37l2.928,1.838V682.7l-3.977-.615Z" transform="translate(-178.543 -203.925)"/><path class="b" d="M194.447,679.2l-1.1.328v3.495l3.718-.811-.916-3.4Z" transform="translate(-58.21 -204.359)"/><path class="c" d="M194.447,679.2l-1.1.328v3.495l3.718-.811-.916-3.4Z" transform="translate(-58.21 -204.359)"/><path class="b" d="M437.15,517.46,292.93,656.465a198.765,198.765,0,0,0,283.337.112Z" transform="translate(-157.79 -177.799)"/><path class="b" d="M437.15,512.46,292.93,651.465a198.765,198.765,0,0,0,283.337.112Z" transform="translate(-157.79 -176.294)"/><path class="c" d="M437.15,512.46,292.93,651.465a198.765,198.765,0,0,0,283.337.112Z" transform="translate(-157.79 -176.294)"/><path class="b" d="M437.15,517.46,292.93,656.465a198.765,198.765,0,0,0,283.337.112Z" transform="translate(-157.79 -177.799)"/><path class="s" d="M382.99,473.645l4.8-3.285.7,1.4-5.48,4Z" transform="translate(-115.302 -141.603)"/><path class="c" d="M382.99,473.645l4.8-3.285.7,1.4-5.48,4Z" transform="translate(-115.302 -141.603)"/><path class="t" d="M376.87,467.226l5.067-1.866.7,1.4-8.646,2.915Z" transform="translate(-112.593 -140.098)"/><path class="c" d="M376.87,467.226l5.067-1.866.7,1.4-8.646,2.915Z" transform="translate(-112.593 -140.098)"/><path class="u" d="M375.631,459.154l5.354-.294v1.4l-9,.943.8-1.81Z" transform="translate(-111.991 -138.141)"/><path class="c" d="M375.631,459.154l5.354-.294v1.4l-9,.943.8-1.81Z" transform="translate(-111.991 -138.141)"/><path class="u" d="M398.981,490.36,205.13,534.505a199.473,199.473,0,0,1-4.55-42.461c0-.566,0-1.125,0-1.685Z" transform="translate(-129.987 -169.641)"/><path class="c" d="M398.981,490.36,205.13,534.505a199.473,199.473,0,0,1-4.55-42.461c0-.566,0-1.125,0-1.685Z" transform="translate(-129.987 -169.641)"/><path class="u" d="M398.981,492.36,205.13,536.505a199.473,199.473,0,0,1-4.55-42.461c0-.566,0-1.125,0-1.685Z" transform="translate(-129.987 -170.243)"/><path class="t" d="M207.59,540.991A196.927,196.927,0,0,0,227.8,594.649L401.441,496.86Z" transform="translate(-132.097 -171.598)"/><path class="c" d="M207.59,540.991A196.927,196.927,0,0,0,227.8,594.649L401.441,496.86Z" transform="translate(-132.097 -171.598)"/><path class="t" d="M208.59,542.991A196.925,196.925,0,0,0,228.8,596.649L402.441,498.86Z" transform="translate(-132.398 -172.2)"/><path class="s" d="M414.228,501.88,240.89,599.515l.084.154a198.754,198.754,0,0,0,32.431,43.4L414.591,501.88Z" transform="translate(-142.123 -173.109)"/><path class="c" d="M414.228,501.88,240.89,599.515l.084.154a198.754,198.754,0,0,0,32.431,43.4L414.591,501.88Z" transform="translate(-142.123 -173.109)"/><path class="s" d="M415.228,503.88,241.89,601.515l.084.154a198.756,198.756,0,0,0,32.431,43.4L415.591,503.88Z" transform="translate(-142.424 -173.711)"/></g></svg>