<svg xmlns="http://www.w3.org/2000/svg" width="60.501" height="50.873" viewBox="0 0 60.501 50.873"><defs><style>.a,.b{fill:#121212;}.a{stroke:#fff;stroke-width:0.5px;}.b{stroke:#121212;stroke-width:0.2px;}</style></defs><g transform="translate(0.25 -33.769)"><g transform="translate(41.657 34.019)"><g transform="translate(0 0)"><path class="a" d="M302.607,34.019a8.235,8.235,0,0,0,0,16.47,8.273,8.273,0,0,0,8.263-8.263A8.189,8.189,0,0,0,302.607,34.019Zm0,14.659a6.424,6.424,0,1,1,6.452-6.4A6.449,6.449,0,0,1,302.607,48.678Z" transform="translate(-294.4 -34.019)"/></g></g><g transform="translate(9.691 51.218)"><path class="a" d="M104.7,155.916a.964.964,0,0,0-1.3-.17l-9.169,7.3L82.4,158.123a.9.9,0,0,0-.849.113l-12.678,9.056a.9.9,0,0,0-.226,1.245.825.825,0,0,0,.736.4.913.913,0,0,0,.509-.17l12.282-8.773,11.886,4.924a1.018,1.018,0,0,0,.906-.113l9.565-7.584A.964.964,0,0,0,104.7,155.916Z" transform="translate(-68.489 -155.569)"/></g><g transform="translate(0 55.47)"><path class="a" d="M59.146,212.73H54.957V186.525a.894.894,0,0,0-.906-.906h-8.32a.894.894,0,0,0-.906.906V212.73H41.77V195.58a.894.894,0,0,0-.906-.906H32.488a.894.894,0,0,0-.906.906V212.73H28.526V194.222a.894.894,0,0,0-.906-.906H19.3a.894.894,0,0,0-.906.906V212.73H15.338V199.542a.894.894,0,0,0-.906-.906H6.056a.894.894,0,0,0-.906.906V212.73H.906a.906.906,0,1,0,0,1.811H59.089a.894.894,0,0,0,.906-.906A.817.817,0,0,0,59.146,212.73Zm-45.675,0H6.962V200.448H13.47Zm13.244,0H20.206v-17.6h6.509Zm13.188,0H33.393V196.486H39.9Zm13.244,0H46.637v-25.3h6.509Z" transform="translate(0 -185.619)"/></g><path class="b" d="M62.422,2.46H61.034a2.737,2.737,0,0,0-1.1-1.913h2.485a.273.273,0,0,0,0-.547H56.638a.273.273,0,0,0,0,.547h1.656A2.209,2.209,0,0,1,60.484,2.46H56.638a.273.273,0,0,0,0,.547h3.846a2.213,2.213,0,0,1-2.189,1.941H56.641a.278.278,0,0,0-.273.282.282.282,0,0,0,.085.2l4.136,3.911a.272.272,0,0,0,.385-.011.279.279,0,0,0-.011-.391L57.324,5.494h.968a2.761,2.761,0,0,0,2.742-2.487h1.389a.273.273,0,0,0,0-.547Z" transform="translate(-9.648 37.648)"/></g></svg>