<svg xmlns="http://www.w3.org/2000/svg" width="551.553" height="515.015" viewBox="0 0 551.553 515.015"><defs><style>.a,.e{fill:#1d294a;}.a{fill-rule:evenodd;}.b{fill:#fafafa;}.c{fill:#3f3d56;}.d{fill:#ffc20e;}.e{stroke:#1d294a;stroke-width:0.7px;}</style></defs><g transform="translate(-9755.106 -652)"><path class="a" d="M618.039,287.406c0-5.852-1.877-10.389-5.571-13.425-3.441-2.878-7.823-3.848-11.453-4.131a8.167,8.167,0,0,0-5.633-2.033c-3.819,0-6.917,2.159-6.917,4.788,0,2.659,3.1,4.819,6.917,4.819a8.012,8.012,0,0,0,5.758-2.16,14.348,14.348,0,0,1,7.887,2.849c2.44,2,3.63,5.037,3.63,9.292,0,9.045-1.879,22.846-7.167,34.394a50.594,50.594,0,0,1-2.5,4.881,4.32,4.32,0,0,0-2.973,1.814c-5.414,7.888-12.425,11.892-20.749,11.892-7.948-.28-14.614-4.286-19.841-11.892a4.167,4.167,0,0,0-2.972-1.782,54.139,54.139,0,0,1-2.5-4.882c-5.292-11.548-7.168-25.35-7.168-34.392,0-4.257,1.189-7.293,3.6-9.3a14.263,14.263,0,0,1,7.919-2.879,7.9,7.9,0,0,0,5.758,2.16c3.818,0,6.917-2.128,6.917-4.788s-3.1-4.788-6.917-4.788a8.1,8.1,0,0,0-5.664,2.034,20.087,20.087,0,0,0-11.424,4.1c-3.691,3.067-5.568,7.573-5.568,13.458,0,9.638,2.347,28.227,10.515,42.151a4.322,4.322,0,0,0,.532,3.694c5.789,8.419,13.332,13.551,22.062,15.083v32.549c.126,5.288-1.157,10.295-8.887,9.889h-55.36l-9.794-40.9a3.886,3.886,0,0,0-1.472-2.316,4.28,4.28,0,0,0-2.629-.876H496.3a4.016,4.016,0,0,0-2.629.97,4.294,4.294,0,0,0-1.407,2.41l-7.98,40.715H472.208l-11.956-83.682a4.274,4.274,0,0,0-1.408-2.6,4.187,4.187,0,0,0-5.507,0,4.261,4.261,0,0,0-1.408,2.567L436.062,413.868l-1.691-19.215a4.141,4.141,0,0,0-1.344-2.723,4.222,4.222,0,0,0-2.848-1.125H425.1v-.088H223.3a4.059,4.059,0,0,0-2.754,1.033,3.974,3.974,0,0,0-1.407,2.566l-8.418,58.772L193.855,339.613a4.124,4.124,0,0,0-1.408-2.566,4.034,4.034,0,0,0-2.724-1.033h-.155a4.255,4.255,0,0,0-4.038,3.848l-4.475,50.823H171.48a4.092,4.092,0,0,0-2.723,1.033,4.224,4.224,0,0,0-1.439,2.535L162.5,424.672l-6.1-28.728a3.975,3.975,0,0,0-1.472-2.378,4.148,4.148,0,0,0-2.629-.939H109.2a21.546,21.546,0,1,0,0,8.418h39.682l10.076,47.505a4.239,4.239,0,0,0,1.5,2.378,4.463,4.463,0,0,0,2.691.938h.031a4.263,4.263,0,0,0,2.66-1.033,4.158,4.158,0,0,0,1.378-2.5l7.854-49.227h9.827a4.184,4.184,0,0,0,4.193-3.819l1.689-19.246,15.867,106.807a4.326,4.326,0,0,0,1.439,2.567,4.165,4.165,0,0,0,2.723,1,4.223,4.223,0,0,0,4.163-3.6L226.9,399.336H425.1v-.114h1.227l4.474,50.855a4.2,4.2,0,0,0,4.038,3.817h.125a4.248,4.248,0,0,0,2.754-1,4.2,4.2,0,0,0,1.408-2.566L456,336.821l8.386,58.771h.032a4.231,4.231,0,0,0,1.376,2.6,4.333,4.333,0,0,0,2.754,1.034h19.215a4.265,4.265,0,0,0,2.659-.97,4.145,4.145,0,0,0,1.44-2.441l4.914-25.161L502.844,396a4.118,4.118,0,0,0,1.5,2.315,4.217,4.217,0,0,0,2.6.908h64.874c4.819,0,11.078-5.038,11.078-10.106V348.3c8.825-1.6,18.37-6.728,24.1-15.021a4.342,4.342,0,0,0,.532-3.694C615.692,315.666,618.039,297.077,618.039,287.406ZM88.049,412.092a15.271,15.271,0,1,1,15.27-15.272A15.273,15.273,0,0,1,88.049,412.092Z" transform="translate(9688.62 562.616)"/><g transform="translate(9822.906 652)"><path class="b" d="M702.567,582.188H313.685V84.916s412.876-38.061,388.882,0S702.567,582.188,702.567,582.188Z" transform="translate(-312.858 -68)"/><path class="c" d="M390.536,521.919H0V22.992H232.612v1.655H1.655V520.264H388.882V125.949h1.655Z" transform="translate(0 -6.904)"/><path class="c" d="M622.054,267.922c-10.8,0-22.417-2.22-32.977-8.889-30.633-19.349-60.034-.207-60.327-.011l-.095.055c-.272.133-18.431,8.844-39.814,8.846-10.8,0-22.417-2.22-32.977-8.889-30.633-19.349-60.034-.207-60.327-.011l-.918-1.377c.3-.2,30.6-19.924,62.129-.011,30.233,19.1,69.615.7,71.136-.023,1.444-.93,31.167-19.5,62.077.023,30.7,19.387,70.777.154,71.178-.043l.728,1.486C661.6,259.21,643.437,267.921,622.054,267.922Z" transform="translate(-337.16 -122.271)"/><path class="c" d="M622.054,324.68c-10.8,0-22.417-2.22-32.977-8.889-30.633-19.348-60.034-.207-60.327-.011l-.095.055c-.272.133-18.431,8.844-39.814,8.846-10.8,0-22.417-2.22-32.977-8.889-30.633-19.348-60.034-.207-60.327-.011l-.918-1.377c.3-.2,30.6-19.924,62.129-.011,30.233,19.1,69.615.7,71.136-.023,1.444-.93,31.167-19.5,62.077.023,30.7,19.388,70.777.154,71.178-.043l.728,1.486C661.6,315.968,643.437,324.679,622.054,324.68Z" transform="translate(-337.16 -139.314)"/><path class="c" d="M622.054,381.439c-10.8,0-22.417-2.22-32.977-8.889-30.633-19.349-60.034-.208-60.327-.011l-.095.055c-.272.133-18.431,8.844-39.814,8.846-10.8,0-22.417-2.22-32.977-8.889-30.633-19.349-60.034-.208-60.327-.011l-.918-1.377c.3-.2,30.6-19.924,62.129-.011,30.233,19.1,69.615.7,71.136-.023,1.444-.93,31.167-19.5,62.077.023,30.7,19.387,70.777.154,71.178-.043l.728,1.486C661.6,372.726,643.437,381.437,622.054,381.439Z" transform="translate(-337.16 -156.356)"/><path class="c" d="M496.542,438.235c-.333,0-.667-.01-1-.031-5.415-.336-10.219-3.412-14.277-9.145-4.022-5.68-8.3-8.531-12.8-8.475-7.519.095-13.159,8.375-13.216,8.458l-.076.1c-.362.4-8.972,9.709-19.2,9.065-5.415-.336-10.219-3.412-14.277-9.145-4.022-5.68-8.334-8.531-12.8-8.475-7.519.095-13.159,8.375-13.215,8.458l-1.374-.922c.249-.371,6.19-9.085,14.569-9.191,5.074-.088,9.82,3.023,14.175,9.174,3.753,5.3,8.135,8.143,13.022,8.448,9.116.562,17.223-7.828,17.846-8.488.576-.839,6.408-9.032,14.53-9.134h.153c4.994,0,9.71,3.085,14.022,9.175,3.753,5.3,8.135,8.143,13.022,8.448,9.448.6,17.8-8.437,17.883-8.529l1.222,1.116C514.388,429.523,506.317,438.234,496.542,438.235Z" transform="translate(-337.062 -173.372)"/><path class="c" d="M301.262,580.858H223.486V527.9h59.573v1.655H225.141V579.2h74.466V554.381h1.655Z" transform="translate(-67.106 -158.513)"/><path class="d" d="M378.007,164.061a9.929,9.929,0,1,1,9.929-9.929A9.929,9.929,0,0,1,378.007,164.061Zm0-18.2a8.274,8.274,0,1,0,8.274,8.274A8.274,8.274,0,0,0,378.007,145.858Z" transform="translate(-329.19 -90.881)"/><path class="d" d="M299.644,547.981,279.96,520.8l5.362-3.881,15.067,20.807,57.657-59.236,4.743,4.617Z" transform="translate(-84.063 -143.675)"/></g><path class="e" d="M66.343,4.052H64.056A4.508,4.508,0,0,0,62.25.9h4.093a.45.45,0,1,0,0-.9H56.815a.45.45,0,0,0,0,.9h2.729a3.639,3.639,0,0,1,3.607,3.152H56.815a.45.45,0,0,0,0,.9h6.335a3.645,3.645,0,0,1-3.607,3.2H56.82a.457.457,0,0,0-.45.464.465.465,0,0,0,.14.324l6.813,6.443a.449.449,0,0,0,.635-.018.46.46,0,0,0-.018-.644L57.945,9.05h1.594a4.548,4.548,0,0,0,4.516-4.1h2.287a.45.45,0,1,0,0-.9Z" transform="translate(9715.353 952.375)"/></g></svg>