<svg xmlns="http://www.w3.org/2000/svg" xmlns:xlink="http://www.w3.org/1999/xlink" width="181.87" height="195.42" viewBox="0 0 181.87 195.42">
  <defs>
    <filter id="Path_7681" x="0" y="0" width="181.87" height="195.42" filterUnits="userSpaceOnUse">
      <feOffset dy="11" input="SourceAlpha"/>
      <feGaussianBlur stdDeviation="5" result="blur"/>
      <feFlood flood-opacity="0.102"/>
      <feComposite operator="in" in2="blur"/>
      <feComposite in="SourceGraphic"/>
    </filter>
  </defs>
  <g id="Group_16017" data-name="Group 16017" transform="translate(-720.044 -1005)">
    <g id="Group_15816" data-name="Group 15816">
      <g transform="matrix(1, 0, 0, 1, 720.04, 1005)" filter="url(#Path_7681)">
        <path id="Path_7681-2" data-name="Path 7681" d="M148.784,44.068l-.005-.126c-.076-1.56-.127-3.211-.157-5.047-.143-8.955-7.81-16.363-17.456-16.864C111.053,20.988,95.495,14.9,82.2,2.868l-.113-.1a11.835,11.835,0,0,0-15.214,0l-.113.1C53.467,14.9,37.908,20.988,17.8,22.032,8.152,22.531.483,29.939.34,38.9.311,40.72.259,42.37.183,43.941l-.008.294C-.216,63.277-.7,86.976,7.837,108.487A81.389,81.389,0,0,0,28.97,139.051c10.623,9.626,24.537,17.268,41.356,22.713a13.511,13.511,0,0,0,8.318,0c16.8-5.455,30.7-13.1,41.312-22.725a81.507,81.507,0,0,0,21.133-30.571C149.658,86.89,149.174,63.146,148.784,44.068Z" transform="translate(16.46 5.5)" fill="#fff" stroke="#1553a5" stroke-width="3"/>
      </g>
      <path id="Path_7687" data-name="Path 7687" d="M148.784,44.068l-.005-.126c-.076-1.56-.127-3.211-.157-5.047-.143-8.955-7.81-16.363-17.456-16.864C111.053,20.988,95.495,14.9,82.2,2.868A11.3,11.3,0,0,0,75.278.032s-1.619,162.387-.8,162.387a13.534,13.534,0,0,0,4.163-.658c16.8-5.455,30.7-13.1,41.312-22.725a81.507,81.507,0,0,0,21.133-30.571C149.658,86.89,149.174,63.146,148.784,44.068Z" transform="translate(729.5 1010.501)" fill="#5197ed" opacity="0.1"/>
      <text id="No_brokerage" data-name="No 
brokerage" transform="translate(811 1075)" fill="#1553a5" font-size="22" font-family="Roboto-Regular, Roboto"><tspan x="-16.833" y="0">No </tspan><tspan x="-49.403" y="29">brokerage</tspan></text>
      <circle id="Ellipse_2923" data-name="Ellipse 2923" cx="19" cy="19" r="19" transform="translate(792 1122)" fill="#1553a5"/>
      <text id="_3" data-name="3" transform="translate(811 1149)" fill="#fff" font-size="22" font-family="Roboto-Regular, Roboto"><tspan x="-6.193" y="0">3</tspan></text>
    </g>
  </g>
</svg>
