<svg xmlns="http://www.w3.org/2000/svg" xmlns:xlink="http://www.w3.org/1999/xlink" width="181.87" height="195.42" viewBox="0 0 181.87 195.42">
  <defs>
    <filter id="Path_7679" x="0" y="0" width="181.87" height="195.42" filterUnits="userSpaceOnUse">
      <feOffset dy="11" input="SourceAlpha"/>
      <feGaussianBlur stdDeviation="5" result="blur"/>
      <feFlood flood-opacity="0.102"/>
      <feComposite operator="in" in2="blur"/>
      <feComposite in="SourceGraphic"/>
    </filter>
  </defs>
  <g id="Group_15819" data-name="Group 15819" transform="translate(-1618.044 -1005)">
    <g transform="matrix(1, 0, 0, 1, 1618.04, 1005)" filter="url(#Path_7679)">
      <path id="Path_7679-2" data-name="Path 7679" d="M148.784,44.068l-.005-.126c-.076-1.56-.127-3.211-.157-5.047-.143-8.955-7.81-16.363-17.456-16.864C111.053,20.988,95.495,14.9,82.2,2.868l-.113-.1a11.835,11.835,0,0,0-15.214,0l-.113.1C53.467,14.9,37.908,20.988,17.8,22.032,8.152,22.531.483,29.939.34,38.9.311,40.72.259,42.37.183,43.941l-.008.294C-.216,63.277-.7,86.976,7.837,108.487A81.389,81.389,0,0,0,28.97,139.051c10.623,9.626,24.537,17.268,41.356,22.713a13.511,13.511,0,0,0,8.318,0c16.8-5.455,30.7-13.1,41.312-22.725a81.507,81.507,0,0,0,21.133-30.571C149.658,86.89,149.174,63.146,148.784,44.068Z" transform="translate(16.46 5.5)" fill="#fff" stroke="#1553a5" stroke-width="3"/>
    </g>
    <path id="Path_7684" data-name="Path 7684" d="M148.784,44.068l-.005-.126c-.076-1.56-.127-3.211-.157-5.047-.143-8.955-7.81-16.363-17.456-16.864C111.053,20.988,95.495,14.9,82.2,2.868A11.3,11.3,0,0,0,75.278.032s-1.619,162.387-.8,162.387a13.534,13.534,0,0,0,4.163-.658c16.8-5.455,30.7-13.1,41.312-22.725a81.507,81.507,0,0,0,21.133-30.571C149.658,86.89,149.174,63.146,148.784,44.068Z" transform="translate(1627.5 1010.501)" fill="#5197ed" opacity="0.1"/>
    <circle id="Ellipse_2924" data-name="Ellipse 2924" cx="19" cy="19" r="19" transform="translate(1688 1122)" fill="#1553a5"/>
    <text id="_6" data-name="6" transform="translate(1707 1149)" fill="#fff" font-size="22" font-family="Roboto-Regular, Roboto"><tspan x="-6.193" y="0">6</tspan></text>
    <text id="No_lock_in" data-name="No
lock in" transform="translate(1709 1075)" fill="#1553a5" font-size="22" font-family="Roboto-Regular, Roboto"><tspan x="-14.099" y="0">No</tspan><tspan x="-32.259" y="29">lock in</tspan></text>
  </g>
</svg>
