<svg xmlns="http://www.w3.org/2000/svg" width="150" height="150" viewBox="0 0 150 150">
  <g id="Group_4" data-name="Group 4" transform="translate(-182 218)">
    <rect id="Rectangle_2" data-name="Rectangle 2" width="150" height="150" transform="translate(182 -218)" fill="#fff"/>
    <g id="Group_15873" data-name="Group 15873" transform="translate(202.996 -201.71)">
      <path id="Path_8222" data-name="Path 8222" d="M100.815,104.145a25.657,25.657,0,0,0-34.9-1.957L54,112.149l-11.915-9.962a25.656,25.656,0,0,0-34.9,1.957,25.974,25.974,0,0,0,2.091,37.822l5.257,4.393a7.792,7.792,0,0,0,.806,7.789,7.666,7.666,0,0,0,5.29,3.014,7.773,7.773,0,0,0,1.518.023,8.227,8.227,0,0,0-.057,1.08,7.8,7.8,0,0,0,3,6.03,7.578,7.578,0,0,0,5.4,1.551A7.8,7.8,0,0,0,33.409,173a7.51,7.51,0,0,0,5.4,1.551,8.1,8.1,0,0,0-.064,1.128,7.791,7.791,0,0,0,3,6.027,7.5,7.5,0,0,0,4.653,1.585A8.069,8.069,0,0,0,51.57,181.4l.67-.561a7.715,7.715,0,0,0,10.477-.124,7.827,7.827,0,0,0,2.417-5.71c0-.193-.049-.38-.064-.571a7.789,7.789,0,0,0,1.064.1,7.681,7.681,0,0,0,5.309-2.112,7.824,7.824,0,0,0,2.417-5.708c0-.193-.049-.381-.064-.573a7.821,7.821,0,0,0,1.066.1,7.681,7.681,0,0,0,5.307-2.116,7.812,7.812,0,0,0,2.419-5.706c0-.2-.049-.381-.064-.575a7.794,7.794,0,0,0,1.064.1A7.721,7.721,0,0,0,91.1,148.43c.017-.014.038-.017.056-.033l7.576-6.43a25.968,25.968,0,0,0,2.086-37.822ZM11.508,139.292A22.3,22.3,0,1,1,39.85,104.858l28.357,23.71a4.377,4.377,0,0,1,.352,6.37,4.255,4.255,0,0,1-5.776.378L49.941,124.968a1.736,1.736,0,0,0-2.446.263.013.013,0,0,1-.007.014l-.014-.012a11.026,11.026,0,0,1-8.7,4.233,11.178,11.178,0,0,1-11.118-11.21H24.173a14.709,14.709,0,0,0,7.315,12.715l-14.707,12.3c-.085.071-.15.16-.232.235Zm32.381,39.676a4.316,4.316,0,0,1-.131-6.709l.93-.778a7.776,7.776,0,0,0,2.394,4.633l2.56,2.354-.317.265a4.346,4.346,0,0,1-5.437.235Zm16.417-.775a4.227,4.227,0,0,1-5.767.047l-5.1-4.691a4.316,4.316,0,0,1-.05-6.291,4.23,4.23,0,0,1,5.765-.047l1.675,1.541,3.432,3.159a4.312,4.312,0,0,1,.045,6.282Zm8.725-8.3a4.236,4.236,0,0,1-5.765.049l-.641-.59-.014-.016-4.447-4.09h0a4.314,4.314,0,0,1-.051-6.289,4.23,4.23,0,0,1,5.767-.045l5.1,4.691a4.316,4.316,0,0,1,.051,6.291Zm8.727-8.3a4.229,4.229,0,0,1-5.765.047l-5.1-4.693a4.314,4.314,0,0,1-.051-6.289,4.23,4.23,0,0,1,5.765-.047l3.716,3.418,1.39,1.28a4.316,4.316,0,0,1,.047,6.284Zm8.727-8.3a4.234,4.234,0,0,1-5.767.049l-.643-.592s-.007-.01-.012-.014L76.1,149.1l-.484-.446a4.316,4.316,0,0,1-.051-6.291,4.228,4.228,0,0,1,5.765-.045l5.1,4.693a4.316,4.316,0,0,1,.051,6.291Zm17.992-29.971a22.209,22.209,0,0,1-8,15.974l-6.991,5.934a7.73,7.73,0,0,0-.7-.792l-5.1-4.693a7.723,7.723,0,0,0-10.522.087,7.824,7.824,0,0,0-2.417,5.708c0,.193.049.38.064.571a7.7,7.7,0,0,0-6.375,2.02,7.82,7.82,0,0,0-2.417,5.708c0,.193.049.38.064.571a7.691,7.691,0,0,0-6.375,2.018,7.826,7.826,0,0,0-2.417,5.71c0,.193.049.38.064.569a7.5,7.5,0,0,0-7.538,3.469,1.777,1.777,0,0,0-.63.333l-3.662,3.065h-.007l-.528.442a4.242,4.242,0,0,1-7.1-3.1,4.287,4.287,0,0,1,1.529-3.364l.009-.007h0L53.542,148.4l-2.234-2.673L33.195,160.875h0l-.526.441a4.243,4.243,0,0,1-7.1-3.106,4.288,4.288,0,0,1,1.531-3.362l.007-.005,18.367-15.358-2.234-2.673L24.868,152.17l-.01.01-.672.559a4.214,4.214,0,0,1-6.082-.7,4.518,4.518,0,0,1,.907-6.1l16.114-13.474a14.4,14.4,0,0,0,13.9-3.761l11.565,9.319a7.711,7.711,0,0,0,10.479-.681,7.861,7.861,0,0,0-.632-11.449L56.711,114.416l11.433-9.56a22.213,22.213,0,0,1,36.333,18.47Z" transform="translate(0 -80.552)" fill="#1553a5"/>
    </g>
  </g>
</svg>
