<svg xmlns="http://www.w3.org/2000/svg" width="283" height="260.4" viewBox="0 0 283 260.4"><defs><style>.a{fill:#ffc20e;}.b{fill:#d0cde1;}.c{fill:#3f3d56;}</style></defs><g transform="translate(9754.466 3913)"><path class="a" d="M734.441,145.921c0,15.407-3.649,28.09-9.979,38.954a77.823,77.823,0,0,1-7.093,10.185C694.1,223.522,650.833,239.1,611.73,264.334,496.3,338.817,483.8,219.466,489.015,145.921a131.223,131.223,0,0,1,32.019-77.672A121.871,121.871,0,0,1,533.5,56,119.377,119.377,0,0,1,611.73,27.5c52.259,0,96.886,31.52,114.58,75.937A114.708,114.708,0,0,1,734.441,145.921Z" transform="translate(-10230.453 -3940.503)"/><path class="b" d="M680.185,88.423,563.344,102.481a121.887,121.887,0,0,1,12.463-12.253Z" transform="translate(-10272.763 -3974.735)"/><path class="b" d="M890.231,384.356a77.831,77.831,0,0,1-7.093,10.185L783.054,382.5Z" transform="translate(-10396.223 -4139.984)"/><path class="b" d="M823.675,200.5l-169.621-22,165.538,9.787A114.1,114.1,0,0,1,823.675,200.5Z" transform="translate(-10323.736 -4025.352)"/><path class="a" d="M485.051,83.77c0,.3-.009.6-.035.894a12.265,12.265,0,1,1-23.078-6.619,11.264,11.264,0,0,1,.9-1.45,12.261,12.261,0,0,1,22.167,6.177C485.038,83.1,485.051,83.433,485.051,83.77Z" transform="translate(-10214.984 -3965.228)"/><path class="b" d="M492.918,97.819c0,.3-.009.6-.035.894L474.519,96.5l18.356.315C492.9,97.149,492.918,97.482,492.918,97.819Z" transform="translate(-10222.852 -3979.276)"/><path class="b" d="M483.064,113.615l-16.989,2.046a12.294,12.294,0,0,1-1.3-1.73Z" transform="translate(-10217.377 -3988.891)"/><path class="b" d="M477.672,82.615l-13.913,1.673a11.272,11.272,0,0,1,.9-1.45Z" transform="translate(-10216.805 -3971.471)"/><path class="a" d="M870.618,580.523c-.142.267-.289.526-.45.773a12.265,12.265,0,1,1-17.282-16.665,11.269,11.269,0,0,1,1.477-.858,12.261,12.261,0,0,1,16.685,15.847C870.921,579.924,870.776,580.225,870.618,580.523Z" transform="translate(-10432.445 -4241.131)"/><path class="b" d="M880.195,591.078c-.142.267-.289.526-.45.773l-15.187-10.559,16.066,8.883C880.5,590.48,880.353,590.78,880.195,591.078Z" transform="translate(-10442.021 -4251.688)"/><path class="b" d="M863.9,600.769l-15.965-6.157a12.283,12.283,0,0,1-.334-2.136Z" transform="translate(-10432.491 -4257.971)"/><path class="b" d="M872.849,571.3l-13.075-5.044a11.267,11.267,0,0,1,1.477-.858Z" transform="translate(-10439.333 -4242.754)"/><path class="a" d="M1071.569,116.207c.211.216.413.436.6.664a12.265,12.265,0,1,1-21.143,11.374,11.276,11.276,0,0,1-.366-1.668,12.262,12.262,0,0,1,20.182-11.055C1071.092,115.737,1071.333,115.966,1071.569,116.207Z" transform="translate(-10546.519 -3988.268)"/><path class="b" d="M1080.491,120.077c.211.216.413.436.6.664L1066.4,131.983l13.361-12.59C1080.014,119.607,1080.256,119.836,1080.491,120.077Z" transform="translate(-10555.44 -3992.137)"/><path class="b" d="M1084.748,138.039l-10.734,13.326a12.29,12.29,0,0,1-2.136-.333Z" transform="translate(-10558.518 -4002.615)"/><path class="b" d="M1059.99,123.526l-8.792,10.912a11.307,11.307,0,0,1-.366-1.668Z" transform="translate(-10546.692 -3994.46)"/><path class="c" d="M545.259,277.915l-.2-.027.5,1.887a49.583,49.583,0,0,0,2.037,7.744l14.556,55.333a9.379,9.379,0,0,0,7.636,6.882l29.684,4.592a9.379,9.379,0,0,0,9.7-4.842l28.21-52.691a49.5,49.5,0,0,0,2.413-4.507l.958-1.789-.149-.02a49.874,49.874,0,1,0-95.339-12.563Z" transform="translate(-10262.334 -4049.335)"/><path class="b" d="M597.968,353.534a10.2,10.2,0,0,1-1.561-.12l-31.029-4.8a10.238,10.238,0,0,1-8.339-7.515l-15.215-57.838a52.17,52.17,0,0,1-2.137-8.129l-.385-2.53a52.581,52.581,0,0,1,60.189-58.643l-.134.866a51.724,51.724,0,0,0-59.111,58.227l.3,1.893A51.832,51.832,0,0,0,542.661,283l15.225,57.872a9.362,9.362,0,0,0,7.625,6.872l31.028,4.8a9.378,9.378,0,0,0,9.688-4.835l.773.413A10.26,10.26,0,0,1,597.968,353.534Z" transform="translate(-10259.016 -4044.927)"/><rect class="b" width="54.898" height="1.133" transform="translate(-9672.056 -3707.292) rotate(-69.885)"/><rect class="b" width="1.133" height="54.898" transform="translate(-9685.133 -3763.564) rotate(-2.516)"/><path class="c" d="M615.545,582.433l-39.759-6.151a1.133,1.133,0,0,1,.347-2.24l39.759,6.151a1.133,1.133,0,0,1-.347,2.24Z" transform="translate(-10279.215 -4247.605)"/><path class="c" d="M617.872,563.16l-39.759-6.151a1.133,1.133,0,0,1,.347-2.24l39.759,6.151a1.133,1.133,0,1,1-.347,2.24Z" transform="translate(-10280.523 -4236.776)"/><path class="c" d="M620.2,543.887l-39.759-6.151a1.133,1.133,0,1,1,.347-2.24l39.759,6.151a1.133,1.133,0,1,1-.346,2.24Z" transform="translate(-10281.831 -4225.947)"/><path class="c" d="M603.1,589c7.886,1.22,14.96-2.186,15.8-7.608l-28.559-4.418C589.5,582.4,595.216,587.783,603.1,589Z" transform="translate(-10287.889 -4249.262)"/><path class="b" d="M631.043,344.758a6.981,6.981,0,0,1-3.869-2.5c-.252-.295-.5-.6-.744-.907a8.85,8.85,0,0,0-2.921-2.718c-2.6-1.213-5.665.481-8.318,2.3l-.641-.935c2.917-2,6.319-3.847,9.439-2.393a9.822,9.822,0,0,1,3.325,3.036c.239.3.477.594.722.88.8.934,2.4,2.448,4.106,2.1a5.517,5.517,0,0,0,1.969-1.043,10.562,10.562,0,0,1,1.394-.879,5.55,5.55,0,0,1,6.092.861,10.958,10.958,0,0,1,.827.874,4.015,4.015,0,0,0,1.618,1.329c.926.3,1.905-.233,2.943-.793a5.86,5.86,0,0,1,3.43-1.027l.122.017c2.232.345,3.261,2.814,3.844,4.657l-1.081.341c-.791-2.5-1.755-3.75-3.018-3.889a4.981,4.981,0,0,0-2.759.9c-1.2.648-2.441,1.317-3.825.875a4.9,4.9,0,0,1-2.126-1.661,9.992,9.992,0,0,0-.74-.786,4.453,4.453,0,0,0-4.824-.682,9.565,9.565,0,0,0-1.243.789,6.439,6.439,0,0,1-2.4,1.228A3.727,3.727,0,0,1,631.043,344.758Z" transform="translate(-10301.537 -4114.461)"/></g></svg>