<svg xmlns="http://www.w3.org/2000/svg" width="31.395" height="30" viewBox="0 0 31.395 30"><defs><style>.a{fill:#0e76a8;}</style></defs><g transform="translate(0 -9.558)"><path class="a" d="M31.4,27.951V39.558H24.666V28.728c0-2.72-.973-4.577-3.409-4.577A3.682,3.682,0,0,0,17.8,26.613a4.6,4.6,0,0,0-.223,1.641v11.3H10.85s.091-18.342,0-20.242h6.731v2.869c-.014.021-.031.045-.044.065h.044v-.065a6.683,6.683,0,0,1,6.066-3.345C28.075,18.84,31.4,21.733,31.4,27.951ZM3.809,9.558a3.508,3.508,0,1,0-.089,7h.045a3.509,3.509,0,1,0,.044-7ZM.4,39.558H7.129V19.316H.4Z" transform="translate(0 0)"/></g></svg>