<svg xmlns="http://www.w3.org/2000/svg" width="25" height="25" viewBox="0 0 25 25"><defs><style>.a{fill:#0e76a8;}</style></defs><g transform="translate(-0.002)"><path class="a" d="M23.156,0H1.849A1.82,1.82,0,0,0,0,1.791V23.208A1.82,1.82,0,0,0,1.849,25H23.156A1.82,1.82,0,0,0,25,23.208V1.791A1.819,1.819,0,0,0,23.156,0ZM7.581,20.927H3.8V9.64H7.581ZM5.693,8.1H5.668a1.956,1.956,0,1,1,.049-3.9,1.957,1.957,0,1,1-.024,3.9ZM21.2,20.927H17.421V14.888c0-1.517-.547-2.553-1.913-2.553a2.063,2.063,0,0,0-1.937,1.373,2.523,2.523,0,0,0-.126.914v6.3H9.67S9.72,10.7,9.67,9.639h3.776v1.6a3.75,3.75,0,0,1,3.4-1.866c2.485,0,4.349,1.612,4.349,5.081v6.472Zm-7.776-9.651c.006-.011.015-.023.024-.036v.036Z" transform="translate(0 0)"/></g></svg>