<svg xmlns="http://www.w3.org/2000/svg" width="61.092" height="61.158" viewBox="0 0 61.092 61.158"><defs><style>.a{fill:#121212;stroke:#fff;stroke-width:0.6px;}</style></defs><g transform="translate(0.303 0.359)"><g transform="translate(0 8.901)"><g transform="translate(0)"><path class="a" d="M50.817,90.066l-3.049-3.738,1.749-4.508a3.471,3.471,0,0,0-4.493-4.494l-4.509,1.749-3.738-3.049c-.024-.02-.049-.038-.074-.056A3.465,3.465,0,0,0,31.12,78.9l.27,4.822-4.07,2.623q-.047.03-.09.064a3.469,3.469,0,0,0,1.08,6.208l.256.068L.9,120.356a3.216,3.216,0,0,0-.874,2.651,4.313,4.313,0,0,0,1.262,2.554,4.236,4.236,0,0,0,2.958,1.281,3.133,3.133,0,0,0,2.247-.893L34.159,98.28l.028.1A3.472,3.472,0,0,0,40.5,99.523l2.623-4.07,4.694.262a3.468,3.468,0,0,0,3-5.65Zm-46,34.212c-.349.349-1.2.275-1.864-.388a1.975,1.975,0,0,1-.584-1.141.9.9,0,0,1,.2-.723L31.21,93.384l1.78.47.471,1.783ZM49.234,92.371a1.1,1.1,0,0,1-1.1,1c-.038,0-.076,0-.113-.006l-.053,0-5.4-.3a1.183,1.183,0,0,0-1.059.54l-2.995,4.647a1.109,1.109,0,0,1-2.019-.375c0-.02-.009-.04-.014-.06L35.1,92.585a1.181,1.181,0,0,0-.84-.84l-5.341-1.411a1.106,1.106,0,0,1-.315-2q.038-.024.073-.051l4.573-2.947a1.181,1.181,0,0,0,.54-1.059l-.308-5.508a1.1,1.1,0,0,1,1.8-.913c.021.017.043.034.065.05l4.211,3.434a1.181,1.181,0,0,0,1.174.186l5.151-2a1.109,1.109,0,0,1,1.435,1.436l-2,5.15a1.181,1.181,0,0,0,.186,1.174l3.486,4.274A1.1,1.1,0,0,1,49.234,92.371Z" transform="translate(0 -75.244)"/></g></g><g transform="translate(37.485 0.013)"><g transform="translate(0 0)"><path class="a" d="M318.468.015A1.181,1.181,0,0,0,317.287,1.2V4.6a1.181,1.181,0,0,0,2.363,0V1.2A1.181,1.181,0,0,0,318.468.015Z" transform="translate(-317.287 -0.015)"/></g></g><g transform="translate(25.567 0.013)"><g transform="translate(0 0)"><path class="a" d="M220.318,3.552,218.616.6a1.181,1.181,0,1,0-2.046,1.181l1.7,2.948a1.181,1.181,0,0,0,2.046-1.181Z" transform="translate(-216.411 -0.013)"/></g></g><g transform="translate(13.65 20.655)"><path class="a" d="M120.124,174.734h-3.4a1.181,1.181,0,1,0,0,2.363h3.4a1.181,1.181,0,1,0,0-2.363Z" transform="translate(-115.539 -174.734)"/></g><g transform="translate(47.701 38.349)"><path class="a" d="M407.661,328.041l-1.7-2.948a1.181,1.181,0,1,0-2.046,1.181l1.7,2.948a1.181,1.181,0,1,0,2.046-1.181Z" transform="translate(-403.754 -324.503)"/></g><g transform="translate(54.631 20.655)"><path class="a" d="M467.09,174.734h-3.5a1.181,1.181,0,1,0,0,2.363h3.5a1.181,1.181,0,1,0,0-2.363Z" transform="translate(-462.413 -174.734)"/></g><g transform="translate(47.701 0.013)"><g transform="translate(0 0)"><path class="a" d="M407.23.171A1.181,1.181,0,0,0,405.617.6l-1.7,2.948a1.181,1.181,0,1,0,2.046,1.181l1.7-2.948A1.181,1.181,0,0,0,407.23.171Z" transform="translate(-403.756 -0.013)"/></g></g><g transform="translate(20.439 10.813)"><path class="a" d="M176.891,92.811l-2.117-1.222a1.181,1.181,0,1,0-1.181,2.046l2.117,1.222a1.181,1.181,0,1,0,1.181-2.046Z" transform="translate(-173.001 -91.43)"/></g><g transform="translate(37.485 37.893)"><path class="a" d="M318.468,320.645a1.181,1.181,0,0,0-1.181,1.181v3.4a1.181,1.181,0,1,0,2.363,0v-3.4A1.181,1.181,0,0,0,318.468,320.645Z" transform="translate(-317.287 -320.645)"/></g><g transform="translate(52.414 29.274)"><path class="a" d="M447.223,248.888l-1.8-1.041a1.182,1.182,0,0,0-1.181,2.046l1.8,1.041a1.182,1.182,0,0,0,1.181-2.047Z" transform="translate(-443.647 -247.689)"/></g><g transform="translate(52.414 9.991)"><path class="a" d="M449.394,85.059a1.181,1.181,0,0,0-1.614-.432l-3.542,2.045a1.181,1.181,0,1,0,1.181,2.046l3.542-2.045A1.181,1.181,0,0,0,449.394,85.059Z" transform="translate(-443.647 -84.468)"/></g><g transform="translate(37.485 44.774)"><path class="a" d="M318.468,378.89a1.181,1.181,0,0,0-1.181,1.181v.053a1.181,1.181,0,1,0,2.363,0v-.053A1.181,1.181,0,0,0,318.468,378.89Z" transform="translate(-317.287 -378.89)"/></g><g transform="translate(45.948 5.865)"><path class="a" d="M390.1,49.546a1.181,1.181,0,0,0-1.181,1.181v.054a1.181,1.181,0,1,0,2.363,0v-.054A1.181,1.181,0,0,0,390.1,49.546Z" transform="translate(-388.921 -49.546)"/></g></g></svg>