<svg xmlns="http://www.w3.org/2000/svg" width="61" height="38.778" viewBox="0 0 61 38.778"><defs><style>.a,.b,.c{fill:#fff;}.b,.c{stroke:#1553a5;}.c{stroke-width:0.2px;}</style></defs><g transform="translate(-4.5 -27.499)"><rect class="a" width="2.499" height="1.666" transform="translate(41.664 52.72)"/><rect class="a" width="2.499" height="1.666" transform="translate(25.837 52.72)"/><path class="b" d="M58.333,38.693v-1.8H57.021l2.353-6.277a1.111,1.111,0,0,0-1.041-1.5,2.138,2.138,0,0,1-1.111-.409A4.21,4.21,0,0,0,55,28a3.393,3.393,0,0,0-2.5,1.49c-.276.31-.641.732-.831.732s-.556-.422-.831-.732a3.393,3.393,0,0,0-2.5-1.49,4.21,4.21,0,0,0-2.222.7A2.138,2.138,0,0,1,45,29.111a1.111,1.111,0,0,0-1.041,1.5l2.353,6.277H45v1.8a13.3,13.3,0,0,0-3.038,2.41c-.1-.061-.2-.122-.3-.18v-1.8H40.354l2.353-6.277a1.111,1.111,0,0,0-1.041-1.5,2.138,2.138,0,0,1-1.111-.409,4.21,4.21,0,0,0-2.222-.7A5.52,5.52,0,0,0,36.111,31.4S35.556,32.444,35,32.444,33.889,31.4,33.889,31.4a5.52,5.52,0,0,0-2.222-1.178,4.21,4.21,0,0,0-2.222.7,2.138,2.138,0,0,1-1.111.409,1.111,1.111,0,0,0-1.041,1.5l2.353,6.277H28.333v1.8c-.1.058-.2.119-.3.18A13.3,13.3,0,0,0,25,38.686v-1.8H23.688l2.353-6.277A1.111,1.111,0,0,0,25,29.111a2.138,2.138,0,0,1-1.111-.409,4.21,4.21,0,0,0-2.222-.7,3.393,3.393,0,0,0-2.5,1.49c-.276.31-.641.732-.831.732s-.556-.422-.831-.732A3.393,3.393,0,0,0,15,28a4.21,4.21,0,0,0-2.222.7,2.138,2.138,0,0,1-1.111.409,1.111,1.111,0,0,0-1.041,1.5l2.353,6.277H11.667v1.8A13.333,13.333,0,0,0,5,50.222v5.556a7.787,7.787,0,0,0,7.778,7.778H23.889c.039,0,.077-.006.111-.007a7.748,7.748,0,0,0,5.444,2.229H40.556A7.748,7.748,0,0,0,46,63.549c.039,0,.077.007.111.007H57.222A7.787,7.787,0,0,0,65,55.778V50.222a13.333,13.333,0,0,0-6.667-11.529ZM46.482,31.02a7.461,7.461,0,0,0,.74-.389,2.138,2.138,0,0,1,1.111-.409c.19,0,.556.422.831.732a3.393,3.393,0,0,0,2.5,1.49,3.393,3.393,0,0,0,2.5-1.49c.276-.31.641-.732.831-.732a2.138,2.138,0,0,1,1.111.409,7.462,7.462,0,0,0,.734.383l-2.2,5.874H48.686ZM29.817,33.237a7.461,7.461,0,0,0,.739-.383,2.138,2.138,0,0,1,1.111-.409c.19,0,.556.422.831.732a3.393,3.393,0,0,0,2.5,1.49,3.393,3.393,0,0,0,2.5-1.49c.276-.31.641-.732.831-.732a2.138,2.138,0,0,1,1.111.409,7.461,7.461,0,0,0,.734.383l-2.2,5.874H32.019ZM13.15,31.014a7.461,7.461,0,0,0,.739-.383A2.138,2.138,0,0,1,15,30.222c.19,0,.556.422.831.732a3.393,3.393,0,0,0,2.5,1.49,3.393,3.393,0,0,0,2.5-1.49c.276-.31.641-.732.831-.732a2.138,2.138,0,0,1,1.111.409,7.461,7.461,0,0,0,.734.383l-2.2,5.874H15.352ZM7.222,55.778V50.222a11.123,11.123,0,0,1,6.9-10.277,4.453,4.453,0,0,0-.233,1.388v1.111h2.222V41.333a2.222,2.222,0,1,1,4.444,0v1.111h2.222V41.333a4.454,4.454,0,0,0-.231-1.381,11.086,11.086,0,0,1,3.694,2.464,13.3,13.3,0,0,0-4.574,10.028V58a7.709,7.709,0,0,0,.761,3.333h-9.65a5.562,5.562,0,0,1-5.556-5.556Zm33.333,7.778H29.444A5.562,5.562,0,0,1,23.889,58V52.444a11.123,11.123,0,0,1,6.9-10.277,4.453,4.453,0,0,0-.233,1.388v1.111h2.222V43.556a2.222,2.222,0,0,1,4.444,0v1.111h2.222V43.556a4.453,4.453,0,0,0-.233-1.388,11.123,11.123,0,0,1,6.9,10.277V58a5.562,5.562,0,0,1-5.556,5.556Zm22.222-7.778a5.562,5.562,0,0,1-5.556,5.556h-9.65A7.709,7.709,0,0,0,48.333,58V52.444a13.3,13.3,0,0,0-4.574-10.028,11.086,11.086,0,0,1,3.694-2.464,4.454,4.454,0,0,0-.231,1.381v1.111h2.222V41.333a2.222,2.222,0,1,1,4.444,0v1.111h2.222V41.333a4.453,4.453,0,0,0-.233-1.388,11.123,11.123,0,0,1,6.9,10.277Z" transform="translate(0 0)"/><path class="c" d="M63.264,2.8H61.682A3.117,3.117,0,0,0,60.434.623h2.83a.311.311,0,1,0,0-.623H56.676a.311.311,0,0,0,0,.623h1.887A2.516,2.516,0,0,1,61.056,2.8h-4.38a.311.311,0,0,0,0,.623h4.38a2.52,2.52,0,0,1-2.494,2.21H56.679a.316.316,0,0,0-.311.321.321.321,0,0,0,.1.224l4.71,4.455a.31.31,0,0,0,.439-.012.318.318,0,0,0-.012-.445L57.458,6.257h1.1a3.145,3.145,0,0,0,3.122-2.833h1.581a.311.311,0,1,0,0-.623Z" transform="translate(-24.699 49.111)"/></g></svg>