<svg xmlns="http://www.w3.org/2000/svg" xmlns:xlink="http://www.w3.org/1999/xlink" width="716.729" height="476.371" viewBox="0 0 716.729 476.371"><defs><style>.a{fill:url(#a);}.b{fill:#fff;}.c{fill:#d7d9e1;}.d{fill:#ededf4;}.e{fill:#fa5959;}.e,.f,.g{opacity:0.8;}.f{fill:#fed253;}.g{fill:#8ccf4d;}.h{fill:url(#b);}.i{fill:#3f3d56;}.j{fill:url(#c);}.k{fill:#fbbebe;}.l,.n{opacity:0.1;}.m{fill:#ffc20e;}.o{fill:#65617d;}.p{fill:url(#d);}.q{opacity:0.05;}.r{fill:#ffcdd3;}.s{fill:#dce6f2;}.t{fill:#2d293d;}.u{fill:url(#e);}.v{fill:#a1616a;}.w{fill:#464353;}</style><linearGradient id="a" x1="0.5" y1="1" x2="0.5" gradientUnits="objectBoundingBox"><stop offset="0" stop-color="gray" stop-opacity="0.251"/><stop offset="0.54" stop-color="gray" stop-opacity="0.122"/><stop offset="1" stop-color="gray" stop-opacity="0.102"/></linearGradient><linearGradient id="b" x1="-17.87" y1="168.19" x2="-17.87" y2="167.19" xlink:href="#a"/><linearGradient id="c" y2="-0.001" xlink:href="#a"/><linearGradient id="d" x1="-1.948" y1="1.001" x2="-1.948" y2="0" xlink:href="#a"/><linearGradient id="e" x1="2.68" y1="0.777" x2="2.68" y2="-0.153" xlink:href="#a"/></defs><g transform="translate(-46.715 -58.414)"><path class="a" d="M805.626,186.69H101.443a6.28,6.28,0,0,0-6.273,6.288V623.953a12.67,12.67,0,0,0,12.648,12.692H799.251A12.67,12.67,0,0,0,811.9,623.953V192.978A6.28,6.28,0,0,0,805.626,186.69Z" transform="translate(-48.455 -117.372)"/><path class="b" d="M810.164,223.5V631.469a12.546,12.546,0,0,1-12.539,12.546H111.8A12.546,12.546,0,0,1,99.25,631.469V223.5Z" transform="translate(-49.569 -127.425)"/><path class="c" d="M192.963,216.69V642.155H111.8A12.546,12.546,0,0,1,99.25,629.609V216.726Z" transform="translate(-49.569 -125.565)"/><path class="d" d="M810.164,196.222v18.129H99.25V196.222A6.222,6.222,0,0,1,105.472,190h698.47a6.222,6.222,0,0,1,6.222,6.222Z" transform="translate(-49.569 -118.276)"/><circle class="e" cx="2.908" cy="2.908" r="2.908" transform="translate(58.04 80.803)"/><circle class="f" cx="2.908" cy="2.908" r="2.908" transform="translate(66.036 80.803)"/><circle class="g" cx="2.908" cy="2.908" r="2.908" transform="translate(74.032 80.803)"/><rect class="d" width="68.329" height="7.269" transform="translate(259.698 131.824)"/><rect class="d" width="383.806" height="7.269" transform="translate(259.698 152.905)"/><rect class="d" width="383.806" height="7.269" transform="translate(259.698 173.985)"/><rect class="d" width="383.806" height="7.269" transform="translate(259.698 195.065)"/><rect class="d" width="383.806" height="7.269" transform="translate(259.698 216.145)"/><rect class="d" width="68.329" height="7.269" transform="translate(59.072 131.824)"/><rect class="d" width="68.329" height="7.269" transform="translate(59.072 152.905)"/><rect class="d" width="68.329" height="7.269" transform="translate(59.072 173.985)"/><rect class="d" width="68.329" height="7.269" transform="translate(59.072 195.065)"/><rect class="d" width="68.329" height="7.269" transform="translate(59.072 216.145)"/><rect class="h" width="2.908" height="4.361" transform="translate(446.506 58.414) rotate(90)"/><path class="i" d="M925.19,700.7a1.367,1.367,0,0,0-.727-1.076,1.4,1.4,0,0,0-1.854.778l-6.695,14.08-1.5,55.427h2.413l.9-55.3,7.356-13.033a1.4,1.4,0,0,0,.109-.872Z" transform="translate(-272.185 -257.421)"/><path class="j" d="M1028.881,765.935a1.057,1.057,0,0,1-.116.138,1.942,1.942,0,0,1-.829.414h0a8.1,8.1,0,0,1-1.868.313h-.189a7.747,7.747,0,0,1-1.083,0,5.731,5.731,0,0,0-.792-.051h0a5.548,5.548,0,0,0-1.127.276,9.659,9.659,0,0,1-2.5.356h-3.62c-1.628,0-3.242.305-4.87.327h-.523a7.691,7.691,0,0,1-4.492-1.345,1.7,1.7,0,0,1-.589-.676,1.947,1.947,0,0,1-.109-.894,2.108,2.108,0,0,1,.545-1.5,2.34,2.34,0,0,1,.865-.422l1.657-.523,1.774-.531.116-.036.334-.095.211-.073a3.439,3.439,0,0,0,.727-.342,2.44,2.44,0,0,0,.727-.727c0-.058.073-.116.1-.174v-.138c-.051-.378-.094-.727-.16-1.134a4.47,4.47,0,0,1-2.224-1.258,7.181,7.181,0,0,1-1.3-1.752,36.94,36.94,0,0,1-1.694-4.485,40.412,40.412,0,0,0-3.366-6.462c-1.156-1.926-2.312-3.853-3.635-5.67-.872-1.2-1.81-2.355-2.675-3.562a31.485,31.485,0,0,1-5.139-11.238,15.6,15.6,0,0,0-.625-2.283,23.946,23.946,0,0,0-2.181-3.453,11.332,11.332,0,0,1-1.592-4.085c-.153-.829-.407-1.716-1.229-1.8h0l-.087.174c-1.7,3.322-3.453,6.688-6.026,9.392a10.045,10.045,0,0,0-1.127,1.294,13.181,13.181,0,0,0-.727,1.388,9.155,9.155,0,0,1-1.6,2.341,5.408,5.408,0,0,1-.633.538,3.538,3.538,0,0,1-1,.494h0a2.833,2.833,0,0,1-.429.1.489.489,0,0,1,0,.1v.116a14.218,14.218,0,0,1-.553,7.211.723.723,0,0,1-.073.211c-.124.342-.262.669-.407,1-.371.8-.807,1.563-1.149,2.377-.058.138-.116.276-.167.414-1.214,3.227-.916,6.826-1.061,10.293a11.157,11.157,0,0,1-.269,2.253c-.2.836-.531,1.7-.727,2.559a4.36,4.36,0,0,0,0,1.977h-.073c-.327.124-.654.233-.981.334v.044c.124.676.233,1.352.349,2.021a2.98,2.98,0,0,0,.625,1.614,3.049,3.049,0,0,1,.291.32c.24.371,0,.865.073,1.309.065.625.647,1.156.552,1.781a1.162,1.162,0,0,1-.727.836,2.049,2.049,0,0,1-.465.153h-.094l-.545.066a25.221,25.221,0,0,1-6.738.065c-.443-.073-.88-.174-1.323-.211a9.337,9.337,0,0,0-1.686.073,83.214,83.214,0,0,1-12.408.24c-1.076-.058-2.312-.233-2.908-1.156a3.4,3.4,0,0,1-.058-2.617,2.721,2.721,0,0,1,.363-.916.707.707,0,0,1,.065-.087,3.129,3.129,0,0,1,2.493-.727l2.908.087a2.611,2.611,0,0,0,.858-.073,8.964,8.964,0,0,0,1.286-.727c.56-.269,1.265-.291,1.665-.727l.051-.065a2.314,2.314,0,0,0,.2-.313l.044-.058h0a.244.244,0,0,0,0-.058c.371-.487,1.025-.647,1.548-.959a1.049,1.049,0,0,0,.225-.16l.058-.051a6.255,6.255,0,0,1-1.454-1.454,1.556,1.556,0,0,1-.334-.582.878.878,0,0,1,.036-.494.742.742,0,0,1,.051-.109c.2-.407.625-.77.858-1.185v-.036a1.868,1.868,0,0,0-.094-2.028c.24-3.962,1.33-7.836,1.577-11.805.094-1.577.051-3.162.124-4.739s.247-3.118.422-4.667c.4-3.547,1.359-7.022,1.229-10.584a6.519,6.519,0,0,1,0-1v-.065a5.958,5.958,0,0,1,.676-2.086,16.118,16.118,0,0,1,1.454-2.086c1.854-2.406,4.078-4.812,4.74-7.785a16.813,16.813,0,0,1,1.846-4.311,7.573,7.573,0,0,1,1.606-2.261,6.828,6.828,0,0,0,1.069-.916,8.407,8.407,0,0,0,.8-2.282,10.529,10.529,0,0,0,.5-1.163.721.721,0,0,1,0-.124,7.88,7.88,0,0,0,.1-1.243v-.349h0a12.63,12.63,0,0,1,1.032-3.445l.182-.414a12.838,12.838,0,0,1-3.635-3.14,7.171,7.171,0,0,1-.872-1.323,16,16,0,0,1-1.054-3.983c-.727-3.22-2.3-6.251-2.522-9.537a10.773,10.773,0,0,0-.349-2.988,6.362,6.362,0,0,0-.342-.727c-.058-.1-.109-.2-.16-.305a.575.575,0,0,1-.058-.116l-.16-.3-.247.189a180.635,180.635,0,0,1-19.343,13.222l-.581.342a2.126,2.126,0,0,0-.727.625l-.065.116h0c-.138.284-.175.611-.291.909a2.458,2.458,0,0,1-1.679,1.338,5.183,5.183,0,0,1-3.809-.494c-.145-.073-.291-.153-.429-.24a4.811,4.811,0,0,1-.48.233,4.732,4.732,0,0,1-.632.24,13.237,13.237,0,0,1-3.714.334,11.293,11.293,0,0,0-3.7.407,9.321,9.321,0,0,1-2.377.727h-.283a4.277,4.277,0,0,1-1.345-.4l-.247-.109c-.124-.065-.247-.124-.371-.2a1.96,1.96,0,0,1-.364-.283,1.331,1.331,0,0,1-.342-.574.974.974,0,0,1,0-.48.283.283,0,0,1,.1-.182.3.3,0,0,1,.174-.044,5.462,5.462,0,0,1,1.032.087,3.386,3.386,0,0,0,.6,0h.109a1.287,1.287,0,0,0,.916-.509.48.48,0,0,0,.08-.145h0a.632.632,0,0,0,.058-.269.21.21,0,0,0,0-.065c-.124-.058-.255-.116-.371-.182l-.182-.109h-.036a1.771,1.771,0,0,1-.313-.254.971.971,0,0,1-.153-.189,1.137,1.137,0,0,1-.182-.363h0a1.731,1.731,0,0,0-.727,0c-.327.087-.661.284-.989.349a.822.822,0,0,1-.494,0c-.473-.167-.632-.727-.727-1.228a.536.536,0,0,0-.058-.291h0a1.65,1.65,0,0,1,0-.567,2.064,2.064,0,0,1,.792-1.032l.989-.829.073-.058q-.028-.122-.044-.247a1.456,1.456,0,0,1,0-.56,2.078,2.078,0,0,1,.792-1.032l2.181-1.839a2.558,2.558,0,0,1,1.388-.727c.792-.051,1.454.6,2.021,1.127a4.47,4.47,0,0,0,2.646,1.272,3.83,3.83,0,0,0,1.4-.189l.254-.087c-.051-.109-.109-.218-.16-.334s-.175-.371-.255-.552a6.027,6.027,0,0,0,3.417-1.636c.974-.843,1.81-1.839,2.791-2.668s2.275-1.577,3.351-2.442c2.5-2.028,4.165-5.008,6.84-6.8a8.915,8.915,0,0,0,2.631-2.05c.2-.283.342-.611.545-.894a9.471,9.471,0,0,1,2.646-1.941,13.092,13.092,0,0,0,2.435-2.428c.523-.632,1.054-1.265,1.548-1.912.465-.858.85-1.752,1.338-2.6a12.938,12.938,0,0,1,1.454-2.014c.124-.24.247-.48.385-.727s.233-.4.356-.589.182-.269.276-.4c-.276-.487-.538-.909-.661-1.083l-.058-.087a9.414,9.414,0,0,0-.851-.792q-.48-.08-.938-.2a8.788,8.788,0,0,1-6.462-8.49h0a8.724,8.724,0,0,1,.959-3.969c.124-.247.262-.48.407-.727a3.883,3.883,0,0,1-.4-.167,1.542,1.542,0,0,1-.56-.458,1.339,1.339,0,0,1-.233-.589,2.958,2.958,0,0,1,.218-1.454,6.55,6.55,0,0,1,.276-.654v-.036A8.389,8.389,0,0,1,963,622.247a12.757,12.757,0,0,1,8.548,3.4,11.5,11.5,0,0,1,2.086,1.941,12.359,12.359,0,0,1,2.014,6.281,9.552,9.552,0,0,1,0,2.086,4.977,4.977,0,0,1-.145.727c-.044.145-.095.284-.145.422a2.982,2.982,0,0,1-.138.305h0a2.118,2.118,0,0,1-.153.283v.036l-.044.065.08.174a1.634,1.634,0,0,0,.08.16h0c.611.051,1.163.131,1.774.182a3.767,3.767,0,0,1,.858.131,5.861,5.861,0,0,1,1.563.974c1.257.887,2.8,1.3,4.027,2.217,1.825,1.352,2.726,3.576,3.809,5.575,1.454,2.675,3.8,4.95,4.841,7.814l1.417,3.889a59.652,59.652,0,0,0,3.1,7.487c1.745,3.337,4.114,6.339,5.517,9.828a1.548,1.548,0,0,0,.727.814,63.767,63.767,0,0,1,5.088,8.49,16.42,16.42,0,0,1,1.73,4.921,11.7,11.7,0,0,1-.378,4.594,21.147,21.147,0,0,1-.88,2.61,4.367,4.367,0,0,0-.3.93.506.506,0,0,0,0,.1,8.8,8.8,0,0,0,.218,1.73,3.182,3.182,0,0,1-.153,1.381.591.591,0,0,1-.08.2,8.038,8.038,0,0,0-.473,1.1v.138a5.47,5.47,0,0,0,.305,1.97,26.111,26.111,0,0,1,.3,7.225c-.073,1.2.9,2.181,1.715,3.06a32.422,32.422,0,0,1,3.816,5.554,17.638,17.638,0,0,1,1.563,3.118,27.57,27.57,0,0,1,.836,3.838c.771,3.976,3.278,7.487,3.962,11.478a10.294,10.294,0,0,0,2.326,4.936,10.093,10.093,0,0,1,1,1.214,4.9,4.9,0,0,1,.5,1.083,8,8,0,0,1,.407,2.748,4.36,4.36,0,0,0,.08,1.337c.284.923,1.294,1.454,1.715,2.3s.124,1.984.284,2.973a3.254,3.254,0,0,0,1.192,2.006c-.24.211-.494.407-.727.6a2.962,2.962,0,0,1,.625.654,2.538,2.538,0,0,1,.284.538c.4.923.414,2.021.727,2.995a2.138,2.138,0,0,1,.211,1.258,1.4,1.4,0,0,0-.1.371c0,.276.284.451.393.727a.727.727,0,0,1-.131.712Z" transform="translate(-274.284 -236.318)"/><path class="k" d="M979.962,653.412a19.028,19.028,0,0,0,5.088-2.566l5.6-3.569a4.885,4.885,0,0,1-3.635-2.515,12.865,12.865,0,0,1-1.367-4.361,22.788,22.788,0,0,0-6.44,4.216c-.778.669-2.413,1.672-2.653,2.711s1.279,1.883,1.868,2.58C978.654,650.162,980.558,653.252,979.962,653.412Z" transform="translate(-289.151 -241.278)"/><path class="l" d="M979.962,653.412a19.028,19.028,0,0,0,5.088-2.566l5.6-3.569a4.885,4.885,0,0,1-3.635-2.515,12.865,12.865,0,0,1-1.367-4.361,22.788,22.788,0,0,0-6.44,4.216c-.778.669-2.413,1.672-2.653,2.711s1.279,1.883,1.868,2.58C978.654,650.162,980.558,653.252,979.962,653.412Z" transform="translate(-289.151 -241.278)"/><path class="k" d="M934.518,698.331a6.194,6.194,0,0,1-3.148.952,4.594,4.594,0,0,1-2.646-1.265c-.589-.523-1.221-1.178-2.013-1.119a2.6,2.6,0,0,0-1.388.727l-2.181,1.832a1.519,1.519,0,0,0-.727,1.868c.1.487.262,1.061.727,1.229s.981-.2,1.454-.327a1.737,1.737,0,0,1,1.708.5,1.026,1.026,0,0,1,.291.654c0,.545-.611.9-1.156.93s-1.09-.153-1.636-.116a.3.3,0,0,0-.174.044.291.291,0,0,0-.1.174,1.141,1.141,0,0,0,.349,1.054,3.046,3.046,0,0,0,.981.589,3.993,3.993,0,0,0,1.345.4,7.777,7.777,0,0,0,2.653-.727,11.632,11.632,0,0,1,3.693-.407,12.9,12.9,0,0,0,3.707-.327,4.2,4.2,0,0,0,2.806-2.275.589.589,0,0,0,.051-.349.6.6,0,0,0-.254-.3c-1.679-1.243-2.362-2.755-4.252-3.635Z" transform="translate(-274.346 -256.706)"/><path class="l" d="M934.518,698.331a6.194,6.194,0,0,1-3.148.952,4.594,4.594,0,0,1-2.646-1.265c-.589-.523-1.221-1.178-2.013-1.119a2.6,2.6,0,0,0-1.388.727l-2.181,1.832a1.519,1.519,0,0,0-.727,1.868c.1.487.262,1.061.727,1.229s.981-.2,1.454-.327a1.737,1.737,0,0,1,1.708.5,1.026,1.026,0,0,1,.291.654c0,.545-.611.9-1.156.93s-1.09-.153-1.636-.116a.3.3,0,0,0-.174.044.291.291,0,0,0-.1.174,1.141,1.141,0,0,0,.349,1.054,3.046,3.046,0,0,0,.981.589,3.993,3.993,0,0,0,1.345.4,7.777,7.777,0,0,0,2.653-.727,11.632,11.632,0,0,1,3.693-.407,12.9,12.9,0,0,0,3.707-.327,4.2,4.2,0,0,0,2.806-2.275.589.589,0,0,0,.051-.349.6.6,0,0,0-.254-.3c-1.679-1.243-2.362-2.755-4.252-3.635Z" transform="translate(-274.346 -256.706)"/><path class="m" d="M973.661,654.449a3.634,3.634,0,0,0-3.184-.385,6.856,6.856,0,0,0-2.748,1.832,12.535,12.535,0,0,0-1.934,2.559c-.516.894-.916,1.846-1.417,2.748a28.652,28.652,0,0,1-3.271,4.441,12.765,12.765,0,0,1-2.435,2.413,9.667,9.667,0,0,0-2.639,1.934c-.2.284-.349.6-.552.894a8.757,8.757,0,0,1-2.624,2.028c-2.675,1.781-4.361,4.74-6.826,6.753-1.076.865-2.29,1.548-3.351,2.435s-1.817,1.81-2.784,2.646a5.959,5.959,0,0,1-3.416,1.621,17.447,17.447,0,0,0,3.344,5.263,6,6,0,0,0,5.67,1.854,2.464,2.464,0,0,0,1.679-1.33,5.521,5.521,0,0,1,.349-1.025,2.182,2.182,0,0,1,.763-.618,179.684,179.684,0,0,0,22.927-15.89c1.941-1.577,3.86-2.987,5.815-4.507a12.73,12.73,0,0,0,1.97-1.723,6.542,6.542,0,0,0,.792-7.211,17.256,17.256,0,0,0-1.824-2.479A21.855,21.855,0,0,0,973.661,654.449Z" transform="translate(-278.212 -244.954)"/><path class="l" d="M973.661,654.449a3.634,3.634,0,0,0-3.184-.385,6.856,6.856,0,0,0-2.748,1.832,12.535,12.535,0,0,0-1.934,2.559c-.516.894-.916,1.846-1.417,2.748a28.652,28.652,0,0,1-3.271,4.441,12.765,12.765,0,0,1-2.435,2.413,9.667,9.667,0,0,0-2.639,1.934c-.2.284-.349.6-.552.894a8.757,8.757,0,0,1-2.624,2.028c-2.675,1.781-4.361,4.74-6.826,6.753-1.076.865-2.29,1.548-3.351,2.435s-1.817,1.81-2.784,2.646a5.959,5.959,0,0,1-3.416,1.621,17.447,17.447,0,0,0,3.344,5.263,6,6,0,0,0,5.67,1.854,2.464,2.464,0,0,0,1.679-1.33,5.521,5.521,0,0,1,.349-1.025,2.182,2.182,0,0,1,.763-.618,179.684,179.684,0,0,0,22.927-15.89c1.941-1.577,3.86-2.987,5.815-4.507a12.73,12.73,0,0,0,1.97-1.723,6.542,6.542,0,0,0,.792-7.211,17.256,17.256,0,0,0-1.824-2.479A21.855,21.855,0,0,0,973.661,654.449Z" transform="translate(-278.212 -244.954)"/><path class="i" d="M965.4,807.678a4.84,4.84,0,0,0-1.541.96c-.124.153-.2.342-.334.487-.4.473-1.112.494-1.665.763a9.857,9.857,0,0,1-1.287.727,2.867,2.867,0,0,1-.865.065l-2.907-.087c-.931,0-2.021,0-2.559.778a2.715,2.715,0,0,0-.364.916,3.356,3.356,0,0,0,.058,2.6c.567.909,1.8,1.083,2.908,1.141a82.053,82.053,0,0,0,12.357-.24,9.975,9.975,0,0,1,1.679-.065,13.227,13.227,0,0,1,1.323.211,25.437,25.437,0,0,0,6.731-.065,3.423,3.423,0,0,0,1.112-.24,1.148,1.148,0,0,0,.727-.829c.094-.625-.487-1.148-.552-1.774-.044-.443.167-.93-.073-1.3a1.99,1.99,0,0,0-.291-.313,2.973,2.973,0,0,1-.618-1.606L978.7,806.7a.923.923,0,0,0-.247-.582.865.865,0,0,0-.378-.153c-2.29-.523-4.645-.044-6.935.247a19.278,19.278,0,0,1-3.547.174c-.509,0-.727-.094-1.09.24A7.237,7.237,0,0,1,965.4,807.678Z" transform="translate(-282.9 -286.428)"/><path class="i" d="M1043.732,812.182a4.787,4.787,0,0,1-1.287.5q-1.774.523-3.54,1.083a2.338,2.338,0,0,0-.865.422,2.078,2.078,0,0,0-.545,1.49,1.931,1.931,0,0,0,.109.887,1.738,1.738,0,0,0,.589.669,7.888,7.888,0,0,0,4.8,1.338c1.694,0,3.373-.284,5.088-.327,2.05-.058,4.151.233,6.113-.342a5.9,5.9,0,0,1,1.163-.284,5.811,5.811,0,0,1,.792.051,8.28,8.28,0,0,0,3.133-.283,1.925,1.925,0,0,0,.836-.414.792.792,0,0,0,.226-.85c-.109-.24-.385-.422-.393-.727a1.413,1.413,0,0,1,.1-.371,2.115,2.115,0,0,0-.211-1.25c-.393-1.163-.327-2.5-1.025-3.511a4.463,4.463,0,0,0-3.184-1.585,8.876,8.876,0,0,0-2.973.087c-1.1.233-2.123.727-3.206,1.039a10.6,10.6,0,0,1-3.853.364c-.865-.073-.567.065-.858.785A2.538,2.538,0,0,1,1043.732,812.182Z" transform="translate(-305.795 -287.21)"/><circle class="k" cx="8.737" cy="8.737" r="8.737" transform="translate(681.064 390.487)"/><path class="m" d="M1039.9,763.961a15.468,15.468,0,0,1-9.944,3.387,8.128,8.128,0,0,1-4.361-.93c-.087-.494-.124-1.025-.218-1.519a5.568,5.568,0,0,1-3.518-2.995,36.5,36.5,0,0,1-1.693-4.456,40.046,40.046,0,0,0-3.366-6.426c-1.148-1.912-2.3-3.824-3.635-5.626-.872-1.2-1.81-2.341-2.668-3.54a31.259,31.259,0,0,1-5.139-11.165,14.156,14.156,0,0,0-.625-2.268,22.485,22.485,0,0,0-2.181-3.431,11.277,11.277,0,0,1-1.592-4.063c-.153-.821-.4-1.708-1.228-1.8h0c-1.73,3.366-3.5,6.775-6.106,9.508a9.35,9.35,0,0,0-1.127,1.279,12.668,12.668,0,0,0-.727,1.388,8.72,8.72,0,0,1-1.592,2.326,3.728,3.728,0,0,1-2.057,1.119,14,14,0,0,1-.989,8.585c-.364.8-.8,1.556-1.141,2.362-1.4,3.307-1.083,7.051-1.228,10.642a10.966,10.966,0,0,1-.262,2.239c-.371,1.454-1.12,3.038-.727,4.507-3.78,1.454-8,1.352-11.972.727a5.742,5.742,0,0,1-2.232-.676,6.226,6.226,0,0,1-1.454-1.454,1.558,1.558,0,0,1-.334-.582c-.153-.691.611-1.192.96-1.8a1.853,1.853,0,0,0-.08-2.05c.24-3.947,1.33-7.8,1.57-11.74.1-1.57.058-3.14.131-4.71s.24-3.1.414-4.638c.4-3.518,1.367-6.971,1.229-10.511a6.091,6.091,0,0,1,.727-3.133,15.291,15.291,0,0,1,1.454-2.072c1.846-2.392,4.071-4.783,4.732-7.734a16.722,16.722,0,0,1,1.839-4.281,7.57,7.57,0,0,1,1.614-2.246,7.126,7.126,0,0,0,1.061-.916A8.579,8.579,0,0,0,984.24,703a12.462,12.462,0,0,0,.487-1.156,6.476,6.476,0,0,0,.138-1.352,12.46,12.46,0,0,1,1.25-4.2,12.846,12.846,0,0,1-3.635-3.118,7.554,7.554,0,0,1-.88-1.316,16.539,16.539,0,0,1-1.054-3.954c-.727-3.206-2.29-6.215-2.515-9.45a10.711,10.711,0,0,0-.349-2.973,9.989,9.989,0,0,0-.56-1.156,4.653,4.653,0,0,1-.473-1.17,19.966,19.966,0,0,1,0-2.719,19.773,19.773,0,0,0-.582-2.326,11.171,11.171,0,0,1-.087-3.075,25.506,25.506,0,0,0,.233-3.635,14.072,14.072,0,0,1,3.823-10.824l.073-.073c.574-.589,1.2-1.134,1.723-1.774.727-.851,1.214-1.861,1.948-2.69.327-.371.727-.727,1.018-1.076a8.758,8.758,0,0,1,.974-1.1,1.512,1.512,0,0,1,1.367-.364,3.578,3.578,0,0,0,.414,1.279c.625.051,1.185.138,1.8.189a3.768,3.768,0,0,1,.858.131,5.655,5.655,0,0,1,1.563.967c1.25.88,2.791,1.294,4.02,2.181,1.824,1.337,2.726,3.555,3.8,5.539,1.454,2.66,3.8,4.921,4.841,7.763q.727,1.941,1.41,3.867a59.55,59.55,0,0,0,3.1,7.444c1.745,3.307,4.107,6.295,5.5,9.762a1.564,1.564,0,0,0,.727.807,63.611,63.611,0,0,1,5.088,8.439,16.026,16.026,0,0,1,1.723,4.892,14.232,14.232,0,0,1-1.25,7.16,3.574,3.574,0,0,0-.312,1.025,8.141,8.141,0,0,0,.218,1.716,3.241,3.241,0,0,1-.233,1.577,7.16,7.16,0,0,0-.472,1.09,4.658,4.658,0,0,0,.283,2.094,25.815,25.815,0,0,1,.291,7.182c-.065,1.192.909,2.181,1.715,3.038a32.425,32.425,0,0,1,3.816,5.517,18.164,18.164,0,0,1,1.555,3.1,27.126,27.126,0,0,1,.843,3.824c.727,3.947,3.271,7.436,3.947,11.4a10.176,10.176,0,0,0,2.326,4.9,10.589,10.589,0,0,1,1,1.214,4.5,4.5,0,0,1,.495,1.076,7.95,7.95,0,0,1,.414,2.733,3.89,3.89,0,0,0,.08,1.33c.276.916,1.294,1.454,1.708,2.29s.131,1.97.291,2.951A3.141,3.141,0,0,0,1039.9,763.961Z" transform="translate(-286.755 -242.115)"/><path class="k" d="M937.012,694.6a6.216,6.216,0,0,1-3.147.952,4.572,4.572,0,0,1-2.646-1.265c-.6-.523-1.229-1.178-2.014-1.119a2.574,2.574,0,0,0-1.388.727l-2.181,1.832a2.013,2.013,0,0,0-.785,1.025,1.949,1.949,0,0,0,.051.843c.094.487.262,1.061.727,1.228s.981-.2,1.454-.327a1.723,1.723,0,0,1,1.708.5.989.989,0,0,1,.291.654c0,.545-.6.909-1.156.93s-1.083-.153-1.628-.116a.306.306,0,0,0-.182.044.328.328,0,0,0-.1.175,1.164,1.164,0,0,0,.393,1.083,3.318,3.318,0,0,0,.989.6,4.165,4.165,0,0,0,1.338.393,7.69,7.69,0,0,0,2.653-.727,11.519,11.519,0,0,1,3.7-.414,12.917,12.917,0,0,0,3.707-.327,4.187,4.187,0,0,0,2.8-2.275.5.5,0,0,0,.051-.349.581.581,0,0,0-.247-.3c-1.686-1.243-2.37-2.755-4.26-3.635Z" transform="translate(-275.029 -255.688)"/><path class="i" d="M972.377,630.484a7.34,7.34,0,0,0-1.454.632,2.515,2.515,0,0,1-2.057-.116,1.54,1.54,0,0,1-.56-.458,2.18,2.18,0,0,1,0-2.028,8.28,8.28,0,0,1,7.378-5.147,12.768,12.768,0,0,1,8.534,3.38,11.947,11.947,0,0,1,1.941,2.028,12.285,12.285,0,0,1,2.013,6.244,8.172,8.172,0,0,1-.189,2.791,3.4,3.4,0,0,1-1.577,2.137,3.147,3.147,0,0,1-2.77-.124,11.23,11.23,0,0,1-2.362-1.723,3.633,3.633,0,0,0-1.178-.727,1.221,1.221,0,0,0-1.279.305c-.4.487-.305,1.279-.669,1.8a1.991,1.991,0,0,1-1.774.6,2.028,2.028,0,0,1-1.687-.567,2.108,2.108,0,0,1-.167-1.723,5.5,5.5,0,0,0,.3-1.766c-.124-1.192-1.178-1.948-1.5-3.053-.211-.727.262-1.032.211-1.686a.945.945,0,0,0-1.149-.8Z" transform="translate(-286.835 -236.624)"/><path class="l" d="M1007.362,739.764v.073h0c-1.73,3.366-3.5,6.775-6.106,9.508a9.357,9.357,0,0,0-1.127,1.279,12.654,12.654,0,0,0-.727,1.388,8.723,8.723,0,0,1-1.592,2.326l-2.181,1.09,6.927-36.149Z" transform="translate(-294.365 -262.819)"/><path class="l" d="M992.761,666.733a12.724,12.724,0,0,1-1.97,1.723c-1.992,1.519-3.911,2.908-5.815,4.507q-2.348,1.912-4.74,3.729a4.657,4.657,0,0,1-.473-1.17,19.967,19.967,0,0,1,0-2.719,19.769,19.769,0,0,0-.582-2.326,11.167,11.167,0,0,1-.087-3.075,25.539,25.539,0,0,0,.233-3.634,14.073,14.073,0,0,1,3.823-10.824l.073-.073a5.65,5.65,0,0,1,1.025-.458,3.635,3.635,0,0,1,3.184.385,21.707,21.707,0,0,1,4.361,4.26,16.8,16.8,0,0,1,1.825,2.471,6.542,6.542,0,0,1-.858,7.2Z" transform="translate(-289.831 -244.503)"/><path class="m" d="M976.151,650.718a3.634,3.634,0,0,0-3.191-.385,6.875,6.875,0,0,0-2.74,1.832,12.562,12.562,0,0,0-1.941,2.559c-.509.894-.916,1.846-1.41,2.748a28.246,28.246,0,0,1-3.278,4.441,12.52,12.52,0,0,1-2.428,2.413,9.592,9.592,0,0,0-2.646,1.934c-.2.283-.349.6-.545.894a8.88,8.88,0,0,1-2.631,2.028c-2.668,1.781-4.361,4.74-6.818,6.753-1.076.865-2.29,1.548-3.351,2.435s-1.817,1.81-2.791,2.646a5.924,5.924,0,0,1-3.409,1.621,17.454,17.454,0,0,0,3.337,5.263,6.039,6.039,0,0,0,5.677,1.854,2.457,2.457,0,0,0,1.672-1.33,6.11,6.11,0,0,1,.356-1.025,2.18,2.18,0,0,1,.763-.618A180.179,180.179,0,0,0,973.7,670.89c1.941-1.577,3.86-2.988,5.815-4.507a12.406,12.406,0,0,0,1.97-1.723,6.542,6.542,0,0,0,.8-7.211,16.366,16.366,0,0,0-1.832-2.472,21.671,21.671,0,0,0-4.3-4.26Z" transform="translate(-278.892 -243.934)"/><g class="n" transform="translate(681.206 390.617)"><path d="M976.958,640.309a2.006,2.006,0,0,1-1.686-.567,2.108,2.108,0,0,1-.167-1.723,5.454,5.454,0,0,0,.3-1.759c-.124-1.2-1.178-1.948-1.5-3.06-.211-.727.262-1.032.211-1.686a.952.952,0,0,0-1.127-.778,7.346,7.346,0,0,0-1.454.632,2.515,2.515,0,0,1-2.057-.109,1.708,1.708,0,0,1-.56-.458,2.181,2.181,0,0,1,0-2.035V628.7a7.64,7.64,0,0,0-.625,1.272,2.18,2.18,0,0,0,0,2.028,1.544,1.544,0,0,0,.56.458,2.515,2.515,0,0,0,2.072.095,7.333,7.333,0,0,1,1.454-.632.945.945,0,0,1,1.127.778c.051.654-.422.959-.211,1.686.327,1.1,1.381,1.861,1.5,3.053a5.5,5.5,0,0,1-.3,1.766,2.108,2.108,0,0,0,.167,1.723,2.027,2.027,0,0,0,1.686.567,1.992,1.992,0,0,0,1.774-.6,2.457,2.457,0,0,0,.327-.923A2.565,2.565,0,0,1,976.958,640.309Z" transform="translate(-968.036 -628.7)"/><path d="M991.1,643.533a3.133,3.133,0,0,1-2.762-.116,12.014,12.014,0,0,1-2.4-1.716,3.438,3.438,0,0,0-1.17-.727,1.221,1.221,0,0,0-1.279.305,2.356,2.356,0,0,0-.378,1.018,1.273,1.273,0,0,1,1.054-.116,3.635,3.635,0,0,1,1.177.727,11.232,11.232,0,0,0,2.362,1.723,3.148,3.148,0,0,0,2.77.124,3.366,3.366,0,0,0,1.548-2.035A2.73,2.73,0,0,1,991.1,643.533Z" transform="translate(-972.153 -632.033)"/></g><circle class="i" cx="9.035" cy="9.035" r="9.035" transform="translate(616.151 513.552)"/><circle class="l" cx="9.035" cy="9.035" r="9.035" transform="translate(616.151 513.552)"/><circle class="o" cx="5.721" cy="5.721" r="5.721" transform="translate(619.466 516.866)"/><circle class="l" cx="5.721" cy="5.721" r="5.721" transform="translate(619.466 516.866)"/><path class="i" d="M881.43,790.429l5.932,13.4a1.148,1.148,0,0,0,2.086.044L896.5,789.52Z" transform="translate(-263.178 -282.002)"/><path class="l" d="M881.43,790.429l5.932,13.4a1.148,1.148,0,0,0,2.086.044L896.5,789.52Z" transform="translate(-263.178 -282.002)"/><circle class="i" cx="9.035" cy="9.035" r="9.035" transform="translate(559.816 513.552)"/><circle class="l" cx="9.035" cy="9.035" r="9.035" transform="translate(559.816 513.552)"/><circle class="o" cx="5.721" cy="5.721" r="5.721" transform="translate(563.131 516.866)"/><circle class="l" cx="5.721" cy="5.721" r="5.721" transform="translate(563.131 516.866)"/><path class="i" d="M803.94,790.429l5.931,13.4a1.149,1.149,0,0,0,2.086.044L819,789.52Z" transform="translate(-242.016 -282.002)"/><path class="l" d="M803.94,790.429l5.931,13.4a1.149,1.149,0,0,0,2.086.044L819,789.52Z" transform="translate(-242.016 -282.002)"/><path class="i" d="M927.828,701.553a1.352,1.352,0,0,0-.727-1.076,1.4,1.4,0,0,0-1.854.778l-5.183,12.874-1.5,57.84h2.406l.9-57.716,5.859-11.827A1.389,1.389,0,0,0,927.828,701.553Z" transform="translate(-273.318 -257.654)"/><path class="m" d="M768.43,717.453l8.134-5.117,87.81-.756,2.261,5.873Z" transform="translate(-220.513 -207.674)"/><path class="i" d="M768.43,724.722V719.3l99.8-.959-.095,3.671h-97.9v2.711Z" transform="translate(-220.513 -209.52)"/><circle class="i" cx="9.035" cy="9.035" r="9.035" transform="translate(551.529 516.714)"/><circle class="o" cx="5.721" cy="5.721" r="5.721" transform="translate(554.844 520.029)"/><path class="i" d="M792.54,794.781l5.931,13.4a1.149,1.149,0,0,0,2.086.044L807.6,793.88Z" transform="translate(-238.903 -283.192)"/><circle class="i" cx="9.035" cy="9.035" r="9.035" transform="translate(621.719 516.714)"/><circle class="o" cx="5.721" cy="5.721" r="5.721" transform="translate(625.034 520.029)"/><path class="i" d="M889.1,794.781l5.932,13.4a1.148,1.148,0,0,0,2.086.044l7.044-14.349Z" transform="translate(-265.273 -283.192)"/><rect class="d" width="59.606" height="59.606" transform="translate(562.091 447.302)"/><path class="m" d="M820.85,739.634h10.1v15.149h-10.1Zm12.626-7.574h10.1v22.723h-10.1ZM846.1,744.679h10.1v10.1H846.1Z" transform="translate(-246.634 -266.31)"/><rect class="c" width="59.606" height="59.606" transform="translate(572.268 387.695)"/><path class="m" d="M845.27,675.952h20.2v3.787h-20.2Zm10.1-10.1a2.53,2.53,0,0,0,0-5.052,2.784,2.784,0,0,0-.727.094l-5.212-3.838-.313.276,3.86,5.263a2.39,2.39,0,0,0-.116.727,2.522,2.522,0,0,0,2.508,2.53Z" transform="translate(-253.303 -245.828)"/><path class="m" d="M853,643.11a16.406,16.406,0,0,0-12.932,26.51h4.638l.313-.32,1.745-1.737-1.8-1.81-1.745,1.737a12.539,12.539,0,0,1-2.777-6.709H842.9V658.3h-2.457a12.539,12.539,0,0,1,2.777-6.709l1.745,1.737,1.8-1.81-1.737-1.737A12.56,12.56,0,0,1,851.739,647v2.457h2.522V647a12.54,12.54,0,0,1,6.709,2.777l-1.737,1.737,1.81,1.81,1.745-1.737a12.6,12.6,0,0,1,2.777,6.709H863.1v2.522h2.464a12.6,12.6,0,0,1-2.777,6.709l-1.745-1.737-1.81,1.81,1.745,1.737.32.32h4.667a16.414,16.414,0,0,0-12.932-26.51Z" transform="translate(-250.933 -242.018)"/><rect class="l" width="59.606" height="59.606" transform="translate(261.152 250.31)"/><rect class="d" width="59.606" height="59.606" transform="translate(259.698 248.856)"/><path class="m" d="M417.632,453.85h5.052v30.3h-5.052Zm-7.574,21.458H415.1v8.839H410.05Zm15.149-5.052h5.088v13.891h-5.088Zm7.574-7.574h5.052v21.466H432.78Z" transform="translate(-134.447 -190.332)"/><rect class="l" width="59.606" height="59.606" transform="translate(583.898 249.583)"/><rect class="d" width="59.606" height="59.606" transform="translate(582.445 248.129)"/><path class="m" d="M876.262,465l-6.884,10.526a3.728,3.728,0,0,1,.851,2.384,3.787,3.787,0,1,1-7.574,0,4.451,4.451,0,0,1,.065-.727l-4.543-2.646a3.773,3.773,0,0,1-4.492.567l-4.834,4.529v4.514a3.38,3.38,0,0,0,3.365,3.373h28.618a3.387,3.387,0,0,0,3.373-3.373V467.4l-4.623-3.075a3.8,3.8,0,0,1-3.322.669Z" transform="translate(-254.281 -193.194)"/><path class="m" d="M855.552,464.447a3.787,3.787,0,0,1,3.787,3.787v.487l4.739,2.653a3.78,3.78,0,0,1,2.4-.858,4.183,4.183,0,0,1,.821.087l6.9-10.678a3.775,3.775,0,1,1,6.848-2.181,4.014,4.014,0,0,1-.1.894l3.264,2.181V454.5a3.387,3.387,0,0,0-3.373-3.373H852.216a3.38,3.38,0,0,0-3.366,3.373V472.6L852,469.572a3.78,3.78,0,0,1,3.547-5.088Z" transform="translate(-254.281 -189.589)"/><rect class="l" width="59.606" height="59.606" transform="translate(422.525 252.491)"/><rect class="d" width="59.606" height="59.606" transform="translate(421.071 251.037)"/><path class="m" d="M637.27,487.952h20.2v3.787h-20.2Zm10.1-10.1a2.544,2.544,0,1,0,0-5.088,2.781,2.781,0,0,0-.727.094l-5.212-3.8-.313.276,3.86,5.263a2.394,2.394,0,0,0-.116.727A2.522,2.522,0,0,0,647.374,477.856Z" transform="translate(-196.499 -194.486)"/><path class="m" d="M645,455.11a16.406,16.406,0,0,0-12.932,26.51h4.638l.313-.32,1.745-1.737-1.8-1.81-1.745,1.737a12.538,12.538,0,0,1-2.777-6.709H634.9V470.3h-2.457a12.538,12.538,0,0,1,2.777-6.709l1.745,1.737,1.8-1.81-1.737-1.737A12.561,12.561,0,0,1,643.739,459v2.457h2.522V459a12.539,12.539,0,0,1,6.709,2.777l-1.737,1.737,1.81,1.81,1.745-1.737a12.6,12.6,0,0,1,2.777,6.709H655.1v2.522h2.464a12.6,12.6,0,0,1-2.777,6.709l-1.745-1.737-1.81,1.81,1.745,1.737.32.32h4.667a16.413,16.413,0,0,0-12.932-26.51Z" transform="translate(-194.129 -190.676)"/><rect class="l" width="59.606" height="59.606" transform="translate(397.81 346.262)"/><rect class="d" width="59.606" height="59.606" transform="translate(392.722 341.9)"/><path class="m" d="M612.6,588.09l4.049,4.042-8.621,8.636-7.073-7.073L587.87,606.815l2.493,2.493L600.969,598.7l7.073,7.073,11.129-11.122,4.049,4.049V588.09Z" transform="translate(-183.009 -226.992)"/><path class="p" d="M557.7,760.909c.429-1.832.727-3.438.727-3.438a7.073,7.073,0,0,1,.792-3.489v-.494h0V749.8a12.3,12.3,0,0,0-.923-1.926c-.669-1.156,0-5.4,0-5.4s2.457-5.975,1.854-9.762,5.03-16.871,5.03-16.871a16.334,16.334,0,0,0-.538-3.722,3.2,3.2,0,0,1-.065-.785v-.094h0c.08-2.5,2.057-7.182,2.057-7.182l-.262-8.934a26.263,26.263,0,0,1,.8-12.357,57.768,57.768,0,0,0,1.454-5.961,2.787,2.787,0,0,1,.095-.5c-4.238-.647-7.473-1.185-7.473-1.185s2.457-10.278,4.114-12.081,2.988-7.451,2.988-7.451.865-7.269-.531-9.384-1.592-5.815-1.592-5.815-3.191-2.312-3.591-3.336a17.3,17.3,0,0,1-1.061-4.565c0-1.221.4-2.312.269-2.958s.931-3.082.4-4.238a3.183,3.183,0,0,1-.218-1.119v.08a15.573,15.573,0,0,1,.283-3.017,8.506,8.506,0,0,1,3.148-1.687l.073-.276.182-.727a3.56,3.56,0,0,1,.313-.189v-1.3l-.5-2.348c-.974-4.078,4.463-4.689,4.463-4.689a2.863,2.863,0,0,1,1.548-1.352c1.1-.385.182,6.135-.334,6.542a24.553,24.553,0,0,0-2.181,3.358h0l-.094.167a2.475,2.475,0,0,1,.247.254l-.2,1.454v.218a6,6,0,0,1,.865,1.454,3.169,3.169,0,0,0-.8,2.312,7.269,7.269,0,0,1-.327,2.828c.058-.065.763-.829,1.454-.64s2.653.771,2.653.771,1.454.254,1.33.582,1,1.73,1,1.73l3.925-3.714c.036-.116.08-.225.109-.342a8.491,8.491,0,0,0,.342-1.628,8.615,8.615,0,0,1-1.25-.4,2.61,2.61,0,0,1-1.09-.727,4.233,4.233,0,0,1-.632-1.687,23.579,23.579,0,0,0-1.454-3.249,10.57,10.57,0,0,1-.785-5.815,3.831,3.831,0,0,1,.6-1.708c.64-.887,1.8-1.243,2.646-1.948s1.4-1.774,2.377-2.3a4.724,4.724,0,0,1,2.98-.254,15.886,15.886,0,0,1,5.561,2.021,2.813,2.813,0,0,0,1.861.611,2.5,2.5,0,0,0,1.345-.981v-.058l.044-.051a6.956,6.956,0,0,1,.611,2.908v.473a1.294,1.294,0,0,0,0,.167.794.794,0,0,0,0,.131h0a.651.651,0,0,0,0,.2,1.452,1.452,0,0,0,.371.531,3.219,3.219,0,0,1,.32.436.473.473,0,0,0-.058-.16,2.274,2.274,0,0,1,.407,1.236,1.235,1.235,0,0,1-.291.887,4.847,4.847,0,0,1-.64.516,7.829,7.829,0,0,1,.116,1.308,7.611,7.611,0,0,1-3.7,6.477l-.131.334a9.313,9.313,0,0,0-.727,4.281.794.794,0,0,0,.044.313l.145.16h0s6.477.065,8-1.316,3.853,3.373,3.853,3.373,2.319.451,2.784,0,3.191-.065,3.191-.065a5.816,5.816,0,0,1,4.049-1.454,11.88,11.88,0,0,1,2.973-1.65h.073a3.266,3.266,0,0,1,1.454-.182,30.127,30.127,0,0,0,4.114-4.049c.93-1.41,5.357-6.658,5.379-6.688v-.247l.051-.771a2.511,2.511,0,0,0,.4,0,.917.917,0,0,1,.087-.262,14.7,14.7,0,0,1,.938-2.181s0-.967-.276-1.207.116-3.78.116-3.78,2.908-6.709,5.445-1.7c0,0,4.863,3.242.778,7.022,0,0-1.628.785-1.861,1.41-.145.407-.727,1.541-1.076,2.3l-.16.334h.044l-.058.632v.247c.771.436,1.294.865,1.163,1.2a7.537,7.537,0,0,0-.465,1.73s-5.641,7.073-6.368,10.089c0,0-15.141,9-20.121,9.639l.865,4.5s.262,2.7.2,3.635.6,5.336.6,5.336.865,6.426,1.6,7.327.6,4.754.6,4.754a31.979,31.979,0,0,0,1,5.459,13.979,13.979,0,0,1,.2,5.466s2.522,5.779-3.518,1.861c0,0-2.966-.182-6.382-.3v1.759c.044,3.307.065,7.872-.087,11.325-.262,6.106-2.123,18.173-2.123,18.173v6.07a8.082,8.082,0,0,1,.174,1.737,11.275,11.275,0,0,1-1.636,6.077l-.465,4.049a15.861,15.861,0,0,0-1.112,4.26,2.059,2.059,0,0,0,.051.385,2.905,2.905,0,0,1,.051.618,35.239,35.239,0,0,1-1.047,6.237s-.065,4.434-.727,4.7.727,2.552,1.156,3.22a.624.624,0,0,0,0-.124l.08.131a3.09,3.09,0,0,1,.2,1.127,1.607,1.607,0,0,1-.727,1.556c-1.265.771-1.941,1.41-.872,1.672a9.916,9.916,0,0,1,1.17.247,1.319,1.319,0,0,0,.058-.153.727.727,0,0,1,.436.778,3.315,3.315,0,0,1-.393,1.5,15.874,15.874,0,0,1-1.8,3.278l-.509-.058a2.683,2.683,0,0,0,.3.545,2.1,2.1,0,0,0,.727.669,2.416,2.416,0,0,0,.909.313,2.559,2.559,0,0,1,1.883.916,1.954,1.954,0,0,1-.233,3.046l-4.747,1.635s-8.17,1.061-7.734-.771.727-3.438.727-3.438a7.219,7.219,0,0,1,.661-3.249c.087-.16.182-.32.291-.48h-.291s-.6-4.049-1.4-4.819c-.182-.182-.225-.312-.182-.422-.08-.218.124-.349.392-.422a1.036,1.036,0,0,1,.058.16,3.965,3.965,0,0,1,.792-.087s.269-2.123-.6-2.908a.836.836,0,0,1-.167-.632,3.565,3.565,0,0,1,.087-.858l.036.044a31.559,31.559,0,0,1,1.9-4.979,6.105,6.105,0,0,0-.465-2.7c-.531-.771.065-10.475.065-10.475a31.9,31.9,0,0,1,.4-6.877,7.731,7.731,0,0,0-.727-4.754V716h0a4.461,4.461,0,0,1,.08-.727v.044c.131-1.243.385-3.489.574-4.529.262-1.454-.065-8.548-.065-8.548l-1.1-2.952-2.122,5.2-2.239,6.935a5.9,5.9,0,0,0-1.163,2.958v.683a4.158,4.158,0,0,1-.727,2.471s-.6,3.278-1.526,4.114a3.707,3.707,0,0,0-.93,2.442,40.38,40.38,0,0,1-1.665,5.59,8.533,8.533,0,0,0-.465,3.235h0v.174s-.16,1.7-.153,3.126v.472a4.9,4.9,0,0,0,.138,1.156v-.175a12.271,12.271,0,0,1,.342,2.966c0,1.708-.233,3.729-1.265,4.921-1.8,2.057-2.908,1.8-2.908,1.8s.865,2.573,1.926,3.089a.471.471,0,0,1,.109.073,1.117,1.117,0,0,0,0-.153,1.265,1.265,0,0,1,.313.959,6.89,6.89,0,0,1-1.316,3.809,2.107,2.107,0,0,1-.9.523l.167.1a3.983,3.983,0,0,0,.371.175,2.075,2.075,0,0,0,.538.145,2.537,2.537,0,0,1,1.883.909c.661.858,1.076,2.021-.233,3.046l-4.747,1.643S557.275,762.734,557.7,760.909Z" transform="translate(-174.766 -231.235)"/><path class="i" d="M597.8,820.779l4.594-1.635c1.272-1.025.865-2.181.225-3.046a2.435,2.435,0,0,0-1.817-.916,2.246,2.246,0,0,1-.88-.313,2.029,2.029,0,0,1-.727-.669,3.4,3.4,0,0,1-.531-1.774s-5.045-1.454-6.426,0a3.894,3.894,0,0,0-.611.894,7.508,7.508,0,0,0-.64,3.249s-.254,1.606-.676,3.438S597.8,820.779,597.8,820.779Z" transform="translate(-183.672 -288.081)"/><path class="i" d="M566.861,817.667l4.594-1.643a2,2,0,0,0,.225-3.046,2.436,2.436,0,0,0-1.817-.909,1.964,1.964,0,0,1-.531-.145,3.1,3.1,0,0,1-.349-.174,2.937,2.937,0,0,1-1.258-2.442s-5.045-1.454-6.426,0a3.935,3.935,0,0,0-.48.661,7.269,7.269,0,0,0-.771,3.489s-.262,1.607-.676,3.438S566.861,817.667,566.861,817.667Z" transform="translate(-175.222 -287.229)"/><path class="o" d="M560.021,773.836a13.238,13.238,0,0,1,.9,1.926v5.088c1.287,2.115,8,1.41,8.868.254s1.861-4.18.836-4.689-1.868-3.089-1.868-3.089,1.1.262,2.828-1.8,1.221-6.622.9-7.712a22.917,22.917,0,0,1,0-4.754s-.065-2.573.451-3.409a41.947,41.947,0,0,0,1.607-5.59,3.78,3.78,0,0,1,.9-2.442c.9-.836,1.454-4.114,1.454-4.114a4.2,4.2,0,0,0,.64-2.762,5.6,5.6,0,0,1,1.1-3.337l2.181-6.942,2.057-5.2,1.156,3.017s.327,7.073.066,8.548-.64,5.4-.64,5.4a8.009,8.009,0,0,1,.727,4.754,34.212,34.212,0,0,0-.385,6.877s-.582,9.7-.066,10.475a6.252,6.252,0,0,1,.451,2.7s-2.631,5.655-1.8,6.426.574,2.908.574,2.908-1.8,0-1.025.771,1.345,4.819,1.345,4.819l7.771.9a16.357,16.357,0,0,0,1.745-3.278c1.025-2.377-.2-2.123-1.229-2.377s-.378-.9.843-1.672.509-2.508.509-2.508-1.861-3.148-1.221-3.4.727-4.7.727-4.7,1.279-5.27.959-6.68,1.032-4.82,1.032-4.82l.451-4.049a11.137,11.137,0,0,0,1.4-7.669V735.47s1.8-12.081,2.057-18.173c.167-3.911.116-9.246.065-12.575,0-1.868-.065-3.1-.065-3.1l-27.761-2.908a22.874,22.874,0,0,1-.5,4.122,59.785,59.785,0,0,1-1.454,5.968,27.092,27.092,0,0,0-.77,12.357l.254,8.934s-2.442,5.975-1.926,8a17.255,17.255,0,0,1,.509,3.729s-5.459,13.041-4.878,16.835-1.8,9.77-1.8,9.77S559.381,772.68,560.021,773.836Z" transform="translate(-175.324 -257.202)"/><g class="q" transform="translate(384.411 444.219)"><path d="M603.818,801.588a1.5,1.5,0,0,0,.691-1.1l.08.131s.727,1.737-.516,2.508l-.393.262c-.225-.044-.472-.073-.727-.131C601.943,803.042,602.6,802.358,603.818,801.588Z" transform="translate(-571.403 -729.217)"/><path d="M590.83,800.8c-.2-.189-.2-.683-.073-1.316a3.5,3.5,0,0,1,.429,1.861A1.576,1.576,0,0,0,590.83,800.8Z" transform="translate(-568.184 -728.941)"/><path d="M592.47,757.31a8.723,8.723,0,0,1,.509,2.362,9.031,9.031,0,0,0-.589-1.621S592.419,757.761,592.47,757.31Z" transform="translate(-568.654 -717.425)"/><path d="M568.585,752.4a3.326,3.326,0,0,1-.065-.727c.094.48.16.93.211,1.316C568.687,752.811,568.643,752.637,568.585,752.4Z" transform="translate(-562.135 -715.884)"/><path d="M592.674,788.194a4.043,4.043,0,0,1-.2-1.454,4.8,4.8,0,0,1,.378,1.8A1.523,1.523,0,0,0,592.674,788.194Z" transform="translate(-568.677 -725.462)"/><path d="M604.26,765.754s-.065,4.434-.727,4.689h0c-.327-.727-.545-1.454-.255-1.541.64-.262.727-4.7.727-4.7s1.287-5.27.967-6.68S606,752.706,606,752.706l.451-4.049a11.136,11.136,0,0,0,1.41-7.647v-6.237s1.8-12.081,2.057-18.173c.167-3.911.124-9.246.065-12.575V702.44h.225s0,1.236.058,3.1c.058,3.329.1,8.665-.058,12.576-.262,6.106-2.057,18.173-2.057,18.173v6.23a11.166,11.166,0,0,1-1.454,7.647l-.451,4.049s-1.345,3.409-1.025,4.819S604.26,765.754,604.26,765.754Z" transform="translate(-571.591 -702.44)"/><path d="M559.761,799.681a12.308,12.308,0,0,1,.9,1.926v.9c-.145-.327-.356-.763-.64-1.287a3.841,3.841,0,0,1-.283-1.592Z" transform="translate(-559.737 -728.982)"/><path d="M572.432,797.523A11.4,11.4,0,0,1,571.8,796s1.09.262,2.828-1.8c1.258-1.5,1.33-4.325,1.149-6.171.327,1.1.843,5.655-.894,7.712A4.448,4.448,0,0,1,572.432,797.523Z" transform="translate(-563.031 -725.814)"/><path d="M577.128,768.212a33.719,33.719,0,0,0-.131,3.809,5.594,5.594,0,0,0-.131-.6,22.921,22.921,0,0,1,0-4.754s-.058-2.573.451-3.409a43.08,43.08,0,0,0,1.606-5.59,3.78,3.78,0,0,1,.9-2.442c.9-.836,1.454-4.107,1.454-4.107a4.259,4.259,0,0,0,.647-2.77,5.559,5.559,0,0,1,1.09-3.336l2.181-6.942,2.057-5.2,1.156,3.017v.981l-.872-2.45-2.057,5.2-2.181,6.942a5.641,5.641,0,0,0-1.09,3.344,4.2,4.2,0,0,1-.64,2.762s-.582,3.278-1.454,4.107a3.8,3.8,0,0,0-.894,2.442,43.135,43.135,0,0,1-1.607,5.6A9.867,9.867,0,0,0,577.128,768.212Z" transform="translate(-564.376 -710.75)"/></g><path class="r" d="M569.817,616.569l.48,2.348v1.817l2.682.276.3-.56h0a24.589,24.589,0,0,1,2.086-3.366c.494-.414,1.374-6.942.313-6.542a2.82,2.82,0,0,0-1.49,1.352S568.865,612.491,569.817,616.569Z" transform="translate(-178.047 -233.119)"/><path class="l" d="M570.45,624.161l2.682.276.3-.56h0a2.355,2.355,0,0,0-2.959-.487Z" transform="translate(-178.251 -236.545)"/><path class="s" d="M569.52,625.511l3.533.822.08-.523.2-1.454a2.428,2.428,0,0,0-3.424-.465l-.174.727Z" transform="translate(-177.997 -236.631)"/><path class="r" d="M648.32,614.945l3.773,2.021s.138-.3.342-.727c.356-.727.894-1.883,1.039-2.29.225-.625,1.8-1.454,1.8-1.454,3.954-3.773-.727-7.015-.727-7.015-2.486-5.016-5.263,1.7-5.263,1.7s-.392,3.533-.116,3.773.269,1.207.269,1.207a15.256,15.256,0,0,0-.909,2.181A6.187,6.187,0,0,0,648.32,614.945Z" transform="translate(-199.517 -231.234)"/><path class="l" d="M648.32,618.97l3.773,2.021s.138-.3.342-.727c-.538-.443-2.421-1.977-3.046-1.9a4.893,4.893,0,0,1-.894,0C648.378,618.744,648.32,618.97,648.32,618.97Z" transform="translate(-199.517 -235.258)"/><path class="s" d="M647.78,620.212l4.245,2.086.087-.909.058-.632s-2.457-2.108-3.184-2.028a3.9,3.9,0,0,1-1.1,0l-.051.727Z" transform="translate(-199.37 -235.359)"/><path class="r" d="M584,634.89s18.492,2.086,15.04.967a4.627,4.627,0,0,1-3.562-4.013,9.6,9.6,0,0,1,.683-4.281,18.546,18.546,0,0,1,1.657-3.336s-14.138-7.778-11.311-.727a11.238,11.238,0,0,1,.8,3.344,9.3,9.3,0,0,1-.364,3.395A10.089,10.089,0,0,1,584,634.89Z" transform="translate(-181.952 -235.855)"/><path class="l" d="M587.31,623.524a11.242,11.242,0,0,1,.8,3.344c1.33,1.12,2.791,1.047,4.667,1.047,1.454,0,3.039.349,4.187-.349a18.54,18.54,0,0,1,1.657-3.336S584.482,616.451,587.31,623.524Z" transform="translate(-182.753 -235.858)"/><circle class="r" cx="7.647" cy="7.647" r="7.647" transform="translate(402.63 377.25)"/><path class="l" d="M584,638.24s18.492,2.086,15.04.967a4.627,4.627,0,0,1-3.562-4.013,10.249,10.249,0,0,0-3.962-2.1,5.554,5.554,0,0,0-3.351-.051,4.734,4.734,0,0,0-1.221.567A10.091,10.091,0,0,1,584,638.24Z" transform="translate(-181.952 -239.205)"/><path class="l" d="M569.52,625.938l3.533.821.08-.523a3.118,3.118,0,0,0-3.4-1.163Z" transform="translate(-177.997 -237.058)"/><path class="l" d="M647.78,620.5l4.245,2.086.087-.909a31.71,31.71,0,0,0-4.281-1.9Z" transform="translate(-199.37 -235.647)"/><path class="l" d="M573.94,702.836c7.16,1.134,17.351,2.6,18.972,2.108,1.338-.407,5.626-.363,9.355-.233,0-1.868-.066-3.1-.066-3.1l-27.76-2.908a22.879,22.879,0,0,1-.5,4.136Z" transform="translate(-179.204 -257.199)"/><path class="i" d="M564.11,679.708s23.581,4.049,26.118,3.278,15.52.058,15.52.058c5.852,3.925,3.409-1.861,3.409-1.861a14.255,14.255,0,0,0-.2-5.459,33.387,33.387,0,0,1-.96-5.466s.131-3.853-.581-4.754-1.541-7.327-1.541-7.327-.64-4.362-.574-5.336a36.005,36.005,0,0,0-.2-3.635l-.836-4.5c4.819-.647,19.474-9.639,19.474-9.639.727-3.024,6.164-10.089,6.164-10.089a7.4,7.4,0,0,1,.451-1.737c.385-1.025-5.394-3.082-5.394-3.082s-4.311,5.27-5.2,6.68a29.232,29.232,0,0,1-3.983,4.049,3.182,3.182,0,0,0-1.454.182h-.073a11.483,11.483,0,0,0-2.908,1.65,5.6,5.6,0,0,0-3.918,1.454s-2.631-.385-3.082.065-2.7,0-2.7,0-2.253-4.761-3.729-3.38-7.72,1.359-7.72,1.359c-.836-1.112-2.871-1.912-4.143-2.319a5.554,5.554,0,0,0-3.351-.058,4.276,4.276,0,0,0-1.323.64l-3.809,3.729s-1.09-1.454-.959-1.737-1.287-.582-1.287-.582-1.861-.574-2.573-.77-1.352.574-1.41.64a7.465,7.465,0,0,0,.32-2.82,3.235,3.235,0,0,1,.77-2.312c-2.246-5.532-7.327-.9-7.327-.9s-.574,3.017-.065,4.172-.509,3.634-.385,4.245-.254,1.737-.254,2.958a17.226,17.226,0,0,0,1.032,4.558c.385,1.032,3.467,3.344,3.467,3.344a14.78,14.78,0,0,0,1.541,5.815c1.352,2.181.516,9.377.516,9.377s-1.287,5.655-2.908,7.458S564.11,679.708,564.11,679.708Z" transform="translate(-176.52 -235.75)"/><path class="t" d="M593.583,623.875a1.621,1.621,0,0,1-.6,1.032,1.534,1.534,0,0,1-.727.16,15.511,15.511,0,0,1-6.92-.647,2.7,2.7,0,0,1-1.047-.727,4.23,4.23,0,0,1-.611-1.694,25.073,25.073,0,0,0-1.41-3.249,10.9,10.9,0,0,1-.763-5.815,4.027,4.027,0,0,1,.589-1.708c.618-.88,1.745-1.236,2.559-1.941s1.345-1.781,2.3-2.3a4.361,4.361,0,0,1,2.908-.254,15.075,15.075,0,0,1,5.386,2.021,2.741,2.741,0,0,0,1.8.611,2.514,2.514,0,0,0,1.323-1.018,7.094,7.094,0,0,1,.567,3.336.98.98,0,0,0,.356,1.032,1.945,1.945,0,0,1,.363,2.4c-.247.291-.625.451-.865.727-.436.538-.291,1.316-.276,2a1.032,1.032,0,0,1-.175.676.959.959,0,0,1-.938.225,2.661,2.661,0,0,0-1.01-.095,1.693,1.693,0,0,0-.872.676,11.9,11.9,0,0,0-1.948,4.558Z" transform="translate(-181.242 -232.044)"/><path class="l" d="M596.087,636.685s-9.559,1.265-10.417-.174" transform="translate(-182.408 -240.215)"/><path class="i" d="M376.472,740.69H369.2a.727.727,0,0,0,0,1.454h1.454v9.711h-24.9a.727.727,0,0,0-.545-.262h-7.269a.727.727,0,0,0,0,1.454H339.4v9.973H315.369a.727.727,0,0,0-.683-.523h-7.269a.727.727,0,1,0,0,1.454h.727v10.242H283.726a.727.727,0,0,0-.3-.065h-7.269a.727.727,0,1,0,0,1.454h.727v9.777H252.775a.727.727,0,0,0-.589-.327h-7.269a.727.727,0,1,0,0,1.454h.727v10.9H409.925v-56.7Z" transform="translate(-89.152 -268.666)"/><path class="u" d="M186.69,748.15a5.815,5.815,0,0,0,2.479,2.7,21.344,21.344,0,0,1,3.1,2.115c1.119,1.061,1.846,2.53,3.162,3.344a6.4,6.4,0,0,0,1.6.661,10.074,10.074,0,0,0,1.97.4,13.925,13.925,0,0,0,5.088-.872,4.718,4.718,0,0,0,1.526-.669,4.254,4.254,0,0,0,.582-.56,3.272,3.272,0,0,0,.8-1.265,1.032,1.032,0,0,0-.073-.763,1.76,1.76,0,0,0-.647-.618,10.978,10.978,0,0,0-1.454-.807,7.462,7.462,0,0,1-1.9-1.01,4.433,4.433,0,0,1-.923-1.243,12.034,12.034,0,0,1-1.047-2.508,8.164,8.164,0,0,0-.582-1.708c-.313-.574-.814-1.068-1.148-1.628a1.341,1.341,0,0,0,.531-.073,4.958,4.958,0,0,0-.582-2.573c.727.058,1.069-.894.952-1.6s-.458-1.454-.153-2.094a3.884,3.884,0,0,1,.821-.945c1.156-1.221,1.119-3.082,1.6-4.681a13.579,13.579,0,0,1,1.2-2.6c1.388-2.508,2.028-5.648,4.267-7.458l2.014-1.628a.858.858,0,0,0,.313-.371c.116-.313-.131-.64-.116-.974.036-.589.836-.829,1.1-1.359a3.356,3.356,0,0,0,.2-.807c.211-.923,1.112-1.5,1.759-2.181a4.95,4.95,0,0,0,1.287-3.954,3.351,3.351,0,0,1-.058-1.076,5.19,5.19,0,0,1,.283-.727,6.543,6.543,0,0,0,.24-2.355,21.079,21.079,0,0,1,.458-3.744l9.93-2.253c.065.073.124.145.2.218.88.894,1.316,2.181,2.181,3.111l1.134,1.25c.218.24.443.56.313.85s-.3.3-.436.458a.778.778,0,0,0,.669,1.229,1.5,1.5,0,0,0,.778,2.246,6.02,6.02,0,0,1-.829,1.265,1.047,1.047,0,0,1,.218.64,3.04,3.04,0,0,1-.145.407,1.723,1.723,0,0,0,.08.916,13.761,13.761,0,0,1,0,7.124,4.118,4.118,0,0,0-.189.981,2.907,2.907,0,0,0,.124.821c.334,1.2,1,2.457.538,3.635a7.5,7.5,0,0,0-.393.851c-.262.872.342,1.73.669,2.58a8.723,8.723,0,0,1,.32,3.635c-.08,1.686-.167,3.366-.247,5.045a2.005,2.005,0,0,0,.095.909,1.548,1.548,0,0,0,1.018.785c-.1.342-.2.683-.32,1.018a.6.6,0,0,0-1.018-.044,1.076,1.076,0,0,0-.131.48,12.073,12.073,0,0,0,.589,3.569,1.657,1.657,0,0,1,.051.567,3.572,3.572,0,0,1-.2.574.845.845,0,0,0-.044.145,3.541,3.541,0,0,0,.16,1.73,1.527,1.527,0,0,0,.5.923,1.453,1.453,0,0,0,.654.2c3.475.4,6.862-1.861,10.337-1.454.727.08,1.41.269,2.123.342a11.15,11.15,0,0,0,2.508-.124c1.163-.153,2.319-.349,3.46-.574a8.605,8.605,0,0,0,2.522-.807,3.141,3.141,0,0,0,1.621-1.984,1.49,1.49,0,0,0-.145-1.119,1.3,1.3,0,0,0-.291-.305,3.124,3.124,0,0,0-.9-.429l-1.345-.487a8.089,8.089,0,0,0-2.006-.523c-.5-.044-1.018,0-1.519,0a9.971,9.971,0,0,1-4.8-2.086l-1.992-1.323a1.287,1.287,0,0,0-1.359-.225l-.276.1,1.229-.683q.087-8.985-.044-17.962a18.817,18.817,0,0,0-.422-4.427c-.218-.829-.451-1.912.276-2.377.189-.647-.2-1.294-.371-1.934s.073-1.563.727-1.57a8.251,8.251,0,0,1-.676-3.954,28.746,28.746,0,0,0-.218-3.322,9.4,9.4,0,0,0-1.149-3.911l9.8-2.224-.32-1.417,1.454-.327-7.894-34.753a.923.923,0,0,0,.6-.829c-.036-.342-.371-.654-.262-.981.065-.2.262-.305.385-.473a1.127,1.127,0,0,0-.124-1.294.574.574,0,0,1-.138-.32.632.632,0,0,1,.073-.225,1.7,1.7,0,0,0-.487-2.021.663.663,0,0,0-.284-.145,2.064,2.064,0,0,1-.669,0c-.233-.073-.24-.2-.5-.225h-.08l-2.988-13.15a13.094,13.094,0,0,0,.523-1.948,6.193,6.193,0,0,0-.313-3.525,7.206,7.206,0,0,0,1.73-1.3.974.974,0,0,0,.233-1.236,8.8,8.8,0,0,0-2.908-3.976c-.414-.312-1.4-1.141-2-.959q.225-.327.48-.632a6.41,6.41,0,0,0,.952-1.192,8.3,8.3,0,0,0,4.95-9.45,2.523,2.523,0,0,0-.095-.334,1.345,1.345,0,0,0,1.119-.407,1.454,1.454,0,0,0,.131-1.454,11.565,11.565,0,0,0-.727-1.308c-.545-.989-.414-2.268-.974-3.191a10.652,10.652,0,0,0-1.984-2.181,6.36,6.36,0,0,0-5.292-1.207,11.5,11.5,0,0,0-4.979,2.5,6.539,6.539,0,0,1-1.4.967c-.829.378-1.846.364-2.537.952-.916.778-.8,2.181-.451,3.344s.865,2.348.465,3.482a7.269,7.269,0,0,0-.4,1.025,2.966,2.966,0,0,0,.487,1.883,2.326,2.326,0,0,0,.233-.414.094.094,0,0,1,0,.044c.051.189.109.378.16.567a.568.568,0,0,0-.24.051c-.342.153-.494.553-.778.8s-.989.407-1.127.865c-.065.218,0,.458-.08.669-.174.414-.785.414-1.1.727a.93.93,0,0,0-.182.945,1.97,1.97,0,0,0,.247.494,1.046,1.046,0,0,0,.065.632l-4.056.981a8.928,8.928,0,0,0-1.883.618,2.907,2.907,0,0,0-1.388,1.359.246.246,0,0,1-.153.2.327.327,0,0,1-.2,0,3.634,3.634,0,0,0-2.1.1,11.362,11.362,0,0,0-5.372,3.925A1.977,1.977,0,0,0,206,632.3c-.036.436.2.923,0,1.3l-.211.087a10.35,10.35,0,0,0-1.723.727c-.589.349-1.1.807-1.657,1.214-2.261,1.657-5.248,2.479-6.847,4.768-.523.727-.9,1.665-1.7,2.13a10.994,10.994,0,0,0-1.09.56,3.366,3.366,0,0,0-.88,2.261L177.6,648.593l.32,1.41-1.454.327,13.2,58.087,12.183-2.762a3.5,3.5,0,0,0,.116.821,7.06,7.06,0,0,0,.836,2.413,1.388,1.388,0,0,0-.96,1.287c-.065.56.036,1.141-.08,1.694a5.622,5.622,0,0,1-1.788,2.428c-3.242,3.329-3.925,8.243-5.583,12.546a49.846,49.846,0,0,0-2.3,6.011c-.582,2.362-.618,5.088-2.479,6.724a1.3,1.3,0,0,0-.422.494.792.792,0,0,0,0,.451,2.181,2.181,0,0,0,.691,1.1l-.087.167a.667.667,0,0,0-.218,0c-.378,0-.589.48-.727.771a8.309,8.309,0,0,0-.96,3.278.937.937,0,0,0-.32,0,1.359,1.359,0,0,0-.981.807A2.181,2.181,0,0,0,186.69,748.15Zm47.343-120.579h-.145a6.247,6.247,0,0,1,.429-.989,6.074,6.074,0,0,0-.283.989ZM195.144,743.679a1.2,1.2,0,0,1-.414.632h-.036a1.868,1.868,0,0,1,.073-.233l.16-.458Z" transform="translate(-70.658 -231.451)"/><path class="i" d="M257.782,790.263a15.911,15.911,0,0,1-6.833,1.316c-.356,0-.792-.175-.829-.531a.822.822,0,0,1,.08-.364,21.662,21.662,0,0,0,1.17-4.361.342.342,0,0,1,.087-.2.327.327,0,0,1,.218-.051c1.061,0,2.072.48,3.133.531a4.158,4.158,0,0,0,1.577-.233c.443-.153.974-.669,1.388-.727C257.862,787.159,257.614,788.686,257.782,790.263Z" transform="translate(-90.771 -280.942)"/><path class="i" d="M198.687,797.312a12.15,12.15,0,0,1-4.754-2.791.574.574,0,0,1-.174-.291.676.676,0,0,1,.051-.334,13.084,13.084,0,0,1,2.406-4.165,9.448,9.448,0,0,1,2.181,1.236c.465.313,1.65.727,1.788,1.308.087.349-.225.829-.349,1.141-.16.429-.313.858-.451,1.294A16.18,16.18,0,0,0,198.687,797.312Z" transform="translate(-75.378 -282.059)"/><path class="o" d="M249.664,797.215a1.556,1.556,0,0,0,.494.923,1.308,1.308,0,0,0,.654.2c3.424.414,6.753-1.832,10.177-1.454.727.08,1.4.276,2.093.341a10.893,10.893,0,0,0,2.479-.116c1.141-.145,2.282-.334,3.409-.56a8.305,8.305,0,0,0,2.479-.792,3.169,3.169,0,0,0,1.6-1.984,1.57,1.57,0,0,0-.153-1.119,1.291,1.291,0,0,0-.291-.305,3.153,3.153,0,0,0-.887-.436l-1.33-.487a8,8,0,0,0-1.977-.531,14.71,14.71,0,0,0-1.5,0,9.908,9.908,0,0,1-4.739-2.108l-1.963-1.33a1.649,1.649,0,0,0-.654-.313,1.592,1.592,0,0,0-.691.087,9.3,9.3,0,0,0-3.991,2.435,6.094,6.094,0,0,1-.923.865,3.889,3.889,0,0,1-3.068.305c-.458-.124-.393-.269-.654-.618s-.727-.5-1.01-.065a.988.988,0,0,0-.131.48,12.314,12.314,0,0,0,.589,3.569,1.68,1.68,0,0,1,.058.567,3.577,3.577,0,0,1-.2.574,1.068,1.068,0,0,0-.036.145,3.54,3.54,0,0,0,.16,1.723Z" transform="translate(-90.49 -281.352)"/><path class="i" d="M249.8,799.173a1.556,1.556,0,0,0,.494.923,1.308,1.308,0,0,0,.654.2c3.424.414,6.753-1.832,10.177-1.454.727.08,1.4.276,2.093.342a10.907,10.907,0,0,0,2.479-.116c1.141-.145,2.283-.334,3.409-.56a8.309,8.309,0,0,0,2.479-.792,3.169,3.169,0,0,0,1.6-1.984,1.57,1.57,0,0,0-.153-1.119,1.291,1.291,0,0,0-.291-.305c-.1.429-.116.974-.189,1.185a2.276,2.276,0,0,1-1.243,1.4,3.691,3.691,0,0,1-1.388.131c-3.031-.058-6.084.625-9.079.174a21.335,21.335,0,0,0-3.1-.444,22.032,22.032,0,0,0-3.126.451c-1.643.233-3.322.1-4.979.211A3.54,3.54,0,0,0,249.8,799.173Z" transform="translate(-90.628 -283.31)"/><path class="o" d="M190.445,799.722a5.909,5.909,0,0,0,2.457,2.711,20.526,20.526,0,0,1,3.06,2.13c1.1,1.061,1.824,2.537,3.133,3.351a6.32,6.32,0,0,0,1.577.669,10.347,10.347,0,0,0,1.941.407,13.475,13.475,0,0,0,5.03-.858,4.557,4.557,0,0,0,1.512-.669,4.072,4.072,0,0,0,.538-.574,3.22,3.22,0,0,0,.778-1.265,1.068,1.068,0,0,0-.065-.727,1.8,1.8,0,0,0-.64-.618,11.259,11.259,0,0,0-1.454-.807,7.374,7.374,0,0,1-1.883-1.025,4.44,4.44,0,0,1-.916-1.243,12.045,12.045,0,0,1-1.032-2.515,8.308,8.308,0,0,0-.582-1.708c-.458-.836-1.308-1.5-1.454-2.442a.662.662,0,0,0-.124-.393.559.559,0,0,0-.356-.124,5.955,5.955,0,0,0-1.723,0,1.941,1.941,0,0,0-1.381.938c-.167.334-.233.727-.545.96a1.235,1.235,0,0,1-.516.138,4.29,4.29,0,0,1-2.537-.2,3.053,3.053,0,0,1-1.49-1.948c-.058-.313,0-.669-.487-.625s-.574.48-.727.771a8.243,8.243,0,0,0-.938,3.278.947.947,0,0,0-.32,0,1.337,1.337,0,0,0-.96.807,2.231,2.231,0,0,0,.1,1.577Z" transform="translate(-74.42 -283.03)"/><path class="i" d="M190.451,801.233a5.909,5.909,0,0,0,2.457,2.711,20.512,20.512,0,0,1,3.06,2.13c1.1,1.061,1.825,2.537,3.133,3.351a6.318,6.318,0,0,0,1.577.669,10.353,10.353,0,0,0,1.941.407,13.475,13.475,0,0,0,5.03-.858,4.554,4.554,0,0,0,1.512-.669,4.074,4.074,0,0,0,.538-.574,3.221,3.221,0,0,0,.778-1.265,2.479,2.479,0,0,0-1.083,0c-.727.2-1.1,1.025-1.766,1.4-.938.538-2.1.051-3.177.044-.727,0-1.4.2-2.1.131a5.3,5.3,0,0,1-1.708-.56,8.123,8.123,0,0,1-1.955-1.185,10.377,10.377,0,0,1-1.359-1.665,27.892,27.892,0,0,0-2.726-3.2,2.755,2.755,0,0,0-.5-.422,6.378,6.378,0,0,0-.611-.254,4.122,4.122,0,0,1-1.7-1.927,3.638,3.638,0,0,0-.443-.676,1.337,1.337,0,0,0-.96.807,2.232,2.232,0,0,0,.065,1.607Z" transform="translate(-74.425 -284.541)"/><path class="v" d="M250.09,630.627a7.515,7.515,0,0,0-1.5,2.849c-.262,1.047-1.367,8.948-.967,9.951-1.1-.727-4.7-.043-5.815-.727-.465-.291-2.908-1.723-3.344-2.094s-2.908-.792-3.257-1.185c-1.316-1.454,4.79-9.5,3.453-10.9a.313.313,0,0,1-.058-.473,11.913,11.913,0,0,1,1.846-1.984,3.635,3.635,0,0,0,1.214-2.363,7.269,7.269,0,0,1,2.224.872q2.479,1.294,4.907,2.7c.632.363,1.788.778,2.181,1.41S250.5,630.126,250.09,630.627Z" transform="translate(-86.648 -236.717)"/><path class="c" d="M231.892,633.38a22.384,22.384,0,0,1,3.831,1.9,6.665,6.665,0,0,1,2.806,2.828c.211.487.32,1.01.509,1.5.843,2.181,3.155,3.358,4.485,5.255a10.81,10.81,0,0,1,1,1.875,24.71,24.71,0,0,1,1.279,3.831c.313,1.272-.727,2.435-.93,3.729a21.509,21.509,0,0,0,0,3.809,45.074,45.074,0,0,1-.509,7.2c-.625,5.03-3.162,19.132-3.787,24.17-5.459-.124-19.866,0-25.056-1.665-1.737-.56,8-13.564,6.244-13.9a.625.625,0,0,1-.654-.727c0-7.5,3.773-14.538,4.507-21.974.262-2.588,1.236-4.972,1.81-7.509.516-2.3.523-4.71,1.265-6.949a4.127,4.127,0,0,1,.618-1.272,4.98,4.98,0,0,1,.821-.792C230.728,634.194,231.31,633.831,231.892,633.38Z" transform="translate(-81.265 -239.361)"/><circle class="v" cx="8.279" cy="8.279" r="8.279" transform="translate(152.872 376.828)"/><path class="i" d="M234.06,628.771a2.791,2.791,0,0,0-3.14.247,1.519,1.519,0,0,0-.567,1.664l-3.991.974a8.188,8.188,0,0,0-1.861.6,2.856,2.856,0,0,0-1.359,1.352c-.036.08-.073.167-.153.2s-.131,0-.2,0a3.57,3.57,0,0,0-2.079.095,11.057,11.057,0,0,0-5.277,3.9,1.941,1.941,0,0,0-.509,1.01c0,.487.269,1.032,0,1.454.858,3.758.363,7.56.334,11.42a4.98,4.98,0,0,1-.814,2.014,7.211,7.211,0,0,0-.858,2.232c-.3,2.065,1.214,4.063.938,6.135a10.061,10.061,0,0,1-.887,2.486,5.684,5.684,0,0,0-.531,3.06c.073.465.24.916.327,1.381a8.628,8.628,0,0,1,.08,1.89c0,1.17-.094,2.341-.167,3.511-.109,1.89-.356,3.962-1.73,5.27,3.991-.218,8.185-.5,11.543-2.675a6.105,6.105,0,0,0,1.279-1.047,8.432,8.432,0,0,0,1.6-4.652,19.465,19.465,0,0,0,.218-5.583,6.105,6.105,0,0,1-.145-1.774,4.929,4.929,0,0,1,1.781-2.653,11.319,11.319,0,0,0,2.246-2.748,4.361,4.361,0,0,0,.378-3.438c-.2-.552-.538-1.039-.727-1.606a1.374,1.374,0,0,1,.458-1.556c2.61-1.454,3.191-5.088,3.162-8.1a22.978,22.978,0,0,0-.654-4.55l-.618-2.908a3.962,3.962,0,0,0,.625-3.046,3.423,3.423,0,0,1-.189-.923,2.515,2.515,0,0,1,.422-1.119A9.042,9.042,0,0,0,234.06,628.771Z" transform="translate(-80.257 -238.001)"/><path class="i" d="M255.2,638.21a22.133,22.133,0,0,0,.727,2.69c.153.327.363.618.538.93a6.011,6.011,0,0,1,.494,3.889,21.291,21.291,0,0,1-1.178,3.8,5.219,5.219,0,0,0-.356,1.308,6.279,6.279,0,0,0,.058,1.381,40.869,40.869,0,0,1,.269,5.575,10.8,10.8,0,0,1-.909,4.725,1.308,1.308,0,0,1-.661.727,1.453,1.453,0,0,1-.691,0l-2.239-.32a1.344,1.344,0,0,1-.538-.145,1.279,1.279,0,0,1-.472-.727,12.146,12.146,0,0,1-.2-5.088c.589-5.139,1.774-10.228,1.752-15.4,0-1.454-.327-3.576.429-4.892.305-.545.211-.32.727-.2a6.289,6.289,0,0,1,.807.211,2.443,2.443,0,0,1,1.447,1.526Z" transform="translate(-90.702 -240.164)"/><path class="w" d="M212.23,692" transform="translate(-80.424 -255.369)"/><path class="m" d="M248.361,648.258q.16,4.551.3,9.094l-8.5-.283a5.815,5.815,0,0,1,.153-2.559c.32-2-.131-4.042,0-6.062.124-1.541.6-3.031.727-4.572.051-.894,0-1.8,0-2.7a19.283,19.283,0,0,1,.385-2.653,15.992,15.992,0,0,1,1.01-3.635,5.213,5.213,0,0,1,3.1,1.141,3.838,3.838,0,0,1,.887,1.607c.552,1.774.313,3.729.93,5.466a16.167,16.167,0,0,1,1,5.154Z" transform="translate(-88.03 -239.773)"/><path class="o" d="M234.689,705.078c-.058,1.817,1,3.453,1.919,5.023a41.3,41.3,0,0,1,3.409,7.451,6.725,6.725,0,0,0,.85,1.89,18.324,18.324,0,0,0,1.338,1.374,8.171,8.171,0,0,1,1.7,4.659,33.248,33.248,0,0,1,.225,3.322,8.2,8.2,0,0,0,.683,3.962c-.669,0-.916.916-.727,1.563a3.647,3.647,0,0,1,.378,1.941c-.727.458-.48,1.541-.269,2.377a19.185,19.185,0,0,1,.436,4.427q.16,8.977.1,17.955c-2.69,1.548-5.815,3.249-8.883,2.639a1.832,1.832,0,0,1-1.4-.894,1.985,1.985,0,0,1-.094-.9l.225-5.045a8.913,8.913,0,0,0-.327-3.635c-.327-.85-.923-1.708-.669-2.58.087-.3.269-.56.385-.851.458-1.156-.211-2.413-.538-3.634a2.74,2.74,0,0,1-.131-.829,4.489,4.489,0,0,1,.182-.981,13.92,13.92,0,0,0-.036-7.124,1.7,1.7,0,0,1-.08-.909,2.314,2.314,0,0,0,.138-.414,1.018,1.018,0,0,0-.218-.64,6.042,6.042,0,0,0,.821-1.258,1.512,1.512,0,0,1-.778-2.246.792.792,0,0,1-.669-1.236c.145-.16.349-.262.436-.458s-.1-.611-.313-.843l-1.119-1.236c-.836-.938-1.272-2.224-2.144-3.126a25.937,25.937,0,0,1-3.2-4.318l-3.707-5.815-1.243,1.694a4.942,4.942,0,0,0-.945,1.737,6.39,6.39,0,0,0,0,1.825c.218,3.569-1.272,7.051-1.308,10.62a6.541,6.541,0,0,1-.225,2.362,4.361,4.361,0,0,0-.276.727,3.372,3.372,0,0,0,.058,1.076,4.943,4.943,0,0,1-1.25,3.947c-.64.727-1.527,1.272-1.73,2.181a3.729,3.729,0,0,1-.189.807c-.269.531-1.047.763-1.083,1.352,0,.334.233.669.116.981a.887.887,0,0,1-.313.364l-1.97,1.621c-2.181,1.81-2.828,4.943-4.187,7.451a13.14,13.14,0,0,0-1.17,2.588c-.473,1.6-.429,3.46-1.563,4.681a3.786,3.786,0,0,0-.807.938c-.3.647.036,1.388.153,2.094s-.218,1.657-.93,1.6a4.958,4.958,0,0,1,.582,2.573,13.324,13.324,0,0,1-8.6-1.4,3.206,3.206,0,0,1-1.774-1.861.792.792,0,0,1,0-.451,1.287,1.287,0,0,1,.414-.494c1.825-1.6,1.861-4.361,2.421-6.709a45.619,45.619,0,0,1,2.239-6c1.628-4.3,2.282-9.21,5.466-12.525a5.427,5.427,0,0,0,1.752-2.421c.116-.56,0-1.134.08-1.7a1.367,1.367,0,0,1,.938-1.279,7.211,7.211,0,0,1-.836-2.413,3.351,3.351,0,0,1-.116-1.1,5.614,5.614,0,0,1,.305-1.178,10.4,10.4,0,0,0,.167-5.815,9.173,9.173,0,0,1-.574-2.966c.044-.516.2-1,.284-1.512a8.673,8.673,0,0,0-.16-2.668l-.538-3.329a16.176,16.176,0,0,1-.313-3.344c.109-2.7-1.65-13.528.429-15.265s7.945,5.568,10.62,5.132a12.055,12.055,0,0,1,3.576-.116,16.9,16.9,0,0,1,5.35,2.021l5.772,2.973a18.371,18.371,0,0,0,3.446,1.6Z" transform="translate(-75.427 -255.698)"/><path class="i" d="M254.712,605.9a6.252,6.252,0,0,0-5.219-1.228,11.265,11.265,0,0,0-4.9,2.486,6.613,6.613,0,0,1-1.374.967c-.821.371-1.817.356-2.5.938-.9.778-.785,2.181-.429,3.344s.85,2.355.465,3.482a9.275,9.275,0,0,0-.393,1.025,3.024,3.024,0,0,0,.487,1.89,13.614,13.614,0,0,0,.727-1.454,1.267,1.267,0,0,1,1.33-.727c.509.16.625.727.727,1.221s.393,1.032.887,1.083a1,1,0,0,0,.923-.632c.567-1.127-.094-2.588.458-3.722.32-.654.989-1.083,1.272-1.752.218-.523.167-1.119.334-1.665s.727-1.054,1.258-.814a1.93,1.93,0,0,1,.472.407,2.181,2.181,0,0,0,2.668.182,4.187,4.187,0,0,1,.974-.727,1.352,1.352,0,0,1,1.381.393,2.7,2.7,0,0,1,.647,1.352,3.329,3.329,0,0,0,.727,1.9,2.18,2.18,0,0,0,.727.378,1.744,1.744,0,0,0,1.934-.24,1.454,1.454,0,0,0,.124-1.454,10.9,10.9,0,0,0-.727-1.309c-.545-1-.422-2.275-.974-3.2A10.8,10.8,0,0,0,254.712,605.9Z" transform="translate(-88.014 -231.481)"/><path class="m" d="M254.995,636.4a1.243,1.243,0,0,1,.087.727,1.17,1.17,0,0,1-.313.48,8.541,8.541,0,0,1-3.526,2.1,1.149,1.149,0,0,0-.494.254.96.96,0,0,0,0,1.112,2.755,2.755,0,0,1,.494,1.069c.065.727-.727,1.25-1.4,1.5a3.954,3.954,0,0,1-3.017.095,4.485,4.485,0,0,1-1.592-1.519c-2.988-4.056-4.8-8.875-7.814-12.917a3.189,3.189,0,0,1-.509-.872.959.959,0,0,1,.174-.945c.32-.313.923-.313,1.09-.727.08-.2,0-.451.073-.661.138-.465.727-.552,1.112-.865s.429-.647.727-.792a1.17,1.17,0,0,1,1.025.189,11.7,11.7,0,0,1,3.351,3.533,50.6,50.6,0,0,0,4.936,5.641,3.819,3.819,0,0,1,.6-2.37c.582-.269,1.614.632,2.035.959A8.854,8.854,0,0,1,254.995,636.4Z" transform="translate(-87.148 -236.908)"/><rect class="l" width="59.606" height="59.606" transform="translate(177.03 463.662) rotate(167.2)"/><rect class="d" width="59.606" height="59.606" transform="translate(178.12 461.928) rotate(167.2)"/><path class="m" d="M242.348,684.034a16.414,16.414,0,0,0-19.626-12.357c-.414.094-.843.211-1.221.327l3.911,17.184,17.184-3.9C242.522,684.884,242.442,684.448,242.348,684.034Z" transform="translate(-82.955 -249.708)"/><path class="m" d="M235.622,689.711l-17.191,3.9-3.9-17.184a16.406,16.406,0,1,0,21.08,13.281Z" transform="translate(-77.894 -251.117)"/><path class="v" d="M209.542,691.938a16.549,16.549,0,0,1,2.282,1.512,4,4,0,0,1,1.41,2.29,1.316,1.316,0,0,1-.073.785.64.64,0,0,1-.647.363,1.026,1.026,0,0,1-.407-.225,14.951,14.951,0,0,0-1.454-.981c-.182-.109-.407-.225-.589-.124a.566.566,0,0,0-.2.211,1.664,1.664,0,0,0-.313.858,1.825,1.825,0,0,0,.865,1.33,3.8,3.8,0,0,1,1.185,1.119.567.567,0,0,1,.08.429.618.618,0,0,1-.211.284,3.925,3.925,0,0,1-3.177.945c-.727-.116-1.454-.458-2.224-.545a4.607,4.607,0,0,1-.952-.124,1.861,1.861,0,0,1-1.047-.989,4.905,4.905,0,0,1-.378-1.454,16.9,16.9,0,0,1-.044-5.706.786.786,0,0,1,.131-.334.683.683,0,0,1,.313-.167c.85-.291,2.181-1.061,3.1-.93a2.362,2.362,0,0,1,.894.494C208.328,691.146,209.491,691.713,209.542,691.938Z" transform="translate(-78.019 -254.952)"/><path class="i" d="M207.807,678.35c-.174-.836.393-3.082-1.279-2.842-.2-.894.93-1.73.487-2.624-.145-.291-.465-.494-.574-.807-.313-.887,1.221-1.752.727-2.566-.182-.313-.589-.436-.727-.727-.363-.727.967-1.417.814-2.239-.058-.269-.276-.494-.327-.771a2.282,2.282,0,0,1,.262-1c.254-.858-.225-1.992.465-2.566-.509.167-.858-.56-.727-1.076s.451-1.025.334-1.541a2.3,2.3,0,0,1-.138-.567c0-.531.836-.727.858-1.287a3.72,3.72,0,0,0-.109-.567,1.09,1.09,0,0,1,.654-.93,3.28,3.28,0,0,0,1.01-.64c.2-.233.407-.6.727-.5.109,0,.182.138.276.2.385.284.938,0,1.265-.356a5.379,5.379,0,0,0,1.148-3.962c-.058-1.418-.385-2.813-.393-4.223a9.913,9.913,0,0,1,.087-1.316,6.3,6.3,0,0,0,.3-1.352c-.116-.8-1.621.109-2.217.327a9.546,9.546,0,0,0-1.7.727,18.435,18.435,0,0,0-1.628,1.207c-2.224,1.65-5.168,2.464-6.731,4.739-.516.727-.887,1.665-1.672,2.13a10.74,10.74,0,0,0-1.076.56c-.843.654-.727,1.934-1.01,2.951a5.9,5.9,0,0,0-.254.843,3.234,3.234,0,0,0,.08.989l.472,2.384a90.132,90.132,0,0,0,2.908,11.841,10.176,10.176,0,0,1,.843,3.9c0,.356-.095.727-.1,1.076a6.069,6.069,0,0,0,.153,1.258l.291,1.548a.473.473,0,0,0,.16.334.509.509,0,0,0,.436,0c2.086-.676,3.969-2.37,6.15-2.1" transform="translate(-76.168 -242.2)"/><path class="v" d="M263.749,670.251a.66.66,0,0,1,.284.145,1.737,1.737,0,0,1,.487,2.021.631.631,0,0,0-.073.225.553.553,0,0,0,.138.32,1.163,1.163,0,0,1,.124,1.3c-.116.16-.313.269-.378.465-.109.327.225.64.262.981.044.458-.429.792-.858.952a1.119,1.119,0,0,1-1.032,0,.843.843,0,0,1-.2-.887,2.487,2.487,0,0,1,.509-.807,1.032,1.032,0,0,1-1.156-.676,1.454,1.454,0,0,1,.283-1.367.531.531,0,0,0,.167-.32c0-.16-.16-.269-.3-.356-.589-.385-1.272-1.519-.393-2a2.4,2.4,0,0,1,.981-.182c.262,0,.291.167.5.225S263.524,670.215,263.749,670.251Z" transform="translate(-93.795 -249.38)"/><path class="l" d="M240.47,625.986a1.672,1.672,0,0,1,1.41.342,3.78,3.78,0,0,1,.916,1.577,15.119,15.119,0,0,0,3.249,4.958" transform="translate(-88.136 -237.331)"/><path class="l" d="M238.5,628.425a1.991,1.991,0,0,1,1.883.618,5.743,5.743,0,0,1,.8,1.592,9.494,9.494,0,0,0,2.464,3.169" transform="translate(-87.598 -237.996)"/></g></svg>