<svg xmlns="http://www.w3.org/2000/svg" width="108" height="90.671" viewBox="0 0 108 90.671">
  <g id="bars" transform="translate(0 -34.019)">
    <g id="Group_15875" data-name="Group 15875" transform="translate(74.88 34.019)">
      <g id="Group_15874" data-name="Group 15874" transform="translate(0 0)">
        <path id="Path_8225" data-name="Path 8225" d="M309.172,34.019a14.823,14.823,0,0,0,0,29.646,14.892,14.892,0,0,0,14.874-14.874A14.74,14.74,0,0,0,309.172,34.019Zm0,26.386a11.563,11.563,0,1,1,11.614-11.512A11.609,11.609,0,0,1,309.172,60.405Z" transform="translate(-294.4 -34.019)" fill="#1553a5"/>
        <path id="Path_8229" data-name="Path 8229" d="M66.594,4.155H64.249A4.622,4.622,0,0,0,62.4.923h4.2a.462.462,0,1,0,0-.923H56.827a.462.462,0,0,0,0,.923h2.8a3.73,3.73,0,0,1,3.7,3.231H56.827a.462.462,0,0,0,0,.923h6.495a3.737,3.737,0,0,1-3.7,3.277H56.831a.469.469,0,0,0-.462.475.477.477,0,0,0,.143.332L63.5,15.769a.46.46,0,0,0,.651-.018.471.471,0,0,0-.018-.66L57.985,9.278h1.634a4.663,4.663,0,0,0,4.63-4.2h2.345a.462.462,0,1,0,0-.923Z" transform="translate(-46.86 6.866)" fill="#1553a5" stroke="#1553a5" stroke-width="0.7"/>
      </g>
    </g>
    <g id="Group_15879" data-name="Group 15879" transform="translate(17.444 64.977)">
      <g id="Group_15878" data-name="Group 15878" transform="translate(0 0)">
        <path id="Path_8227" data-name="Path 8227" d="M133.668,156.193a1.735,1.735,0,0,0-2.343-.306l-16.5,13.142-21.292-8.863a1.625,1.625,0,0,0-1.528.2l-22.821,16.3a1.628,1.628,0,0,0-.408,2.241,1.485,1.485,0,0,0,1.324.713,1.643,1.643,0,0,0,.917-.306l22.107-15.791,21.394,8.863a1.833,1.833,0,0,0,1.63-.2l17.217-13.652A1.735,1.735,0,0,0,133.668,156.193Z" transform="translate(-68.489 -155.569)" fill="#1553a5"/>
      </g>
    </g>
    <g id="Group_15881" data-name="Group 15881" transform="translate(0 72.631)">
      <g id="Group_15880" data-name="Group 15880" transform="translate(0)">
        <path id="Path_8228" data-name="Path 8228" d="M106.462,234.418H98.923V187.249a1.609,1.609,0,0,0-1.63-1.63H82.317a1.609,1.609,0,0,0-1.63,1.63v47.169h-5.5V203.549a1.609,1.609,0,0,0-1.63-1.63H58.478a1.609,1.609,0,0,0-1.63,1.63v30.869h-5.5V201.1a1.609,1.609,0,0,0-1.63-1.63H34.74a1.609,1.609,0,0,0-1.63,1.63v33.314h-5.5V210.681a1.609,1.609,0,0,0-1.63-1.63H10.9a1.609,1.609,0,0,0-1.63,1.63v23.737H1.63a1.63,1.63,0,0,0,0,3.26H106.36a1.609,1.609,0,0,0,1.63-1.63A1.471,1.471,0,0,0,106.462,234.418Zm-82.215,0H12.531V212.311H24.247Zm23.839,0H36.37V202.734H48.086Zm23.737,0H60.108V205.18H71.824Zm23.839,0H83.947V188.879H95.663Z" transform="translate(0 -185.619)" fill="#1553a5"/>
      </g>
    </g>
  </g>
</svg>
