<svg xmlns="http://www.w3.org/2000/svg" width="295.662" height="295.662" viewBox="0 0 295.662 295.662">
  <g id="Group_15893" data-name="Group 15893" transform="translate(-333.626 -48.379)">
    <circle id="Ellipse_3063" data-name="Ellipse 3063" cx="147.831" cy="147.831" r="147.831" transform="translate(333.626 48.379)"/>
    <circle id="Ellipse_3064" data-name="Ellipse 3064" cx="108.008" cy="108.008" r="108.008" transform="translate(373.448 88.202)" fill="#fff"/>
    <g id="Group_15886" data-name="Group 15886" transform="translate(381.927 59.681)">
      <g id="Group_15885" data-name="Group 15885">
        <path id="Path_8236" data-name="Path 8236" d="M371.888,98.994a10.253,10.253,0,0,1-2.47-3.393,7.6,7.6,0,0,1-.554-2.612,6.258,6.258,0,0,1,.395-2.507,8.854,8.854,0,0,1,1.945-2.946,7.556,7.556,0,0,1,5.54-2.58,9.867,9.867,0,0,1,8.845,8.468,8.466,8.466,0,0,1-7.876,8.221A8.319,8.319,0,0,1,371.888,98.994Zm2.241-2.5A6.038,6.038,0,0,0,378,98.461a4.343,4.343,0,0,0,4.44-4.61,6.155,6.155,0,0,0-2.167-3.81,6.067,6.067,0,0,0-3.822-1.986,4.5,4.5,0,0,0-4.466,4.677A6.081,6.081,0,0,0,374.13,96.5Z" transform="translate(-368.86 -46.115)" fill="#fff"/>
        <path id="Path_8237" data-name="Path 8237" d="M380.343,80.074l2.639-1.9,5.1,7.076a18.219,18.219,0,0,0,1.672,2.113,2.612,2.612,0,0,0,1.737.707,3.467,3.467,0,0,0,2.092-.77,3.283,3.283,0,0,0,1.363-1.682,2.238,2.238,0,0,0-.126-1.622,18.213,18.213,0,0,0-1.485-2.3l-5.213-7.229,2.639-1.9,4.949,6.863A21.749,21.749,0,0,1,397.9,82.9a4.53,4.53,0,0,1,.393,2.208,4.9,4.9,0,0,1-.769,2.173,8.243,8.243,0,0,1-2.228,2.21,8.951,8.951,0,0,1-3.15,1.615,5,5,0,0,1-2.339-.021,4.44,4.44,0,0,1-1.785-.916,19.507,19.507,0,0,1-2.65-3.128Z" transform="translate(-364.601 -50.712)" fill="#fff"/>
        <path id="Path_8238" data-name="Path 8238" d="M401.851,84.091l-6.975-14.522,6.172-2.964a11.8,11.8,0,0,1,3.571-1.234,3.709,3.709,0,0,1,2.358.583,4.635,4.635,0,0,1,1.734,1.984,4.305,4.305,0,0,1,.335,3.16,5.129,5.129,0,0,1-2.229,2.723,7.526,7.526,0,0,1,2.156.465,18.233,18.233,0,0,1,2.8,1.555l3.134,1.982L411.4,79.506l-3.638-2.143a22.657,22.657,0,0,0-2.57-1.393,2.5,2.5,0,0,0-1.172-.181,5.342,5.342,0,0,0-1.555.546l-.595.285,2.912,6.063ZM400.76,74.3l2.169-1.042a12.358,12.358,0,0,0,2.548-1.444A1.748,1.748,0,0,0,406,70.808a2.092,2.092,0,0,0-.226-1.232,1.93,1.93,0,0,0-.96-1,1.988,1.988,0,0,0-1.378-.04c-.255.081-.975.407-2.165.977l-2.288,1.1Z" transform="translate(-359.211 -53.384)" fill="#fff"/>
        <path id="Path_8239" data-name="Path 8239" d="M422.99,75.212l-2.873-15.85,5.135-.932a18.92,18.92,0,0,1,3.849-.452,4.218,4.218,0,0,1,2.562,1.138,5,5,0,0,1,1.479,2.92,5.271,5.271,0,0,1-.084,2.551A4.44,4.44,0,0,1,432,66.393a4.727,4.727,0,0,1-1.524,1.051,18.486,18.486,0,0,1-3.278.829l-2.088.378,1.086,5.98Zm.813-13.75.816,4.5,1.751-.318a8.409,8.409,0,0,0,2.487-.706,2.146,2.146,0,0,0,.858-.961,2.168,2.168,0,0,0,.138-1.3,2.083,2.083,0,0,0-.766-1.335,2.248,2.248,0,0,0-1.415-.469,15.569,15.569,0,0,0-2.322.31Z" transform="translate(-349.849 -56.124)" fill="#fff"/>
        <path id="Path_8240" data-name="Path 8240" d="M436.574,72.8l-.152-16.109,6.846-.064a11.694,11.694,0,0,1,3.756.4,3.714,3.714,0,0,1,1.889,1.526,4.639,4.639,0,0,1,.725,2.532,4.285,4.285,0,0,1-1.036,3,5.108,5.108,0,0,1-3.174,1.519,7.6,7.6,0,0,1,1.755,1.335,18.5,18.5,0,0,1,1.878,2.6l2,3.126-3.891.037-2.384-3.483a22.984,22.984,0,0,0-1.737-2.352,2.5,2.5,0,0,0-.984-.661,5.311,5.311,0,0,0-1.64-.167l-.659.007.064,6.726Zm3.165-9.326,2.406-.023a12.452,12.452,0,0,0,2.921-.225,1.765,1.765,0,0,0,.906-.69,2.115,2.115,0,0,0,.318-1.212,1.939,1.939,0,0,0-.447-1.311,2,2,0,0,0-1.231-.62q-.4-.051-2.373-.033l-2.539.025Z" transform="translate(-343.802 -56.623)" fill="#fff"/>
        <path id="Path_8241" data-name="Path 8241" d="M452.41,64.9a10.265,10.265,0,0,1,1.428-3.947,7.573,7.573,0,0,1,1.855-1.921,6.249,6.249,0,0,1,2.3-1.076,8.858,8.858,0,0,1,3.53-.037,7.571,7.571,0,0,1,5.24,3.146,8.465,8.465,0,0,1,1.06,6.417,8.429,8.429,0,0,1-3.128,5.654,7.5,7.5,0,0,1-5.962,1.208,7.581,7.581,0,0,1-5.257-3.132A8.315,8.315,0,0,1,452.41,64.9Zm3.322.462a6.041,6.041,0,0,0,.539,4.3,4.345,4.345,0,0,0,6.307,1.1,6.161,6.161,0,0,0,1.944-3.93,6.061,6.061,0,0,0-.494-4.279,4.5,4.5,0,0,0-6.376-1.083A6.077,6.077,0,0,0,455.732,65.357Z" transform="translate(-337.94 -56.203)" fill="#fff"/>
        <path id="Path_8242" data-name="Path 8242" d="M467.667,76.083,473.38,61.02l4.553,1.727-1.164,11.311,6.6-9.251,4.561,1.73L482.216,81.6l-2.827-1.072,4.5-11.855L476.4,79.4l-2.93-1.11L474.99,65.3l-4.5,11.857Z" transform="translate(-332.214 -54.992)" fill="#fff"/>
        <path id="Path_8243" data-name="Path 8243" d="M483.519,82.648l7.863-14.061,2.839,1.587-7.865,14.06Z" transform="translate(-326.335 -52.186)" fill="#fff"/>
        <path id="Path_8244" data-name="Path 8244" d="M492.815,81.482l2.72,1.646a3.864,3.864,0,0,0-.472,2.569,3.5,3.5,0,0,0,1.441,2.01,3.619,3.619,0,0,0,2.295.884,1.976,1.976,0,0,0,1.57-.769,1.466,1.466,0,0,0,.313-.98,2.654,2.654,0,0,0-.52-1.258q-.339-.5-1.664-2.122a8.813,8.813,0,0,1-1.988-3.472,4.233,4.233,0,0,1,2.687-4.913,4.373,4.373,0,0,1,2.588-.1,8.093,8.093,0,0,1,2.876,1.449,6.8,6.8,0,0,1,2.862,3.8,4.7,4.7,0,0,1-.835,3.807L504,82.193a2.76,2.76,0,0,0,.352-1.967,3.292,3.292,0,0,0-1.326-1.668A3.728,3.728,0,0,0,500.9,77.7a1.182,1.182,0,0,0-1.013.492,1.24,1.24,0,0,0-.2,1.073,8.549,8.549,0,0,0,1.751,2.651,15.758,15.758,0,0,1,2.118,3.03A4.523,4.523,0,0,1,504,87.319a5.069,5.069,0,0,1-3.189,4.059,4.6,4.6,0,0,1-2.819.137,9.141,9.141,0,0,1-3.16-1.627,6.98,6.98,0,0,1-2.915-3.94A6.143,6.143,0,0,1,492.815,81.482Z" transform="translate(-323.263 -49.872)" fill="#fff"/>
        <path id="Path_8245" data-name="Path 8245" d="M502.05,95.178l11.617-11.16,8.276,8.613-1.966,1.888-6.022-6.269-2.574,2.476,5.6,5.832-1.956,1.881-5.6-5.832-3.161,3.038,6.235,6.49-1.958,1.879Z" transform="translate(-319.462 -46.463)" fill="#fff"/>
      </g>
    </g>
    <g id="Group_15888" data-name="Group 15888" transform="translate(378.629 270.202)">
      <g id="Group_15887" data-name="Group 15887">
        <path id="Path_8246" data-name="Path 8246" d="M369.591,213.782a10.205,10.205,0,0,1,3.581-2.188,7.5,7.5,0,0,1,2.649-.341,6.237,6.237,0,0,1,2.465.6,8.805,8.805,0,0,1,2.78,2.177,7.561,7.561,0,0,1,2.123,5.729,9.867,9.867,0,0,1-9.159,8.132,7.5,7.5,0,0,1-5.408-2.783,7.588,7.588,0,0,1-2.147-5.733A8.315,8.315,0,0,1,369.591,213.782Zm2.3,2.437a6.025,6.025,0,0,0-2.267,3.7,4.343,4.343,0,0,0,4.235,4.8,6.159,6.159,0,0,0,3.974-1.851,6.061,6.061,0,0,0,2.288-3.651,4.5,4.5,0,0,0-4.3-4.83A6.08,6.08,0,0,0,371.894,216.219Z" transform="translate(-366.453 -209.799)" fill="#fff"/>
        <path id="Path_8247" data-name="Path 8247" d="M377.437,233.949l9.939-12.679,2.49,1.952-1.448,12.534,6.638-8.465,2.377,1.864-9.939,12.679-2.568-2.014,1.371-12.275-6.483,8.266Z" transform="translate(-362.38 -206.081)" fill="#fff"/>
        <path id="Path_8248" data-name="Path 8248" d="M402.646,250.874l2.624-6.253-1.83-10.888,3.516,1.476,1.03,7.345,5.891-4.439,3.455,1.45-9.082,6.329-2.614,6.233Z" transform="translate(-353.03 -201.458)" fill="#fff"/>
        <path id="Path_8249" data-name="Path 8249" d="M416.113,246.911a10.271,10.271,0,0,1,1.629-3.869,7.556,7.556,0,0,1,1.949-1.823,6.267,6.267,0,0,1,2.35-.957,8.842,8.842,0,0,1,3.529.143,7.559,7.559,0,0,1,5.071,3.409,9.869,9.869,0,0,1-2.68,11.951,8.469,8.469,0,0,1-11.108-2.5A8.318,8.318,0,0,1,416.113,246.911Zm3.294.632a6.038,6.038,0,0,0,.318,4.324,4.348,4.348,0,0,0,6.243,1.422,6.177,6.177,0,0,0,2.143-3.826,6.061,6.061,0,0,0-.276-4.3,4.5,4.5,0,0,0-6.312-1.409A6.077,6.077,0,0,0,419.407,247.543Z" transform="translate(-348.145 -199.08)" fill="#fff"/>
        <path id="Path_8250" data-name="Path 8250" d="M433.861,242.4l3.25.137-.367,8.716a18.009,18.009,0,0,0,.008,2.7,2.608,2.608,0,0,0,.927,1.627,3.45,3.45,0,0,0,2.122.688,3.27,3.27,0,0,0,2.11-.477,2.23,2.23,0,0,0,.9-1.354,18.1,18.1,0,0,0,.258-2.727l.374-8.9,3.249.134-.355,8.456a21.812,21.812,0,0,1-.435,4.085,4.547,4.547,0,0,1-1.057,1.978,4.906,4.906,0,0,1-1.949,1.234,8.263,8.263,0,0,1-3.117.356,8.929,8.929,0,0,1-3.474-.679,5,5,0,0,1-1.825-1.461,4.452,4.452,0,0,1-.836-1.822,19.636,19.636,0,0,1-.148-4.1Z" transform="translate(-341.6 -198.242)" fill="#fff"/>
        <path id="Path_8251" data-name="Path 8251" d="M451.27,258.8,449.12,242.83l6.786-.913a11.706,11.706,0,0,1,3.777-.07,3.7,3.7,0,0,1,2.063,1.282,4.619,4.619,0,0,1,1.034,2.42,4.3,4.3,0,0,1-.655,3.112,5.134,5.134,0,0,1-2.96,1.9,7.538,7.538,0,0,1,1.906,1.108,18.171,18.171,0,0,1,2.184,2.344l2.369,2.853-3.855.518-2.8-3.161a22.731,22.731,0,0,0-2.015-2.118,2.5,2.5,0,0,0-1.058-.533,5.347,5.347,0,0,0-1.648.038l-.653.089.9,6.665Zm1.984-9.65,2.384-.319a12.515,12.515,0,0,0,2.871-.587,1.745,1.745,0,0,0,.814-.8,2.115,2.115,0,0,0,.166-1.242,1.935,1.935,0,0,0-.606-1.243,1.985,1.985,0,0,0-1.3-.463q-.4,0-2.359.262l-2.516.339Z" transform="translate(-335.794 -198.494)" fill="#fff"/>
        <path id="Path_8252" data-name="Path 8252" d="M475.582,248.581l2.788-1.527a3.859,3.859,0,0,0,1.988,1.7,3.511,3.511,0,0,0,2.461-.24,3.62,3.62,0,0,0,1.915-1.544,1.98,1.98,0,0,0,.121-1.744,1.466,1.466,0,0,0-.691-.761,2.679,2.679,0,0,0-1.349-.181q-.6.039-2.672.376a8.845,8.845,0,0,1-4-.019,4.193,4.193,0,0,1-2.639-2.4,4.135,4.135,0,0,1-.265-2.391,4.361,4.361,0,0,1,1.208-2.291,8.021,8.021,0,0,1,2.694-1.764,6.787,6.787,0,0,1,4.721-.572,4.694,4.694,0,0,1,2.876,2.628l-2.935,1.412a2.76,2.76,0,0,0-1.524-1.29,3.271,3.271,0,0,0-2.11.311,3.715,3.715,0,0,0-1.811,1.408,1.171,1.171,0,0,0-.081,1.123,1.242,1.242,0,0,0,.829.71,8.543,8.543,0,0,0,3.171-.186,15.848,15.848,0,0,1,3.684-.317,4.539,4.539,0,0,1,2.281.807,5.067,5.067,0,0,1,1.914,4.793,4.619,4.619,0,0,1-1.294,2.507,9.109,9.109,0,0,1-2.991,1.919A6.977,6.977,0,0,1,479,251.6,6.127,6.127,0,0,1,475.582,248.581Z" transform="translate(-326.875 -200.985)" fill="#fff"/>
        <path id="Path_8253" data-name="Path 8253" d="M493.768,245.387l-8.235-13.847,2.8-1.663,8.234,13.847Z" transform="translate(-322.289 -202.889)" fill="#fff"/>
        <path id="Path_8254" data-name="Path 8254" d="M492.612,228.249l4.653-3.7a11.7,11.7,0,0,1,2.592-1.666,5.4,5.4,0,0,1,2.825-.35,7.07,7.07,0,0,1,2.828,1.087,11.887,11.887,0,0,1,2.781,2.654,10.576,10.576,0,0,1,1.747,2.99,7.133,7.133,0,0,1,.419,3.3,5.709,5.709,0,0,1-.991,2.429,9.783,9.783,0,0,1-2.041,2.058l-4.793,3.807Zm4.241.11,6.638,8.356,1.9-1.512a8.844,8.844,0,0,0,1.445-1.343,3.021,3.021,0,0,0,.611-1.342,3.407,3.407,0,0,0-.3-1.746,10.43,10.43,0,0,0-1.576-2.516,9.591,9.591,0,0,0-2.043-2.04,3.675,3.675,0,0,0-1.694-.648,3.083,3.083,0,0,0-1.649.343A14.636,14.636,0,0,0,498,227.45Z" transform="translate(-319.664 -205.632)" fill="#fff"/>
        <path id="Path_8255" data-name="Path 8255" d="M516.345,229.827,504.324,219.1l7.951-8.913L514.308,212l-5.785,6.486,2.665,2.378,5.383-6.035,2.025,1.805-5.382,6.036,3.271,2.917,5.991-6.716,2.026,1.807Z" transform="translate(-315.32 -210.19)" fill="#fff"/>
      </g>
    </g>
    <circle id="Ellipse_3065" data-name="Ellipse 3065" cx="7.177" cy="7.177" r="7.177" transform="translate(347.466 186.705)" fill="#276fc4"/>
    <circle id="Ellipse_3066" data-name="Ellipse 3066" cx="7.177" cy="7.177" r="7.177" transform="translate(602.602 186.705)" fill="#276fc4"/>
    <circle id="Ellipse_3067" data-name="Ellipse 3067" cx="7.177" cy="7.177" r="7.177" transform="translate(351.228 158.287)" fill="#5197ed"/>
    <circle id="Ellipse_3068" data-name="Ellipse 3068" cx="7.177" cy="7.177" r="7.177" transform="matrix(0.225, -0.974, 0.974, 0.225, 598.418, 228.141)" fill="#1c52a0"/>
    <circle id="Ellipse_3069" data-name="Ellipse 3069" cx="7.177" cy="7.177" r="7.177" transform="translate(350.146 215.072)" fill="#1c52a0"/>
    <circle id="Ellipse_3070" data-name="Ellipse 3070" cx="7.177" cy="7.177" r="7.177" transform="translate(597.423 159.903) rotate(-12.899)" fill="#5197ed"/>
    <g id="Group_15892" data-name="Group 15892" transform="translate(436.859 129.619)">
      <g id="Group_15889" data-name="Group 15889" transform="translate(0 0)">
        <path id="Path_8256" data-name="Path 8256" d="M471.322,139.461a11.828,11.828,0,0,0-4.494-4.237c-.611-.351-1.874-1.084-3.566-2.065-8.45-4.9-26.036-15.1-29.064-16.552a8.925,8.925,0,0,0-3.891-.866,10.713,10.713,0,0,0-6.261,2.106l-1.1.8,1.169.69c.647.381,27.137,15.691,35.381,20.4,4.773,2.728,5.675,4.3,5.675,9.921,0,.2,0,.411,0,.618,0,.385-.007.781,0,1.2s.016.851.012,1.279l-.148,15.1q-.107,11.024-.213,22.046c0,.18,0,.369,0,.58l.025,1.424,1.271-.642a11.048,11.048,0,0,0,4.86-4.306,12.558,12.558,0,0,0,1.448-6.1c.343-13.77.347-35.263.347-35.478A11.3,11.3,0,0,0,471.322,139.461Z" transform="translate(-403.73 -104.636)" fill="#276fc4"/>
        <path id="Path_8257" data-name="Path 8257" d="M485.238,131.36a11.828,11.828,0,0,0-4.494-4.237c-.611-.352-1.877-1.086-3.568-2.067-8.45-4.9-26.034-15.095-29.063-16.549a8.9,8.9,0,0,0-3.889-.866,10.713,10.713,0,0,0-6.261,2.106l-1.1.8,1.169.69c.642.378,27.112,15.676,35.381,20.4,4.773,2.728,5.675,4.3,5.675,9.921,0,.2,0,.411,0,.618,0,.385-.007.781,0,1.2s.016.851.012,1.279l-.148,15.1q-.109,11.022-.214,22.046c0,.18,0,.369,0,.58l.025,1.424,1.271-.642a11.056,11.056,0,0,0,4.86-4.306,12.572,12.572,0,0,0,1.448-6.1c.343-13.77.347-35.263.347-35.478A11.3,11.3,0,0,0,485.238,131.36Z" transform="translate(-398.568 -107.64)" fill="#5197ed"/>
        <path id="Path_8258" data-name="Path 8258" d="M458.709,153.784a11.967,11.967,0,0,0-1.984-6.812c-1.493-2.032-5.984-4.773-9.489-6.717-.089-.048-.155-.085-.193-.107l-1.2-.68c-15.092-8.583-23.84-13.462-26-14.5a8.72,8.72,0,0,0-3.807-.866,10.019,10.019,0,0,0-5.976,2.067l-1.132.84,1.243.665.244.129.01.007c.6.319,1.221.651,1.914,1.051,10.058,5.806,32.247,18.433,32.471,18.559a12.532,12.532,0,0,1,4.864,4.709c1.051,1.949,1.205,6.41,1.175,7.965-.252,9.948-.739,28.916-.768,29.453-.064,1.071-.111,1.228-.407,1.4a.638.638,0,0,1-.315.084.627.627,0,0,1-.317-.085l-.025-.014-.025-.012c-3.875-1.912-19.939-10.5-20.984-11.27l-.019-.015-.022-.014c-2.28-1.5-2.873-2.575-2.884-5.246,0-.458,0-14.5,0-14.637v-1.583l-1.356.818a11.075,11.075,0,0,0-2.968,2.548c-1.42,1.964-1.552,4.181-1.571,6.667,0,.036,0,.127,0,.266-.045,3.418-.044,5.721,0,6.848v0a15.747,15.747,0,0,0,.462,4.791,9.972,9.972,0,0,0,2.019,3.16c.984,1.04,7.271,4.937,18.686,11.581l.624.363c1.659.983,3.365,1.993,5.081,2.893a10.459,10.459,0,0,0,4.808,1.4,6.39,6.39,0,0,0,2.307-.426,8.361,8.361,0,0,0,3.335-2.391c1.356-1.594,1.468-3.844,1.566-5.828.325-6.584.4-13.287.469-19.769q.019-1.742.04-3.481l0-.289.134-11.107C458.734,155.428,458.741,154.608,458.709,153.784Z" transform="translate(-408.93 -101.535)" fill="#1c52a0"/>
      </g>
      <g id="Group_15891" data-name="Group 15891" transform="translate(0 105.936)">
        <g id="Group_15890" data-name="Group 15890">
          <path id="Path_8259" data-name="Path 8259" d="M475.21,187.733H460.277v-.47l17.716-2.347h0A2.818,2.818,0,0,1,475.21,187.733Z" transform="translate(-389.886 -184.916)" fill="#5197ed"/>
          <path id="Path_8260" data-name="Path 8260" d="M441.957,208.555H430.635c-4.934,0-7.65-3.137-7.65-7.878v-3.788c0-5.163,2.906-7.65,7.878-7.65h11.093Zm-3.137-16.408h-7.957c-2.485,0-4.972.458-4.972,4.972v3.557c0,2.485.688,4.972,4.972,4.972h7.957Z" transform="translate(-403.717 -183.313)"/>
          <path id="Path_8261" data-name="Path 8261" d="M463.214,196.937v11.437h-2.945V197.129c0-4.361-2.487-4.934-4.82-4.934h-2.983v16.179h-2.945V192.2H442.56v16.179h-2.946V189.211h15.835C460.231,189.211,463.214,191.813,463.214,196.937Z" transform="translate(-397.55 -183.323)"/>
          <path id="Path_8262" data-name="Path 8262" d="M478.313,208.555H466.991c-4.934,0-7.649-3.137-7.649-7.878v-3.788c0-5.163,2.906-7.65,7.878-7.65h11.093Zm-3.137-16.408h-7.957c-2.485,0-4.972.458-4.972,4.972v3.557c0,2.485.688,4.972,4.972,4.972h7.957Z" transform="translate(-390.234 -183.313)"/>
          <path id="Path_8263" data-name="Path 8263" d="M416.763,189.183v2.984h5.322V200.8c0,2.333-.573,4.82-4.934,4.82h-.341c-4.361,0-4.934-2.487-4.934-4.82v-1.575H408.93V200.8a11.652,11.652,0,0,0,.115,1.664,8.76,8.76,0,0,0,.345,1.5,7.058,7.058,0,0,0,.576,1.311,6.161,6.161,0,0,0,.806,1.109,5.985,5.985,0,0,0,1.038.9,6.517,6.517,0,0,0,1.268.669,7.982,7.982,0,0,0,1.5.429,11.653,11.653,0,0,0,1.826.181,15.655,15.655,0,0,0,2.3-.077,9.089,9.089,0,0,0,1.609-.33,7.16,7.16,0,0,0,1.374-.581,6.083,6.083,0,0,0,1.138-.818,5.885,5.885,0,0,0,.9-1.04,6.689,6.689,0,0,0,.668-1.252,8.075,8.075,0,0,0,.432-1.449,10.534,10.534,0,0,0,.2-1.631c.01-.193.014-.385.014-.577V189.183Z" transform="translate(-408.93 -183.333)"/>
        </g>
      </g>
    </g>
  </g>
</svg>
