<svg xmlns="http://www.w3.org/2000/svg" width="108" height="127.2" viewBox="0 0 108 127.2">
  <g id="save" transform="translate(-48.516 -11.627)">
    <path id="Path_8231" data-name="Path 8231" d="M138.792,329.374l-.348.188a7.419,7.419,0,0,0-8.707-2.047l-.035.018-1.087.586a9.593,9.593,0,0,0-10.854-.889l-6.574,3.576h-8.762a12.5,12.5,0,0,1-5.412-1.24l-1.214-.587a21.061,21.061,0,0,0-21.921,2.141c-.034.026-.067.052-.1.081l-2.93,2.609a9.927,9.927,0,0,1-3.513,2.019l-1.6-5.231a1.562,1.562,0,0,0-1.494-1.106H50.077a1.562,1.562,0,0,0-1.55,1.75l4.724,38.733a1.562,1.562,0,0,0,1.55,1.372H76.058a1.562,1.562,0,0,0,1.494-2.017l-2.74-8.985,8.535-5.4a4.994,4.994,0,0,1,3.636-.468q.048.012.1.021l17.692,3.258a23.141,23.141,0,0,0,14.3-2.019,1.509,1.509,0,0,0,.191-.112l30.6-21.01a1.562,1.562,0,0,0,.454-2.093A8.641,8.641,0,0,0,138.792,329.374Zm-7.627.918a4.166,4.166,0,0,1,4.4.824l-11.3,6.1-.436.23a10.3,10.3,0,0,0-1.353-2.466Zm-11.894-.329.037-.021a6.463,6.463,0,0,1,6.2-.148l-5.375,2.9A10.269,10.269,0,0,0,117,331.2ZM56.184,368.224l-4.343-35.611H63.092l10.857,35.611Zm61.4-15.234a20,20,0,0,1-12.253,1.7l-17.641-3.249a8.1,8.1,0,0,0-5.9.8c-.024.014-.049.028-.072.043l-7.849,4.962-5.619-18.431a13.053,13.053,0,0,0,4.679-2.675l2.881-2.565a17.953,17.953,0,0,1,18.633-1.787l1.214.587a15.643,15.643,0,0,0,6.771,1.552h11.769a7.2,7.2,0,0,1,7,5.546l-8.217-.372a51.345,51.345,0,0,0-9.327.431,1.562,1.562,0,1,0,.428,3.094,48.165,48.165,0,0,1,8.758-.4l10.039.454.071,0a1.562,1.562,0,0,0,1.562-1.562c0-.166,0-.331-.012-.494l1.24-.654,14.542-7.845a5.521,5.521,0,0,1,6.444.863Z" transform="translate(0 -232.519)" fill="#1553a5"/>
    <path id="Path_8232" data-name="Path 8232" d="M92.334,455.841a4.4,4.4,0,1,0,4.4-4.4A4.4,4.4,0,0,0,92.334,455.841Zm4.4-1.273a1.273,1.273,0,1,1-1.273,1.273A1.273,1.273,0,0,1,96.73,454.568Z" transform="translate(-32.414 -325.352)" fill="#1553a5"/>
    <path id="Path_8233" data-name="Path 8233" d="M168.77,13a1.562,1.562,0,0,0-1.55-1.372H145.963a1.562,1.562,0,0,0-1.494,2.017l2.74,8.985-8.535,5.4a5,5,0,0,1-3.636.468q-.048-.012-.1-.021l-17.692-3.259a23.137,23.137,0,0,0-14.3,2.019,1.508,1.508,0,0,0-.191.112l-30.6,21.01a1.562,1.562,0,0,0-.454,2.093A8.638,8.638,0,0,0,83.229,53.6l.35-.189a7.862,7.862,0,0,0,5.83,2.717,6.335,6.335,0,0,0,2.875-.668l.035-.018,1.086-.585a9.592,9.592,0,0,0,10.856.888l6.575-3.575H119.6a12.5,12.5,0,0,1,5.412,1.24l1.214.587a21.063,21.063,0,0,0,21.921-2.141c.034-.026.067-.052.1-.081l2.93-2.609a9.927,9.927,0,0,1,3.513-2.019l1.6,5.231a1.562,1.562,0,0,0,1.494,1.106h14.171a1.562,1.562,0,0,0,1.55-1.75ZM90.856,52.68a4.166,4.166,0,0,1-4.4-.824l11.3-6.1.436-.23A10.3,10.3,0,0,0,99.547,48Zm11.894.329-.037.021a6.463,6.463,0,0,1-6.2.148l5.375-2.9a10.269,10.269,0,0,0,3.125,1.495Zm46.344-6.176L146.213,49.4a17.952,17.952,0,0,1-18.633,1.787l-1.214-.587a15.643,15.643,0,0,0-6.771-1.552H107.827a7.2,7.2,0,0,1-7-5.546l8.217.372a51.346,51.346,0,0,0,9.327-.431,1.562,1.562,0,1,0-.428-3.094,48.163,48.163,0,0,1-8.758.4L99.147,40.3a1.562,1.562,0,0,0-1.632,1.56c0,.166,0,.331.012.494l-1.24.654L81.746,50.85a5.521,5.521,0,0,1-6.444-.863l29.133-20a20,20,0,0,1,12.253-1.7l17.641,3.249a8.107,8.107,0,0,0,5.9-.8c.024-.014.049-.028.072-.043l7.849-4.962,5.619,18.431A13.053,13.053,0,0,0,149.094,46.833Zm9.835,3.529L148.072,14.749h17.765L170.18,50.36Z" transform="translate(-16.99)" fill="#1553a5"/>
    <path id="Path_8234" data-name="Path 8234" d="M390.281,26.775a4.4,4.4,0,1,0,4.4,4.4,4.4,4.4,0,0,0-4.4-4.4Zm0,5.668a1.273,1.273,0,1,1,1.273-1.273A1.273,1.273,0,0,1,390.281,32.443Z" transform="translate(-249.567 -11.206)" fill="#1553a5"/>
    <path id="Path_8235" data-name="Path 8235" d="M210.619,203.7a18.4,18.4,0,1,0-18.4,18.4A18.4,18.4,0,0,0,210.619,203.7Zm-33.674,0a15.276,15.276,0,1,1,15.276,15.276A15.276,15.276,0,0,1,176.945,203.7Z" transform="translate(-92.694 -128.478)" fill="#1553a5"/>
    <path id="Path_2122" data-name="Path 2122" d="M67.345,4.459H64.828A4.961,4.961,0,0,0,62.841.991h4.5a.5.5,0,1,0,0-.991H56.86a.5.5,0,0,0,0,.991h3a4,4,0,0,1,3.969,3.468H56.86a.5.5,0,0,0,0,.991h6.971a4.011,4.011,0,0,1-3.969,3.518h-3a.5.5,0,0,0-.5.51.512.512,0,0,0,.154.357l7.5,7.09a.494.494,0,0,0,.7-.02.506.506,0,0,0-.02-.709L58.1,9.959h1.754a5,5,0,0,0,4.97-4.509h2.517a.5.5,0,1,0,0-.991Z" transform="translate(37.321 68.091)" fill="#183443" stroke="#1553a5" stroke-width="0.7"/>
  </g>
</svg>
