<svg xmlns="http://www.w3.org/2000/svg" width="150" height="150" viewBox="0 0 150 150">
  <g id="Group_2" data-name="Group 2" transform="translate(-550 218)">
    <rect id="Rectangle_4" data-name="Rectangle 4" width="150" height="150" transform="translate(550 -218)" fill="#fff"/>
    <g id="save" transform="translate(537.484 -200.628)">
      <path id="Path_8231" data-name="Path 8231" d="M113.881,328.43l-.252.136a5.372,5.372,0,0,0-6.3-1.482l-.025.013-.787.424a6.946,6.946,0,0,0-7.859-.644l-4.76,2.589H87.549a9.051,9.051,0,0,1-3.919-.9l-.879-.425a15.25,15.25,0,0,0-15.872,1.55c-.025.019-.049.038-.072.059l-2.122,1.889a7.188,7.188,0,0,1-2.544,1.462l-1.159-3.788a1.131,1.131,0,0,0-1.082-.8H49.646a1.131,1.131,0,0,0-1.122,1.267l3.42,28.045a1.131,1.131,0,0,0,1.122.993H68.458a1.131,1.131,0,0,0,1.082-1.46l-1.984-6.506,6.18-3.91a3.616,3.616,0,0,1,2.633-.339l.072.015,12.81,2.359a16.756,16.756,0,0,0,10.354-1.462,1.093,1.093,0,0,0,.138-.081L121.9,332.225a1.131,1.131,0,0,0,.329-1.515,6.257,6.257,0,0,0-8.347-2.279Zm-5.522.665a3.016,3.016,0,0,1,3.186.6l-8.182,4.417-.316.167a7.458,7.458,0,0,0-.98-1.786Zm-8.612-.238.027-.015a4.679,4.679,0,0,1,4.489-.107l-3.892,2.1a7.436,7.436,0,0,0-2.269-1.082Zm-45.679,27.7-3.145-25.785H59.07l7.861,25.785Zm44.458-11.03a14.481,14.481,0,0,1-8.872,1.231L76.88,344.408a5.865,5.865,0,0,0-4.272.579l-.052.031-5.683,3.593L62.8,335.266a9.451,9.451,0,0,0,3.388-1.937l2.086-1.857a13,13,0,0,1,13.491-1.294l.879.425a11.326,11.326,0,0,0,4.9,1.124h8.521a5.213,5.213,0,0,1,5.068,4.016l-5.95-.269a37.176,37.176,0,0,0-6.753.312,1.131,1.131,0,1,0,.31,2.24,34.874,34.874,0,0,1,6.341-.29l7.269.329h.051a1.131,1.131,0,0,0,1.131-1.131c0-.12,0-.24-.009-.358l.9-.474,10.529-5.68a4,4,0,0,1,4.666.625Z" transform="translate(0 -255.092)" fill="#1553a5"/>
      <path id="Path_8232" data-name="Path 8232" d="M92.334,454.627a3.186,3.186,0,1,0,3.186-3.186,3.186,3.186,0,0,0-3.186,3.186Zm3.186-.922a.922.922,0,1,1-.922.922.922.922,0,0,1,.922-.922Z" transform="translate(-35.561 -356.936)" fill="#1553a5"/>
      <path id="Path_8233" data-name="Path 8233" d="M141.923,12.621a1.131,1.131,0,0,0-1.122-.993H125.41a1.131,1.131,0,0,0-1.082,1.46l1.984,6.506-6.18,3.91a3.62,3.62,0,0,1-2.633.339l-.072-.015-12.81-2.36A16.753,16.753,0,0,0,94.263,22.93a1.093,1.093,0,0,0-.138.081L71.968,38.224a1.131,1.131,0,0,0-.329,1.515,6.254,6.254,0,0,0,8.347,2.279l.253-.137a5.693,5.693,0,0,0,4.221,1.967,4.587,4.587,0,0,0,2.082-.484l.025-.013.786-.424a6.945,6.945,0,0,0,7.86.643l4.761-2.589h6.346a9.051,9.051,0,0,1,3.919.9l.879.425a15.251,15.251,0,0,0,15.872-1.55c.025-.019.049-.038.072-.059l2.121-1.889a7.188,7.188,0,0,1,2.544-1.462l1.159,3.788a1.131,1.131,0,0,0,1.082.8H144.23a1.131,1.131,0,0,0,1.122-1.267ZM85.509,41.352a3.016,3.016,0,0,1-3.186-.6L90.5,36.339l.316-.167a7.458,7.458,0,0,0,.981,1.791Zm8.612.238-.027.015a4.68,4.68,0,0,1-4.489.107l3.892-2.1A7.435,7.435,0,0,0,95.759,40.7Zm33.556-4.472-2.086,1.859A13,13,0,0,1,112.1,40.271l-.879-.425a11.327,11.327,0,0,0-4.9-1.124H97.8a5.213,5.213,0,0,1-5.068-4.016l5.95.269a37.178,37.178,0,0,0,6.753-.312,1.131,1.131,0,1,0-.31-2.24,34.873,34.873,0,0,1-6.341.29l-7.268-.325a1.131,1.131,0,0,0-1.182,1.13c0,.12,0,.24.009.358l-.9.474L78.912,40.027a4,4,0,0,1-4.666-.625L95.341,24.921a14.481,14.481,0,0,1,8.872-1.231l12.773,2.352a5.87,5.87,0,0,0,4.272-.579l.052-.031,5.683-3.593,4.069,13.345a9.451,9.451,0,0,0-3.385,1.934Zm7.121,2.555-7.861-25.786H139.8l3.145,25.785Z" transform="translate(-18.638)" fill="#1553a5"/>
      <path id="Path_8234" data-name="Path 8234" d="M389.067,26.775a3.186,3.186,0,1,0,3.186,3.186A3.186,3.186,0,0,0,389.067,26.775Zm0,4.1a.922.922,0,1,1,.922-.922.922.922,0,0,1-.922.922Z" transform="translate(-273.794 -12.293)" fill="#1553a5"/>
      <path id="Path_8235" data-name="Path 8235" d="M200.465,198.623a13.323,13.323,0,1,0-13.323,13.323A13.323,13.323,0,0,0,200.465,198.623Zm-24.382,0a11.061,11.061,0,1,1,11.061,11.061A11.061,11.061,0,0,1,176.082,198.623Z" transform="translate(-101.692 -140.949)" fill="#1553a5"/>
      <path id="Path_2122" data-name="Path 2122" d="M64.314,3.227H62.492A3.592,3.592,0,0,0,61.053.716h3.258a.362.362,0,1,0,0-.718H56.723a.362.362,0,0,0,0,.718h2.172a2.9,2.9,0,0,1,2.874,2.511H56.723a.362.362,0,0,0,0,.718H61.77A2.9,2.9,0,0,1,58.9,6.492H56.724a.362.362,0,0,0-.362.369.371.371,0,0,0,.112.258l5.43,5.134a.358.358,0,0,0,.507-.014.366.366,0,0,0-.014-.513L57.62,7.21h1.27a3.62,3.62,0,0,0,3.6-3.265h1.822a.362.362,0,1,0,0-.718Z" transform="translate(24.858 52.512)" fill="#183443" stroke="#1553a5" stroke-width="0.7"/>
    </g>
  </g>
</svg>
