<svg xmlns="http://www.w3.org/2000/svg" width="283" height="198.312" viewBox="0 0 283 198.312"><defs><style>.a{fill:#3f3d56;}.b{fill:#ffc20e;}.c{fill:#fff;}.d{fill:#f2f2f2;}.e{fill:#ff6584;}</style></defs><g transform="translate(8206 2132.555)"><rect class="a" width="283" height="0.901" transform="translate(-8206 -1935.144)"/><g transform="translate(-8206 -2132.555)"><rect class="b" width="282.964" height="139.09" transform="translate(0 58.57)"/><rect class="c" width="2.656" height="0.885" transform="translate(46.203 91.18)"/><path class="c" d="M373.06,487.885H367.7V487h5.357Zm-10.714,0h-5.357V487h5.357Zm-10.714,0h-5.357V487h5.357Zm-10.714,0h-5.357V487h5.357Zm-10.714,0h-5.357V487H330.2Zm-10.714,0h-5.357V487h5.357Zm-10.714,0H303.42V487h5.357Zm-10.714,0h-5.357V487h5.357Zm-10.714,0h-5.357V487h5.357Zm-10.714,0h-5.357V487h5.357Zm-10.714,0h-5.357V487h5.357Zm-10.714,0h-5.357V487h5.357Zm-10.714,0h-5.357V487h5.357Zm-10.714,0h-5.357V487h5.357Zm-10.714,0H217.71V487h5.357Zm-10.714,0H207V487h5.357Zm-10.714,0h-5.357V487h5.357Zm-10.714,0h-5.357V487h5.357Zm-10.714,0h-5.357V487h5.357Z" transform="translate(-120.638 -395.82)"/><rect class="c" width="2.656" height="0.885" transform="translate(257.778 91.18)"/><rect class="c" width="2.656" height="0.885" transform="translate(46.203 109.771)"/><path class="c" d="M373.06,529.885H367.7V529h5.357Zm-10.714,0h-5.357V529h5.357Zm-10.714,0h-5.357V529h5.357Zm-10.714,0h-5.357V529h5.357Zm-10.714,0h-5.357V529H330.2Zm-10.714,0h-5.357V529h5.357Zm-10.714,0H303.42V529h5.357Zm-10.714,0h-5.357V529h5.357Zm-10.714,0h-5.357V529h5.357Zm-10.714,0h-5.357V529h5.357Zm-10.714,0h-5.357V529h5.357Zm-10.714,0h-5.357V529h5.357Zm-10.714,0h-5.357V529h5.357Zm-10.714,0h-5.357V529h5.357Zm-10.714,0H217.71V529h5.357Zm-10.714,0H207V529h5.357Zm-10.714,0h-5.357V529h5.357Zm-10.714,0h-5.357V529h5.357Zm-10.714,0h-5.357V529h5.357Z" transform="translate(-120.638 -419.229)"/><rect class="c" width="2.656" height="0.885" transform="translate(257.778 109.771)"/><rect class="c" width="2.656" height="0.885" transform="translate(46.203 128.361)"/><path class="c" d="M373.06,571.885H367.7V571h5.357Zm-10.714,0h-5.357V571h5.357Zm-10.714,0h-5.357V571h5.357Zm-10.714,0h-5.357V571h5.357Zm-10.714,0h-5.357V571H330.2Zm-10.714,0h-5.357V571h5.357Zm-10.714,0H303.42V571h5.357Zm-10.714,0h-5.357V571h5.357Zm-10.714,0h-5.357V571h5.357Zm-10.714,0h-5.357V571h5.357Zm-10.714,0h-5.357V571h5.357Zm-10.714,0h-5.357V571h5.357Zm-10.714,0h-5.357V571h5.357Zm-10.714,0h-5.357V571h5.357Zm-10.714,0H217.71V571h5.357Zm-10.714,0H207V571h5.357Zm-10.714,0h-5.357V571h5.357Zm-10.714,0h-5.357V571h5.357Zm-10.714,0h-5.357V571h5.357Z" transform="translate(-120.638 -442.639)"/><rect class="c" width="2.656" height="0.885" transform="translate(257.778 128.361)"/><rect class="c" width="2.656" height="0.885" transform="translate(46.203 146.951)"/><path class="c" d="M373.06,613.885H367.7V613h5.357Zm-10.714,0h-5.357V613h5.357Zm-10.714,0h-5.357V613h5.357Zm-10.714,0h-5.357V613h5.357Zm-10.714,0h-5.357V613H330.2Zm-10.714,0h-5.357V613h5.357Zm-10.714,0H303.42V613h5.357Zm-10.714,0h-5.357V613h5.357Zm-10.714,0h-5.357V613h5.357Zm-10.714,0h-5.357V613h5.357Zm-10.714,0h-5.357V613h5.357Zm-10.714,0h-5.357V613h5.357Zm-10.714,0h-5.357V613h5.357Zm-10.714,0h-5.357V613h5.357Zm-10.714,0H217.71V613h5.357Zm-10.714,0H207V613h5.357Zm-10.714,0h-5.357V613h5.357Zm-10.714,0h-5.357V613h5.357Zm-10.714,0h-5.357V613h5.357Z" transform="translate(-120.638 -466.049)"/><rect class="c" width="2.656" height="0.885" transform="translate(257.778 146.951)"/><rect class="c" width="2.656" height="0.885" transform="translate(46.203 165.541)"/><path class="c" d="M373.06,655.885H367.7V655h5.357Zm-10.714,0h-5.357V655h5.357Zm-10.714,0h-5.357V655h5.357Zm-10.714,0h-5.357V655h5.357Zm-10.714,0h-5.357V655H330.2Zm-10.714,0h-5.357V655h5.357Zm-10.714,0H303.42V655h5.357Zm-10.714,0h-5.357V655h5.357Zm-10.714,0h-5.357V655h5.357Zm-10.714,0h-5.357V655h5.357Zm-10.714,0h-5.357V655h5.357Zm-10.714,0h-5.357V655h5.357Zm-10.714,0h-5.357V655h5.357Zm-10.714,0h-5.357V655h5.357Zm-10.714,0H217.71V655h5.357Zm-10.714,0H207V655h5.357Zm-10.714,0h-5.357V655h5.357Zm-10.714,0h-5.357V655h5.357Zm-10.714,0h-5.357V655h5.357Z" transform="translate(-120.638 -489.459)"/><rect class="c" width="2.656" height="0.885" transform="translate(257.778 165.541)"/><circle class="a" cx="6.197" cy="6.197" r="6.197" transform="translate(40.892 159.787)"/><circle class="a" cx="6.197" cy="6.197" r="6.197" transform="translate(82.498 141.197)"/><circle class="a" cx="6.197" cy="6.197" r="6.197" transform="translate(125.433 122.607)"/><circle class="a" cx="6.197" cy="6.197" r="6.197" transform="translate(167.925 104.017)"/><circle class="a" cx="6.197" cy="6.197" r="6.197" transform="translate(200.237 121.722)"/><circle class="a" cx="6.197" cy="6.197" r="6.197" transform="translate(232.991 85.427)"/><circle class="c" cx="3.984" cy="3.984" r="3.984" transform="translate(21.859 87.64)"/><circle class="c" cx="3.984" cy="3.984" r="3.984" transform="translate(21.859 106.23)"/><circle class="c" cx="3.984" cy="3.984" r="3.984" transform="translate(21.859 124.82)"/><circle class="c" cx="3.984" cy="3.984" r="3.984" transform="translate(21.859 143.41)"/><circle class="c" cx="3.984" cy="3.984" r="3.984" transform="translate(21.859 162)"/><path class="a" d="M568.885,264.672H568V185h36.738v.885H568.885Z" transform="translate(-329.256 -183.23)"/><circle class="c" cx="11.508" cy="11.508" r="11.508" transform="translate(247.597 12.393)"/><path class="a" d="M622.359,326.213a14.607,14.607,0,1,1,14.607-14.607A14.607,14.607,0,0,1,622.359,326.213Zm0-28.328a13.721,13.721,0,1,0,13.721,13.721A13.721,13.721,0,0,0,622.359,297.885Z" transform="translate(-361.927 -289.918)"/><path class="a" d="M228.885,316H228V181h36.738v.885H228.885Z" transform="translate(-139.747 -181)"/><circle class="d" cx="11.508" cy="11.508" r="11.508" transform="translate(97.105 10.623)"/><path class="a" d="M282.359,322.213a14.607,14.607,0,1,1,14.607-14.607A14.607,14.607,0,0,1,282.359,322.213Zm0-28.328a13.721,13.721,0,1,0,13.721,13.721A13.721,13.721,0,0,0,282.359,293.885Z" transform="translate(-172.419 -287.688)"/><path class="a" d="M97.238,348.5h-.885V214.385H60.5V213.5H97.238Z" transform="translate(-46.386 -199.115)"/><circle class="d" cx="11.508" cy="11.508" r="11.508" transform="translate(18.983 25.008)"/><path class="a" d="M99.859,354.713a14.607,14.607,0,1,1,14.607-14.607,14.606,14.606,0,0,1-14.607,14.607Zm0-28.328a13.721,13.721,0,1,0,13.721,13.721A13.721,13.721,0,0,0,99.859,326.385Z" transform="translate(-70.697 -305.803)"/><path class="e" d="M291.674,354.354H273.392a63.941,63.941,0,0,1,0-21.8h18.282A39.222,39.222,0,0,0,291.674,354.354Z" transform="translate(-175.039 -309.737)"/><path class="b" d="M97.632,381.332h18.282a63.943,63.943,0,0,0,0-21.8H97.632a39.222,39.222,0,0,1,0,21.8Z" transform="translate(-77.596 -324.773)"/><path class="b" d="M617.632,351.332h18.282a63.944,63.944,0,0,0,0-21.8H617.632a39.221,39.221,0,0,1,0,21.8Z" transform="translate(-367.432 -308.052)"/></g></g></svg>