<svg xmlns="http://www.w3.org/2000/svg" width="36.938" height="30" viewBox="0 0 36.938 30"><defs><style>.a{fill:#00acee;}</style></defs><g transform="translate(0.001 -42.259)"><path class="a" d="M36.937,45.822a15.105,15.105,0,0,1-4.359,1.172,7.351,7.351,0,0,0,3.329-4.172A14.86,14.86,0,0,1,31.1,44.65a7.589,7.589,0,0,0-10.887-.176A7.3,7.3,0,0,0,18,49.829a8.4,8.4,0,0,0,.188,1.734A21.1,21.1,0,0,1,9.48,49.232a21.463,21.463,0,0,1-6.9-5.59,7.587,7.587,0,0,0-.117,7.43,7.562,7.562,0,0,0,2.461,2.7A7.51,7.51,0,0,1,1.5,52.806V52.9a7.316,7.316,0,0,0,1.723,4.817,7.448,7.448,0,0,0,4.348,2.613,7.843,7.843,0,0,1-1.992.258,9.658,9.658,0,0,1-1.43-.117,7.587,7.587,0,0,0,7.078,5.25,14.823,14.823,0,0,1-9.4,3.234A16.118,16.118,0,0,1,0,68.861a21.025,21.025,0,0,0,11.625,3.4,22.118,22.118,0,0,0,7.57-1.277,19.241,19.241,0,0,0,6.047-3.422,22.9,22.9,0,0,0,4.324-4.934A22,22,0,0,0,32.273,56.8a21.516,21.516,0,0,0,.891-6.082q0-.656-.024-.984A15.855,15.855,0,0,0,36.937,45.822Z"/></g></svg>