<svg xmlns="http://www.w3.org/2000/svg" xmlns:xlink="http://www.w3.org/1999/xlink" width="283" height="199.254" viewBox="0 0 283 199.254"><defs><style>.a,.d{fill:#ffc20e;}.a,.b,.e{opacity:0.1;}.c{fill:#3f3d56;}.f{fill:none;stroke:#3f3d56;stroke-linecap:round;stroke-miterlimit:10;stroke-width:7px;}.g{fill:#a8a8a8;}.h{opacity:0.2;}.i{fill:url(#a);}.j{fill:#696791;}.k{fill:#a0616a;}.l{fill:#f86d70;}.m{fill:#2d293d;}</style><linearGradient id="a" x1="0.627" y1="0.5" x2="1.626" y2="0.5" gradientUnits="objectBoundingBox"><stop offset="0" stop-color="gray" stop-opacity="0.251"/><stop offset="0.54" stop-color="gray" stop-opacity="0.122"/><stop offset="1" stop-color="gray" stop-opacity="0.102"/></linearGradient></defs><g transform="translate(-0.003 -0.344)"><ellipse class="a" cx="16.264" cy="4.318" rx="16.264" ry="4.318" transform="translate(228.972 190.963)"/><path class="a" d="M315.27,242.631c-6.188,5.133-14.994,7.258-23.509,8.6l-1.433.219a269.123,269.123,0,0,1-26.912,2.463c-4.828.234-9.657.4-14.485.546l-3.784.112q-7.37.219-14.767.429-7.243.206-14.485.386-9.276.226-18.551.376-7.243.114-14.485.158-9.278.053-18.551-.036-7.248-.074-14.485-.254-9.281-.239-18.551-.7-6.292-.308-12.577-.74l-1.909-.135c-17.985-1.3-36.292-3.621-52.03-10.971l-.424-.2c-.211-.1-.422-.2-.633-.3a56.951,56.951,0,0,1-8.274-4.851c-4.653-3.319-8.5-7.37-10.526-12.175-3.182-7.537-1.5-16.01,2.135-23.38s9.09-14.023,13.809-20.963c1.382-2.033,2.694-4.142,3.914-6.3,7.624-13.563,11.405-29.258,3.413-42.328a58.086,58.086,0,0,0-3.413-4.828,45.758,45.758,0,0,1-5.271-7.9c-3.123-6.546-2.452-13.908-1.314-20.9,1.525-9.3,4.32-19.314,13.057-25.123,9.065-6.033,21.931-5.728,33.182-3.558,17.492,3.352,33.637,10.368,49.934,16.7s33.37,12.114,51.288,12.737a81.851,81.851,0,0,0,11.532-.419h0a73.141,73.141,0,0,0,15.024-3.164c7.052-2.323,13.469-5.817,18.226-10.673,10.2-10.381,29.377-11.166,43.2-4.9,13.192,5.982,21.723,18.643,21.093,31.288-.717,14.076-11.258,25.649-20.917,37.52-1.172,1.438-2.328,2.882-3.454,4.335q-.943,1.217-1.85,2.44h0c-1.06,1.438-2.084,2.884-3.05,4.348-4.935,7.5-8.424,16.518-5.027,24.62,1.906,4.536,5.543,8,9.926,11.019,9.822,6.767,23.38,11.321,29.479,20.8C325.069,225.084,323.122,236.105,315.27,242.631Z" transform="translate(-43.21 -65.783)"/><g class="b" transform="translate(116.353 0.344)"><path class="c" d="M598.685,585.2q.015.358.053.7,2.966-1.182,5.822-2.541a4.719,4.719,0,0,0,2.691-1.316c.557-.28,1.111-.572,1.659-.864a6.813,6.813,0,0,0-.422-.762,4.829,4.829,0,0,0-8.788.282A8.757,8.757,0,0,0,598.685,585.2Z" transform="translate(-573.867 -445.686)"/><path class="c" d="M597.536,550.257a8.784,8.784,0,0,0,1.309,4.4,5.233,5.233,0,0,0,4.49,2.684c.125,0,.254-.018.368-.028A4.72,4.72,0,0,0,606.4,556a6.473,6.473,0,0,0,1.238-1.621,9.1,9.1,0,0,0-.29-8.895,4.829,4.829,0,0,0-8.788.282A8.76,8.76,0,0,0,597.536,550.257Z" transform="translate(-573.011 -419.626)"/><ellipse class="c" cx="5.558" cy="7.276" rx="5.558" ry="7.276" transform="matrix(0.999, -0.033, 0.033, 0.999, 23.999, 114.468)"/><ellipse class="c" cx="5.558" cy="7.276" rx="5.558" ry="7.276" transform="matrix(0.999, -0.033, 0.033, 0.999, 23.708, 105.583)"/><ellipse class="c" cx="5.558" cy="7.276" rx="5.558" ry="7.276" transform="matrix(0.999, -0.033, 0.033, 0.999, 23.416, 96.695)"/><path class="d" d="M549.07,100.428a26.449,26.449,0,0,0,1.967-3.113L536.364,95.4,552.15,95a26.656,26.656,0,0,0-.183-21.093L531.152,85.582l19.06-14.994a26.62,26.62,0,1,0-42.976,31.222,26.726,26.726,0,0,0-2.874,4.95l19.266,9.22-20.422-6.114a26.633,26.633,0,0,0,5.111,24.841,26.617,26.617,0,1,0,41.819-1.385A26.625,26.625,0,0,0,549.07,100.428Z" transform="translate(-501.054 -58.134)"/><path class="e" d="M505.1,294.146a26.5,26.5,0,0,0,6.234,16.264,26.617,26.617,0,1,0,41.819-1.377C556.571,304.393,505,291.16,505.1,294.146Z" transform="translate(-504.071 -233.845)"/></g><g class="b" transform="translate(61.136 87.337)"><path class="c" d="M348.021,775.816a4.357,4.357,0,0,1-.038.508q-2.109-.839-4.145-1.8a3.357,3.357,0,0,1-1.916-.933q-.595-.3-1.182-.615a4.8,4.8,0,0,1,.3-.539,3.427,3.427,0,0,1,6.241.193A6.226,6.226,0,0,1,348.021,775.816Z" transform="translate(-326.263 -676.478)"/><path class="c" d="M346.993,750.9a6.249,6.249,0,0,1-.925,3.133,3.725,3.725,0,0,1-3.192,1.914l-.254-.02a3.358,3.358,0,0,1-1.916-.933,4.574,4.574,0,0,1-.882-1.154,6.488,6.488,0,0,1,.2-6.325,3.437,3.437,0,0,1,6.254.193A6.226,6.226,0,0,1,346.993,750.9Z" transform="translate(-325.038 -657.883)"/><ellipse class="c" cx="5.177" cy="3.954" rx="5.177" ry="3.954" transform="translate(14.093 91.625) rotate(-88.19)"/><ellipse class="c" cx="5.177" cy="3.954" rx="5.177" ry="3.954" transform="translate(14.291 85.301) rotate(-88.19)"/><ellipse class="c" cx="5.177" cy="3.954" rx="5.177" ry="3.954" transform="translate(14.491 78.974) rotate(-88.19)"/><path class="d" d="M288.945,430.621a19.271,19.271,0,0,1-1.405-2.213l10.44-1.388-11.235-.254a18.968,18.968,0,0,1,.112-15.014l14.823,8.292L288.1,409.383a18.943,18.943,0,1,1,30.6,22.175,18.916,18.916,0,0,1,2.051,3.522l-13.7,6.577,14.529-4.371a18.971,18.971,0,0,1-3.614,17.687,18.943,18.943,0,1,1-29.764-.94,18.943,18.943,0,0,1,.74-23.41Z" transform="translate(-283.775 -400.451)"/><path class="e" d="M322.388,568.526a18.874,18.874,0,0,1-4.419,11.581,18.943,18.943,0,1,1-29.764-.94C285.768,575.862,322.459,566.4,322.388,568.526Z" transform="translate(-283.775 -525.583)"/></g><g class="b" transform="translate(193.483 54.256)"><path class="c" d="M868.791,645.766a4.919,4.919,0,0,1-.036.508q-2.112-.839-4.145-1.8a3.37,3.37,0,0,1-1.919-.933c-.394-.2-.79-.407-1.182-.615a5.245,5.245,0,0,1,.3-.539,3.427,3.427,0,0,1,6.241.193,6.227,6.227,0,0,1,.74,3.182Z" transform="translate(-847.037 -546.396)"/><path class="c" d="M867.809,620.847a6.249,6.249,0,0,1-.928,3.133,3.722,3.722,0,0,1-3.192,1.914l-.254-.02a3.37,3.37,0,0,1-1.919-.933,4.656,4.656,0,0,1-.882-1.154,6.488,6.488,0,0,1,.2-6.325,3.437,3.437,0,0,1,6.254.193A6.226,6.226,0,0,1,867.809,620.847Z" transform="translate(-845.842 -527.802)"/><ellipse class="c" cx="5.177" cy="3.954" rx="5.177" ry="3.954" transform="translate(14.099 91.655) rotate(-88.19)"/><ellipse class="c" cx="5.177" cy="3.954" rx="5.177" ry="3.954" transform="translate(14.299 85.33) rotate(-88.19)"/><ellipse class="c" cx="5.177" cy="3.954" rx="5.177" ry="3.954" transform="translate(14.499 79.006) rotate(-88.19)"/><path class="d" d="M809.726,300.479a18.692,18.692,0,0,1-1.4-2.213l10.44-1.375-11.235-.272a18.983,18.983,0,0,1,.109-15.014L822.46,289.9l-13.576-10.656a18.945,18.945,0,1,1,30.6,22.175,18.9,18.9,0,0,1,2.048,3.522l-13.7,6.577,14.529-4.371a18.95,18.95,0,0,1-3.614,17.685,18.94,18.94,0,1,1-29.756-.94,18.943,18.943,0,0,1,.74-23.41Z" transform="translate(-804.559 -270.277)"/><path class="e" d="M843.176,438.474a18.856,18.856,0,0,1-4.422,11.578,18.94,18.94,0,1,1-29.758-.94C806.556,445.81,843.242,436.344,843.176,438.474Z" transform="translate(-804.563 -395.5)"/></g><ellipse class="d" cx="14.488" cy="2.785" rx="14.488" ry="2.785" transform="translate(34.688 188.294)"/><ellipse class="c" cx="1.687" cy="2.208" rx="1.687" ry="2.208" transform="translate(47.247 187.687)"/><ellipse class="c" cx="1.687" cy="2.208" rx="1.687" ry="2.208" transform="translate(47.247 184.988)"/><ellipse class="c" cx="1.687" cy="2.208" rx="1.687" ry="2.208" transform="translate(47.247 182.289)"/><ellipse class="c" cx="1.687" cy="2.208" rx="1.687" ry="2.208" transform="translate(47.247 179.59)"/><ellipse class="c" cx="1.687" cy="2.208" rx="1.687" ry="2.208" transform="translate(47.247 176.892)"/><ellipse class="c" cx="1.687" cy="2.208" rx="1.687" ry="2.208" transform="translate(47.247 174.193)"/><ellipse class="c" cx="1.687" cy="2.208" rx="1.687" ry="2.208" transform="translate(47.247 171.494)"/><path class="d" d="M218.252,629.227a8.219,8.219,0,0,0,.628-.925l-4.432-.729,4.793.038a8.1,8.1,0,0,0,.155-6.4l-6.432,3.337,5.931-4.369a8.081,8.081,0,1,0-13.347,9.044,8.13,8.13,0,0,0-.92,1.474l5.753,2.989-6.135-2.058a8.086,8.086,0,0,0,1.3,7.588,8.081,8.081,0,1,0,12.706,0,8.086,8.086,0,0,0,0-9.992Z" transform="translate(-163.002 -473.995)"/><path class="e" d="M203.82,686.93a8.048,8.048,0,0,0,1.728,5,8.081,8.081,0,1,0,12.706,0C219.334,690.552,203.82,686.023,203.82,686.93Z" transform="translate(-163.002 -526.702)"/><path class="c" d="M347.2,568.421v57.433q-6.292-.308-12.577-.74l-1.909-.135V568.421a2.241,2.241,0,0,1,2.241-2.241h10A2.241,2.241,0,0,1,347.2,568.421Z" transform="translate(-259.138 -436.727)"/><path class="c" d="M462.71,513.942V417.421a2.241,2.241,0,0,1,2.241-2.241h10a2.241,2.241,0,0,1,2.241,2.241v96.772Z" transform="translate(-356.101 -324.1)"/><path class="c" d="M592.71,573.168V496.421a2.241,2.241,0,0,1,2.241-2.241h10a2.241,2.241,0,0,1,2.241,2.241V573Z" transform="translate(-453.064 -383.024)"/><path class="c" d="M737.2,272.421V405.166q-7.243.206-14.485.386V272.421a2.241,2.241,0,0,1,2.241-2.241h10A2.241,2.241,0,0,1,737.2,272.421Z" transform="translate(-550.027 -215.949)"/><path class="c" d="M867.2,377.421V482.377c-4.828.234-9.657.4-14.485.546v-105.5a2.241,2.241,0,0,1,2.241-2.241h10A2.241,2.241,0,0,1,867.2,377.421Z" transform="translate(-646.991 -294.265)"/><path class="f" d="M318.5,164.632l33.037-36.849,33.037,18.551L417.61,89.41,450.647,116.6" transform="translate(-237.558 -66.432)"/><circle class="d" cx="7.116" cy="7.116" r="7.116" transform="translate(73.699 91.085)"/><circle class="d" cx="7.116" cy="7.116" r="7.116" transform="translate(106.736 54.236)"/><circle class="d" cx="7.116" cy="7.116" r="7.116" transform="translate(139.773 72.788)"/><circle class="d" cx="7.116" cy="7.116" r="7.116" transform="translate(172.81 15.863)"/><circle class="d" cx="7.116" cy="7.116" r="7.116" transform="translate(236.342 76.346)"/><ellipse class="a" cx="4.747" cy="0.803" rx="4.747" ry="0.803" transform="translate(54.64 183.09)"/><path class="g" d="M264.35,761.437s2.706-.084,3.522-.666,4.165-1.271,4.368-.343,4.066,4.635,1.017,4.661-7.1-.478-7.916-.973S264.35,761.437,264.35,761.437Z" transform="translate(-208.15 -581.272)"/><path class="h" d="M273.306,769.049c-3.05.025-7.1-.475-7.916-.971-.62-.379-.867-1.733-.95-2.358h-.089s.17,2.183.986,2.678,4.859,1,7.916.973c.882,0,1.187-.32,1.169-.785C274.3,768.869,273.964,769.044,273.306,769.049Z" transform="translate(-208.15 -585.558)"/><ellipse class="a" cx="8.719" cy="1.474" rx="8.719" ry="1.474" transform="translate(261.625 189.23)"/><path class="g" d="M1084,772.366s4.973-.153,6.473-1.22,7.649-2.341,8.02-.63,7.477,8.513,1.86,8.559-13.047-.874-14.544-1.779S1084,772.366,1084,772.366Z" transform="translate(-819.503 -588.511)"/><path class="h" d="M1100.425,786.409c-5.616.046-13.047-.874-14.544-1.779-1.138-.694-1.593-3.184-1.746-4.32h-.165s.315,4.013,1.809,4.922,8.93,1.832,14.544,1.779c1.621,0,2.18-.59,2.15-1.443C1102.247,786.076,1101.629,786.4,1100.425,786.409Z" transform="translate(-819.481 -596.44)"/><path class="i" d="M892.691,389.287a2.287,2.287,0,0,0,.508,1.212,4.4,4.4,0,0,0,1.416.856,5.591,5.591,0,0,1,2.734,3.144c.846,2.47.956,5.083,2.033,7.466s2.343,4.673,3.273,7.116a23.853,23.853,0,0,0,1.726,4.086A6.339,6.339,0,0,0,905.8,414.8c-.058.895-.081,1.779-.076,2.673a1.016,1.016,0,0,1,.869.457,2.645,2.645,0,0,1,.381.953c.348,1.441-.081,2.976.231,4.424a22.506,22.506,0,0,1-.762,12.107c-.348.986-.785,4.249-.414,5.227,1.382-.14,2.607.709,3.9,1.271a5.368,5.368,0,0,1-.183,2.287,12.6,12.6,0,0,0-.455,4.211l.064,10.485a15.813,15.813,0,0,0,.351,3.964c.379,1.451,1.174,2.93,1.149,4.429-.069,3.227,1.456,6.3,1.334,9.5-.023.615-.107,1.225-.165,1.835a20.876,20.876,0,0,0,.122,4.877c.463,3.217,1.685,6.381,1.38,9.616-.02.219-.094.508-.3.592.254.287.523.572.8.844a.724.724,0,0,1-.221.231,2.246,2.246,0,0,1-.971.254,2.056,2.056,0,0,0-1.111.361,1.6,1.6,0,0,0-.462.849,2.287,2.287,0,0,0,.3,1.9,2.122,2.122,0,0,0,.862.645,5.531,5.531,0,0,0,3.746-.231l4.8-1.454a1.616,1.616,0,0,0,.78-.407.855.855,0,0,0,.191-.412,6.563,6.563,0,0,0,3.3-.381l4.8-1.456a1.593,1.593,0,0,0,.78-.407.93.93,0,0,0,.2-.762c.036-.015.071-.025.107-.043.366-.165.762-.488.673-.877-.064-.254-.318-.4-.427-.635a.918.918,0,0,1,.178-.9c.188-.254.442-.465.615-.732.554-.849.178-1.964-.03-2.958-.45-2.122-.033-4.338-.318-6.488-.1-.724-.272-1.436-.412-2.155a44.032,44.032,0,0,1-.587-5.138c-.183-2.46-.867-4.884-.475-7.324a28.439,28.439,0,0,0,.241-4.32,18.8,18.8,0,0,0-.119-2.755c-.1-.681-.274-1.349-.351-2.033a18.431,18.431,0,0,1-.041-2.31,22.854,22.854,0,0,0-.473-5.113c-.508-2.31-1.464-4.521-1.87-6.836.137.031.274.061.407.1.015-1.779-1.543-5.647-2.119-7.334a2.134,2.134,0,0,1-.152-.648,7,7,0,0,1,.16-.872,7.141,7.141,0,0,0-.343-1.814,4.258,4.258,0,0,1,.094-1.291c.409-2.274.917-4.531,1.426-6.785a7.226,7.226,0,0,0,.226-2.508,3.149,3.149,0,0,1,.762-2.5,2.964,2.964,0,0,0,.564-.709,1.8,1.8,0,0,0,.112-.709,11.388,11.388,0,0,0-.457-3.088,7.991,7.991,0,0,0,.742-2.747,44.62,44.62,0,0,0,.559-6.259,10.61,10.61,0,0,0-.457-3.3,13.118,13.118,0,0,0-.869-1.916,62.361,62.361,0,0,0-4.3-7.642c-.508-.717-.188-1.705-.152-2.59a7.393,7.393,0,0,0-.8-3.072,5.041,5.041,0,0,0-.956-1.644,1.553,1.553,0,0,0-1.118-.508,1.685,1.685,0,0,0-1.192.729,3.931,3.931,0,0,0-.714,2.94,5.685,5.685,0,0,0,1.294,2.778,6.3,6.3,0,0,0,1.116,1.06q.63,2,1.271,4a49.932,49.932,0,0,0,2.287,6.262,4.94,4.94,0,0,1,.615,1.817,5.339,5.339,0,0,1-.485,2.008,14.168,14.168,0,0,0-.818,4.234,1.457,1.457,0,0,0-.213.117c-.8.524-1.052,1.665-1.886,2.132a5.9,5.9,0,0,1-1.619.379.557.557,0,0,0-.147.041c-.02-.1-.041-.2-.053-.3a.826.826,0,0,1,0-.2,8.536,8.536,0,0,0,3.159-3.009,2.752,2.752,0,0,0,.374-.762,2.947,2.947,0,0,0,.038-.991,15.814,15.814,0,0,0-.47-3.266,5.431,5.431,0,0,0-1.7-2.767c-.417-.335-.9-.587-1.311-.925-.808-.653-1.362-1.619-2.287-2.1a2.752,2.752,0,0,0-3.459.895,2.005,2.005,0,0,1-.508.646,5.2,5.2,0,0,0-.473.254.968.968,0,0,0-.2,1,10.419,10.419,0,0,1,.29,2.183,5.337,5.337,0,0,0-.015,6.9c0,.473,0,.945-.018,1.418a1.374,1.374,0,0,1-.018.269,1.832,1.832,0,0,1-.762-.508c-.285-.356-.335-.879-.684-1.172a1.929,1.929,0,0,0-.834-.3,5.176,5.176,0,0,1-2.033-.963,4.085,4.085,0,0,0-1.507-.935,33.432,33.432,0,0,0-3.3-5.042,9.818,9.818,0,0,1-.864-1.187,16.5,16.5,0,0,1-1.055-3.118c-.966-2.928-3.375-5.276-3.962-8.3a13.7,13.7,0,0,0-1.388-3.065,3.913,3.913,0,0,0-1.324-1.8,2.254,2.254,0,0,0-2.671.409A3.21,3.21,0,0,0,892.691,389.287Zm30.173,102.843a2.246,2.246,0,0,1-.971.254,4.691,4.691,0,0,0-.508.081c-.063-.534-.1-1.075-.14-1.6-.135-1.726-.4-3.438-.671-5.149a30.666,30.666,0,0,0-1.016-5.433c-.973-2.78-1.959-5.644-1.835-8.59.028-.668.112-1.332.147-2a25.163,25.163,0,0,1,.254-4.938c.18-.729.488-1.426.6-2.168a10.286,10.286,0,0,0,.025-2.018,26.817,26.817,0,0,1,.577-6.95,4.906,4.906,0,0,1,.762,2.18l.953,5.169c.567,3.067,1.067,6.32,2.569,9.05a5.388,5.388,0,0,0-.071,2.973c.15.407.4.762.549,1.174a8.749,8.749,0,0,1,.295,2.16c.165,1.525.8,3.024.333,4.5a21.926,21.926,0,0,0-.922,4.666,11.361,11.361,0,0,1-.153,1.314c-.081.391-.213.762-.287,1.164a3.855,3.855,0,0,0,.074,1.7,3.461,3.461,0,0,1,.208.953c0,.325-.4.559-.719.61.094.122.2.239.3.353A1.113,1.113,0,0,1,922.864,492.131Z" transform="translate(-676.781 -301.463)"/><path class="c" d="M967.181,814.68a2.056,2.056,0,0,0-1.111.361,1.565,1.565,0,0,0-.462.844,2.257,2.257,0,0,0,.3,1.886,2.117,2.117,0,0,0,.862.643,5.546,5.546,0,0,0,3.746-.231l4.8-1.443a1.611,1.611,0,0,0,.78-.4,1.06,1.06,0,0,0,.02-1.235,2.4,2.4,0,0,0-1.017-.811,11.384,11.384,0,0,0-4.813-.922c-.61,0-1.212-.147-1.626.323-.219.254-.178.526-.508.742A2.286,2.286,0,0,1,967.181,814.68Z" transform="translate(-731.134 -621.079)"/><path class="c" d="M1002.852,804.3a2.076,2.076,0,0,0-1.11.361,1.575,1.575,0,0,0-.463.844,2.264,2.264,0,0,0,.3,1.888,2.134,2.134,0,0,0,.862.64,5.544,5.544,0,0,0,3.746-.229l4.8-1.446a1.612,1.612,0,0,0,.78-.4,1.057,1.057,0,0,0,.02-1.233,2.408,2.408,0,0,0-1.017-.811,11.405,11.405,0,0,0-4.816-.925c-.61,0-1.21-.145-1.626.325-.219.254-.178.523-.508.74A2.211,2.211,0,0,1,1002.852,804.3Z" transform="translate(-757.74 -613.339)"/><path class="j" d="M966.487,600.642A59.108,59.108,0,0,1,975,600.4a1.691,1.691,0,0,1,.551.086c.625.254.722,1.072.78,1.741.254,2.714,1.438,5.243,2.033,7.9a22.576,22.576,0,0,1,.473,5.083,18.217,18.217,0,0,0,.041,2.287c.076.679.254,1.344.351,2.02a18.554,18.554,0,0,1,.119,2.737,28.078,28.078,0,0,1-.241,4.287c-.391,2.422.292,4.828.475,7.278a43.442,43.442,0,0,0,.577,5.11c.14.714.315,1.421.412,2.14.285,2.137-.132,4.338.318,6.447.208.986.584,2.094.03,2.938-.173.254-.427.47-.615.727a.907.907,0,0,0-.178.892c.109.231.363.384.427.63.1.389-.307.706-.673.872a7.016,7.016,0,0,1-8.173-2.018c.32-.051.712-.282.719-.607a3.431,3.431,0,0,0-.208-.945,3.813,3.813,0,0,1-.074-1.682c.074-.391.206-.762.287-1.156a11.229,11.229,0,0,0,.152-1.306,21.653,21.653,0,0,1,.922-4.635c.463-1.461-.168-2.94-.333-4.465a8.773,8.773,0,0,0-.295-2.147c-.152-.4-.4-.762-.549-1.164a5.325,5.325,0,0,1,.071-2.956c-1.5-2.712-2-5.944-2.569-8.991l-.953-5.133a5.047,5.047,0,0,0-.762-2.168,26.471,26.471,0,0,0-.577,6.9,10.172,10.172,0,0,1-.025,2.005c-.117.737-.424,1.431-.6,2.152a26.47,26.47,0,0,0-.254,4.9c-.036.663-.119,1.321-.147,1.985-.125,2.928.862,5.774,1.835,8.536a31.533,31.533,0,0,1,1.016,5.4c.254,1.7.536,3.4.671,5.116.125,1.576.18,3.281,1.161,4.518a8.325,8.325,0,0,1-2.872,1.375,5.3,5.3,0,0,1-3.537-.686,11.129,11.129,0,0,1-2.8-2.376c.206-.071.28-.371.3-.587.3-3.217-.917-6.353-1.38-9.555a20.585,20.585,0,0,1-.122-4.844c.058-.607.142-1.215.165-1.825.122-3.179-1.41-6.241-1.354-9.423.025-1.492-.762-2.961-1.149-4.4a15.931,15.931,0,0,1-.351-3.939l-.064-10.419a12.881,12.881,0,0,1,.455-4.18c.559-1.6-.081-3.438-.178-5.131A21.15,21.15,0,0,0,966.487,600.642Z" transform="translate(-725.546 -461.75)"/><path class="k" d="M908.661,415.752a33.2,33.2,0,0,0-3.891-6.142,9.74,9.74,0,0,1-.864-1.179,16.364,16.364,0,0,1-1.055-3.1c-.966-2.907-3.375-5.243-3.962-8.249a13.8,13.8,0,0,0-1.388-3.05,3.85,3.85,0,0,0-1.324-1.779,2.257,2.257,0,0,0-2.671.407,3.174,3.174,0,0,0-.818,2.681,2.269,2.269,0,0,0,.508,1.2,4.432,4.432,0,0,0,1.415.851,5.56,5.56,0,0,1,2.734,3.123c.846,2.452.956,5.05,2.033,7.418s2.343,4.64,3.273,7.062a24.355,24.355,0,0,0,1.726,4.066,5,5,0,0,0,3.446,2.526,8.5,8.5,0,0,1,.414-2.714C908.557,417.879,909.121,416.7,908.661,415.752Z" transform="translate(-676.779 -306.796)"/><path class="k" d="M1001.959,414.527a14.042,14.042,0,0,1,.826-5.281,5.472,5.472,0,0,0,.485-1.995,4.891,4.891,0,0,0-.615-1.807,46.356,46.356,0,0,1-2.287-6.219l-1.271-3.977a6.175,6.175,0,0,1-1.116-1.055,5.616,5.616,0,0,1-1.294-2.76,3.876,3.876,0,0,1,.714-2.917,1.69,1.69,0,0,1,1.192-.727,1.561,1.561,0,0,1,1.118.508,5.009,5.009,0,0,1,.956,1.631,7.315,7.315,0,0,1,.8,3.05c-.036.879-.363,1.86.152,2.574a61.761,61.761,0,0,1,4.3,7.593,12.84,12.84,0,0,1,.869,1.9,10.467,10.467,0,0,1,.457,3.288,45.638,45.638,0,0,1-.559,6.219,5.561,5.561,0,0,1-1.4,3.558A20.141,20.141,0,0,0,1001.959,414.527Z" transform="translate(-754.344 -303.671)"/><circle class="k" cx="5.273" cy="5.273" r="5.273" transform="translate(235.877 101.301)"/><path class="k" d="M973.7,488.108a7.053,7.053,0,0,0,1.136,2.63c.3.508.684,1.05,1.271,1.105a25.616,25.616,0,0,1-4.79,1.926,5.419,5.419,0,0,1-1.748.282,4.277,4.277,0,0,1-1.456-.374A7.24,7.24,0,0,1,964,488.87a9.558,9.558,0,0,0,1.959-.15,1.441,1.441,0,0,0,.961-.473,1.525,1.525,0,0,0,.2-.849c.025-.879.028-1.761,0-2.64a10.419,10.419,0,0,1,3.832.473c.508.165,1.017.363,1.525.493.32.081,1.2,0,1.438.186C974.3,486.171,973.614,487.459,973.7,488.108Z" transform="translate(-729.999 -375.981)"/><path class="l" d="M956.436,488.432a3.319,3.319,0,0,1,2.526-2.95,5.9,5.9,0,0,0,1.619-.376c.834-.465,1.085-1.6,1.886-2.119a2.229,2.229,0,0,1,2.633.427,5.654,5.654,0,0,1,1.334,2.513,12.725,12.725,0,0,1,.684,3.85,1.779,1.779,0,0,1-.112.7,2.938,2.938,0,0,1-.564.7,3.116,3.116,0,0,0-.762,2.483,7.116,7.116,0,0,1-.226,2.49c-.508,2.241-1.016,4.48-1.426,6.742a4.185,4.185,0,0,0-.094,1.271,7.534,7.534,0,0,1,.343,1.8,6.843,6.843,0,0,0-.16.867,2.1,2.1,0,0,0,.152.643c.577,1.675,2.135,5.512,2.119,7.286a44.244,44.244,0,0,0-9.492-.862,21.108,21.108,0,0,0-2.3.1c-1.837.2-3.718.734-5.5.239-1.654-.46-3.118-1.779-4.828-1.614-.371-.971.066-4.211.414-5.192a22.221,22.221,0,0,0,.762-12.028c-.313-1.438.117-2.966-.231-4.394a2.62,2.62,0,0,0-.381-.948,1.016,1.016,0,0,0-.869-.455,32.372,32.372,0,0,1,.635-6.844c.168-.8.508-1.746,1.329-1.883.727-.125,1.337.49,1.921.94a5.162,5.162,0,0,0,2.033.956,1.929,1.929,0,0,1,.833.3c.348.29.4.811.684,1.164.508.633,1.644.579,2.005,1.309a4.99,4.99,0,0,1,.191.666,2.445,2.445,0,0,0,.839,1.083A4.717,4.717,0,0,0,956.436,488.432Z" transform="translate(-715.05 -373.101)"/><path class="m" d="M975.123,445.142a.964.964,0,0,1,.2-1c.14-.109.323-.15.473-.254a2.033,2.033,0,0,0,.508-.643,2.76,2.76,0,0,1,3.454-.877c.917.48,1.471,1.441,2.287,2.089.414.335.895.584,1.311.92a5.39,5.39,0,0,1,1.7,2.75,15.6,15.6,0,0,1,.47,3.243,2.918,2.918,0,0,1-.038.986,2.761,2.761,0,0,1-.374.762,8.49,8.49,0,0,1-3.329,3.08,5.145,5.145,0,0,1-4.437.076.762.762,0,0,1-.341-.272.979.979,0,0,1-.053-.587,4.017,4.017,0,0,0-.442-2.249c-.254-.508-.635-.945-.839-1.471a5.126,5.126,0,0,1-.239-1.825A19.711,19.711,0,0,0,975.123,445.142Z" transform="translate(-738.257 -344.174)"/></g></svg>