<svg xmlns="http://www.w3.org/2000/svg" width="323.001" height="274.115" viewBox="0 0 323.001 274.115"><defs><style>.a{fill:#f2f2f2;}.b{fill:#2f2e41;}.c{fill:#ffb9b9;}.d{opacity:0.1;}.e{fill:#575a89;}.f,.h{opacity:0.2;}.g{fill:#ffc20e;}.h,.i,.n{fill:none;stroke-miterlimit:10;}.h{stroke:#000;}.h,.i{stroke-width:2px;}.i,.n{stroke:#3f3d56;}.j{fill:#3f3d56;}.k{fill:#9f616a;}.l{fill:#d0cde1;}.m{fill:#57b894;}</style></defs><g transform="translate(0 46)"><circle class="a" cx="129.798" cy="129.798" r="129.798" transform="translate(4.702 -46)"/><g transform="translate(144.967 66.923)"><ellipse class="a" cx="89.017" cy="14.243" rx="89.017" ry="14.243" transform="translate(0 132.466)"/><path class="b" d="M858.1,435.944s.758,2.526-3.537,4.8-5.558,10.863-.505,13.389,6.568,5.81,4.042,8.084-7.073,8.337-1.01,9.852,6.821,4.547,5.052,5.81,4.042-2.273,4.042-2.273,1.01,6.063,6.316,4.547,20.21-30.314,12.631-34.356S858.1,435.944,858.1,435.944Z" transform="translate(-788.862 -426.136)"/><path class="c" d="M877.722,492.989s2.62,9.171-1.965,9.827a17.9,17.9,0,0,0-7.861,3.276l8.516,11.137h15.722l9.827-9.827s-13.1-9.827-10.482-15.723S877.722,492.989,877.722,492.989Z" transform="translate(-799.327 -458.788)"/><path class="d" d="M877.722,492.989s2.62,9.171-1.965,9.827a17.9,17.9,0,0,0-7.861,3.276l8.516,11.137h15.722l9.827-9.827s-13.1-9.827-10.482-15.723S877.722,492.989,877.722,492.989Z" transform="translate(-799.327 -458.788)"/><path class="c" d="M852.787,725.573l15.068,5.241,10.481.655-.655-9.172L856.062,715.9Z" transform="translate(-770.461 -577.383)"/><path class="e" d="M953,773.2s0,9.171,1.31,9.171,19-1.965,24.239,0,13.1-5.241,9.171-9.171-10.342-9.827-14.342-8.516S953,769.266,953,769.266Z" transform="translate(-851.352 -626.973)"/><path class="e" d="M822.18,764.974s-7.861,15.723-2.62,17.033,11.137-.655,11.792-1.31,9.826-3.276,11.137-1.965,1.31-5.241,1.31-5.241Z" transform="translate(-768.679 -627.266)"/><path class="b" d="M835.534,709.359s-12.447,17.033-3.276,21.618,53.064,4.586,56.339,0,4.586-19,0-20.308S835.534,709.359,835.534,709.359Z" transform="translate(-775.482 -593.269)"/><path class="f" d="M835.534,709.359s-12.447,17.033-3.276,21.618,53.064,4.586,56.339,0,4.586-19,0-20.308S835.534,709.359,835.534,709.359Z" transform="translate(-775.482 -593.269)"/><circle class="c" cx="15.067" cy="15.067" r="15.067" transform="translate(68.568 8.652)"/><path class="g" d="M845.987,528.282l13.1-2.62s3.276,10.482,13.757,8.516,13.1-8.516,13.1-8.516,7.861,3.276,8.516,3.276,9.171,3.276,9.171,5.241S893.81,555.8,893.81,555.8l1.31,35.376-48.478-1.31,3.276-34.721Z" transform="translate(-785.935 -480.978)"/><path class="c" d="M823.972,576.22s-3.931,34.721-1.31,37.341,13.1,9.826,13.1,9.826v-7.861l-5.241-9.827,5.241-22.929Z" transform="translate(-771.126 -511.884)"/><path class="c" d="M980.758,573.693s-2.293,35.7-2.293,37.014-5.9,5.9-7.861,5.9-3.276-3.275-3.276-3.275l4.586-5.241-3.275-26.859Z" transform="translate(-860.108 -510.339)"/><path class="b" d="M937.964,691.171s29.48-16.378,30.135,0S953.032,714.1,953.032,714.1s-40.617,12.179-42.254,7.728-4.913-11.658-2.293-12.313,5.9-1.965,7.206-.655,17.688-9.827,17.688-9.827Z" transform="translate(-823.539 -577.702)"/><path class="h" d="M992.412,697.562s-5.9,2.62-7.861,4.586-10.482,5.241-10.482,5.241" transform="translate(-864.229 -586.058)"/><path class="g" d="M833.048,533.713l-3.931-1.31s-14.412,15.068-9.827,19,7.206,5.241,8.516,6.551,7.861,1.965,7.861,1.965Z" transform="translate(-769.065 -485.099)"/><path class="g" d="M964.7,544.2l5.9,1.31s4.586,9.827,5.9,11.137-1.965.655-3.931,3.275-3.931,7.206-7.861,7.206-9.172-6.551-9.172-6.551Z" transform="translate(-852.897 -492.311)"/><path class="b" d="M795.144,702.974s-24.894-17.688-33.41-4.586,36.686,30.79,43.237,33.411,12.447,5.241,12.447,5.241,5.9-14.412,5.9-17.033-4.586-2.62-5.9-2.62-7.206-1.31-8.516-3.276S795.144,702.974,795.144,702.974Z" transform="translate(-733.782 -583.609)"/><path class="h" d="M813.966,705.988s6.551,5.241,12.447,6.551,7.861,4.586,7.861,4.586" transform="translate(-766.361 -591.209)"/><path class="e" d="M837.731,637.058l.523,27.737a3.472,3.472,0,0,0,3.511,3.407l51.618-.58a3.472,3.472,0,0,0,3.428-3.272l1.567-27.158a3.472,3.472,0,0,0-3.467-3.672H841.2a3.472,3.472,0,0,0-3.472,3.538Z" transform="translate(-780.888 -546.911)"/><path class="b" d="M895.967,423.04s.839,2.8-3.918,5.317-6.157,12.034-.56,14.832,7.276,6.437,4.478,8.955-7.836,9.235-1.119,10.914,7.556,5.037,5.6,6.437,4.478-2.519,4.478-2.519,1.119,6.716,7,5.037,11.741-32.2,5.19-40.063C911.017,424.641,895.967,423.04,895.967,423.04Z" transform="translate(-811.526 -418.248)"/><path class="b" d="M904.129,412.623c0-4.1,12.268-1.154,17.527,4.571,3.642,3.964,9.173,9.928,4.538,14.132s7.945,9.715,11.319,11.386,10.036,6.781,4.021,10.208-5.918,6.888-3.655,7.707-4.991-1.218-4.991-1.218.733,6.77-5.379,6.737-23.647-33.622-19.458-42.959C911.947,414.507,904.129,412.623,904.129,412.623Z" transform="translate(-821.476 -410.712)"/><path class="b" d="M882.581,413.229c-16.4-.988-18.049,11.359-18.049,11.359.113,7.145,11.461,3.664,14.612,4.729,3.8-2.735,11.131-7.91,16.373-11.6A24.79,24.79,0,0,0,882.581,413.229Z" transform="translate(-797.271 -412.216)"/></g><path class="i" d="M687.13,371.826s3.6-25.751-62.961-61.906" transform="translate(-463 -233.212)"/><path class="j" d="M575.039,254.891l.133.546-2.692.653.848,2.638-.536.172-1.032-3.213Z" transform="translate(-411.127 -179.27)"/><g transform="translate(0 28.172)"><ellipse class="a" cx="41.58" cy="6.653" rx="41.58" ry="6.653" transform="translate(0 186.637)"/><path class="b" d="M219.616,788.041l1.793-1.332s1.187,6.629-.138,7.623-6.291,2.649-6.291,4.635-11.257,4.635-11.588,1.655a6.565,6.565,0,0,1,.993-4.635s5.3-5.3,5.959-6.291,2.318-2.98,2.318-2.98Z" transform="translate(-160.4 -604.221)"/><path class="b" d="M167,488.692s.05.291.136.824c.08.473.189,1.142.321,1.967,1.391,8.486,5.446,33.466,5.172,34.29-.331.993-2.649,4.635,0,5.628a2.055,2.055,0,0,1,.824.9,19.247,19.247,0,0,1,1.4,3.3,145.179,145.179,0,0,1,4.245,16.995c.427,2.231.718,4.026.8,4.966a2.7,2.7,0,0,1,.01.656c-.331,1.324,1.986,5.959,2.98,7.284s2.649,2.649,2.318,3.973,8.277,4.966,9.27,2.649a42.26,42.26,0,0,0,1.324-4.3c.331-.662.662-5.3-.993-5.959s-.662-12.25-2.318-14.568a31.815,31.815,0,0,1-2.281-6.526c-.348-1.232-.7-2.543-1.043-3.857-1.4-5.387-2.635-10.807-2.635-10.807l.331-38.737-18.21-2.318-.467,1.03-.93,2.043Z" transform="translate(-134.267 -387.312)"/><path class="b" d="M131.726,721.265s-2.649-2.649-3.973,0-2.649,12.912-4.966,15.23-5.3,13.905-1.986,14.568,6.953-.993,7.284-2.98,7.284-12.25,7.284-13.243-4.635-4.635-4.635-4.635Z" transform="translate(-99.99 -556.317)"/><path class="b" d="M198.022,430.871s-4.3,38.737-5.3,42.379-6.291,17.547-7.946,19.865S172.528,514.3,171.2,515.3s-3.973,3.642-3.973,3.642-4.966,4.966-5.628,5.959-6.291-1.986-6.622-3.973a20.414,20.414,0,0,1,.662-6.622c.331-1.324-.662-3.311.331-4.3s5.959-5.96,5.959-8.277,8.608-15.892,11.919-18.872S176.5,474.9,176.5,474.9v-20.2l-18.21-5.628s.993-15.892,3.311-15.892S194.38,427.891,198.022,430.871Z" transform="translate(-125.563 -347.7)"/><circle class="k" cx="10.926" cy="10.926" r="10.926" transform="translate(34.716 6.028)"/><path class="k" d="M188.635,213.718s1.324,4.966,2.98,6.291-4.3,6.953-4.3,6.953l-11.257.662-1.986-6.291s3.642-7.284,2.649-11.919S188.635,213.718,188.635,213.718Z" transform="translate(-139.352 -188.156)"/><path class="g" d="M188.186,248.18s-2.98.331-3.642,1.324-5.3,3.973-8.939,3.311-5.959-1.655-6.622-1.324S167,258.774,167,258.774l3.642,10.595-.662,29.135-.993,7.946s-1.987-2.649,5.959-.993,18.21-1.324,21.52-1.655,8.939-1.324,9.27-3.311-.993-9.27-.993-9.27l-5.3-22.183-3.311-11.919Z" transform="translate(-134.267 -216.989)"/><path class="l" d="M231.271,241.042s2.8-1.485,3.794-.161,13.574,3.311,13.574,4.3,2.649,27.811,1.986,30.128,1.324,4.966,1.324,4.966l2.318,9.932s6.291,18.872,3.642,19.534-4.966,0-5.96,0-.662-12.581-3.311-15.892-6.291-11.588-6.953-13.243-8.939-24.5-8.608-27.149S231.271,241.042,231.271,241.042Z" transform="translate(-180.484 -211.346)"/><path class="l" d="M146.726,248.18s-2.649,0-2.98.662a36.237,36.237,0,0,1-4.966,5.959c-1.324.993-5.959,5.3-5.959,6.291s9.6,8.277,9.6,8.277,3.973,19.534,1.986,26.156-4.966,22.514-3.642,23.507,4.3,1.324,4.3,0,1.986-15.561,3.642-18.541,6.622-21.851,4.635-27.149S146.726,248.18,146.726,248.18Z" transform="translate(-109.693 -216.989)"/><path class="k" d="M277.709,364.847s.331,10.264-3.311,15.561a62.917,62.917,0,0,0-5.96,11.257s-5.96-1.655-6.953-3.642-7.284-.331-7.284-.993,7.615-3.973,8.277-4.635,2.98-.662,4.3-1.986,1.655-4.3,1.655-4.3l1.324-8.608Z" transform="translate(-196.973 -300.88)"/><path class="b" d="M183.637,147.377a6.3,6.3,0,0,0,2.45-.561,3.281,3.281,0,0,0,.839-4.858,6.278,6.278,0,0,0-1.164-.936l-2.517-1.713a12.31,12.31,0,0,0-3.551-1.885,11.083,11.083,0,0,0-3.63-.214,24.526,24.526,0,0,0-6.953,1.264,11.636,11.636,0,0,0-5.634,4.122c-2.131,3.083-2.16,7.241-.987,10.8s3.4,6.659,5.6,9.7l1.14-5.561a2.053,2.053,0,0,1,.645-1.331c1.024-.729,2.276.767,3.533.758a2.116,2.116,0,0,0,1.791-1.418,8.079,8.079,0,0,0,.4-2.379c.15-1.7.745-4.074,2.359-5.014C179.459,147.272,181.947,147.531,183.637,147.377Z" transform="translate(-130.47 -137.16)"/><path class="d" d="M232.25,498.7s-1.118,32.344-1.78,33.338,0-33.439,0-33.439Z" transform="translate(-179.696 -397.057)"/><path class="l" d="M283.664,257.607h2.649s11.257,15.23,9.932,16.223,0,3.642,0,3.642l2.649,4.966s3.311,2.98,2.318,3.642-2.318,3.311-2.318,3.311-6.622-.993-8.608,2.98l-4.294-5.421Z" transform="translate(-218.158 -223.768)"/><rect class="b" width="9.833" height="18.324" transform="translate(57.353 42.491) rotate(-22.438)"/><ellipse class="g" cx="1.967" cy="1.807" rx="1.967" ry="1.807" transform="translate(62.18 46.082) rotate(-22.438)"/><path class="k" d="M186.153,315.452s-23.838,19.865-27.811,13.574,4.3-11.588,4.3-11.588,7.284.331,15.561-4.966l8.277-3.642s7.556-10.788,10.131-6.68S192.22,313.408,186.153,315.452Z" transform="translate(-127.269 -255.126)"/><path class="l" d="M133.073,289.426l-3.642,1.324v9.932l-1.324,1.987s.331,3.973,1.324,4.966,2.98.662,2.318,2.98a12.55,12.55,0,0,0-.331,4.635s5.959,7.615,6.291,6.622,4.966-13.243,5.628-13.243-6.622-19.2-6.622-19.2Z" transform="translate(-106.304 -246.648)"/><path class="b" d="M282.737,453.222s3.423-3.311,1.712-3.476-7.671-3.476-8.664-1.821S282.737,453.222,282.737,453.222Z" transform="translate(-212.43 -360.284)"/></g><path class="g" d="M76.069,760.562c0,6.312-3.752,8.516-8.382,8.516q-.161,0-.321,0c-.215,0-.427-.015-.637-.029-4.178-.3-7.424-2.613-7.424-8.484,0-6.076,7.764-13.742,8.347-14.309h0l.034-.033S76.069,754.25,76.069,760.562Z" transform="translate(-56.832 -546.936)"/><path class="j" d="M79.43,768.113l3.066-4.283-3.073,4.754-.008.492c-.214,0-.427-.015-.637-.029l.33-6.315,0-.049.006-.009.031-.6-3.081-4.766,3.091,4.318.007.127.25-4.772-2.638-4.924,2.67,4.087.26-9.893v0l-.043,7.8,2.626-3.093-2.637,3.765L79.578,759l2.452-4.1-2.462,4.729L79.529,762l3.559-5.707-3.573,6.536Z" transform="translate(-68.88 -546.936)"/><ellipse class="m" cx="4.776" cy="2.529" rx="4.776" ry="2.529" transform="translate(130.639 52.895)"/><path class="n" d="M514.809,224.262a44.3,44.3,0,0,0-32.309,0v-13.2a55.919,55.919,0,0,1,32.309,0Z" transform="translate(-361.132 -160.411)"/><path class="n" d="M521.818,225.644a31.972,31.972,0,0,0-23.318,0v-9.53a40.359,40.359,0,0,1,23.318,0Z" transform="translate(-372.637 -164.524)"/><ellipse class="n" cx="4.776" cy="2.529" rx="4.776" ry="2.529" transform="translate(132.325 51.771)"/><ellipse class="m" cx="4.776" cy="2.529" rx="4.776" ry="2.529" transform="matrix(0.98, -0.2, 0.2, 0.98, 133.236, 69.788)"/><path class="n" d="M525.107,273.386a44.3,44.3,0,0,0-31.656,6.461l-2.641-12.938a55.918,55.918,0,0,1,31.656-6.461Z" transform="translate(-367.107 -197.471)"/><path class="n" d="M531.912,276.444a31.971,31.971,0,0,0-22.847,4.663l-1.906-9.338a40.359,40.359,0,0,1,22.847-4.663Z" transform="translate(-378.863 -202.305)"/><ellipse class="n" cx="4.776" cy="2.529" rx="4.776" ry="2.529" transform="matrix(0.98, -0.2, 0.2, 0.98, 134.663, 68.349)"/><ellipse class="m" cx="2.529" cy="4.776" rx="2.529" ry="4.776" transform="translate(132.492 89.216) rotate(-86.019)"/><path class="n" d="M519.943,338.068a44.3,44.3,0,0,0-32.231-2.243l.917-13.173A55.919,55.919,0,0,1,520.86,324.9Z" transform="translate(-364.88 -241.367)"/><path class="n" d="M527.611,339.231a31.972,31.972,0,0,0-23.262-1.619l.662-9.507a40.359,40.359,0,0,1,23.262,1.619Z" transform="translate(-376.842 -245.566)"/><ellipse class="n" cx="2.529" cy="4.776" rx="2.529" ry="4.776" transform="translate(134.251 88.212) rotate(-86.019)"/><path class="i" d="M374.834,264.121s-20.648-2.825-35.394,5.817" transform="translate(-258.264 -199.963)"/><path class="j" d="M288.1,224.459l.536.17-.838,2.641,2.7.643-.131.547-3.282-.784Z" transform="translate(-206.424 -157.388)"/></g></svg>