<svg xmlns="http://www.w3.org/2000/svg" xmlns:xlink="http://www.w3.org/1999/xlink" width="694.192" height="488.765" viewBox="0 0 694.192 488.765"><defs><style>.a,.d{fill:#ffc20e;}.a,.b,.e{opacity:0.1;}.c{fill:#3f3d56;}.f{fill:none;stroke:#3f3d56;stroke-linecap:round;stroke-miterlimit:10;stroke-width:7px;}.g{fill:#a8a8a8;}.h{opacity:0.2;}.i{fill:url(#a);}.j{fill:#696791;}.k{fill:#a0616a;}.l{fill:#f86d70;}.m{fill:#2d293d;}</style><linearGradient id="a" x1="0.627" y1="0.5" x2="1.626" y2="0.5" gradientUnits="objectBoundingBox"><stop offset="0" stop-color="gray" stop-opacity="0.251"/><stop offset="0.54" stop-color="gray" stop-opacity="0.122"/><stop offset="1" stop-color="gray" stop-opacity="0.102"/></linearGradient></defs><g transform="translate(-0.003 -0.344)"><ellipse class="a" cx="39.896" cy="10.591" rx="39.896" ry="10.591" transform="translate(561.659 467.927)"/><path class="a" d="M710.562,495.131c-15.179,12.592-36.779,17.8-57.668,21.095l-3.516.536a660.174,660.174,0,0,1-66.015,6.04c-11.844.573-23.688.979-35.532,1.34l-9.282.274q-18.078.536-36.224,1.053-17.766.5-35.532.948-22.753.555-45.506.923-17.766.281-35.532.386-22.759.131-45.506-.087-17.779-.181-35.532-.623-22.766-.586-45.506-1.714-15.435-.754-30.851-1.814l-4.682-.33c-44.116-3.179-89.024-8.883-127.629-26.911l-1.041-.492c-.517-.243-1.035-.486-1.552-.742a139.7,139.7,0,0,1-20.3-11.9c-11.414-8.141-20.839-18.078-25.82-29.866-7.8-18.489-3.678-39.272,5.236-57.35s22.3-34.4,33.874-51.422c3.391-4.987,6.608-10.161,9.6-15.466,18.7-33.269,27.977-71.769,8.372-103.829a142.484,142.484,0,0,0-8.372-11.844c-4.781-6.234-9.644-12.467-12.929-19.368C75.458,177.909,77.1,159.85,79.9,142.695c3.74-22.809,10.6-47.376,32.029-61.627,22.236-14.8,53.8-14.051,81.394-8.727,42.907,8.222,82.51,25.434,122.486,40.956s81.855,29.716,125.809,31.243a200.777,200.777,0,0,0,28.289-1.029h0a179.411,179.411,0,0,0,36.854-7.761c17.3-5.7,33.039-14.269,44.708-26.182C576.493,84.1,623.527,82.178,657.438,97.556c32.359,14.674,53.286,45.731,51.74,76.75-1.758,34.529-27.615,62.917-51.31,92.035-2.874,3.528-5.71,7.069-8.472,10.635q-2.313,2.986-4.538,5.984h0c-2.6,3.528-5.112,7.075-7.48,10.666-12.106,18.408-20.665,40.519-12.33,60.392,4.675,11.127,13.6,19.618,24.349,27.029,24.093,16.6,57.35,27.771,72.311,51.011C734.6,452.087,729.824,479.122,710.562,495.131Z" transform="translate(-43.21 -61.826)"/><g class="b" transform="translate(285.408 0.344)"><path class="c" d="M598.7,596.064q.037.879.131,1.72,7.275-2.9,14.281-6.234a11.576,11.576,0,0,0,6.6-3.229c1.365-.686,2.724-1.4,4.071-2.12a16.734,16.734,0,0,0-1.035-1.87c-2.625-4.145-6.614-6.739-11.009-6.6s-8.2,2.992-10.547,7.287A21.482,21.482,0,0,0,598.7,596.064Z" transform="translate(-537.821 -253.829)"/><path class="c" d="M597.548,561.1a21.549,21.549,0,0,0,3.21,10.8c2.63,4.133,6.62,6.726,11.015,6.583.306,0,.623-.044.9-.069a11.578,11.578,0,0,0,6.6-3.229,15.879,15.879,0,0,0,3.036-3.977,22.328,22.328,0,0,0-.711-21.818c-2.63-4.145-6.62-6.739-11.015-6.6s-8.191,2.992-10.541,7.287A21.488,21.488,0,0,0,597.548,561.1Z" transform="translate(-537.389 -240.67)"/><ellipse class="c" cx="13.633" cy="17.847" rx="13.633" ry="17.847" transform="matrix(0.999, -0.033, 0.033, 0.999, 58.869, 280.787)"/><ellipse class="c" cx="13.633" cy="17.847" rx="13.633" ry="17.847" transform="matrix(0.999, -0.033, 0.033, 0.999, 58.154, 258.992)"/><ellipse class="c" cx="13.633" cy="17.847" rx="13.633" ry="17.847" transform="matrix(0.999, -0.033, 0.033, 0.999, 57.44, 237.191)"/><path class="d" d="M618.838,161.879a64.89,64.89,0,0,0,4.825-7.636l-35.993-4.7,38.724-.985a65.385,65.385,0,0,0-.449-51.74l-51.06,28.644,46.753-36.779a65.3,65.3,0,1,0-105.418,76.587,65.561,65.561,0,0,0-7.05,12.143l47.258,22.616-50.094-15a65.329,65.329,0,0,0,12.536,60.935,65.292,65.292,0,1,0,102.582-3.4A65.311,65.311,0,0,0,618.838,161.879Z" transform="translate(-501.054 -58.134)"/><path class="e" d="M505.1,294.777a64.993,64.993,0,0,0,15.291,39.9,65.292,65.292,0,1,0,102.582-3.379C631.357,319.911,504.863,287.452,505.1,294.777Z" transform="translate(-502.577 -146.859)"/></g><g class="b" transform="translate(149.962 213.735)"><path class="c" d="M358.6,783.506a10.7,10.7,0,0,1-.093,1.247q-5.174-2.057-10.167-4.407a8.234,8.234,0,0,1-4.7-2.288q-1.459-.742-2.9-1.509a11.768,11.768,0,0,1,.736-1.322c1.87-2.955,4.7-4.8,7.83-4.7s5.835,2.12,7.48,5.174A15.273,15.273,0,0,1,358.6,783.506Z" transform="translate(-305.229 -539.831)"/><path class="c" d="M358.467,758.6a15.329,15.329,0,0,1-2.269,7.686c-1.87,2.942-4.706,4.794-7.83,4.694l-.623-.05a8.236,8.236,0,0,1-4.7-2.288,11.221,11.221,0,0,1-2.163-2.83,15.915,15.915,0,0,1,.486-15.516c1.87-2.955,4.707-4.8,7.83-4.7s5.835,2.119,7.512,5.174A15.271,15.271,0,0,1,358.467,758.6Z" transform="translate(-304.61 -530.442)"/><ellipse class="c" cx="12.698" cy="9.7" rx="12.698" ry="9.7" transform="translate(34.57 224.754) rotate(-88.19)"/><ellipse class="c" cx="12.698" cy="9.7" rx="12.698" ry="9.7" transform="translate(35.054 209.241) rotate(-88.19)"/><ellipse class="c" cx="12.698" cy="9.7" rx="12.698" ry="9.7" transform="translate(35.545 193.722) rotate(-88.19)"/><path class="d" d="M296.457,474.457a47.274,47.274,0,0,1-3.447-5.43l25.608-3.4L291.059,465a46.528,46.528,0,0,1,.274-36.829l36.361,20.341-33.3-26.151a46.466,46.466,0,1,1,75.066,54.4,46.4,46.4,0,0,1,5.031,8.64L340.879,501.53l35.638-10.722a46.535,46.535,0,0,1-8.864,43.387,46.466,46.466,0,1,1-73.009-2.307,46.466,46.466,0,0,1,1.814-57.425Z" transform="translate(-283.775 -400.451)"/><path class="e" d="M378.493,568.973a46.3,46.3,0,0,1-10.84,28.407,46.466,46.466,0,1,1-73.009-2.306C288.665,586.97,378.668,563.756,378.493,568.973Z" transform="translate(-283.775 -463.637)"/></g><g class="b" transform="translate(474.605 132.588)"><path class="c" d="M879.37,653.456a12.075,12.075,0,0,1-.087,1.247q-5.18-2.057-10.167-4.407a8.267,8.267,0,0,1-4.707-2.288c-.966-.492-1.938-1-2.9-1.509a12.884,12.884,0,0,1,.736-1.321c1.87-2.955,4.7-4.8,7.829-4.7s5.835,2.119,7.48,5.174a15.273,15.273,0,0,1,1.814,7.8Z" transform="translate(-826.008 -409.704)"/><path class="c" d="M879.29,628.551a15.329,15.329,0,0,1-2.275,7.686c-1.87,2.942-4.7,4.794-7.83,4.694l-.623-.05a8.267,8.267,0,0,1-4.707-2.288,11.422,11.422,0,0,1-2.163-2.83,15.915,15.915,0,0,1,.486-15.516c1.87-2.949,4.706-4.8,7.83-4.7s5.841,2.12,7.511,5.174A15.269,15.269,0,0,1,879.29,628.551Z" transform="translate(-825.405 -400.314)"/><ellipse class="c" cx="12.698" cy="9.7" rx="12.698" ry="9.7" transform="translate(34.583 224.826) rotate(-88.19)"/><ellipse class="c" cx="12.698" cy="9.7" rx="12.698" ry="9.7" transform="translate(35.074 209.313) rotate(-88.19)"/><ellipse class="c" cx="12.698" cy="9.7" rx="12.698" ry="9.7" transform="translate(35.565 193.8) rotate(-88.19)"/><path class="d" d="M817.233,344.36a45.851,45.851,0,0,1-3.441-5.43l25.608-3.372-27.559-.667a46.566,46.566,0,0,1,.268-36.829L848.47,318.4l-33.3-26.138a46.472,46.472,0,1,1,75.067,54.4,46.368,46.368,0,0,1,5.024,8.64l-33.612,16.133,35.638-10.722a46.485,46.485,0,0,1-8.864,43.38,46.46,46.46,0,1,1-72.991-2.307,46.466,46.466,0,0,1,1.814-57.425Z" transform="translate(-804.559 -270.277)"/><path class="e" d="M899.277,438.922a46.255,46.255,0,0,1-10.847,28.4,46.46,46.46,0,1,1-73-2.307C809.449,456.919,899.439,433.7,899.277,438.922Z" transform="translate(-804.561 -333.509)"/></g><ellipse class="d" cx="35.538" cy="6.832" rx="35.538" ry="6.832" transform="translate(85.085 461.381)"/><ellipse class="c" cx="4.139" cy="5.417" rx="4.139" ry="5.417" transform="translate(115.892 459.891)"/><ellipse class="c" cx="4.139" cy="5.417" rx="4.139" ry="5.417" transform="translate(115.892 453.271)"/><ellipse class="c" cx="4.139" cy="5.417" rx="4.139" ry="5.417" transform="translate(115.892 446.651)"/><ellipse class="c" cx="4.139" cy="5.417" rx="4.139" ry="5.417" transform="translate(115.892 440.031)"/><ellipse class="c" cx="4.139" cy="5.417" rx="4.139" ry="5.417" transform="translate(115.892 433.411)"/><ellipse class="c" cx="4.139" cy="5.417" rx="4.139" ry="5.417" transform="translate(115.892 426.79)"/><ellipse class="c" cx="4.139" cy="5.417" rx="4.139" ry="5.417" transform="translate(115.892 420.17)"/><path class="d" d="M239.221,648.233a20.165,20.165,0,0,0,1.54-2.269l-10.872-1.789,11.757.094a19.88,19.88,0,0,0,.38-15.709l-15.778,8.185L240.8,626.029a19.823,19.823,0,1,0-32.739,22.186,19.947,19.947,0,0,0-2.257,3.615l14.113,7.331-15.048-5.049a19.836,19.836,0,0,0,3.192,18.614,19.823,19.823,0,1,0,31.169,0,19.836,19.836,0,0,0,0-24.511Z" transform="translate(-103.699 -267.953)"/><path class="e" d="M203.82,687.1a19.742,19.742,0,0,0,4.239,12.255,19.823,19.823,0,1,0,31.169,0C241.877,695.987,203.82,684.878,203.82,687.1Z" transform="translate(-103.699 -294.567)"/><path class="c" d="M368.242,571.678V712.56q-15.435-.754-30.851-1.814l-4.682-.33V571.678a5.5,5.5,0,0,1,5.5-5.5h24.536A5.5,5.5,0,0,1,368.242,571.678Z" transform="translate(-152.243 -249.134)"/><path class="c" d="M462.71,657.441V420.678a5.5,5.5,0,0,1,5.5-5.5h24.536a5.5,5.5,0,0,1,5.5,5.5v237.38Z" transform="translate(-201.204 -192.263)"/><path class="c" d="M592.71,687.936V499.678a5.5,5.5,0,0,1,5.5-5.5h24.536a5.5,5.5,0,0,1,5.5,5.5V687.531Z" transform="translate(-250.166 -222.017)"/><path class="c" d="M758.242,275.678V601.3q-17.766.505-35.532.948V275.678a5.5,5.5,0,0,1,5.5-5.5h24.536A5.5,5.5,0,0,1,758.242,275.678Z" transform="translate(-299.128 -137.652)"/><path class="c" d="M888.242,380.678V638.131c-11.844.573-23.688.979-35.532,1.34V380.678a5.5,5.5,0,0,1,5.5-5.5h24.536A5.5,5.5,0,0,1,888.242,380.678Z" transform="translate(-348.09 -177.198)"/><path class="f" d="M318.5,273.928l81.038-90.389,81.038,45.506L561.615,89.41l81.038,66.7" transform="translate(-119.955 -33.545)"/><circle class="d" cx="17.454" cy="17.454" r="17.454" transform="translate(180.779 222.929)"/><circle class="d" cx="17.454" cy="17.454" r="17.454" transform="translate(261.817 132.54)"/><circle class="d" cx="17.454" cy="17.454" r="17.454" transform="translate(342.856 178.046)"/><circle class="d" cx="17.454" cy="17.454" r="17.454" transform="translate(423.894 38.411)"/><circle class="d" cx="17.454" cy="17.454" r="17.454" transform="translate(579.737 186.773)"/><ellipse class="a" cx="11.645" cy="1.97" rx="11.645" ry="1.97" transform="translate(134.026 448.615)"/><path class="g" d="M264.35,763.562s6.639-.206,8.64-1.633,10.217-3.117,10.716-.842,9.974,11.37,2.493,11.433-17.423-1.172-19.418-2.388S264.35,763.562,264.35,763.562Z" transform="translate(-126.496 -322.123)"/><path class="h" d="M286.318,773.886c-7.481.062-17.417-1.166-19.418-2.381-1.521-.929-2.126-4.251-2.331-5.785h-.218s.418,5.355,2.419,6.57,11.919,2.45,19.418,2.388c2.163,0,2.911-.785,2.868-1.926C288.755,773.444,287.932,773.874,286.318,773.886Z" transform="translate(-126.496 -324.287)"/><ellipse class="a" cx="21.388" cy="3.616" rx="21.388" ry="3.616" transform="translate(641.756 463.675)"/><path class="g" d="M1084,776.269s12.2-.374,15.877-2.992,18.764-5.741,19.674-1.546,18.34,20.883,4.563,21-32-2.144-35.676-4.364S1084,776.269,1084,776.269Z" transform="translate(-435.2 -325.778)"/><path class="h" d="M1124.333,795.271c-13.776.112-32-2.144-35.676-4.364-2.792-1.7-3.908-7.811-4.282-10.6h-.405s.773,9.843,4.438,12.075,21.906,4.495,35.676,4.364c3.977,0,5.348-1.446,5.274-3.541C1128.8,794.454,1127.288,795.246,1124.333,795.271Z" transform="translate(-435.188 -329.782)"/><path class="i" d="M892.75,395.764A5.611,5.611,0,0,0,894,398.737a10.791,10.791,0,0,0,3.472,2.1,13.715,13.715,0,0,1,6.708,7.711c2.076,6.059,2.344,12.467,4.987,18.315s5.747,11.464,8.029,17.454c1.3,3.4,2.332,6.932,4.233,10.024a15.55,15.55,0,0,0,3.472,4c-.143,2.194-.2,4.364-.187,6.558a2.493,2.493,0,0,1,2.132,1.122,6.489,6.489,0,0,1,.935,2.338c.854,3.535-.2,7.3.567,10.853a55.208,55.208,0,0,1-1.87,29.7c-.854,2.419-1.926,10.423-1.016,12.823,3.391-.343,6.4,1.739,9.569,3.117a13.165,13.165,0,0,1-.449,5.61c-1.141,3.285-1.135,6.857-1.116,10.329l.156,25.72a38.791,38.791,0,0,0,.86,9.725c.929,3.559,2.88,7.188,2.818,10.865-.168,7.917,3.572,15.46,3.273,23.314-.056,1.509-.262,3-.405,4.5a51.218,51.218,0,0,0,.3,11.963c1.135,7.892,4.133,15.653,3.385,23.589-.05.536-.231,1.247-.736,1.452.624.7,1.284,1.4,1.958,2.07a1.776,1.776,0,0,1-.542.567,5.508,5.508,0,0,1-2.381.623,5.044,5.044,0,0,0-2.724.885,3.921,3.921,0,0,0-1.135,2.082,5.61,5.61,0,0,0,.748,4.663,5.206,5.206,0,0,0,2.113,1.583c2.88,1.247,6.184.343,9.188-.567l11.769-3.566a3.964,3.964,0,0,0,1.914-1,2.093,2.093,0,0,0,.468-1.01c2.6.623,5.455-.143,8.1-.935l11.77-3.572a3.908,3.908,0,0,0,1.914-1,2.282,2.282,0,0,0,.48-1.87c.087-.037.175-.062.262-.106.9-.405,1.87-1.2,1.652-2.151-.156-.623-.779-.985-1.047-1.558a2.25,2.25,0,0,1,.437-2.2c.461-.623,1.085-1.141,1.509-1.8,1.359-2.082.436-4.819-.075-7.256-1.1-5.205-.081-10.641-.779-15.915-.237-1.776-.667-3.522-1.01-5.286a108.013,108.013,0,0,1-1.44-12.6c-.449-6.034-2.126-11.981-1.166-17.966a69.747,69.747,0,0,0,.592-10.6,46.115,46.115,0,0,0-.293-6.757c-.243-1.671-.673-3.31-.86-4.987a45.2,45.2,0,0,1-.1-5.667,56.071,56.071,0,0,0-1.159-12.542c-1.247-5.666-3.591-11.09-4.588-16.769.337.075.673.15,1,.237.037-4.364-3.784-13.851-5.2-17.99a5.237,5.237,0,0,1-.374-1.59,17.17,17.17,0,0,1,.393-2.138c.181-1.509-.623-2.942-.842-4.451a10.446,10.446,0,0,1,.23-3.167c1-5.579,2.251-11.115,3.5-16.644a17.721,17.721,0,0,0,.555-6.153,7.724,7.724,0,0,1,1.87-6.128,7.276,7.276,0,0,0,1.384-1.739,4.418,4.418,0,0,0,.274-1.739,27.933,27.933,0,0,0-1.122-7.574,19.6,19.6,0,0,0,1.82-6.739,109.427,109.427,0,0,0,1.371-15.354,26.024,26.024,0,0,0-1.122-8.1,32.174,32.174,0,0,0-2.132-4.7c-3.279-6.315-6.414-12.96-10.554-18.745-1.247-1.758-.461-4.183-.374-6.352.094-2.618-.941-5.13-1.957-7.537a12.366,12.366,0,0,0-2.344-4.033,3.809,3.809,0,0,0-2.743-1.247,4.133,4.133,0,0,0-2.924,1.789,9.643,9.643,0,0,0-1.751,7.212,13.943,13.943,0,0,0,3.173,6.813,15.446,15.446,0,0,0,2.737,2.6q1.546,4.912,3.117,9.818a122.452,122.452,0,0,0,5.61,15.36,12.116,12.116,0,0,1,1.509,4.457,13.094,13.094,0,0,1-1.19,4.925,34.754,34.754,0,0,0-2.007,10.385,3.578,3.578,0,0,0-.524.287c-1.964,1.284-2.581,4.083-4.625,5.23-1.191.667-2.637.623-3.971.929a1.367,1.367,0,0,0-.362.1c-.05-.249-.1-.492-.131-.748a2.024,2.024,0,0,1,0-.48,20.938,20.938,0,0,0,7.749-7.381,6.76,6.76,0,0,0,.916-1.87,7.23,7.23,0,0,0,.093-2.431,38.79,38.79,0,0,0-1.153-8.01,13.322,13.322,0,0,0-4.17-6.789c-1.022-.823-2.2-1.44-3.217-2.269-1.982-1.6-3.341-3.971-5.61-5.162a6.751,6.751,0,0,0-8.484,2.194,4.92,4.92,0,0,1-1.247,1.583,12.737,12.737,0,0,0-1.16.623,2.374,2.374,0,0,0-.5,2.456,25.551,25.551,0,0,1,.711,5.355,13.091,13.091,0,0,0-.037,16.937c0,1.159,0,2.319-.044,3.478a3.379,3.379,0,0,1-.043.661,4.493,4.493,0,0,1-1.87-1.247c-.7-.873-.823-2.157-1.677-2.874a4.731,4.731,0,0,0-2.045-.748,12.7,12.7,0,0,1-4.987-2.363c-1.153-.891-2.35-2.032-3.7-2.294a82,82,0,0,0-8.1-12.368,24.068,24.068,0,0,1-2.12-2.911c-1.34-2.338-1.739-5.087-2.587-7.649-2.369-7.181-8.279-12.941-9.719-20.372-.523-2.693-2.231-5.037-3.4-7.518-.792-1.677-1.664-3.447-3.248-4.407a5.529,5.529,0,0,0-6.552,1A7.873,7.873,0,0,0,892.75,395.764Zm74.013,252.272a5.509,5.509,0,0,1-2.381.623,11.543,11.543,0,0,0-1.247.2c-.156-1.309-.243-2.637-.343-3.927-.33-4.233-.991-8.434-1.646-12.63-.686-4.364-1.01-9.139-2.493-13.328-2.387-6.82-4.806-13.845-4.5-21.07.069-1.639.274-3.266.362-4.9.2-4.046-.368-8.179.623-12.112.443-1.789,1.2-3.5,1.484-5.317a25.249,25.249,0,0,0,.063-4.949,65.79,65.79,0,0,1,1.415-17.049,12.033,12.033,0,0,1,1.87,5.349l2.338,12.679c1.39,7.524,2.618,15.5,6.3,22.2-.517,2.412-1.029,4.987-.175,7.293.368,1,.972,1.87,1.346,2.88a21.457,21.457,0,0,1,.723,5.3c.405,3.74,1.951,7.418.817,11.027a53.763,53.763,0,0,0-2.263,11.445,27.9,27.9,0,0,1-.374,3.223c-.2.96-.524,1.87-.7,2.855a9.455,9.455,0,0,0,.181,4.158,8.5,8.5,0,0,1,.511,2.338c0,.8-.979,1.371-1.764,1.5.23.3.48.586.736.867A2.732,2.732,0,0,1,966.763,648.036Z" transform="translate(-363.132 -180.833)"/><path class="c" d="M969.591,816.62a5.043,5.043,0,0,0-2.724.885,3.839,3.839,0,0,0-1.134,2.07,5.535,5.535,0,0,0,.748,4.625,5.194,5.194,0,0,0,2.113,1.577c2.88,1.247,6.184.337,9.188-.567l11.769-3.541a3.953,3.953,0,0,0,1.914-.991,2.6,2.6,0,0,0,.05-3.03,5.886,5.886,0,0,0-2.493-1.989c-3.659-1.783-7.786-2.188-11.807-2.263-1.5,0-2.974-.361-3.99.792-.536.623-.436,1.29-1.247,1.82A5.61,5.61,0,0,1,969.591,816.62Z" transform="translate(-390.578 -342.223)"/><path class="c" d="M1005.261,806.242a5.091,5.091,0,0,0-2.724.885,3.864,3.864,0,0,0-1.135,2.07,5.554,5.554,0,0,0,.748,4.631,5.234,5.234,0,0,0,2.113,1.571c2.886,1.247,6.184.343,9.188-.561l11.769-3.547a3.954,3.954,0,0,0,1.914-.991,2.594,2.594,0,0,0,.05-3.023,5.905,5.905,0,0,0-2.493-1.989c-3.666-1.783-7.792-2.194-11.813-2.269-1.5,0-2.967-.355-3.99.8-.536.623-.436,1.284-1.247,1.814A5.426,5.426,0,0,1,1005.261,806.242Z" transform="translate(-404.012 -338.315)"/><path class="j" d="M978.776,601.968a144.977,144.977,0,0,1,20.877-.586,4.148,4.148,0,0,1,1.353.212c1.533.623,1.77,2.631,1.914,4.27.623,6.657,3.528,12.86,4.987,19.381a55.365,55.365,0,0,1,1.159,12.467,44.723,44.723,0,0,0,.1,5.61c.187,1.664.623,3.3.86,4.956a45.487,45.487,0,0,1,.293,6.714,68.846,68.846,0,0,1-.592,10.516c-.96,5.941.717,11.844,1.166,17.853a106.509,106.509,0,0,0,1.415,12.536c.343,1.752.773,3.485,1.01,5.249.7,5.243-.324,10.641.779,15.815.511,2.419,1.434,5.136.075,7.206-.424.623-1.047,1.153-1.509,1.783a2.226,2.226,0,0,0-.437,2.188c.268.567.892.941,1.047,1.546.243.954-.754,1.733-1.652,2.138a17.211,17.211,0,0,1-20.048-4.949c.785-.125,1.745-.692,1.764-1.49a8.423,8.423,0,0,0-.511-2.319,9.354,9.354,0,0,1-.181-4.127c.181-.96.505-1.87.7-2.836a27.526,27.526,0,0,0,.374-3.2,53.123,53.123,0,0,1,2.263-11.37c1.135-3.584-.411-7.213-.816-10.953a21.521,21.521,0,0,0-.723-5.267c-.374-.985-.979-1.87-1.347-2.855-.854-2.3-.343-4.856.175-7.25-3.684-6.651-4.912-14.581-6.3-22.055l-2.338-12.592a12.38,12.38,0,0,0-1.87-5.317,64.923,64.923,0,0,0-1.415,16.937,24.953,24.953,0,0,1-.062,4.918c-.287,1.808-1.041,3.51-1.484,5.28-.966,3.909-.4,8.01-.623,12.031-.087,1.627-.293,3.242-.362,4.869-.305,7.181,2.113,14.163,4.5,20.939,1.465,4.158,1.789,8.883,2.493,13.234.624,4.17,1.315,8.341,1.646,12.549.305,3.865.443,8.048,2.849,11.083a20.425,20.425,0,0,1-7.044,3.373,13,13,0,0,1-8.677-1.683,27.293,27.293,0,0,1-6.857-5.828c.505-.175.686-.91.736-1.44.748-7.892-2.25-15.584-3.385-23.439a50.49,50.49,0,0,1-.3-11.881c.143-1.49.349-2.98.405-4.476.3-7.8-3.46-15.31-3.323-23.115.062-3.659-1.87-7.262-2.818-10.8a39.078,39.078,0,0,1-.86-9.662l-.156-25.558c0-3.453,0-6.994,1.116-10.254,1.372-3.927-.2-8.434-.436-12.586A51.88,51.88,0,0,0,978.776,601.968Z" transform="translate(-387.756 -261.77)"/><path class="k" d="M931.928,450.29a81.437,81.437,0,0,0-9.544-15.067,23.915,23.915,0,0,1-2.12-2.892c-1.34-2.325-1.739-5.056-2.587-7.6-2.369-7.131-8.279-12.86-9.719-20.235-.523-2.681-2.231-4.987-3.4-7.48-.792-1.664-1.664-3.422-3.248-4.364a5.536,5.536,0,0,0-6.552,1,7.785,7.785,0,0,0-2.007,6.577A5.566,5.566,0,0,0,894,403.182a10.87,10.87,0,0,0,3.472,2.088,13.639,13.639,0,0,1,6.708,7.661c2.076,6.016,2.344,12.386,4.987,18.2s5.748,11.383,8.029,17.323c1.3,3.372,2.332,6.857,4.233,9.974s4.869,5.729,8.453,6.2a20.853,20.853,0,0,1,1.016-6.658C931.672,455.508,933.056,452.616,931.928,450.29Z" transform="translate(-363.131 -183.526)"/><path class="k" d="M1009.687,453.375a34.441,34.441,0,0,1,2.026-12.954,13.424,13.424,0,0,0,1.191-4.893,12,12,0,0,0-1.509-4.432,113.725,113.725,0,0,1-5.61-15.254l-3.117-9.756a15.156,15.156,0,0,1-2.737-2.587,13.778,13.778,0,0,1-3.173-6.77,9.507,9.507,0,0,1,1.752-7.156,4.146,4.146,0,0,1,2.924-1.783,3.827,3.827,0,0,1,2.743,1.247,12.285,12.285,0,0,1,2.344,4c1.016,2.394,2.051,4.887,1.958,7.481-.087,2.157-.891,4.563.374,6.315,4.139,5.748,7.275,12.349,10.553,18.626a31.513,31.513,0,0,1,2.132,4.669,25.673,25.673,0,0,1,1.122,8.066,111.971,111.971,0,0,1-1.371,15.254c-.443,3.173-1.022,6.626-3.422,8.727A49.411,49.411,0,0,0,1009.687,453.375Z" transform="translate(-402.297 -181.948)"/><circle class="k" cx="12.935" cy="12.935" r="12.935" transform="translate(578.596 247.989)"/><path class="k" d="M987.8,493a17.3,17.3,0,0,0,2.787,6.452c.735,1.247,1.677,2.574,3.117,2.712a62.838,62.838,0,0,1-11.75,4.725,13.29,13.29,0,0,1-4.289.692,10.489,10.489,0,0,1-3.572-.916A17.759,17.759,0,0,1,964,494.875a23.441,23.441,0,0,0,4.806-.368,3.535,3.535,0,0,0,2.356-1.159,3.74,3.74,0,0,0,.486-2.082c.062-2.157.068-4.32,0-6.477a25.559,25.559,0,0,1,9.4,1.16c1.247.405,2.493.891,3.74,1.209.785.2,2.948,0,3.528.455C989.271,488.255,987.582,491.415,987.8,493Z" transform="translate(-390.004 -218.461)"/><path class="l" d="M974.567,499.411a8.141,8.141,0,0,1,6.2-7.237c1.334-.3,2.78-.262,3.971-.923,2.045-1.141,2.662-3.921,4.625-5.2s4.75-.567,6.458,1.047a13.869,13.869,0,0,1,3.273,6.165,31.213,31.213,0,0,1,1.677,9.444,4.365,4.365,0,0,1-.274,1.727,7.206,7.206,0,0,1-1.384,1.727,7.642,7.642,0,0,0-1.87,6.09,17.457,17.457,0,0,1-.555,6.109c-1.247,5.5-2.493,10.99-3.5,16.538a10.259,10.259,0,0,0-.23,3.117c.193,1.5,1.022,2.924.841,4.426a16.789,16.789,0,0,0-.393,2.126,5.15,5.15,0,0,0,.374,1.577c1.415,4.108,5.236,13.521,5.2,17.872-6.639-1.7-16.426-2.082-23.283-2.113a51.783,51.783,0,0,0-5.648.249c-4.507.486-9.12,1.8-13.49.586-4.058-1.129-7.649-4.364-11.844-3.959-.91-2.381.162-10.329,1.016-12.735a54.509,54.509,0,0,0,1.87-29.5c-.767-3.528.287-7.275-.567-10.778a6.425,6.425,0,0,0-.935-2.325,2.493,2.493,0,0,0-2.132-1.116,79.394,79.394,0,0,1,1.558-16.787c.411-1.964,1.247-4.283,3.26-4.619,1.783-.305,3.279,1.2,4.713,2.307a12.662,12.662,0,0,0,4.987,2.344,4.732,4.732,0,0,1,2.045.748c.854.711.979,1.989,1.677,2.855,1.247,1.552,4.033,1.421,4.918,3.21a12.2,12.2,0,0,1,.468,1.633,6,6,0,0,0,2.057,2.656A11.571,11.571,0,0,0,974.567,499.411Z" transform="translate(-382.456 -217.006)"/><path class="m" d="M975.2,449.572a2.364,2.364,0,0,1,.5-2.444c.343-.268.792-.368,1.16-.623a4.986,4.986,0,0,0,1.247-1.577,6.77,6.77,0,0,1,8.472-2.151c2.25,1.178,3.609,3.534,5.61,5.124,1.016.823,2.194,1.434,3.217,2.257a13.221,13.221,0,0,1,4.17,6.745,38.274,38.274,0,0,1,1.153,7.954,7.157,7.157,0,0,1-.093,2.419,6.776,6.776,0,0,1-.916,1.87,20.828,20.828,0,0,1-8.166,7.555,12.622,12.622,0,0,1-10.884.187,1.87,1.87,0,0,1-.835-.667,2.4,2.4,0,0,1-.131-1.44,9.855,9.855,0,0,0-1.085-5.517c-.624-1.247-1.558-2.319-2.057-3.609a12.573,12.573,0,0,1-.586-4.476C975.912,457.258,976.181,453.349,975.2,449.572Z" transform="translate(-394.175 -202.4)"/></g></svg>