<svg xmlns="http://www.w3.org/2000/svg" xmlns:xlink="http://www.w3.org/1999/xlink" width="338.404" height="283" viewBox="0 0 338.404 283"><defs><style>.a,.b{fill:#ffc20e;}.a,.c,.o{opacity:0.1;}.d{fill:#ffd037;}.e{fill:#a8a8a8;}.f,.q{opacity:0.2;}.g{opacity:0.03;}.h,.q{fill:#fff;}.h,.r{opacity:0.15;}.i{fill:url(#a);}.j{fill:#53517c;}.k{fill:#b3d7f7;}.l{fill:#c37871;}.m{fill:#e6eaed;}.n{fill:#4b3e3c;}.p{opacity:0.25;}.s{fill:#3acc6c;}.t{fill:#ff748e;}.u{fill:#5e5a6b;}</style><linearGradient id="a" x1="0.5" y1="1" x2="0.5" gradientUnits="objectBoundingBox"><stop offset="0" stop-color="gray" stop-opacity="0.251"/><stop offset="0.54" stop-color="gray" stop-opacity="0.122"/><stop offset="1" stop-color="gray" stop-opacity="0.102"/></linearGradient></defs><g transform="translate(0 -0.01)"><path class="a" d="M234.137,42.08c10.407-9.275,26.749-11.158,41.619-10.428,46.715,2.323,88.882,24.872,125.355,50.38,13.2,9.234,26.2,19.185,34.776,31.9,17.447,25.89,12.274,61.751-11.99,83.076-8.254,7.256-18.258,12.822-28.534,17.751-18.259,8.767-37.974,15.8-58.7,17.809-14.786,1.427-29.755.267-44.449-1.728-41.061-5.569-81.369-17.883-115.15-38.951-14.816-9.241-28.784-20.727-34.891-35.675s-2.2-33.893,12.93-42.742c6.259-3.658,13.741-5.312,21.065-6.864,10.783-2.286,21.738-4.538,31.465-9.18,10.049-4.8,21.951-14.076,19.949-24.683C225.454,61.349,223.74,51.344,234.137,42.08Z" transform="translate(-125.942 -31.5)"/><ellipse class="a" cx="11.3" cy="1.91" rx="11.3" ry="1.91" transform="translate(315.804 279.189)"/><ellipse class="a" cx="50.285" cy="8.903" rx="50.285" ry="8.903" transform="translate(82.745 248.643)"/><ellipse class="a" cx="25.559" cy="5.63" rx="25.559" ry="5.63" transform="translate(242.507 250.155)"/><path class="b" d="M1062.731,791.49s2.076,2.7-.957,6.81-5.532,7.557-4.521,10.11c0,0,4.575-7.608,8.3-7.716S1066.822,796.058,1062.731,791.49Z" transform="translate(-733.293 -534.515)"/><path class="c" d="M1062.959,791.49a3.385,3.385,0,0,1,.426.852c3.631,4.271,5.569,8.254,2.076,8.352-3.253.095-7.158,5.914-8.091,7.381a2.767,2.767,0,0,0,.112.338s4.575-7.608,8.3-7.716S1067.05,796.058,1062.959,791.49Z" transform="translate(-733.522 -534.515)"/><path class="d" d="M1084.37,800.524c0,.957-.108,1.728-.24,1.728s-.24-.771-.24-1.728.135-.5.267-.5S1084.37,799.57,1084.37,800.524Z" transform="translate(-751.075 -540.09)"/><path class="d" d="M1086.025,803.812c-.839.456-1.572.734-1.633.619s.565-.582,1.4-1.038.507-.125.571,0S1086.864,803.355,1086.025,803.812Z" transform="translate(-751.404 -542.239)"/><path class="b" d="M1032.375,791.49s-2.076,2.7.957,6.81,5.535,7.557,4.524,10.11c0,0-4.578-7.608-8.3-7.716S1028.277,796.058,1032.375,791.49Z" transform="translate(-713.897 -534.515)"/><path class="c" d="M1032.375,791.49a3.329,3.329,0,0,0-.423.852c-3.635,4.271-5.572,8.254-2.079,8.352,3.256.095,7.158,5.914,8.091,7.381-.03.115-.068.227-.108.338,0,0-4.578-7.608-8.3-7.716S1028.278,796.058,1032.375,791.49Z" transform="translate(-713.897 -534.515)"/><path class="d" d="M1030.08,800.524c0,.957.108,1.728.24,1.728s.24-.771.24-1.728-.135-.5-.267-.5S1030.08,799.57,1030.08,800.524Z" transform="translate(-715.459 -540.09)"/><path class="d" d="M1025.174,803.812c.839.456,1.569.734,1.633.619s-.568-.582-1.407-1.038-.507-.125-.568,0S1024.335,803.355,1025.174,803.812Z" transform="translate(-711.875 -542.239)"/><path class="e" d="M1032,834.345s5.8-.179,7.547-1.424,8.926-2.732,9.359-.734,8.717,9.931,2.167,9.981-15.215-1.014-16.964-2.083S1032,834.345,1032,834.345Z" transform="translate(-716.73 -560.805)"/><path class="f" d="M1051.245,847.6c-6.549.051-15.215-1.014-16.964-2.083-1.329-.811-1.86-3.719-2.029-5.055h-.193s.365,4.68,2.11,5.748,10.414,2.137,16.964,2.083c1.89,0,2.543-.676,2.509-1.691C1053.372,847.209,1052.665,847.584,1051.245,847.6Z" transform="translate(-716.77 -566.928)"/><ellipse class="a" cx="11.3" cy="1.91" rx="11.3" ry="1.91" transform="translate(0 264.988)"/><path class="e" d="M110.55,787.765s6.448-.2,8.389-1.582,9.917-3.043,10.4-.815,9.687,11.033,2.411,11.094-16.906-1.136-18.85-2.316S110.55,787.765,110.55,787.765Z" transform="translate(-106.841 -529.742)"/><path class="f" d="M131.879,802.472c-7.28.057-16.906-1.133-18.85-2.316-1.478-.9-2.066-4.125-2.262-5.616h-.216s.409,5.2,2.367,6.38,11.57,2.367,18.85,2.316c2.1,0,2.827-.768,2.786-1.873C134.242,802.05,133.441,802.472,131.879,802.472Z" transform="translate(-106.841 -536.534)"/><ellipse class="b" cx="12.311" cy="2.083" rx="12.311" ry="2.083" transform="translate(40.537 271.98)"/><path class="b" d="M248.6,820.889a3.584,3.584,0,0,0,1.177-1.772,1.581,1.581,0,0,0-.822-1.806,2.3,2.3,0,0,0-2.167.764,2.884,2.884,0,0,1-2.11,1.014,3.216,3.216,0,0,0,.994-3.006,1.241,1.241,0,0,0-.277-.609c-.419-.45-1.177-.257-1.691.095-1.593,1.123-2.029,3.283-2.046,5.231a10.177,10.177,0,0,1-.03-2.154,2.219,2.219,0,0,0-.808-1.907,2.444,2.444,0,0,0-1.234-.291,2.566,2.566,0,0,0-2,.571,2,2,0,0,0,.078,2.458,7.7,7.7,0,0,0,2.073,1.657,4.589,4.589,0,0,1,1.481,1.413,1.591,1.591,0,0,1,.112.254h4.487A12.48,12.48,0,0,0,248.6,820.889Z" transform="translate(-190.665 -550.218)"/><path class="b" d="M408.4,468.329l-2.083-.619.1,1.515,4.663,1.782-.845-2.509Z" transform="translate(-268.935 -309.561)"/><path class="g" d="M408.4,468.329l-2.083-.619.1,1.515,4.663,1.782-.845-2.509Z" transform="translate(-268.935 -309.561)"/><path class="b" d="M574.49,567.53a95.854,95.854,0,0,0,27.655-67.5v-.815H506.18Z" transform="translate(-368.7 -341.068)"/><path class="g" d="M574.49,567.53a95.854,95.854,0,0,0,27.655-67.5v-.815H506.18Z" transform="translate(-368.7 -341.068)"/><path class="b" d="M574.49,572a95.854,95.854,0,0,0,27.655-67.5v-.815H506.18Z" transform="translate(-368.7 -344.026)"/><path class="h" d="M574.49,572a95.854,95.854,0,0,0,27.655-67.5v-.815H506.18Z" transform="translate(-368.7 -344.026)"/><path class="i" d="M762.815,300.7l-1.481-13.366s-2.681-12.034-3.063-18.049-3.28-6.455-3.3-6.455h0s-3.574-2.09-3.892-2.786c-.247-.534-2.232-1.67-3.131-2.171l-.44-.233s-1.116-4.649-2.445-3.983l-.108-.314a11.632,11.632,0,0,1-.625-3.1c0-.132,0-.26,0-.389a11.347,11.347,0,0,0,3.043-5.183,11.207,11.207,0,0,0,.338-2.117v-.4c.653-.456.761-1.423.933-2.232.318-1.481,1.15-2.806,1.545-4.267.034-.125.061-.254.085-.385v-.085a5,5,0,0,0,.078-.811v-.057a3.15,3.15,0,0,0-1.251-2.773,2.705,2.705,0,0,1-.582-.406,1.742,1.742,0,0,1-.3-.538l-.676-1.609a1.667,1.667,0,0,0-.338-.571,2.451,2.451,0,0,0-.9-.429,4.534,4.534,0,0,1-2.188-2.272,10.3,10.3,0,0,0-1.728-2.7c-1.258-1.2-3.124-1.454-4.855-1.643a5.238,5.238,0,0,0-.122,1.653c-2.749-.6-5.748-1.18-8.281.034a1.917,1.917,0,0,0-1.014.981h0a1.37,1.37,0,0,0-.041.159h0a1.054,1.054,0,0,0,0,.206,1.86,1.86,0,0,1,.044.45.676.676,0,0,1-.423.453c-.832.369-1.836-.108-2.7.186a2.7,2.7,0,0,0-1.481,1.9,6.28,6.28,0,0,1-.943,2.292c-.271.338-.625.565-.906.879a2.7,2.7,0,0,0-.639,2.15.362.362,0,0,0,0,.061,1.22,1.22,0,0,0,.064.3,2.741,2.741,0,0,0,.128.338c.047.1.1.193.152.287h0a6.58,6.58,0,0,1,1.085,1.917v.027c.166.93-.426,1.816-.575,2.742h0c0,.074-.02.145-.024.22v.25c.051,1.352,1.292,2.249,2.029,3.243a6.09,6.09,0,0,0,.953,1.319c.02.145.044.287.074.426a11.032,11.032,0,0,0,1.1,3.145,11.5,11.5,0,0,0,5.907,5.285c0,.132.027.267.041.4,0,.25.034.507.034.757v.365l-.112-.859a3.324,3.324,0,0,0-1.271-.017,97.49,97.49,0,0,0-66.873-26.559v46.691c-2.793-.839-5.072-.933-4.9,1.041.156,2.029,2.367,4.085,4.9,5.785v44.324h48.771a7.067,7.067,0,0,0,.338,2.391c.524.636.477,8.25.477,8.25s.257,1.4.321,1.647.828,6.715.828,7.03a23.733,23.733,0,0,1,.639,3.422,16.145,16.145,0,0,0,1.15,3.8l.189,5.322s1.978,2.979,2.106,3.168.064,3.926,2.232,5.7a2.522,2.522,0,0,1,.7,1.2c.162.642,5.606,9.785,7.29,12.605l-.2.957-1.352,6.326-.064,2.661s-.832,2.279-.575,3.229a3.466,3.466,0,0,1,.128,1.522s-.893,1.39-.318,2.279.254,1.393-.575,3.672a1.594,1.594,0,0,0,.416,1.985,2.792,2.792,0,0,1-.041.338c-.118,1.014-.25,2.174-.25,2.482s-.118,1.691-.125,2.908c0,.964.061,1.829.318,1.971.575.314,3.767.676,3.828,1.772s1.278,2.658,3.828,2.658,6.955-.886,8.037-.761c.179.024.284-.095.338-.3a1,1,0,0,0,.024-.108,2.415,2.415,0,0,0,1.488.795c3.828.7,8.483-1.014,9.379-2.722a3.129,3.129,0,0,0,.257-.676,8.226,8.226,0,0,0-.257-3.817,6.513,6.513,0,0,1-.081-2.617,2.228,2.228,0,0,1,.524-1.052,11.494,11.494,0,0,0,1.6-3.828c.308-1.106.5-2.005.5-2.005s-.4-.615-1.014-1.461h0c-1.227-1.721-3.3-4.4-4.6-4.852a1.483,1.483,0,0,1-.135-.4,12.825,12.825,0,0,0-1.4-2.7,37.068,37.068,0,0,1-1.849-3.229c0-.25-2.549-4.118-2.549-4.118s-.981-2.127-1.626-3.28c.074-.2.149-.46.227-.764a51.962,51.962,0,0,0,1.207-9.572,4.18,4.18,0,0,1,.636-3.547,7.591,7.591,0,0,0,.9-3.8s-.064-7.161.636-8.615,2.678-13.109,2.617-13.366a9.621,9.621,0,0,1,.507-1.849l.118-4.6v-.281s.446-3.99,1.014-4.879a2.123,2.123,0,0,0,.176-.869H761c0-.636-.024-1.268-.041-1.9H761a96.655,96.655,0,0,0-1.014-13.244c.987-1.2,2.181-2.029,2.218-2.286a14.087,14.087,0,0,1,.7-2.282A10.107,10.107,0,0,0,762.815,300.7Zm-21.244,99.113s.27-.162.71-.389c.027.108.054.223.081.338a15.836,15.836,0,0,1,.548,3.719c-.132,1.329-.338,3.422-.338,3.422a11.1,11.1,0,0,0-.808,2.367c-.2-.835-.4-1.495-.4-1.495s-4.341-2.908-4.341-4.368a11.449,11.449,0,0,0-.3-2.174h0c-.037-.183-.078-.358-.118-.531a3.8,3.8,0,0,1,.48.747s1.3-3.141,1.606-4.4a1.014,1.014,0,0,0,.054-.48,4.107,4.107,0,0,1-.078-1.3c.3.338.538.676.46.92C738.95,396.777,741.571,399.816,741.571,399.816Z" transform="translate(-469.732 -157.164)"/><path class="j" d="M873.667,760.022c-1.068-.125-5.41.754-7.932.754s-3.719-1.569-3.777-2.644-3.209-1.444-3.777-1.758c-.25-.142-.314-1.014-.311-1.961,0-1.207.122-2.573.122-2.891s.128-1.461.247-2.465c.1-.869.2-1.623.2-1.623,2.959-3.587,9.7-.947,9.7-.947s.287,1,.521,2.113h0a11.574,11.574,0,0,1,.294,2.161c0,1.451,4.284,4.345,4.284,4.345a28.6,28.6,0,0,1,.71,2.986C874.113,759.156,874.144,760.079,873.667,760.022Z" transform="translate(-601.477 -504.109)"/><path class="c" d="M873.667,777.366c-1.068-.122-5.41.757-7.929.757s-3.719-1.572-3.777-2.644-3.212-1.447-3.78-1.762c-.25-.139-.314-1.014-.311-1.958a9.885,9.885,0,0,1,3.462,1.582c.943,1.014,1.194,2.137,1.826,2.265s1.258,1.014,4.277.25a26.663,26.663,0,0,1,6.505-.412C874.113,776.5,874.144,777.424,873.667,777.366Z" transform="translate(-601.477 -521.456)"/><path class="j" d="M915.759,733.667c-1.068,1.133-.436,3.648-.436,3.648s.879,2.773,0,4.473-5.478,3.381-9.254,2.7a2.222,2.222,0,0,1-1.718-1.177c-.923-1.819.646-4.994.646-4.994s.189-2.076.318-3.4a16.153,16.153,0,0,0-.541-3.7c-.186-.8-.338-1.4-.338-1.4s5.748-8.247,7.493-8.308a.792.792,0,0,1,.247.027c1.265.311,3.418,3.1,4.673,4.872.6.845,1,1.457,1,1.457S916.834,732.534,915.759,733.667Z" transform="translate(-632.049 -488.202)"/><path class="c" d="M916.328,743.259c-1.068,1.133-.436,3.648-.436,3.648s.879,2.773,0,4.47-5.478,3.4-9.254,2.7a2.225,2.225,0,0,1-1.718-1.173c1.089-.23,2.8-.524,5.494-.839,6.482-.757,4.781-5.035,4.781-5.035s-.754-3.023.189-4.534c.676-1.072,1.565-4.565,2.029-6.492.6.842,1,1.454,1,1.454S917.4,742.127,916.328,743.259Z" transform="translate(-632.618 -497.794)"/><path class="c" d="M869.374,748.6c-.9-1.234-3.574-3.611-8.96,1.035a3.043,3.043,0,0,1-1.454-.578c.1-.869.2-1.623.2-1.623,2.959-3.587,9.7-.947,9.7-.947S869.141,747.484,869.374,748.6Z" transform="translate(-602.198 -504.109)"/><path class="k" d="M880.725,531v.277l-.129,4.575a9.26,9.26,0,0,0-.5,1.826c.064.25-1.887,11.834-2.583,13.281s-.632,8.565-.632,8.565a7.788,7.788,0,0,1-.886,3.777,4.252,4.252,0,0,0-.615,3.54,51.04,51.04,0,0,1-1.19,9.515,3.308,3.308,0,0,1-.45,1.187.937.937,0,0,0-.152.291c-.906,2.336-3.246,16.767-3.246,16.767s-.024.277-.047.656a7.3,7.3,0,0,0,.047,1.988,1.014,1.014,0,0,1-.054.477c-.3,1.248-1.582,4.372-1.582,4.372s-2.455-5.478-9.319.44c0,0-2.644-.254-1.823-2.519s1.133-2.769.565-3.648.314-2.265.314-2.265a3.446,3.446,0,0,0-.125-1.511c-.254-.943.568-3.209.568-3.209l.064-2.644,1.325-6.289.4-1.893.412-1.958,2.2-38.157.085-1.42.615-10.715,14.854-2.455.507,3.9.8,1.914Z" transform="translate(-601.167 -357.37)"/><path class="c" d="M880.094,530.387l-9.1,5.991.338,5.244s.943,8.436.943,9.315-.443,8.057-.443,8.057,2.269,3.381,2.029,4.22,1.948,3.145,1.948,3.145l3.746,7.168a13.788,13.788,0,0,0,1.014,2.779,3.311,3.311,0,0,1-.45,1.187c-.754.754-3.4,17.058-3.4,17.058s-.024.277-.047.656c-.193-.172-.338-.277-.338-.277a32.164,32.164,0,0,1-1.826-3.334,22.323,22.323,0,0,0-1.951-2.833l-4.45-8.5L867.07,578.5l.412-1.958,2.9-50.292,14.854-2.455.507,3.9-13.525,3.445Z" transform="translate(-607.566 -357.337)"/><path class="c" d="M891.615,530.968l-16.615,6,.615-10.715,14.854-2.455.507,3.9.8,1.914C891.679,530.387,891.615,530.968,891.615,530.968Z" transform="translate(-612.815 -357.337)"/><path class="c" d="M875.936,625.789a1.015,1.015,0,0,1-.054.477,1.645,1.645,0,0,1-.338-.852c.189-.568-1.511-1.89-1.511-1.89a32.188,32.188,0,0,1-1.822-3.334,22.323,22.323,0,0,0-1.954-2.833l-4.4-8.365.4-1.893.413-1.958L868.879,567l.132,3.222s.953,8.419.953,9.288-.44,8.057-.44,8.057,2.265,3.381,2.029,4.22,1.951,3.145,1.951,3.145l3.777,7.178s.676,2.583,1.072,2.833a6.615,6.615,0,0,1,.852,1.424c-.906,2.336-3.246,16.767-3.246,16.767s-.024.277-.047.656A6.668,6.668,0,0,0,875.936,625.789Z" transform="translate(-606.765 -385.93)"/><path class="c" d="M914.671,724.6s-2.833,5.1-4.974,5.227a11.855,11.855,0,0,0-4.189,1.4c-.186-.8-.338-1.4-.338-1.4s5.748-8.247,7.493-8.308a.791.791,0,0,1,.247.027v.03A15.172,15.172,0,0,0,914.671,724.6Z" transform="translate(-632.784 -488.202)"/><path class="k" d="M857.58,581.395s-2.833,5.1-4.974,5.227a13.994,13.994,0,0,0-4.97,1.826s-2.583-3.023-2.4-3.587-1.508-1.89-1.508-1.89a32.17,32.17,0,0,1-1.826-3.334,22.326,22.326,0,0,0-1.954-2.833l-4.466-8.5s-7.489-12.595-7.679-13.349a2.492,2.492,0,0,0-.7-1.194c-2.137-1.765-2.076-5.478-2.2-5.667l-2.076-3.148-.189-5.288a16.106,16.106,0,0,1-1.133-3.777,23.68,23.68,0,0,0-.632-3.4c0-.318-.754-6.732-.815-6.986s-.318-1.636-.318-1.636.064-7.554-.436-8.186a11.271,11.271,0,0,1-.385-3.669c-.02-1.3,0-2.434,0-2.434L856,505.73s.23,2.113.362,4.23c.118,1.89.159,3.79-.108,4.206-.568.883-1.014,4.849-1.014,4.849l-16.744,6.042.186,4.6s.947,8.436.947,9.315-.443,8.057-.443,8.057,2.265,3.381,2.029,4.22,1.948,3.145,1.948,3.145l3.777,7.178a11.606,11.606,0,0,0,1.072,2.833,30.924,30.924,0,0,1,2.083,3.973s2.516,3.844,2.516,4.095a36.75,36.75,0,0,0,1.826,3.212,13.024,13.024,0,0,1,1.383,2.7A15.089,15.089,0,0,0,857.58,581.395Z" transform="translate(-575.692 -345.377)"/><path class="c" d="M866.25,635.68s3.084,3.527,4.656,3.591S866.25,635.68,866.25,635.68Z" transform="translate(-607.023 -431.388)"/><path class="c" d="M901.06,731.893s9.315-4.784,8.115-2.58-4.6,3.381-4.6,3.381Z" transform="translate(-630.063 -492.978)"/><path class="c" d="M865.13,734.92s5.728.375,6.482,1.322C871.612,736.242,865.509,734.981,865.13,734.92Z" transform="translate(-606.282 -497.073)"/><path class="c" d="M865.31,740.69s5.227.189,6.925.943C872.235,741.633,866.7,741.444,865.31,740.69Z" transform="translate(-606.401 -500.892)"/><path class="l" d="M679.455,389.589l-1.657-.757-2.624-1.2s-12.463-4.974-12.849-9.944,14.539,3.273,14.539,3.273a14.341,14.341,0,0,0,1.383,1.86,2.861,2.861,0,0,0,1.451,1.035C680.848,383.983,679.455,389.589,679.455,389.589Z" transform="translate(-472.045 -259.575)"/><path class="l" d="M885.72,313.345l-4.091,4.734-9.944-3.27-2.455-1.954,1.569-2.076a4.752,4.752,0,0,0,.676-2.908,5.678,5.678,0,0,0-.034-.757,19.328,19.328,0,0,0-.7-3.7s14.161-3.591,13.153-.632a5.265,5.265,0,0,0-.237,1.9,11.533,11.533,0,0,0,.619,3.084,17.923,17.923,0,0,0,1.065,2.566Z" transform="translate(-608.996 -210.276)"/><path class="c" d="M886.853,302.721a5.266,5.266,0,0,0-.237,1.9,11.33,11.33,0,0,1-12.213,2.428,19.327,19.327,0,0,0-.7-3.7S887.86,299.772,886.853,302.721Z" transform="translate(-611.954 -210.238)"/><path class="l" d="M877.544,263.487a7.138,7.138,0,0,1-.03.808,11.33,11.33,0,0,1-21.342,4.446,11.116,11.116,0,0,1-1.085-3.124,10.818,10.818,0,0,1-.206-2.13,11.207,11.207,0,0,1,.155-1.856,11.327,11.327,0,0,1,22.5,1.467C877.541,263.227,877.544,263.359,877.544,263.487Z" transform="translate(-599.498 -177.54)"/><path class="c" d="M885.72,325.4l-4.091,4.734-9.944-3.27-2.455-1.954,1.569-2.076a4.752,4.752,0,0,0,.676-2.908l.453,3.473.108.108.649.649h.818l1.576,2.14s2.265-1.822,2.455-1.386,3.273-.754,3.273-.754h.118c2.793-.118,3.28-4.277,3.28-4.277a.662.662,0,0,1,.068-.051,17.924,17.924,0,0,0,1.065,2.566Z" transform="translate(-608.996 -222.333)"/><path class="c" d="M856.386,509.96c-.071.274-.149.541-.233.808-2.455,7.8-20.145,7.993-20.145,7.993l-.5-4.845-1.691,3.273s-10.948-3.023-14.86-5.183c-.02-1.3,0-2.434,0-2.434l37.075-3.841S856.254,507.85,856.386,509.96Z" transform="translate(-575.712 -345.377)"/><path class="c" d="M709.757,402.756,708.1,402a41.991,41.991,0,0,0,.46-6.008,2.86,2.86,0,0,0,1.451,1.035C711.15,397.15,709.757,402.756,709.757,402.756Z" transform="translate(-502.347 -272.742)"/><path class="j" d="M783.131,368.243s2.773,9.948.318,17.755-20.145,7.98-20.145,7.98l-.5-4.845-1.691,3.276s-13.217-3.655-15.8-5.8-1.261-5.349-1.261-5.349.882-4.152,1.636-5.038.883-3.966.629-4.4.882-4.6,1.261-5.227-.064-17.437-.064-17.437-5.6,2.516-5.917,3.273-6.925,4.4-6.925,4.4-6.232.757-7.364.757-7.368-.757-7.368-.757a6.089,6.089,0,0,1-2.2-.44,6.494,6.494,0,0,0-1.64-.693,4.955,4.955,0,0,1-2.265-1.068c-.507-.69-4.734-3.023-4.734-3.023.818-.5.883-7.1.883-7.1l7.993,1.951s.507-1.068,1.261-.629,5.352.808,5.352.808,3.841-.754,4.03-.443.754.254.754.254.757-.064.757-.311.676.057.676.057l1.261.189s-.189-1.633.379-1.758a.832.832,0,0,0,.626-.693s1.691-2.265,2.519-2.265,1.386-2.265,1.386-2.265L740,336.321s-.379-1.576,0-1.64.436-.754.436-.754.128-1.383.822-1.691,1.068-2.137,1.068-2.137,3.209-3.587,3.462-4.849a2.055,2.055,0,0,1,1.576-1.511,7.778,7.778,0,0,1,2.326-1.014c1.072-.189,3.905-.507,3.905-.507s5.16-.436,5.667-1.014a2.457,2.457,0,0,1,1.948-.507.646.646,0,0,0,.338-.125,20.6,20.6,0,0,0,1.728-1.762,2.582,2.582,0,0,1,2.076-.379l.568,4.345.1.1.649.649h.818l1.576,2.144s2.265-1.826,2.455-1.386,3.273-.757,3.273-.757h.118c2.793-.118,3.28-4.274,3.28-4.274,1.386-1.2,2.583,3.841,2.583,3.841l.436.233c.886.494,2.847,1.623,3.087,2.157.314.676,3.841,2.766,3.841,2.766Z" transform="translate(-503.009 -221.36)"/><path class="l" d="M904.418,502.436l-1.86,1.5-2.106,1.691s-3.905,9.129-9.254,6.549,7.168-12.128,7.168-12.128l1.731-.839,1.917-.926Z" transform="translate(-622.655 -340.446)"/><path class="c" d="M867.637,325.166a24.021,24.021,0,0,0-4.4,2.729l-.091-5.035a20.693,20.693,0,0,0,1.728-1.765,2.649,2.649,0,0,1,2.076-.375l.568,4.341Z" transform="translate(-604.971 -222.878)"/><path class="m" d="M868.777,322.964a24.021,24.021,0,0,0-4.4,2.729l-.081-5.021a20.59,20.59,0,0,0,1.728-1.762,2.582,2.582,0,0,1,2.076-.379l.568,4.345Z" transform="translate(-605.733 -221.426)"/><path class="c" d="M910.129,328.114c-.967,2.59-2.171,5.457-2.387,4.358-.26-1.3-2.529-3.141-3.912-4.159,2.793-.115,3.28-4.274,3.28-4.274,1.386-1.2,2.583,3.841,2.583,3.841Z" transform="translate(-631.897 -224.998)"/><path class="m" d="M910.129,324.763c-.967,2.59-2.171,5.457-2.387,4.358-.26-1.3-2.529-3.141-3.912-4.159,2.793-.118,3.28-4.274,3.28-4.274,1.386-1.2,2.583,3.841,2.583,3.841Z" transform="translate(-631.897 -222.779)"/><path class="c" d="M884.49,626.47s7.175-1.014,6.86.5S884.49,626.47,884.49,626.47Z" transform="translate(-619.096 -425.073)"/><path class="c" d="M850.23,551.976s2.833-1.511,5.352-.879Z" transform="translate(-596.42 -375.302)"/><path class="c" d="M836.64,541.283s4.534-.693,6.232.064Z" transform="translate(-587.425 -368.716)"/><path class="c" d="M887.988,572.57s-3.966,4.216-3.719,5.349Z" transform="translate(-618.942 -389.617)"/><path class="c" d="M780.715,405.2s-.629,2.265,3.212,3.209Z" transform="translate(-550.384 -278.838)"/><path class="c" d="M777.44,416.74s4.734,4.216,2.519,4.345S777.44,416.74,777.44,416.74Z" transform="translate(-548.242 -286.476)"/><path class="c" d="M808.53,366.66s5.792,4.027,5.41,4.974S808.53,366.66,808.53,366.66Z" transform="translate(-568.82 -253.329)"/><path class="c" d="M924.461,502.422l-1.86,1.5a11.339,11.339,0,0,0-2.451-4.734l1.917-.926Z" transform="translate(-642.699 -340.432)"/><path class="j" d="M923.935,349.242l2.519-1.572s2.894.44,3.273,6.424,3.023,17.941,3.023,17.941l1.447,13.278a9.781,9.781,0,0,1,.064,3.777,13.8,13.8,0,0,0-.676,2.265c-.064.443-3.527,2.583-3.462,5.352s-4.4,5.349-4.4,5.349a18.554,18.554,0,0,0-3.841,2.9s-1.072-5.038-3.4-6.3,4.909-11.266,4.909-11.266Z" transform="translate(-641.293 -240.76)"/><path class="c" d="M908.992,465.65s-7.554,3.148-6.925,4.155S908.992,465.65,908.992,465.65Z" transform="translate(-630.705 -318.848)"/><path class="c" d="M916.951,477.56s-3.141,1.39-2.881,1.833S916.951,477.56,916.951,477.56Z" transform="translate(-638.664 -326.731)"/><path class="c" d="M911.741,485.38s-3.141,1.39-2.881,1.833S911.741,485.38,911.741,485.38Z" transform="translate(-635.216 -331.907)"/><path class="b" d="M676.68,246.08v95.35h95.969A96.169,96.169,0,0,0,676.68,246.08Z" transform="translate(-481.551 -173.52)"/><path class="c" d="M676.68,246.08v95.35h95.969A96.169,96.169,0,0,0,676.68,246.08Z" transform="translate(-481.551 -173.52)"/><path class="b" d="M676.68,240.5v95.35h95.969A96.164,96.164,0,0,0,676.68,240.5Z" transform="translate(-481.551 -169.826)"/><path class="l" d="M895.111,525.413a2.482,2.482,0,0,1,.446-1.461,2.383,2.383,0,0,1,1.075-.6c.358-.118.72-.23,1.082-.338a2.755,2.755,0,0,1,.872-.142,3.056,3.056,0,0,1,1.606.751.675.675,0,0,1,.23.24c.108.25-.125.511-.338.676a16.1,16.1,0,0,1-2.4,1.768,4.829,4.829,0,0,1-2.106.727C894.7,527.056,895.053,526.042,895.111,525.413Z" transform="translate(-626.048 -356.721)"/><path class="c" d="M877.544,263.474a7.138,7.138,0,0,1-.03.808,1.556,1.556,0,0,1-.149.088,4.362,4.362,0,0,0-.558.247c-.551.375-.426,1.194-.375,1.856a5,5,0,0,1-.575,2.769.991.991,0,0,1-.876-.825,6.63,6.63,0,0,1-.054-1.3,11.241,11.241,0,0,0-1.082-3.276c-.751-2.086-.585-4.4-1.085-6.549a2.717,2.717,0,0,0-.923-1.691,2.473,2.473,0,0,0-2.482.125,14.111,14.111,0,0,1-2.3,1.244,6.85,6.85,0,0,1-3.939-.48,5.3,5.3,0,0,0-3.929-.125c-1.258.646-1.823,2.117-2.208,3.483a3.417,3.417,0,0,0-.179,1.163,10.429,10.429,0,0,1,.145,1.048c0,.757-.646,1.353-.9,2.069-.156.443-.118,1.535-.761,1.528a.409.409,0,0,1-.206-.064,10.818,10.818,0,0,1-.206-2.13,11.207,11.207,0,0,1,.156-1.856,11.327,11.327,0,0,1,22.5,1.467C877.541,263.213,877.544,263.345,877.544,263.474Z" transform="translate(-599.497 -177.527)"/><path class="n" d="M844.862,243.22c-.041-1.092.788-2.113.6-3.188-.149-.842-.879-1.454-1.234-2.232a2.705,2.705,0,0,1,.429-2.85c.277-.311.625-.555.893-.872a6.478,6.478,0,0,0,.93-2.282,2.708,2.708,0,0,1,1.464-1.89c.849-.291,1.843.183,2.661-.186a.676.676,0,0,0,.416-.446,1.573,1.573,0,0,0-.044-.45c-.057-.6.514-1.072,1.062-1.336,2.5-1.207,5.457-.632,8.169-.034a5.373,5.373,0,0,1,.118-1.643c1.711.189,3.554.44,4.791,1.63a10.076,10.076,0,0,1,1.691,2.681,4.565,4.565,0,0,0,2.161,2.259,2.4,2.4,0,0,1,.893.426,1.691,1.691,0,0,1,.338.568l.649,1.6a1.779,1.779,0,0,0,.3.538,2.755,2.755,0,0,0,.571.4c1.258.822,1.444,2.631,1.052,4.084s-1.21,2.769-1.522,4.243c-.183.869-.287,1.931-1.082,2.326a4.6,4.6,0,0,0-.558.25c-.551.372-.429,1.19-.375,1.853a5.015,5.015,0,0,1-.571,2.769.987.987,0,0,1-.876-.825,6.592,6.592,0,0,1-.057-1.295,11.24,11.24,0,0,0-1.082-3.276c-.751-2.086-.585-4.4-1.082-6.549a2.732,2.732,0,0,0-.93-1.691,2.449,2.449,0,0,0-2.482.125,13.568,13.568,0,0,1-2.292,1.241,6.838,6.838,0,0,1-3.942-.484,5.256,5.256,0,0,0-3.926-.122c-1.258.646-1.819,2.12-2.2,3.483a3.434,3.434,0,0,0-.186,1.163,10.567,10.567,0,0,1,.149,1.048c0,.761-.646,1.352-.9,2.073-.156.443-.118,1.532-.761,1.528-.487,0-.981-1.1-1.221-1.423C846.136,245.458,844.912,244.555,844.862,243.22Z" transform="translate(-592.296 -160.103)"/><g class="o" transform="translate(251.703 66.518)"><path d="M845.46,259.9c-.149-.842-.879-1.451-1.234-2.228a2.525,2.525,0,0,1-.2-.7,2.633,2.633,0,0,0,.2,1.451c.338.771,1.065,1.376,1.227,2.2a2.184,2.184,0,0,0,.007-.727Z" transform="translate(-843.998 -247.252)"/><path d="M864.681,233.7a.267.267,0,0,0,0-.054.84.84,0,0,0-.041.159.387.387,0,0,0,.041-.1Z" transform="translate(-857.661 -231.811)"/><path d="M891.928,228.288a.612.612,0,0,1,0-.078v.074Z" transform="translate(-875.721 -228.21)"/><path d="M922.062,263.591c-.389,1.454-1.211,2.773-1.522,4.243-.183.872-.287,1.931-1.082,2.33a5.164,5.164,0,0,0-.558.247c-.456.311-.45.926-.4,1.508a.987.987,0,0,1,.4-.751,4.6,4.6,0,0,1,.558-.25c.795-.4.9-1.457,1.082-2.326.311-1.474,1.133-2.789,1.522-4.243a5.139,5.139,0,0,0,.169-1.748,5.322,5.322,0,0,1-.169.991Z" transform="translate(-893.294 -250.972)"/><path d="M879.619,272.126a.987.987,0,0,1-.876-.825,6.646,6.646,0,0,1-.057-1.3,11.221,11.221,0,0,0-1.082-3.273c-.751-2.086-.585-4.4-1.082-6.549a2.733,2.733,0,0,0-.93-1.691,2.465,2.465,0,0,0-2.482.125,13.569,13.569,0,0,1-2.292,1.241,6.837,6.837,0,0,1-3.943-.48,5.256,5.256,0,0,0-3.926-.122c-1.258.646-1.819,2.12-2.2,3.479a3.452,3.452,0,0,0-.186,1.167,1.429,1.429,0,0,0,.034.237,5.137,5.137,0,0,1,.152-.646c.385-1.352.947-2.837,2.2-3.483a5.272,5.272,0,0,1,3.926.122,6.863,6.863,0,0,0,3.943.483,13.81,13.81,0,0,0,2.292-1.241,2.457,2.457,0,0,1,2.482-.125,2.68,2.68,0,0,1,.93,1.691c.5,2.161.338,4.463,1.082,6.549a12.225,12.225,0,0,1,1.082,3.276,6.593,6.593,0,0,0,.057,1.295.987.987,0,0,0,.876.825,5.032,5.032,0,0,0,.575-2.746A5.069,5.069,0,0,1,879.619,272.126Z" transform="translate(-854.959 -248.062)"/><path d="M850.537,278.75c-.156.443-.118,1.532-.761,1.528-.487,0-.981-1.1-1.221-1.42-.676-.916-1.779-1.758-1.978-2.938a2.4,2.4,0,0,0-.03.467c.051,1.336,1.275,2.238,2.008,3.226.24.338.734,1.42,1.221,1.423.642,0,.605-1.085.761-1.528.25-.717.879-1.312.9-2.073a2.076,2.076,0,0,0-.047-.433A18.816,18.816,0,0,1,850.537,278.75Z" transform="translate(-845.685 -259.788)"/></g><rect class="b" width="1.136" height="1.156" transform="translate(33.728 151.011)"/><rect class="p" width="1.136" height="1.156" transform="translate(33.728 151.011)"/><rect class="b" width="1.109" height="1.288" transform="translate(129.99 55.776)"/><rect class="p" width="1.109" height="1.288" transform="translate(129.99 55.776)"/><path class="q" d="M298.7,294.88h0V199.53h-.2a96.173,96.173,0,0,0-96.168,95.38Z" transform="translate(-167.588 -142.709)"/><path class="b" d="M298.7,294.88h0V199.53h-.2a96.173,96.173,0,0,0-96.168,95.38Z" transform="translate(-167.588 -142.709)"/><path class="p" d="M298.7,294.88h0V199.53h-.2a96.173,96.173,0,0,0-96.168,95.38Z" transform="translate(-167.588 -142.709)"/><path class="b" d="M295.7,291.88h0V196.53h-.2a96.173,96.173,0,0,0-96.168,95.38Z" transform="translate(-165.602 -140.723)"/><path class="r" d="M295.7,291.88h0V196.53h-.2a96.173,96.173,0,0,0-96.168,95.38Z" transform="translate(-165.602 -140.723)"/><path class="b" d="M593.557,677.37l1.417.889v1.691l-1.924-.3Z" transform="translate(-392.528 -448.331)"/><path class="c" d="M593.557,677.37l1.417.889v1.691l-1.924-.3Z" transform="translate(-392.528 -448.331)"/><path class="b" d="M193.881,679l-.531.159v1.691l1.8-.392-.443-1.647Z" transform="translate(-127.974 -449.284)"/><path class="c" d="M193.881,679l-.531.159v1.691l1.8-.392-.443-1.647Z" transform="translate(-127.974 -449.284)"/><path class="b" d="M362.7,517.46,292.93,584.705A96.155,96.155,0,0,0,430,584.76Z" transform="translate(-227.554 -353.14)"/><path class="b" d="M362.7,512.46,292.93,579.705A96.155,96.155,0,0,0,430,579.76Z" transform="translate(-227.554 -349.831)"/><path class="c" d="M362.7,512.46,292.93,579.705A96.155,96.155,0,0,0,430,579.76Z" transform="translate(-227.554 -349.831)"/><path class="b" d="M362.7,517.46,292.93,584.705A96.155,96.155,0,0,0,430,584.76Z" transform="translate(-227.554 -353.14)"/><path class="s" d="M382.99,471.949l2.323-1.589.338.676L383,472.974Z" transform="translate(-253.493 -311.315)"/><path class="c" d="M382.99,471.949l2.323-1.589.338.676L383,472.974Z" transform="translate(-253.493 -311.315)"/><path class="t" d="M375.383,466.263l2.451-.9.338.676-4.183,1.41Z" transform="translate(-247.536 -308.006)"/><path class="c" d="M375.383,466.263l2.451-.9.338.676-4.183,1.41Z" transform="translate(-247.536 -308.006)"/><path class="u" d="M373.752,459l2.59-.142v.676l-4.352.456.389-.876Z" transform="translate(-246.213 -303.703)"/><path class="c" d="M373.752,459l2.59-.142v.676l-4.352.456.389-.876Z" transform="translate(-246.213 -303.703)"/><path class="u" d="M296.559,490.36l-93.778,21.356a96.5,96.5,0,0,1-2.2-20.541c0-.274,0-.544,0-.815Z" transform="translate(-166.43 -335.203)"/><path class="c" d="M296.559,490.36l-93.778,21.356a96.5,96.5,0,0,1-2.2-20.541c0-.274,0-.544,0-.815Z" transform="translate(-166.43 -335.203)"/><path class="u" d="M296.559,492.36l-93.778,21.356a96.5,96.5,0,0,1-2.2-20.541c0-.274,0-.544,0-.815Z" transform="translate(-166.43 -336.527)"/><path class="t" d="M207.59,518.209a95.266,95.266,0,0,0,9.778,25.958l84-47.306Z" transform="translate(-171.07 -339.506)"/><path class="c" d="M207.59,518.209a95.266,95.266,0,0,0,9.778,25.958l84-47.306Z" transform="translate(-171.07 -339.506)"/><path class="t" d="M208.59,520.209a95.265,95.265,0,0,0,9.778,25.958l84-47.306Z" transform="translate(-171.731 -340.829)"/><path class="s" d="M324.744,501.88,240.89,549.112l.041.074a96.149,96.149,0,0,0,15.689,20.994l68.3-68.3Z" transform="translate(-193.11 -342.828)"/><path class="c" d="M324.744,501.88,240.89,549.112l.041.074a96.149,96.149,0,0,0,15.689,20.994l68.3-68.3Z" transform="translate(-193.11 -342.828)"/><path class="s" d="M325.744,503.88,241.89,551.112l.041.074a96.151,96.151,0,0,0,15.689,20.994l68.3-68.3Z" transform="translate(-193.772 -344.152)"/></g></svg>