<?xml version="1.0" encoding="utf-8"?>
<!-- Generator: Adobe Illustrator 23.0.2, SVG Export Plug-In . SVG Version: 6.00 Build 0)  -->
<svg version="1.1" id="Layer_1" xmlns="http://www.w3.org/2000/svg" xmlns:xlink="http://www.w3.org/1999/xlink" x="0px" y="0px"
	 viewBox="0 0 323 274.1" style="enable-background:new 0 0 323 274.1;" xml:space="preserve">
<style type="text/css">
	.st0{fill:none;}
	.st1{fill:#FFC20E;}
	.st2{fill:#D0CDE1;}
	.st3{fill:#3F3D56;}
</style>
<g>
	<rect class="st0" width="323" height="274.1"/>
	<g transform="translate(9754.466 3913)">
		<path class="st1" d="M-9476-3787.7c0,15.4-3.6,28.1-10,39c-2.1,3.6-4.5,7-7.1,10.2c-23.3,28.5-66.5,44-105.6,69.3
			c-115.4,74.5-127.9-44.9-122.7-118.4c1.9-28.7,13.1-56,32-77.7c3.9-4.4,8-8.5,12.5-12.2c21.8-18.6,49.6-28.7,78.2-28.5
			c52.3,0,96.9,31.5,114.6,75.9C-9478.8-3816.7-9476-3802.3-9476-3787.7z"/>
		<path class="st2" d="M-9572.6-3879.5l-116.8,14.1c3.9-4.4,8-8.5,12.5-12.3L-9572.6-3879.5z"/>
		<path class="st2" d="M-9486-3748.8c-2.1,3.6-4.5,7-7.1,10.2l-100.1-12L-9486-3748.8z"/>
		<path class="st2" d="M-9480.1-3818l-169.6-22l165.5,9.8C-9482.6-3826.2-9481.2-3822.1-9480.1-3818z"/>
		<path class="st1" d="M-9709.9-3874.6c0,0.3,0,0.6,0,0.9c-0.5,6.8-6.4,11.8-13.1,11.3c-6.8-0.5-11.8-6.4-11.3-13.1
			c0.1-1.7,0.6-3.3,1.4-4.8c0.3-0.5,0.6-1,0.9-1.4c4-5.5,11.6-6.7,17.1-2.8c2.9,2.1,4.8,5.4,5.1,9
			C-9709.9-3875.3-9709.9-3874.9-9709.9-3874.6z"/>
		<path class="st2" d="M-9709.9-3874.6c0,0.3,0,0.6,0,0.9l-18.4-2.2l18.4,0.3C-9710-3875.3-9709.9-3874.9-9709.9-3874.6z"/>
		<path class="st2" d="M-9714.3-3868.4l-17,2c-0.5-0.5-0.9-1.1-1.3-1.7L-9714.3-3868.4z"/>
		<path class="st2" d="M-9719.1-3882l-13.9,1.7c0.3-0.5,0.6-1,0.9-1.4L-9719.1-3882z"/>
		<path class="st1" d="M-9541.8-3653.7c-0.1,0.3-0.3,0.5-0.5,0.8c-3.6,5.7-11.2,7.5-16.9,3.9c-5.7-3.6-7.5-11.2-3.9-16.9
			c0.9-1.4,2.1-2.7,3.5-3.6c0.5-0.3,1-0.6,1.5-0.9c6.1-3,13.4-0.5,16.4,5.6c1.6,3.2,1.7,7,0.3,10.3
			C-9541.5-3654.3-9541.7-3654-9541.8-3653.7z"/>
		<path class="st2" d="M-9541.8-3653.7c-0.1,0.3-0.3,0.5-0.4,0.8l-15.2-10.6l16.1,8.9C-9541.5-3654.3-9541.7-3654-9541.8-3653.7z"/>
		<path class="st2" d="M-9548.6-3650.3l-16-6.2c-0.2-0.7-0.3-1.4-0.3-2.1L-9548.6-3650.3z"/>
		<path class="st2" d="M-9546.5-3664.6l-13.1-5c0.5-0.3,1-0.6,1.5-0.9L-9546.5-3664.6z"/>
		<path class="st1" d="M-9455-3865.2c0.2,0.2,0.4,0.4,0.6,0.7c4.4,5.2,3.7,12.9-1.5,17.3s-12.9,3.7-17.3-1.5
			c-1.1-1.3-1.9-2.8-2.4-4.4c-0.2-0.5-0.3-1.1-0.4-1.7c-1-6.7,3.6-12.9,10.3-13.9c3.6-0.5,7.2,0.5,9.9,2.9
			C-9455.4-3865.7-9455.2-3865.4-9455-3865.2z"/>
		<path class="st2" d="M-9455-3865.2c0.2,0.2,0.4,0.4,0.6,0.7l-14.7,11.2l13.4-12.6C-9455.4-3865.7-9455.2-3865.4-9455-3865.2z"/>
		<path class="st2" d="M-9453.8-3857.7l-10.7,13.3c-0.7,0-1.4-0.2-2.1-0.3L-9453.8-3857.7z"/>
		<path class="st2" d="M-9466.7-3864.1l-8.8,10.9c-0.2-0.5-0.3-1.1-0.4-1.7L-9466.7-3864.1z"/>
		<path class="st3" d="M-9697.1-3764.6l-0.2,0l0.5,1.9c0.5,2.6,1.2,5.2,2,7.7l14.6,55.3c1,3.6,3.9,6.3,7.6,6.9l29.7,4.6
			c3.9,0.6,7.8-1.3,9.7-4.8l28.2-52.7c0.9-1.5,1.7-3,2.4-4.5l1-1.8l-0.1,0c10.7-25.4-1.1-54.6-26.5-65.4
			c-25.4-10.7-54.6,1.1-65.4,26.5C-9697.1-3782.5-9698.3-3773.5-9697.1-3764.6L-9697.1-3764.6z"/>
		<path class="st2" d="M-9641-3684.5c-0.5,0-1,0-1.6-0.1l-31-4.8c-4-0.6-7.3-3.6-8.3-7.5l-15.2-57.8c-0.9-2.6-1.6-5.4-2.1-8.1
			l-0.4-2.5c-3.7-28.8,16.7-55.1,45.5-58.8c4.9-0.6,9.8-0.6,14.7,0.2l-0.1,0.9c-28.2-4.4-54.6,15-59,43.2c-0.8,5-0.8,10-0.1,15
			l0.3,1.9c0.5,2.7,1.2,5.4,2.1,8.1l15.2,57.9c0.9,3.6,3.9,6.3,7.6,6.9l31,4.8c3.9,0.6,7.8-1.3,9.7-4.8l0.8,0.4
			C-9633.8-3686.6-9637.3-3684.5-9641-3684.5z"/>
		
			<rect x="-9669.5" y="-3726.6" transform="matrix(0.3439 -0.939 0.939 0.3439 -2827.3774 -11498.5732)" class="st2" width="54.9" height="1.1"/>
		
			<rect x="-9663.9" y="-3756.8" transform="matrix(0.999 -4.389837e-02 4.389837e-02 0.999 154.395 -427.8009)" class="st2" width="1.1" height="54.9"/>
		<path class="st3" d="M-9643.7-3658.3l-39.8-6.2c-0.6-0.1-1-0.7-0.9-1.3c0.1-0.6,0.7-1,1.3-0.9l0,0l39.8,6.2c0.6,0.1,1,0.7,0.9,1.3
			C-9642.5-3658.6-9643.1-3658.2-9643.7-3658.3L-9643.7-3658.3z"/>
		<path class="st3" d="M-9642.7-3666.8l-39.8-6.2c-0.6-0.1-1-0.7-0.9-1.3c0.1-0.6,0.7-1,1.3-0.9l39.8,6.2c0.6,0.1,1,0.7,0.9,1.3
			S-9642-3666.7-9642.7-3666.8L-9642.7-3666.8z"/>
		<path class="st3" d="M-9641.6-3675.2l-39.8-6.2c-0.6-0.1-1-0.7-0.9-1.3c0.1-0.6,0.7-1,1.3-0.9l39.8,6.2c0.6,0.1,1,0.7,0.9,1.3
			C-9640.4-3675.5-9641-3675.1-9641.6-3675.2L-9641.6-3675.2z"/>
		<path class="st3" d="M-9664.8-3653.4c7.9,1.2,15-2.2,15.8-7.6l-28.6-4.4C-9678.4-3660-9672.7-3654.6-9664.8-3653.4z"/>
		<path class="st2" d="M-9650.5-3762.8c-1.5-0.4-2.9-1.3-3.9-2.5c-0.3-0.3-0.5-0.6-0.7-0.9c-0.8-1.1-1.8-2-2.9-2.7
			c-2.6-1.2-5.7,0.5-8.3,2.3l-0.6-0.9c2.9-2,6.3-3.8,9.4-2.4c1.3,0.7,2.5,1.8,3.3,3c0.2,0.3,0.5,0.6,0.7,0.9
			c0.8,0.9,2.4,2.4,4.1,2.1c0.7-0.2,1.4-0.6,2-1c0.4-0.3,0.9-0.6,1.4-0.9c2-1,4.4-0.6,6.1,0.9c0.3,0.3,0.6,0.6,0.8,0.9
			c0.4,0.6,1,1,1.6,1.3c0.9,0.3,1.9-0.2,2.9-0.8c1-0.7,2.2-1.1,3.4-1l0.1,0c2.2,0.3,3.3,2.8,3.8,4.7l-1.1,0.3
			c-0.8-2.5-1.8-3.8-3-3.9c-1,0-1.9,0.3-2.8,0.9c-1.2,0.6-2.4,1.3-3.8,0.9c-0.8-0.3-1.6-0.9-2.1-1.7c-0.2-0.3-0.5-0.5-0.7-0.8
			c-1.3-1.2-3.2-1.4-4.8-0.7c-0.4,0.2-0.8,0.5-1.2,0.8c-0.7,0.6-1.5,1-2.4,1.2C-9649.6-3762.8-9650.1-3762.8-9650.5-3762.8z"/>
	</g>
</g>
</svg>
