<svg xmlns="http://www.w3.org/2000/svg" width="689" height="584.72" viewBox="0 0 689 584.72"><defs><style>.a{fill:#f2f2f2;}.b{fill:#2f2e41;}.c{fill:#ffb9b9;}.d{opacity:0.1;}.e{fill:#575a89;}.f,.h{opacity:0.2;}.g{fill:#ffc20e;}.h,.i,.n{fill:none;stroke-miterlimit:10;}.h{stroke:#000;}.h,.i{stroke-width:2px;}.i,.n{stroke:#3f3d56;}.j{fill:#3f3d56;}.k{fill:#9f616a;}.l{fill:#d0cde1;}.m{fill:#57b894;}</style></defs><g transform="translate(0 46)"><circle class="a" cx="276.874" cy="276.874" r="276.874" transform="translate(10.03 -46)"/><g transform="translate(309.473 195.096)"><ellipse class="a" cx="189.764" cy="30.362" rx="189.764" ry="30.362" transform="translate(0 282.389)"/><path class="b" d="M866.392,435.945s1.616,5.385-7.54,10.232S847,469.333,857.775,474.718s14,12.386,8.617,17.233-15.079,17.772-2.154,21,14.54,9.693,10.771,12.386,8.616-4.847,8.616-4.847,2.154,12.925,13.463,9.694,43.082-64.623,26.926-73.24S866.392,435.945,866.392,435.945Z" transform="translate(-718.79 -415.035)"/><path class="c" d="M888.844,497.1s5.586,19.552-4.19,20.948a38.167,38.167,0,0,0-16.758,6.983l18.155,23.741h33.517l20.948-20.948s-27.931-20.948-22.345-33.517S888.844,497.1,888.844,497.1Z" transform="translate(-721.723 -424.188)"/><path class="d" d="M888.844,497.1s5.586,19.552-4.19,20.948a38.167,38.167,0,0,0-16.758,6.983l18.155,23.741h33.517l20.948-20.948s-27.931-20.948-22.345-33.517S888.844,497.1,888.844,497.1Z" transform="translate(-721.723 -424.188)"/><path class="c" d="M852.787,736.517l32.121,11.172,22.344,1.4-1.4-19.552L859.769,715.9Z" transform="translate(-677.287 -420.609)"/><path class="e" d="M953,783.047S953,802.6,955.8,802.6s40.5-4.19,51.672,0,27.931-11.172,19.551-19.551-22.047-20.948-30.575-18.155S953,774.667,953,774.667Z" transform="translate(-736.305 -471.329)"/><path class="e" d="M827.185,764.974s-16.759,33.517-5.586,36.31,23.741-1.4,25.138-2.793,20.948-6.983,23.741-4.19,2.793-11.172,2.793-11.172Z" transform="translate(-713.133 -471.411)"/><path class="b" d="M843.057,709.359s-26.534,36.31-6.983,46.086,113.12,9.776,120.1,0,9.776-40.5,0-43.293S843.057,709.359,843.057,709.359Z" transform="translate(-715.04 -461.882)"/><path class="f" d="M843.057,709.359s-26.534,36.31-6.983,46.086,113.12,9.776,120.1,0,9.776-40.5,0-43.293S843.057,709.359,843.057,709.359Z" transform="translate(-715.04 -461.882)"/><circle class="c" cx="32.12" cy="32.12" r="32.12" transform="translate(146.172 18.444)"/><path class="g" d="M845.987,531.248l27.931-5.586s6.983,22.345,29.327,18.155,27.931-18.155,27.931-18.155,16.759,6.983,18.155,6.983,19.551,6.983,19.551,11.172S947.934,589.9,947.934,589.9l2.793,75.413-103.344-2.793,6.983-74.017Z" transform="translate(-717.969 -430.407)"/><path class="c" d="M826.474,576.22s-8.379,74.017-2.793,79.6,27.931,20.948,27.931,20.948V660.013l-11.172-20.948,11.172-48.879Z" transform="translate(-713.819 -439.07)"/><path class="c" d="M995.957,573.693s-4.888,76.111-4.888,78.9-12.569,12.568-16.758,12.568-6.983-6.982-6.983-6.982l9.776-11.173-6.982-57.258Z" transform="translate(-738.76 -438.637)"/><path class="b" d="M972.44,699.409s62.844-34.913,64.24,0-32.12,48.879-32.12,48.879-86.586,25.964-90.077,16.473-10.474-24.852-4.888-26.249,12.569-4.19,15.362-1.4,37.707-20.948,37.707-20.948Z" transform="translate(-728.51 -457.518)"/><path class="h" d="M1013.173,697.562s-12.569,5.586-16.759,9.775-22.345,11.172-22.345,11.172" transform="translate(-739.915 -459.861)"/><path class="g" d="M849.638,535.2l-8.379-2.793s-30.724,32.121-20.948,40.5,15.362,11.172,18.155,13.966,16.758,4.19,16.758,4.19Z" transform="translate(-713.241 -431.562)"/><path class="g" d="M975.083,544.2l12.569,2.793s9.776,20.948,12.569,23.741-4.19,1.4-8.379,6.982-8.379,15.362-16.758,15.362-19.552-13.965-19.552-13.965Z" transform="translate(-736.739 -433.584)"/><path class="b" d="M834.162,713.634s-53.068-37.706-71.223-9.776,78.206,65.637,92.171,71.224,26.534,11.172,26.534,11.172,12.569-30.724,12.569-36.31-9.775-5.586-12.569-5.586-15.362-2.793-18.155-6.983S834.162,713.634,834.162,713.634Z" transform="translate(-703.352 -459.174)"/><path class="h" d="M813.966,705.988s13.965,11.172,26.534,13.965,16.759,9.776,16.759,9.776" transform="translate(-712.483 -461.304)"/><path class="e" d="M837.732,641.062l1.116,59.13a7.4,7.4,0,0,0,7.484,7.262l110.038-1.236a7.4,7.4,0,0,0,7.307-6.976l3.34-57.894a7.4,7.4,0,0,0-7.39-7.828H845.133a7.4,7.4,0,0,0-7.4,7.542Z" transform="translate(-716.555 -448.888)"/><path class="b" d="M905.152,423.04s1.79,5.966-8.352,11.335-13.125,25.653-1.193,31.619,15.511,13.721,9.545,19.091-16.7,19.687-2.386,23.267,16.108,10.738,11.932,13.721,9.545-5.369,9.545-5.369,2.386,14.318,14.915,10.739,25.028-68.646,11.063-85.4C937.234,426.454,905.152,423.04,905.152,423.04Z" transform="translate(-725.143 -412.824)"/><path class="b" d="M904.129,414.787c0-8.74,26.152-2.46,37.363,9.743,7.763,8.451,19.555,21.164,9.674,30.126s16.938,20.71,24.13,24.272,21.394,14.455,8.571,21.762-12.616,14.684-7.791,16.43-10.64-2.6-10.64-2.6,1.563,14.431-11.467,14.362-50.409-71.675-41.48-91.578C920.794,418.8,904.129,414.787,904.129,414.787Z" transform="translate(-727.931 -410.712)"/><path class="b" d="M903.009,413.293c-34.967-2.106-38.477,24.216-38.477,24.216.242,15.232,24.431,7.81,31.149,10.081,8.106-5.831,23.73-16.863,34.9-24.737A52.848,52.848,0,0,0,903.009,413.293Z" transform="translate(-721.147 -411.134)"/></g><path class="i" d="M758.473,441.973s7.681-54.931-134.3-132.053" transform="translate(-280.375 -94.17)"/><path class="j" d="M578.754,254.891l.284,1.166-5.743,1.393,1.809,5.627-1.142.366-2.2-6.854Z" transform="translate(-229.11 -41.459)"/><g transform="translate(0 112.486)"><ellipse class="a" cx="88.639" cy="14.182" rx="88.639" ry="14.182" transform="translate(0 397.869)"/><path class="b" d="M238.037,789.549l3.822-2.84s2.53,14.132-.293,16.25-13.41,5.646-13.41,9.881-24,9.881-24.7,3.529,2.117-9.881,2.117-9.881,11.293-11.293,12.7-13.41,4.941-6.352,4.941-6.352Z" transform="translate(-111.802 -397.686)"/><path class="b" d="M167,492.814s.106.621.289,1.757c.17,1.009.4,2.435.685,4.192,2.964,18.089,11.61,71.342,11.024,73.1-.706,2.117-5.646,9.881,0,12a4.382,4.382,0,0,1,1.757,1.913,41.028,41.028,0,0,1,2.985,7.044c3.367,9.768,6.966,25.4,9.048,36.229.91,4.757,1.531,8.582,1.715,10.587a5.756,5.756,0,0,1,.021,1.4c-.706,2.823,4.235,12.7,6.352,15.528s5.646,5.646,4.941,8.469,17.645,10.587,19.762,5.646,2.117-7.764,2.823-9.175,1.412-11.293-2.117-12.7-1.412-26.115-4.941-31.055c-1.179-1.645-2.978-7.213-4.863-13.911-.741-2.625-1.489-5.42-2.223-8.222-2.978-11.483-5.618-23.037-5.618-23.037l.706-82.578-38.819-4.941-1,2.2-1.983,4.355Z" transform="translate(-97.225 -276.695)"/><path class="b" d="M145.759,722.6s-5.646-5.646-8.47,0-5.646,27.526-10.587,32.466-11.293,29.643-4.235,31.055S137.289,784,138,779.767s15.527-26.114,15.527-28.232-9.881-9.881-9.881-9.881Z" transform="translate(-78.105 -370.965)"/><path class="b" d="M246.836,431.9s-9.175,82.578-11.293,90.342-13.41,37.407-16.939,42.348-26.114,45.171-28.938,47.288-8.47,7.764-8.47,7.764-10.587,10.587-12,12.7-13.41-4.235-14.116-8.469.706-11.293,1.412-14.116-1.412-7.058.706-9.175,12.7-12.7,12.7-17.645,18.351-33.878,25.409-40.23,5.646-16.939,5.646-16.939V482.717l-38.819-12s2.117-33.878,7.058-33.878S239.072,425.548,246.836,431.9Z" transform="translate(-92.37 -254.599)"/><circle class="k" cx="23.291" cy="23.291" r="23.291" transform="translate(74.006 12.851)"/><path class="k" d="M205.122,220.1s2.823,10.587,6.352,13.41S202.3,248.33,202.3,248.33l-24,1.412-4.235-13.41s7.764-15.527,5.646-25.409S205.122,220.1,205.122,220.1Z" transform="translate(-100.061 -165.605)"/><path class="g" d="M212.167,248.18s-6.352.706-7.764,2.823-11.293,8.469-19.057,7.058-12.7-3.529-14.116-2.823S167,270.765,167,270.765l7.764,22.585-1.412,62.11L171.231,372.4s-4.235-5.646,12.7-2.117,38.819-2.823,45.877-3.529,19.056-2.823,19.762-7.058-2.117-19.762-2.117-19.762l-11.293-47.288-7.058-25.409Z" transform="translate(-97.225 -181.689)"/><path class="l" d="M231.271,241.846s5.97-3.167,8.088-.344,28.938,7.058,28.938,9.175,5.646,59.287,4.235,64.227,2.823,10.587,2.823,10.587l4.941,21.174s13.41,40.23,7.764,41.642-10.587,0-12.7,0-1.412-26.82-7.058-33.878-13.41-24.7-14.822-28.232-19.056-52.229-18.351-57.875S231.271,241.846,231.271,241.846Z" transform="translate(-123.005 -178.541)"/><path class="l" d="M162.464,248.18s-5.646,0-6.352,1.412-7.764,10.587-10.587,12.7-12.7,11.293-12.7,13.41,20.468,17.645,20.468,17.645,8.47,41.642,4.235,55.758S146.937,397.1,149.76,399.22s9.175,2.823,9.175,0,4.235-33.172,7.764-39.524,14.116-46.582,9.881-57.875S162.464,248.18,162.464,248.18Z" transform="translate(-83.518 -181.689)"/><path class="k" d="M304.314,364.847s.706,21.88-7.058,33.172a134.127,134.127,0,0,0-12.7,24s-12.7-3.529-14.822-7.764-15.528-.706-15.528-2.117,16.233-8.47,17.645-9.881,6.352-1.412,9.175-4.235,3.529-9.175,3.529-9.175l2.823-18.351Z" transform="translate(-132.203 -228.483)"/><path class="b" d="M208.446,158.941a13.422,13.422,0,0,0,5.223-1.2,6.994,6.994,0,0,0,1.788-10.356,13.383,13.383,0,0,0-2.481-2l-5.365-3.652a26.243,26.243,0,0,0-7.569-4.018,23.627,23.627,0,0,0-7.738-.457,52.283,52.283,0,0,0-14.822,2.7,24.806,24.806,0,0,0-12.01,8.788c-4.542,6.573-4.6,15.437-2.1,23.025s7.254,14.2,11.937,20.668l2.43-11.855a4.376,4.376,0,0,1,1.374-2.838c2.183-1.553,4.853,1.636,7.532,1.615a4.511,4.511,0,0,0,3.819-3.022,17.221,17.221,0,0,0,.846-5.072c.32-3.632,1.589-8.685,5.029-10.689C199.541,158.717,204.844,159.268,208.446,158.941Z" transform="translate(-95.107 -137.16)"/><path class="d" d="M234.6,498.819s-2.384,68.951-3.8,71.069,0-71.285,0-71.285Z" transform="translate(-122.565 -282.13)"/><path class="l" d="M283.664,257.607h5.646s24,32.467,21.174,34.584,0,7.764,0,7.764l5.646,10.587s7.058,6.352,4.941,7.764-4.941,7.058-4.941,7.058-14.116-2.117-18.351,6.352l-9.154-11.556Z" transform="translate(-144.019 -185.47)"/><rect class="b" width="20.962" height="39.063" transform="translate(122.265 90.581) rotate(-22.438)"/><ellipse class="g" cx="4.192" cy="3.851" rx="4.192" ry="3.851" transform="translate(132.554 98.237) rotate(-22.438)"/><path class="k" d="M218.85,331.562S168.033,373.91,159.564,360.5s9.175-24.7,9.175-24.7,15.528.706,33.172-10.587l17.645-7.764s16.108-23,21.6-14.24S231.784,327.2,218.85,331.562Z" transform="translate(-93.321 -202.961)"/><path class="l" d="M138.694,289.426l-7.764,2.823v21.174l-2.823,4.235s.706,8.47,2.823,10.587,6.352,1.412,4.941,6.352a26.753,26.753,0,0,0-.706,9.881s12.7,16.233,13.41,14.116,10.587-28.232,12-28.232-14.116-40.936-14.116-40.936Z" transform="translate(-81.627 -198.232)"/><path class="b" d="M290.7,459.74s7.3-7.058,3.649-7.411-16.353-7.411-18.471-3.882S290.7,459.74,290.7,459.74Z" transform="translate(-140.824 -261.619)"/></g><path class="g" d="M95.064,776.814c0,13.465-8,18.167-17.879,18.167q-.343,0-.685-.008c-.458-.01-.911-.032-1.358-.062-8.912-.631-15.836-5.574-15.836-18.1,0-12.96,16.561-29.313,17.805-30.523l0,0,.072-.07S95.064,763.349,95.064,776.814Z" transform="translate(-54.028 -268.999)"/><path class="j" d="M83.247,792.921l6.539-9.137-6.556,10.14-.017,1.049c-.458-.01-.911-.032-1.358-.062l.7-13.472-.005-.1.012-.02.066-1.272-6.572-10.166,6.593,9.211.015.27L83.2,769.18l-5.626-10.5,5.7,8.718.554-21.1,0-.072v.07l-.093,16.641,5.6-6.6-5.624,8.03-.148,9.113,5.23-8.746-5.252,10.087-.083,5.066,7.593-12.173L83.43,781.652Z" transform="translate(-60.743 -268.999)"/><ellipse class="m" cx="10.188" cy="5.394" rx="10.188" ry="5.394" transform="translate(278.67 164.955)"/><path class="n" d="M551.418,241.926q-34.459-13.015-68.918,0V213.76a119.282,119.282,0,0,1,68.918,0Z" transform="translate(-223.607 -53.599)"/><path class="n" d="M548.241,238.393a68.2,68.2,0,0,0-49.741,0V218.064a86.09,86.09,0,0,1,49.741,0Z" transform="translate(-230.018 -55.891)"/><ellipse class="n" cx="10.188" cy="5.394" rx="10.188" ry="5.394" transform="translate(282.266 162.557)"/><ellipse class="m" cx="10.188" cy="5.394" rx="10.188" ry="5.394" transform="matrix(0.98, -0.2, 0.2, 0.98, 284.209, 200.989)"/><path class="n" d="M563.969,288.313q-36.366-5.861-67.526,13.782l-5.633-27.6a119.281,119.281,0,0,1,67.526-13.782Z" transform="translate(-226.937 -74.252)"/><path class="n" d="M559.961,287.217a68.2,68.2,0,0,0-48.736,9.947l-4.065-19.918A86.089,86.089,0,0,1,555.9,267.3Z" transform="translate(-233.488 -76.946)"/><ellipse class="n" cx="10.188" cy="5.394" rx="10.188" ry="5.394" transform="matrix(0.98, -0.2, 0.2, 0.98, 287.252, 197.921)"/><ellipse class="m" cx="5.394" cy="10.188" rx="5.394" ry="10.188" transform="translate(282.621 242.432) rotate(-86.019)"/><path class="n" d="M556.465,357.112q-33.472-15.375-68.752-4.784l1.955-28.1a119.284,119.284,0,0,1,68.752,4.784Z" transform="translate(-225.695 -98.714)"/><path class="n" d="M553.97,352.976a68.2,68.2,0,0,0-49.621-3.453l1.411-20.28a86.09,86.09,0,0,1,49.621,3.453Z" transform="translate(-232.362 -101.054)"/><ellipse class="n" cx="5.394" cy="10.188" rx="5.394" ry="10.188" transform="translate(286.374 240.29) rotate(-86.019)"/><path class="i" d="M414.94,264.622s-44.046-6.026-75.5,12.408" transform="translate(-166.281 -75.641)"/><path class="j" d="M289.253,224.459l1.144.362-1.788,5.633,5.75,1.372-.28,1.167-7-1.673Z" transform="translate(-115.035 -29.265)"/></g></svg>