<svg xmlns="http://www.w3.org/2000/svg" width="150" height="150" viewBox="0 0 150 150">
  <g id="Group_5" data-name="Group 5" transform="translate(0 218)">
    <rect id="Rectangle_1" data-name="Rectangle 1" width="150" height="150" transform="translate(0 -218)" fill="#fff"/>
    <g id="value" transform="translate(4.274 -213.6)">
      <path id="Path_8215" data-name="Path 8215" d="M106.111,285.8l-.469.253a6.482,6.482,0,0,0-7.672-1.91l-.026.013-1.107.591a8.441,8.441,0,0,0-9.622-.864l-5.957,3.22H73.33a11.506,11.506,0,0,1-4.957-1.129l-1.091-.525a18.8,18.8,0,0,0-19.471,1.891.755.755,0,0,0-.075.062L45.1,289.733a9.148,9.148,0,0,1-3.446,1.91l-1.5-4.88a1.183,1.183,0,0,0-1.134-.835H26.293a1.189,1.189,0,0,0-.888.4,1.174,1.174,0,0,0-.289.924l4.245,34.6a1.183,1.183,0,0,0,1.177,1.036h19.1a1.188,1.188,0,0,0,.953-.477,1.173,1.173,0,0,0,.182-1.045l-2.509-8.186,7.815-4.911a4.731,4.731,0,0,1,3.431-.441c.024.006.049.012.074.016l15.9,2.91a20.677,20.677,0,0,0,12.711-1.784,1.167,1.167,0,0,0,.145-.085l27.494-18.77a1.174,1.174,0,0,0,.345-1.58A7.572,7.572,0,0,0,106.111,285.8Zm-7.056.438a4.065,4.065,0,0,1,4.427.973L93.055,292.8l-.612.321a8.97,8.97,0,0,0-1.428-2.579Zm-10.692-.291.028-.016a6.06,6.06,0,0,1,6.132.057l-5.3,2.838a9.033,9.033,0,0,0-3.386-1.515ZM31.587,320.529l-3.951-32.243H38.149l9.888,32.245Zm55.475-13.638A18.279,18.279,0,0,1,75.9,308.433l-15.857-2.9a7.1,7.1,0,0,0-5.153.694l-.055.032-7.294,4.586-5.2-16.942a11.53,11.53,0,0,0,4.33-2.408l2.6-2.3a16.425,16.425,0,0,1,16.975-1.624l1.091.525a13.9,13.9,0,0,0,5.99,1.364H83.9a6.674,6.674,0,0,1,6.56,5.4l-7.665-.345a46.169,46.169,0,0,0-8.341.384,1.183,1.183,0,1,0,.325,2.335,43.708,43.708,0,0,1,7.909-.363l9.021.406h.054a1.183,1.183,0,0,0,1.183-1.183c0-.191-.008-.379-.019-.568l1.237-.648,13.069-7.012a5.2,5.2,0,0,1,6.232.993Z" transform="translate(0 -206.615)" fill="#1553a5"/>
      <path id="Path_8216" data-name="Path 8216" d="M76.974,435.008a3.71,3.71,0,1,0,3.71-3.71A3.71,3.71,0,0,0,76.974,435.008Zm3.71-1.352a1.352,1.352,0,1,1-1.352,1.352A1.352,1.352,0,0,1,80.684,433.657Z" transform="translate(-41.678 -325.971)" fill="#1553a5"/>
      <path id="Path_8217" data-name="Path 8217" d="M228.427,37.818V33.932a8.946,8.946,0,1,0-17.892,0v3.886a8.946,8.946,0,1,0,17.892,0Zm-15.535,0V33.932a6.589,6.589,0,1,1,13.179,0v3.886a6.589,6.589,0,1,1-13.179,0Z" transform="translate(-148.74 0)" fill="#1553a5"/>
      <path id="Path_8218" data-name="Path 8218" d="M92.291,162.395H121.34a1.183,1.183,0,0,0,1.187-1.183v-2.7h19.886a1.183,1.183,0,0,0,1.187-1.183v-7.65a8.861,8.861,0,0,0-8.331-8.811,1.388,1.388,0,0,0-1.222.672,5.472,5.472,0,0,1-8.595-.209,1.19,1.19,0,0,0-.984-.478,8.847,8.847,0,0,0-4.367,1.267,10,10,0,0,0-6.964-3.429,1.445,1.445,0,0,0-1.224.707,6.42,6.42,0,0,1-10.086-.244,1.183,1.183,0,0,0-.984-.477,9.968,9.968,0,0,0-6.894,2.985c-.15.152-.292.31-.431.47a8.87,8.87,0,0,0-4.047-1.261,1.39,1.39,0,0,0-1.222.672,5.472,5.472,0,0,1-8.595-.209,1.193,1.193,0,0,0-.984-.478A8.86,8.86,0,0,0,70,149.683v7.65a1.183,1.183,0,0,0,1.187,1.183H91.1v2.7a1.183,1.183,0,0,0,1.187,1.176Zm31.669-19.143a7.861,7.861,0,0,0,11.713.03,6.5,6.5,0,0,1,5.553,6.4v6.471h-18.7v-7.561a9.8,9.8,0,0,0-1.1-4.513,6.449,6.449,0,0,1,2.531-.829Zm-23.633-2.181a8.809,8.809,0,0,0,13.243.031,7.589,7.589,0,0,1,6.581,7.492v11.444H93.478V148.593A7.635,7.635,0,0,1,100.328,141.071ZM72.374,156.154v-6.471a6.534,6.534,0,0,1,5.788-6.43,7.856,7.856,0,0,0,11.711.03,6.5,6.5,0,0,1,2.316.812,9.816,9.816,0,0,0-1.086,4.5v7.561Z" transform="translate(-36.074 -91.181)" fill="#1553a5"/>
      <path id="Path_8219" data-name="Path 8219" d="M347.085,61.636v-3.4a7.977,7.977,0,0,0-15.955,0v3.4a7.977,7.977,0,1,0,15.955,0Zm-13.6,0v-3.4a5.62,5.62,0,1,1,11.24,0v3.4a5.62,5.62,0,1,1-11.24,0Z" transform="translate(-245.486 -20.307)" fill="#1553a5"/>
      <path id="Path_8220" data-name="Path 8220" d="M115.6,61.636v-3.4a7.977,7.977,0,1,0-15.955,0v3.4a7.977,7.977,0,0,0,15.955,0Zm-13.6,0v-3.4a5.62,5.62,0,1,1,11.24,0v3.4a5.62,5.62,0,1,1-11.24,0Z" transform="translate(-59.793 -20.307)" fill="#1553a5"/>
    </g>
  </g>
</svg>
