<svg xmlns="http://www.w3.org/2000/svg" xmlns:xlink="http://www.w3.org/1999/xlink" width="150" height="150" viewBox="0 0 150 150">
  <defs>
    <clipPath id="clip-path">
      <rect id="Rectangle_8" data-name="Rectangle 8" width="108" height="108" transform="translate(1387 2271)" fill="#5197ed"/>
    </clipPath>
    <clipPath id="clip-path-2">
      <path id="Path_32" data-name="Path 32" d="M-121.211-5.648,140.883,30.739,72.425,67.133v73.989Z" transform="translate(37.059 -12.887)" fill="#fff" stroke="#707070" stroke-width="1"/>
    </clipPath>
  </defs>
  <g id="Group_49" data-name="Group 49" transform="translate(-863 218)">
    <g id="Group_48" data-name="Group 48">
      <path id="Path_36" data-name="Path 36" d="M0,0H150V150H0Z" transform="translate(863 -218)" fill="#fff"/>
      <g id="valueicon6" transform="translate(-503 -2473)" clip-path="url(#clip-path)">
        <g id="Group_42" data-name="Group 42" transform="translate(-14.297 -2.112)">
          <path id="Path_28" data-name="Path 28" d="M79.234,9.288H73.992a10.333,10.333,0,0,0-4.138-7.224h9.381a1.032,1.032,0,0,0,0-2.064H57.4a1.032,1.032,0,1,0,0,2.064h6.254A8.34,8.34,0,0,1,71.92,9.289H57.4a1.032,1.032,0,1,0,0,2.064H71.92a8.353,8.353,0,0,1-8.266,7.327H57.407a1.048,1.048,0,0,0-1.032,1.063,1.066,1.066,0,0,0,.32.743L72.309,35.253a1.028,1.028,0,0,0,1.455-.041,1.053,1.053,0,0,0-.041-1.476L59.987,20.743H63.64a10.425,10.425,0,0,0,10.351-9.391h5.242a1.032,1.032,0,0,0,0-2.064Z" transform="translate(1372.478 2317.16)" fill="#1d294a" stroke="#1d294a" stroke-width="0.7"/>
          <g id="Group_40" data-name="Group 40" transform="translate(1467.266 2324.812)">
            <g id="Group_35" data-name="Group 35" transform="translate(0 14.56)">
              <g id="Group_34" data-name="Group 34">
                <path id="Path_29" data-name="Path 29" d="M146.659,39.224H120.173a7.6,7.6,0,0,0-7.593,7.593V73.3a7.6,7.6,0,0,0,7.593,7.593h26.486a7.6,7.6,0,0,0,7.593-7.593V46.817a7.6,7.6,0,0,0-7.593-7.593ZM150.021,73.3a3.366,3.366,0,0,1-3.361,3.361H120.174a3.366,3.366,0,0,1-3.361-3.361V46.817a3.366,3.366,0,0,1,3.361-3.361H146.66a3.366,3.366,0,0,1,3.361,3.361Z" transform="translate(-112.58 -39.224)" fill="#1d294a" stroke="#fff" stroke-width="1.5"/>
              </g>
            </g>
            <g id="Group_37" data-name="Group 37" transform="translate(14.596 24.997)">
              <g id="Group_36" data-name="Group 36">
                <path id="Path_30" data-name="Path 30" d="M142.773,56.35a6.226,6.226,0,0,0-2.08,12.1v8.7h4.16v-8.7a6.226,6.226,0,0,0-2.08-12.1Z" transform="translate(-136.533 -56.35)" fill="#1d294a" stroke="#fff" stroke-width="1.5"/>
              </g>
            </g>
            <g id="Group_39" data-name="Group 39" transform="translate(8.321)">
              <g id="Group_38" data-name="Group 38">
                <path id="Path_31" data-name="Path 31" d="M139.638,15.33h-1.773a11.642,11.642,0,0,0-11.629,11.629v5.047a2.116,2.116,0,0,0,2.115,2.115h20.8a2.117,2.117,0,0,0,2.116-2.115V26.959A11.641,11.641,0,0,0,139.638,15.33Zm7.4,14.561H130.467v-2.93a7.406,7.406,0,0,1,7.4-7.4h1.773a7.406,7.406,0,0,1,7.4,7.4v2.93Z" transform="translate(-126.235 -15.33)" fill="#1d294a" stroke="#fff" stroke-width="1.5"/>
              </g>
            </g>
          </g>
          <g id="Group_41" data-name="Group 41" transform="translate(1343.941 2275.887)" clip-path="url(#clip-path-2)">
            <g id="Ellipse_2" data-name="Ellipse 2" transform="translate(58.142 12.167)" fill="none" stroke="#ffc20e" stroke-width="3">
              <ellipse cx="47.08" cy="45.985" rx="47.08" ry="45.985" stroke="none"/>
              <ellipse cx="47.08" cy="45.985" rx="45.58" ry="44.485" fill="none"/>
            </g>
          </g>
        </g>
      </g>
    </g>
  </g>
</svg>
