<svg xmlns="http://www.w3.org/2000/svg" width="150" height="150" viewBox="0 0 150 150">
  <g id="Group_45" data-name="Group 45" transform="translate(-333 218)">
    <path id="Path_33" data-name="Path 33" d="M0,0H150V150H0Z" transform="translate(333 -218)" fill="#fff"/>
    <g id="valueicon3" transform="translate(-1048 -2408)">
      <g id="Group_14" data-name="Group 14" transform="translate(1414 2211)">
        <g id="Group_12" data-name="Group 12">
          <path id="Path_9" data-name="Path 9" d="M82.356,107H1V1H67.35l7.679,7.884.006.006.006.006,7.315,7.26Z" fill="#ffc20e"/>
          <path id="Path_10" data-name="Path 10" d="M2,2V106H81.356V16.572l-7.02-6.966-.012-.012-.012-.012L66.928,2H2M0,0H67.772l7.973,8.186,7.611,7.553V108H0Z" fill="#ffc20e"/>
        </g>
        <g id="Group_13" data-name="Group 13">
          <path id="Path_11" data-name="Path 11" d="M82.356,107H1V1H66.772V16.739H82.356Z" fill="#fff"/>
          <path id="Path_12" data-name="Path 12" d="M2,2V106H81.356V17.739H65.772V2H2M0,0H67.772V15.739H83.356V108H0Z" fill="#ffc20e"/>
        </g>
      </g>
      <line id="Line_3" data-name="Line 3" x2="13.772" transform="translate(1420.161 2232.383)" fill="none" stroke="#1d294a" stroke-width="2"/>
      <line id="Line_4" data-name="Line 4" x2="27.544" transform="translate(1420.161 2240.356)" fill="none" stroke="#1d294a" stroke-width="2"/>
      <line id="Line_5" data-name="Line 5" x2="27.544" transform="translate(1420.161 2256.302)" fill="none" stroke="#1d294a" stroke-width="2"/>
      <line id="Line_6" data-name="Line 6" x2="47.114" transform="translate(1420.161 2264.275)" fill="none" stroke="#1d294a" stroke-width="2"/>
      <line id="Line_7" data-name="Line 7" x2="60.161" transform="translate(1420.161 2248.329)" fill="none" stroke="#1d294a" stroke-width="2"/>
      <path id="Path_13" data-name="Path 13" d="M67.889,4.68H65.247a5.207,5.207,0,0,0-2.085-3.64h4.727a.52.52,0,0,0,0-1.04h-11a.52.52,0,1,0,0,1.04H60.04A4.2,4.2,0,0,1,64.2,4.68H56.885a.52.52,0,1,0,0,1.04H64.2a4.209,4.209,0,0,1-4.165,3.692H56.89a.528.528,0,0,0-.52.536.537.537,0,0,0,.161.374L64.4,17.764a.518.518,0,0,0,.733-.021A.531.531,0,0,0,65.112,17L58.19,10.452h1.841A5.253,5.253,0,0,0,65.247,5.72h2.642a.52.52,0,0,0,0-1.04Z" transform="translate(1366.934 2285.653)" fill="#1d294a" stroke="#1d294a" stroke-width="0.7"/>
      <g id="Group_15" data-name="Group 15" transform="translate(1463.638 2286.021)">
        <path id="Path_14" data-name="Path 14" d="M7.984,13.773a24.656,24.656,0,0,1-4.246-2.241A32.872,32.872,0,0,1,0,8.7,33.01,33.01,0,0,1,3.737,5.862a24.479,24.479,0,0,1,4.4-2.3A13.681,13.681,0,0,1,13.06,2.536a13.682,13.682,0,0,1,4.926,1.026l.149.059L21.758,0,18.136,3.622a24.739,24.739,0,0,1,4.246,2.241A32.9,32.9,0,0,1,26.12,8.7a33.073,33.073,0,0,1-3.738,2.835,24.5,24.5,0,0,1-4.4,2.3,13.678,13.678,0,0,1-4.926,1.026,13.687,13.687,0,0,1-4.928-1.026l-.148-.059L4.361,17.4Zm5.076-.364a4.709,4.709,0,0,0,3.33-8.041l-6.66,6.66a4.7,4.7,0,0,0,3.33,1.381ZM8.348,8.7A4.7,4.7,0,0,0,9.73,12.03l6.66-6.66A4.709,4.709,0,0,0,8.348,8.7Z" fill="none" stroke="#1d294a" stroke-linecap="round" stroke-linejoin="round" stroke-width="1.5"/>
      </g>
    </g>
  </g>
</svg>
