<svg xmlns="http://www.w3.org/2000/svg" width="150" height="150" viewBox="0 0 150 150">
  <g id="Group_46" data-name="Group 46" transform="translate(-510 218)">
    <path id="Path_34" data-name="Path 34" d="M0,0H150V150H0Z" transform="translate(510 -218)" fill="#fff"/>
    <g id="valueicon4" transform="translate(510.001 -197)">
      <g id="Group_17" data-name="Group 17" transform="translate(27.005)">
        <g id="Group_16" data-name="Group 16">
          <path id="Path_15" data-name="Path 15" d="M121.5,51.891H105.891V2.11a2.109,2.109,0,0,0-3.6-1.492L96.314,6.593,90.339.618a2.11,2.11,0,0,0-2.983,0L81.38,6.594,75.4.618a2.11,2.11,0,0,0-2.983,0L66.446,6.594,60.471.618a2.109,2.109,0,0,0-2.983,0L51.512,6.594,45.537.618a2.11,2.11,0,0,0-2.983,0L36.579,6.594,30.6.618A2.109,2.109,0,0,0,27,2.165V97.032A10.981,10.981,0,0,0,37.974,108h74.67a10.981,10.981,0,0,0,10.968-10.968V54a2.109,2.109,0,0,0-2.112-2.109Zm-83.529,51.89a6.757,6.757,0,0,1-6.75-6.75V7.2l3.863,3.863a2.11,2.11,0,0,0,2.983,0l5.975-5.975,5.975,5.975a2.11,2.11,0,0,0,2.983,0l5.98-5.97,5.976,5.975a2.109,2.109,0,0,0,2.983,0l5.975-5.975,5.975,5.975a2.11,2.11,0,0,0,2.983,0l5.975-5.975,5.975,5.975a2.109,2.109,0,0,0,2.983,0L101.673,7.2V97.032a10.911,10.911,0,0,0,2.332,6.75Zm81.419-6.75a6.75,6.75,0,0,1-13.5,0V56.11h13.5Z" transform="translate(-27.005)" fill="#ffc20e" stroke="#fff" stroke-width="2"/>
        </g>
      </g>
      <g id="Group_18" data-name="Group 18" transform="translate(81.419 33.509)">
        <path id="Path_16" data-name="Path 16" d="M291.192,158.856H287.08a2.109,2.109,0,0,0,0,4.219h4.111a2.109,2.109,0,0,0,0-4.219Z" transform="translate(-284.971 -158.856)" fill="#1d294a" stroke="#fff" stroke-width="1"/>
      </g>
      <g id="Group_20" data-name="Group 20" transform="translate(43.147 33.509)">
        <g id="Group_19" data-name="Group 19">
          <path id="Path_17" data-name="Path 17" d="M109.751,158.856H105.64a2.109,2.109,0,0,0,0,4.219h4.111a2.109,2.109,0,0,0,0-4.219Z" transform="translate(-103.53 -158.856)" fill="#1d294a" stroke="#fff" stroke-width="1"/>
        </g>
      </g>
      <g id="Group_22" data-name="Group 22" transform="translate(53.18 56.955)">
        <g id="Group_21" data-name="Group 21">
          <path id="Path_18" data-name="Path 18" d="M186.624,270.007H153.206a2.109,2.109,0,0,0,0,4.219h33.417a2.109,2.109,0,0,0,0-4.219Z" transform="translate(-151.097 -270.007)" fill="#1d294a" stroke="#fff" stroke-width="1"/>
        </g>
      </g>
      <g id="Group_24" data-name="Group 24" transform="translate(42.079 56.955)">
        <g id="Group_23" data-name="Group 23">
          <path id="Path_19" data-name="Path 19" d="M102.069,270.625a2.108,2.108,0,1,0,.618,1.491,2.108,2.108,0,0,0-.618-1.491Z" transform="translate(-98.468 -270.007)" fill="#1d294a" stroke="#fff" stroke-width="1"/>
        </g>
      </g>
      <g id="Group_26" data-name="Group 26" transform="translate(53.18 70.876)">
        <g id="Group_25" data-name="Group 25">
          <path id="Path_20" data-name="Path 20" d="M186.624,336.005H153.206a2.109,2.109,0,0,0,0,4.219h33.417a2.109,2.109,0,0,0,0-4.219Z" transform="translate(-151.097 -336.005)" fill="#1d294a" stroke="#fff" stroke-width="1"/>
        </g>
      </g>
      <g id="Group_28" data-name="Group 28" transform="translate(42.079 70.876)">
        <g id="Group_27" data-name="Group 27">
          <path id="Path_21" data-name="Path 21" d="M102.069,336.623a2.108,2.108,0,1,0,.618,1.491,2.108,2.108,0,0,0-.618-1.491Z" transform="translate(-98.468 -336.005)" fill="#1d294a" stroke="#fff" stroke-width="1"/>
        </g>
      </g>
      <g id="Group_30" data-name="Group 30" transform="translate(53.18 84.798)">
        <g id="Group_29" data-name="Group 29">
          <path id="Path_22" data-name="Path 22" d="M186.624,402H153.206a2.11,2.11,0,0,0,0,4.219h33.417a2.109,2.109,0,1,0,0-4.219Z" transform="translate(-151.097 -402.003)" fill="#1d294a" stroke="#fff" stroke-width="1"/>
        </g>
      </g>
      <g id="Group_32" data-name="Group 32" transform="translate(42.079 84.798)">
        <g id="Group_31" data-name="Group 31">
          <path id="Path_23" data-name="Path 23" d="M102.069,402.621a2.108,2.108,0,1,0,.618,1.491,2.108,2.108,0,0,0-.618-1.491Z" transform="translate(-98.468 -402.003)" fill="#1d294a" stroke="#fff" stroke-width="1"/>
        </g>
      </g>
      <path id="Path_24" data-name="Path 24" d="M67.476,4.513H64.929A5.02,5.02,0,0,0,62.919,1h4.558a.5.5,0,1,0,0-1H56.866a.5.5,0,0,0,0,1h3.039a4.052,4.052,0,0,1,4.016,3.51H56.866a.5.5,0,0,0,0,1h7.055a4.059,4.059,0,0,1-4.016,3.56H56.871a.509.509,0,0,0-.5.516.518.518,0,0,0,.155.361l7.586,7.175a.5.5,0,0,0,.707-.02.512.512,0,0,0-.02-.717l-6.674-6.313H59.9a5.065,5.065,0,0,0,5.029-4.563h2.547a.5.5,0,0,0,0-1Z" transform="translate(5.465 27.952)" fill="#1d294a" stroke="#1d294a" stroke-width="0.7"/>
    </g>
  </g>
</svg>
