<svg xmlns="http://www.w3.org/2000/svg" width="108" height="108.054" viewBox="0 0 108 108.054">
  <g id="value" transform="translate(-25.108 -24.989)">
    <path id="Path_8215" data-name="Path 8215" d="M120.994,286.356l-.555.3a7.673,7.673,0,0,0-9.082-2.261l-.031.016-1.31.7a9.992,9.992,0,0,0-11.39-1.023L91.575,287.9H82.19a13.62,13.62,0,0,1-5.868-1.337l-1.291-.621a22.253,22.253,0,0,0-23.049,2.238c-.031.023-.061.046-.089.073l-3.117,2.759a10.829,10.829,0,0,1-4.079,2.261l-1.77-5.777a1.4,1.4,0,0,0-1.342-.988H26.511a1.407,1.407,0,0,0-1.051.47,1.39,1.39,0,0,0-.342,1.094l5.025,40.96a1.4,1.4,0,0,0,1.393,1.226H54.145a1.406,1.406,0,0,0,1.128-.565,1.389,1.389,0,0,0,.215-1.237l-2.97-9.69,9.251-5.813a5.6,5.6,0,0,1,4.061-.522c.029.007.058.014.088.019l18.817,3.445a24.477,24.477,0,0,0,15.047-2.112,1.384,1.384,0,0,0,.172-.1L132.5,291.464a1.39,1.39,0,0,0,.408-1.87A8.963,8.963,0,0,0,120.994,286.356Zm-8.353.518a4.812,4.812,0,0,1,5.24,1.152l-12.342,6.62-.725.38a10.619,10.619,0,0,0-1.69-3.053Zm-12.656-.345.033-.019a7.173,7.173,0,0,1,7.259.068L101,289.937a10.693,10.693,0,0,0-4.008-1.793ZM32.777,327.467,28.1,289.3H40.545l11.705,38.17Zm65.668-16.144a21.638,21.638,0,0,1-13.209,1.825l-18.771-3.437a8.41,8.41,0,0,0-6.1.822c-.022.012-.044.025-.065.038L51.666,316l-6.151-20.055a13.648,13.648,0,0,0,5.126-2.85l3.073-2.72a19.443,19.443,0,0,1,20.094-1.922l1.291.621a16.458,16.458,0,0,0,7.09,1.615H94.707a7.9,7.9,0,0,1,7.765,6.392l-9.073-.408a54.649,54.649,0,0,0-9.874.454,1.4,1.4,0,1,0,.385,2.764,51.742,51.742,0,0,1,9.362-.43l10.678.48h.064a1.4,1.4,0,0,0,1.4-1.4c0-.226-.01-.449-.023-.672l1.464-.767,15.47-8.3a6.157,6.157,0,0,1,7.377,1.176Z" transform="translate(0 -197.214)" fill="#1553a5"/>
    <path id="Path_8216" data-name="Path 8216" d="M76.974,435.69a4.392,4.392,0,1,0,4.392-4.392A4.392,4.392,0,0,0,76.974,435.69Zm4.392-1.6a1.6,1.6,0,1,1-1.6,1.6,1.6,1.6,0,0,1,1.6-1.6Z" transform="translate(-39.806 -311.209)" fill="#1553a5"/>
    <path id="Path_8217" data-name="Path 8217" d="M231.714,40.176v-4.6a10.59,10.59,0,1,0-21.179,0v4.6a10.59,10.59,0,1,0,21.179,0Zm-18.389,0v-4.6a7.8,7.8,0,1,1,15.6,0v4.6a7.8,7.8,0,1,1-15.6,0Z" transform="translate(-141.999)" fill="#1553a5"/>
    <path id="Path_8218" data-name="Path 8218" d="M96.387,166.753h34.386a1.4,1.4,0,0,0,1.405-1.4v-3.2h23.54a1.4,1.4,0,0,0,1.405-1.4v-9.055a10.489,10.489,0,0,0-9.862-10.43,1.643,1.643,0,0,0-1.447.795,6.477,6.477,0,0,1-10.174-.247,1.409,1.409,0,0,0-1.165-.566,10.473,10.473,0,0,0-5.169,1.5,11.843,11.843,0,0,0-8.244-4.059,1.711,1.711,0,0,0-1.449.837,7.6,7.6,0,0,1-11.939-.289,1.4,1.4,0,0,0-1.165-.565,11.8,11.8,0,0,0-8.161,3.534c-.178.18-.346.367-.51.556a10.5,10.5,0,0,0-4.791-1.493,1.646,1.646,0,0,0-1.447.795,6.477,6.477,0,0,1-10.174-.247,1.412,1.412,0,0,0-1.165-.566A10.488,10.488,0,0,0,70,151.706v9.055a1.4,1.4,0,0,0,1.405,1.4H94.982v3.2A1.4,1.4,0,0,0,96.387,166.753Zm37.488-22.66a9.305,9.305,0,0,0,13.865.036,7.688,7.688,0,0,1,6.573,7.577v7.66H132.178v-8.95a11.6,11.6,0,0,0-1.3-5.342A7.634,7.634,0,0,1,133.874,144.093ZM105.9,141.511a10.428,10.428,0,0,0,15.676.037,8.983,8.983,0,0,1,7.79,8.868v13.547H97.792V150.416A9.038,9.038,0,0,1,105.9,141.511ZM72.81,159.366v-7.66a7.735,7.735,0,0,1,6.851-7.612,9.3,9.3,0,0,0,13.863.035,7.7,7.7,0,0,1,2.742.961,11.62,11.62,0,0,0-1.285,5.326v8.95Z" transform="translate(-34.454 -87.046)" fill="#1553a5"/>
    <path id="Path_8219" data-name="Path 8219" d="M350.016,63.727V59.7a9.443,9.443,0,0,0-18.886,0v4.024a9.443,9.443,0,0,0,18.886,0Zm-16.1,0V59.7a6.653,6.653,0,0,1,13.305,0v4.024a6.653,6.653,0,0,1-13.305,0Z" transform="translate(-234.363 -19.395)" fill="#1553a5"/>
    <path id="Path_8220" data-name="Path 8220" d="M118.532,63.727V59.7a9.443,9.443,0,1,0-18.886,0v4.024a9.443,9.443,0,1,0,18.886,0Zm-16.1,0V59.7a6.653,6.653,0,1,1,13.305,0v4.024a6.653,6.653,0,1,1-13.305,0Z" transform="translate(-57.084 -19.395)" fill="#1553a5"/>
  </g>
</svg>
