<svg xmlns="http://www.w3.org/2000/svg" width="150" height="150" viewBox="0 0 150 150">
  <g id="Group_44" data-name="Group 44" transform="translate(-167 218)">
    <rect id="Rectangle_9" data-name="Rectangle 9" width="150" height="150" transform="translate(167 -218)" fill="#fff"/>
    <g id="valueicon2" transform="translate(188 -197)">
      <path id="Path_4" data-name="Path 4" d="M156.382,67.935V66.194a6.975,6.975,0,0,0-6.968-6.968H145.93V0H100.64V46.571L91.107,63.253a19.061,19.061,0,0,0-1.155,16.623L101.2,108h28.646l6.133-23.011a36.508,36.508,0,0,0,1.237-9.426V74.9H149.41a6.975,6.975,0,0,0,6.972-6.965Zm-22.645,7.628a33.062,33.062,0,0,1-1.119,8.534l-5.446,20.419h-23.61L93.188,78.582a15.6,15.6,0,0,1,.944-13.6l6.508-11.389V69.677H119.8V80.129h3.484V54a5.226,5.226,0,0,1,10.452,0ZM128.511,45.29A8.72,8.72,0,0,0,119.8,54V66.194H104.124V3.484h38.323v62.71h-5.226V54a8.72,8.72,0,0,0-8.71-8.71ZM152.9,67.935a3.487,3.487,0,0,1-3.484,3.484h-12.2V69.677h8.71V62.71h3.484a3.487,3.487,0,0,1,3.484,3.484Z" transform="translate(-69.285)" fill="#ffc20e" stroke="#fff" stroke-width="1"/>
      <path id="Path_5" data-name="Path 5" d="M210.957,66.744,200.082,77.619,189.207,66.744l-2.463,2.463,10.875,10.875L186.744,90.957l2.463,2.463,10.875-10.875L210.957,93.42l2.463-2.463L202.545,80.082,213.42,69.207Z" transform="translate(-146.082 -52.211)" fill="#1d294a" stroke="#fff" stroke-width="1"/>
      <path id="Path_6" data-name="Path 6" d="M24.387,0H0V29.613H24.387ZM20.9,26.129H3.484V3.484H20.9Z" fill="#ffc20e" stroke="#fff" stroke-width="1"/>
      <path id="Path_7" data-name="Path 7" d="M29.1,53.237l4.109-3.426,4.109,3.426,2.233-2.679-3.62-3.015,3.62-3.015-2.233-2.679-4.109,3.426L29.1,41.849l-2.233,2.679,3.62,3.015-3.62,3.015Z" transform="translate(-21.021 -32.736)" fill="#1d294a" stroke="#fff" stroke-width="1"/>
      <path id="Path_8" data-name="Path 8" d="M384,0V29.613h24.387V0Zm20.9,26.129H387.484V3.484H404.9Z" transform="translate(-300.387)" fill="#ffc20e" stroke="#fff" stroke-width="1"/>
      <rect id="Rectangle_6" data-name="Rectangle 6" width="3.146" height="8.65" transform="translate(94.106 6.816)" fill="#1d294a" stroke="#fff" stroke-width="1"/>
      <rect id="Rectangle_7" data-name="Rectangle 7" width="3.146" height="3.146" transform="translate(94.106 19.398)" fill="#1d294a" stroke="#fff" stroke-width="1"/>
    </g>
  </g>
</svg>
