<?xml version="1.0" encoding="utf-8"?>
<!-- Generator: Adobe Illustrator 23.0.2, SVG Export Plug-In . SVG Version: 6.00 Build 0)  -->
<svg version="1.1" id="Layer_1" xmlns="http://www.w3.org/2000/svg" xmlns:xlink="http://www.w3.org/1999/xlink" x="0px" y="0px"
	 viewBox="0 0 323 274.1" style="enable-background:new 0 0 323 274.1;" xml:space="preserve">
<style type="text/css">
	.st0{fill:none;}
	.st1{fill:#E6E6E6;}
	.st2{fill:#F2F2F2;}
	.st3{fill:#FFC20E;}
	.st4{fill:#3F3D56;}
	.st5{fill:#2F2E41;}
	.st6{fill:#FFB9B9;}
	.st7{fill:#D0CDE1;}
	.st8{opacity:0.1;enable-background:new    ;}
	.st9{fill:#575A89;}
</style>
<rect class="st0" width="323" height="274.1"/>
<g transform="translate(13303.971 2089)">
	<path class="st1" d="M-13209.3-2017v-4.4h-16.8v4.4h-3.4v-61.4h-35.9v103h65.4v-41.6H-13209.3z"/>
	<path class="st2" d="M-13084.9-2028.2L-13084.9-2028.2L-13084.9-2028.2L-13084.9-2028.2c-0.9,0.9-10.4,10.2-14,19.7
		c-1.2-1.4-2.1-2.2-2.1-2.2l0,0l0,0c-0.7,0.7-10.1,10-10.1,17.3c0,7.1,3.9,9.9,9,10.3l-0.4,7h1l0.1-7c0.1,0,0.3,0,0.4,0
		c3.7,0,7-1.2,8.8-4.2c1.8,0.7,3.7,1.1,5.6,1.2l-0.6,10.7h1.6l0.2-10.6c0.2,0,0.4,0,0.6,0c8.5,0,15.5-4.1,15.5-15.7
		S-13084.9-2028.2-13084.9-2028.2z"/>
	<path class="st2" d="M-13121.7-2020.9v-6.1h-18.8v6.1h-8.7v-24.2h-8.4v-9.4h-18.8v9.4h-8.7v38.1c-1.3-1.6-2.6-3.1-4.1-4.5l0,0l0,0
		c-0.7,0.7-10.1,10-10.1,17.3c0,7.1,3.9,9.9,9,10.3l-0.4,7h1l0.1-7c0.1,0,0.3,0,0.4,0c1.4,0,2.7-0.2,4.1-0.6v9.2h71.8v-45.5
		H-13121.7z"/>
	<ellipse class="st2" cx="-13225.4" cy="-1966.1" rx="42.4" ry="3.9"/>
	<ellipse class="st2" cx="-13192.7" cy="-1947.1" rx="18.9" ry="1.7"/>
	<ellipse class="st2" cx="-13234.6" cy="-1856.1" rx="35.3" ry="3.3"/>
	<path class="st3" d="M-13219.6-1869.2c0,9.1-5.4,12.3-12.1,12.3c-0.2,0-0.3,0-0.5,0c-0.3,0-0.6,0-0.9,0c-6-0.4-10.7-3.8-10.7-12.3
		c0-8.8,11.2-19.9,12.1-20.7l0,0l0,0C-13231.7-1889.9-13219.6-1878.3-13219.6-1869.2z"/>
	<path class="st4" d="M-13232.1-1858.3l4.4-6.2l-4.4,6.9l0,0.7c-0.3,0-0.6,0-0.9,0l0.5-9.1v-0.1l0,0l0-0.9l-4.5-6.9l4.5,6.2l0,0.2
		l0.4-6.9l-3.8-7.1l3.9,5.9l0.4-14.3v0v0l-0.1,11.3l3.8-4.5l-3.8,5.4l-0.1,6.2l3.5-5.9l-3.6,6.8l-0.1,3.4l5.1-8.2l-5.2,9.4
		L-13232.1-1858.3z"/>
	<path class="st3" d="M-13177.2-2009.6c0,19.3-11.5,26-25.6,26s-25.6-6.7-25.6-26c0-19.3,25.6-43.8,25.6-43.8
		S-13177.2-2028.9-13177.2-2009.6z"/>
	<path class="st4" d="M-13203.7-1986.6l0.3-16.1l10.9-19.9l-10.9,17.4l0.1-7.2l7.5-14.4l-7.5,12.5l0,0l0.2-13l8-11.5l-8,9.4
		l0.1-23.9l-0.8,31.6l0.1-1.3l-8.2-12.5l8,15l-0.8,14.6l0-0.4l-9.4-13.2l9.4,14.5l-0.1,1.8l0,0l0,0.1l-1.9,36.9h2.6l0.3-19.1
		l9.4-14.5L-13203.7-1986.6z"/>
	<path class="st3" d="M-13222.1-2009.6c0,19.3-11.5,26-25.6,26c-14.1,0-25.6-6.7-25.6-26c0-19.3,25.6-43.8,25.6-43.8
		S-13222.1-2028.9-13222.1-2009.6z"/>
	<path class="st4" d="M-13248.6-1986.6l0.3-16.1l10.9-19.9l-10.9,17.4l0.1-7.2l7.5-14.4l-7.5,12.5l0,0l0.2-13l8-11.5l-8,9.4
		l0.1-23.9l-0.8,31.6l0.1-1.3l-8.2-12.5l8,15l-0.8,14.6l0-0.4l-9.4-13.2l9.4,14.5l-0.1,1.8l0,0l0,0.1l-1.9,36.9h2.6l0.3-19.1
		l9.4-14.5L-13248.6-1986.6z"/>
	<path class="st2" d="M-13187.6-2026.4c0,26-15.5,35.1-34.6,35.1s-34.6-9.1-34.6-35.1s34.6-59.2,34.6-59.2
		S-13187.6-2052.4-13187.6-2026.4z"/>
	<path class="st4" d="M-13223.5-1995.2l0.4-21.8l14.7-27l-14.7,23.6l0.2-9.8l10.2-19.5l-10.1,16.9l0,0l0.3-17.6l10.9-15.5
		l-10.8,12.8l0.2-32.3l-1.1,42.8l0.1-1.8l-11.1-16.9l10.9,20.3l-1,19.7l0-0.5l-12.7-17.8l12.7,19.7l-0.1,2.5l0,0l0,0.2l-2.6,50h3.5
		l0.4-25.8l12.7-19.6L-13223.5-1995.2z"/>
	<path class="st4" d="M-13188.3-1950.9c0,0.5-0.1,1-0.2,1.5c-0.2,0.7-0.6,1.3-1.2,1.8c-0.6,0.5-1.2,0.9-2,1
		c-0.3,0.1-0.6,0.1-0.9,0.1c-1.6,0-3-0.8-3.8-2.2c-1.2-2.1-0.5-4.8,1.6-6c2.1-1.2,4.8-0.5,6,1.6
		C-13188.5-1952.4-13188.3-1951.7-13188.3-1950.9L-13188.3-1950.9z"/>
	<path class="st2" d="M-13196-1953.8l0.4,0l0.7,1l-0.5,1.1l-1.2,0.2l-0.4-0.5L-13196-1953.8z"/>
	<path class="st2" d="M-13193.5-1949.1l-1.2,0.2l-0.7-1l0.5-1.1l1.2-0.2l0.7,1L-13193.5-1949.1z"/>
	<path class="st2" d="M-13194.6-1947.9l-0.3,0.7c-0.6-0.4-1.2-0.9-1.5-1.6l1.1-0.1L-13194.6-1947.9z"/>
	<path class="st2" d="M-13192.1-1952.5l-1.2,0.2l-0.7-1l0.5-1.1l1.2-0.2l0.7,1L-13192.1-1952.5z"/>
	<path class="st2" d="M-13190.3-1949.9l-1.2,0.2l-0.7-1l0.5-1.1l1.2-0.2l0.7,1L-13190.3-1949.9z"/>
	<path class="st2" d="M-13191.4-1947.3l-0.3,0.6c-0.6,0.1-1.3,0.1-1.9,0l-0.3-0.3l0.5-1.1l1.2-0.2L-13191.4-1947.3z"/>
	<path class="st2" d="M-13188.8-1952.9l-1.2,0.2l-0.7-1l0.4-0.9C-13189.7-1954.2-13189.1-1953.6-13188.8-1952.9z"/>
	<path class="st2" d="M-13188.6-1949.4c-0.2,0.7-0.6,1.3-1.2,1.8l-0.4-0.5l0.5-1.1L-13188.6-1949.4z"/>
	<ellipse class="st2" cx="-13093.2" cy="-1819.7" rx="81.5" ry="4.8"/>
	<path class="st1" d="M-13133.3-1833.4l-17.2,15.4c-7.5-3.1-13.1-9.4-15.4-17.2l17.2-15.4
		C-13148.6-1840.4-13143.3-1834.8-13133.3-1833.4z"/>
	
		<rect x="-13163.9" y="-1838.7" transform="matrix(0.7604 -0.6494 0.6494 0.7604 -1958.0028 -8984.6309)" class="st4" width="15.3" height="0.3"/>
	
		<rect x="-13162.4" y="-1836.5" transform="matrix(0.7425 -0.6699 0.6699 0.7425 -2157.791 -9285.3613)" class="st4" width="15.1" height="0.3"/>
	<path class="st2" d="M-13124.8-1889.4l-23,2.4c-4.2-6.9-5.1-15.3-2.4-23l23-2.4C-13133.1-1904.1-13132.1-1896.5-13124.8-1889.4z"/>
	
		<rect x="-13148.1" y="-1907.2" transform="matrix(0.9967 -8.091218e-02 8.091218e-02 0.9967 111.2215 -1069.4738)" class="st4" width="15.3" height="0.3"/>
	
		<rect x="-13148.1" y="-1904.7" transform="matrix(0.9941 -0.108 0.108 0.9941 128.8352 -1430.5452)" class="st4" width="15.1" height="0.3"/>
	<path class="st1" d="M-13145.8-1938.1l-15.4-17.3c3.2-7.4,9.5-13.1,17.3-15.4l15.4,17.3
		C-13138.7-1953.4-13144.3-1948.2-13145.8-1938.1z"/>
	
		<rect x="-13140.7" y="-1968.7" transform="matrix(0.7632 -0.6462 0.6462 0.7632 -1844.5243 -8955.3799)" class="st4" width="0.3" height="15.3"/>
	
		<rect x="-13142.9" y="-1967.3" transform="matrix(0.745 -0.667 0.667 0.745 -2043.7686 -9266.2383)" class="st4" width="0.3" height="15.1"/>
	
		<rect x="-13134.3" y="-2018.3" transform="matrix(0.866 -0.5 0.5 0.866 -760.44 -6830.0371)" class="st4" width="18.1" height="44.6"/>
	
		<rect x="-13139.2" y="-2006.8" transform="matrix(0.8578 -0.5139 0.5139 0.8578 -835.5412 -7033.8521)" class="st3" width="14.6" height="0.3"/>
	
		<rect x="-13137.2" y="-2004" transform="matrix(0.8578 -0.5139 0.5139 0.8578 -836.6837 -7032.437)" class="st3" width="14.6" height="0.3"/>
	
		<rect x="-13135.9" y="-2001.7" transform="matrix(0.8578 -0.5139 0.5139 0.8578 -837.6997 -7031.4141)" class="st3" width="14.6" height="0.3"/>
	
		<rect x="-13133.9" y="-1998.7" transform="matrix(0.8578 -0.5139 0.5139 0.8578 -838.9648 -7029.9507)" class="st3" width="14.6" height="0.3"/>
	
		<rect x="-13130.9" y="-1994.3" transform="matrix(0.8578 -0.5139 0.5139 0.8578 -840.7769 -7027.7793)" class="st3" width="14.6" height="0.3"/>
	<path class="st5" d="M-13071.7-1970.9c0,0,8.6-4.2,14.8-2.6l-14.8-39.9v-4.1l20.9,49.8l0,0c5.2,9.9,11.8,32.3,0.6,34.1
		c-12.8,2-35.8,9.7-35.8,9.7l-5.1-44.5L-13071.7-1970.9z"/>
	<path class="st6" d="M-13122.1-1984.2c0,0-13.8-17.4-17.4-11.3s16.1,16.5,16.1,16.5L-13122.1-1984.2z"/>
	<path class="st7" d="M-13117.4-1983.7l-5.6-3.1c0,0-3.6,9.2-3.6,10.7c0,1.5,5.6,2,5.6,2L-13117.4-1983.7z"/>
	<circle class="st6" cx="-13096" cy="-2035.9" r="13.3"/>
	<path class="st6" d="M-13085.7-2037.4c0,0,5.6,16.9,9.7,17.9c4.1,1-15.9,8.7-15.9,8.7s-6.1-14.3-9.2-17.9
		C-13104.1-2032.3-13085.7-2037.4-13085.7-2037.4z"/>
	<path class="st8" d="M-13053.8-1938.7c11-1.8,4.9-23.3-0.2-33.5c0.5,0.4,0.9,0.8,1.2,1.2c5.1,6.7,15.3,35.3,2.6,37.3
		c-12.8,2-35.8,9.7-35.8,9.7l-0.7-6.1C-13080.1-1932-13063.8-1937.1-13053.8-1938.7z"/>
	<path class="st5" d="M-13036.1-1850.7c0,0,12.8,10.2,11.8,11.3s-11.8,17.4-21,18.9c-9.2,1.5-13.3,1.5-13.3,0s2.6-5.1,7.2-6.7
		s5.1-11.8,4.6-13.8S-13036.1-1850.7-13036.1-1850.7z"/>
	<path class="st5" d="M-13074.5-1926.9l8.2,38.4c0,0,33.8,37.9,32.7,38.4c-1,0.5-11.3,10.7-13.3,10.7s-37.3-39.9-37.3-39.9
		l-12.8-33.3L-13074.5-1926.9z"/>
	<path class="st8" d="M-13074.5-1926.9l8.2,38.4c0,0,33.8,37.9,32.7,38.4c-1,0.5-11.3,10.7-13.3,10.7s-37.3-39.9-37.3-39.9
		l-12.8-33.3L-13074.5-1926.9z"/>
	<path class="st5" d="M-13066.3-1939.2c0,0-4.1,17.4-15.3,29.2c-11.3,11.8-16.4,35.8-16.4,35.8l-11.3,48.1c0,0-20-2.6-18.9-7.7
		l10.7-42.5c0,0,12.3-58.8,18.9-62.9C-13091.9-1943.3-13066.3-1939.2-13066.3-1939.2z"/>
	<path class="st5" d="M-13110.3-1830.2c0,0,3.1,9.7,1,10.7s-38.4,3.1-40.4-4.1c0,0-1-3.6,7.2-3.6c8.2,0,16.9-7.7,16.9-7.7
		L-13110.3-1830.2z"/>
	<path class="st9" d="M-13094.9-2012.9c0,0,13.3-13.3,16.9-12.3c3.6,1,3.6,6.1,3.6,6.1s11.3,1.5,10.2,38.4c-1,36.8,9.2,40.9,5.6,43
		s-44.5,11.3-46,2s-1-44.5,3.1-55.8C-13097.5-2002.6-13092.4-2009.8-13094.9-2012.9z"/>
	<path class="st9" d="M-13078.1-2009.8c0,0,15.3,7.2,6.7,21c-8.7,13.8-15.3,28.6-24.6,28.1c-9.2-0.5-23.5-9.2-27.6-9.2
		c-4.1,0,1.5-14.8,4.6-15.3c3.1-0.5,17.4,8.2,17.4,8.2S-13096.5-2011.8-13078.1-2009.8z"/>
	<path class="st5" d="M-13088.3-2034.4c-1.1,0-2.3,0.2-3.4,0.5c-4.2,0.4-8.1-2.3-9.1-6.4c-0.1-0.5-0.2-1-0.5-1.5c-0.6-1-2-1.2-3.2-1
		c-1.1,0.4-2.3,0.6-3.5,0.8c-1.9,0-3.6-1-4.6-2.6c-0.9-1.6-1.3-3.5-1.1-5.3l0.9,0.9c0.4-0.8,0.5-1.6,0.4-2.4c0.9-0.3,2,0,2.7,0.7
		c0.8,0.1,0.2-1.4,0.8-2c0.3-0.2,0.6-0.2,0.9-0.2c1.6,0,3-1.2,4.3-2.3c2.2-1.8,4.9-3,7.7-3.5c1.9-0.4,3.8-0.3,5.6,0.3
		c1.4,0.6,2.7,1.5,3.8,2.7c2.9,2.6,5.1,5.8,6.4,9.4c0.9,3,1,6.2,0.1,9.2c-0.5,1.6-1.9,6.9-3.9,7
		C-13086.6-2029.8-13085.1-2034.2-13088.3-2034.4z"/>
</g>
<rect class="st0" width="323" height="274.1"/>
</svg>
