<svg xmlns="http://www.w3.org/2000/svg" width="273.458" height="283" viewBox="0 0 273.458 283"><defs><style>.a{fill:#e6e6e6;}.b{fill:#f2f2f2;}.c{fill:#ffc20e;}.d{fill:#3f3d56;}.e{fill:#2f2e41;}.f{fill:#ffb9b9;}.g{fill:#d0cde1;}.h{opacity:0.1;}.i{fill:#575a89;}</style></defs><g transform="translate(13303.971 2089)"><path class="a" d="M92.316,85.606V81.046H74.781v4.559H71.273V21.425H33.747V129.094h68.389V85.606Z" transform="translate(-13329.399 -2102.911)"/><path class="b" d="M651.477,217.542l-.065.063v-.063l0,.064c-.887.863-10.764,10.609-14.6,20.494-1.272-1.415-2.172-2.279-2.172-2.279l-.043.041v0c-.723.7-10.555,10.406-10.555,18.094,0,7.423,4.1,10.353,9.387,10.727l-.383,7.322h1.071l.118-7.285c.135,0,.27.005.406.005,3.9,0,7.312-1.242,9.151-4.435a18.908,18.908,0,0,0,5.835,1.288l-.585,11.172h1.633l.181-11.115c.206,0,.412.008.619.008,8.931,0,16.171-4.252,16.171-16.431S651.477,217.542,651.477,217.542Z" transform="translate(-13758.484 -2246.568)"/><path class="b" d="M442.175,174.129v-6.408h-19.64v6.408h-9.119V148.782h-8.768v-9.82h-19.64v9.82H375.89v39.791a54.2,54.2,0,0,0-4.247-4.719l-.043.041v0c-.723.7-10.555,10.406-10.555,18.094,0,7.423,4.1,10.353,9.387,10.727l-.383,7.322h1.071l.118-7.285c.135,0,.27.005.406.005a14.073,14.073,0,0,0,4.247-.6v9.571h75.053v-47.6Z" transform="translate(-13587.722 -2195.548)"/><ellipse class="b" cx="44.365" cy="4.09" rx="44.365" ry="4.09" transform="translate(-13298.283 -1968.205)"/><ellipse class="b" cx="19.786" cy="1.824" rx="19.786" ry="1.824" transform="translate(-13239.509 -1946.051)"/><ellipse class="b" cx="36.912" cy="3.402" rx="36.912" ry="3.402" transform="translate(-13300.474 -1852.54)"/><path class="c" d="M233.743,651.346c0,9.54-5.671,12.871-12.667,12.871q-.243,0-.485-.005c-.324-.007-.645-.022-.962-.044-6.314-.447-11.219-3.949-11.219-12.821,0-9.182,11.733-20.768,12.615-21.625l0,0,.051-.049S233.743,641.806,233.743,651.346Z" transform="translate(-13481.604 -2514.157)"/><path class="d" d="M233.785,662.758l4.633-6.474-4.645,7.185-.012.743c-.324-.007-.645-.022-.962-.044l.5-9.545,0-.074.008-.014.047-.9-4.656-7.2,4.671,6.526.011.191.377-7.212-3.986-7.442,4.035,6.177.393-14.951,0-.051v.049l-.066,11.79,3.968-4.674-3.985,5.69-.1,6.457,3.705-6.2-3.721,7.147-.059,3.59,5.379-8.625-5.4,9.877Z" transform="translate(-13494.774 -2514.157)"/><path class="c" d="M327.858,188.148c0,20.14-11.973,27.172-26.742,27.172s-26.742-7.032-26.742-27.172,26.742-45.761,26.742-45.761S327.858,168.008,327.858,188.148Z" transform="translate(-13531.448 -2197.771)"/><path class="d" d="M197.321,165.7l.274-16.855,11.4-20.852L197.638,146.2l.123-7.579,7.856-15.086-7.823,13.081h0l.222-13.631,8.412-12.011-8.377,9.867.139-24.994-.87,33.088.072-1.365-8.553-13.091,8.415,15.711-.8,15.223-.024-.4-9.859-13.776,9.829,15.2-.1,1.9-.018.029.008.156-2.022,38.622h2.7L197.3,167.2l9.805-15.166Z" transform="translate(-13428.627 -2151.233)"/><path class="c" d="M194.14,188.148c0,20.14-11.973,27.172-26.742,27.172s-26.742-7.032-26.742-27.172S167.4,142.387,167.4,142.387,194.14,168.008,194.14,188.148Z" transform="translate(-13444.627 -2197.771)"/><path class="d" d="M63.6,165.7l.274-16.855,11.4-20.852L63.921,146.2l.123-7.579L71.9,123.536l-7.823,13.081h0l.222-13.631,8.412-12.011-8.377,9.867.138-24.994L63.6,128.937l.072-1.365-8.553-13.091,8.415,15.711-.8,15.223-.024-.4-9.859-13.776,9.829,15.2-.1,1.9-.018.029.008.156L60.555,187.15h2.7L63.58,167.2l9.805-15.166Z" transform="translate(-13341.807 -2151.233)"/><path class="b" d="M261.98,108.417c0,27.234-16.19,36.743-36.162,36.743s-36.162-9.509-36.162-36.743,36.162-61.88,36.162-61.88S261.98,81.183,261.98,108.417Z" transform="translate(-13476.442 -2135.538)"/><path class="d" d="M131.475,94.456l.37-22.792,15.413-28.2L131.9,68.089l.166-10.248,10.623-20.4L132.114,55.128h0l.3-18.432,11.375-16.241L132.46,33.8,132.647,0l-1.176,44.742.1-1.846L120,25.195l11.38,21.245-1.078,20.586-.032-.546L116.941,47.85l13.292,20.559-.135,2.574-.024.039.011.211-2.734,52.227H131l.438-26.976L144.7,75.976Z" transform="translate(-13383.416 -2089)"/><path class="d" d="M376.99,439.521a4.537,4.537,0,0,1-.261,1.527,4.6,4.6,0,0,1-1.235,1.853,4.548,4.548,0,0,1-2.072,1.069,4.465,4.465,0,0,1-.991.11,4.55,4.55,0,0,1-3.952-2.284,4.56,4.56,0,1,1,8.511-2.275Z" transform="translate(-13592.154 -2387.735)"/><path class="b" d="M238.662,392.784l.408-.052.777,1.022-.5,1.184-1.272.161-.383-.505Z" transform="translate(-13461.82 -2343.995)"/><path class="b" d="M243.939,402.619l-1.273.162-.777-1.022.5-1.184,1.273-.162.777,1.021Z" transform="translate(-13464.543 -2348.983)"/><path class="b" d="M371.513,455.064l-.315.75a4.6,4.6,0,0,1-1.594-1.629l1.132-.143Z" transform="translate(-13593.28 -2400.125)"/><path class="b" d="M248.076,392.573l-1.273.162-.777-1.022.5-1.183,1.273-.162.776,1.022Z" transform="translate(-13467.229 -2342.46)"/><path class="b" d="M253.394,400.255l-1.273.162-.777-1.022.5-1.183,1.273-.162.777,1.022Z" transform="translate(-13470.683 -2347.448)"/><path class="b" d="M379.79,456.837l-.282.674a4.524,4.524,0,0,1-2,0l-.263-.346.5-1.183,1.272-.162Z" transform="translate(-13598.24 -2401.276)"/><path class="b" d="M388.712,438.732l-1.235.157-.777-1.022.383-.914A4.562,4.562,0,0,1,388.712,438.732Z" transform="translate(-13604.38 -2389.029)"/><path class="b" d="M390.105,452.317a4.6,4.6,0,0,1-1.235,1.853l-.4-.524.5-1.183Z" transform="translate(-13605.53 -2399.005)"/><ellipse class="b" cx="85.224" cy="4.998" rx="85.224" ry="4.998" transform="translate(-13200.96 -1815.995)"/><path class="a" d="M494.835,765.026l-17.98,16.132a28.2,28.2,0,0,1-16.132-17.98l17.98-16.132C478.817,757.646,484.305,763.542,494.835,765.026Z" transform="translate(-13652.441 -2590.368)"/><rect class="d" width="15.972" height="0.351" transform="translate(-13187.869 -1825.684) rotate(-40.499)"/><rect class="d" width="15.763" height="0.35" transform="translate(-13186.212 -1823.325) rotate(-42.059)"/><path class="b" d="M531.131,586.829l-24.022,2.542a28.2,28.2,0,0,1-2.542-24.022l24.022-2.542C522.472,571.464,523.467,579.457,531.131,586.829Z" transform="translate(-13679.887 -2470.744)"/><rect class="d" width="15.972" height="0.351" transform="translate(-13173.082 -1901.922) rotate(-4.641)"/><rect class="d" width="15.763" height="0.35" transform="translate(-13173.117 -1899.038) rotate(-6.201)"/><path class="a" d="M490.855,422.987,474.8,404.941a28.2,28.2,0,0,1,18.045-16.059L508.9,406.928C498.3,407,492.382,412.463,490.855,422.987Z" transform="translate(-13661.579 -2357.817)"/><rect class="d" width="0.351" height="15.972" transform="matrix(0.763, -0.646, 0.646, 0.763, -13170.526, -1964.867)"/><rect class="d" width="0.35" height="15.763" transform="matrix(0.745, -0.667, 0.667, 0.745, -13172.884, -1963.209)"/><rect class="d" width="18.939" height="46.645" transform="translate(-13169.091 -2010.849) rotate(-30)"/><rect class="c" width="15.215" height="0.351" transform="matrix(0.858, -0.514, 0.514, 0.858, -13162.846, -2002.72)"/><rect class="c" width="15.215" height="0.351" transform="matrix(0.858, -0.514, 0.514, 0.858, -13160.769, -1999.821)"/><rect class="c" width="15.215" height="0.351" transform="matrix(0.858, -0.514, 0.514, 0.858, -13159.366, -1997.366)"/><rect class="c" width="15.215" height="0.351" transform="matrix(0.858, -0.514, 0.514, 0.858, -13157.262, -1994.21)"/><rect class="c" width="15.215" height="0.351" transform="matrix(0.858, -0.514, 0.514, 0.858, -13154.105, -1989.65)"/><path class="e" d="M703.989,298.188s9.028-4.342,15.452-2.724l-15.452-41.674v-4.279l21.871,52.039h0c5.468,10.307,12.382,33.8.595,35.686-13.373,2.14-37.443,10.163-37.443,10.163l-5.349-46.537Z" transform="translate(-13797.193 -2267.326)"/><path class="f" d="M556.876,324.323s-14.442-18.187-18.187-11.768S555.5,329.771,555.5,329.771Z" transform="translate(-13702.768 -2307.368)"/><path class="g" d="M587.291,344.233l-5.884-3.209s-3.744,9.628-3.744,11.233,5.884,2.14,5.884,2.14Z" transform="translate(-13728.369 -2326.743)"/><circle class="f" cx="13.908" cy="13.908" r="13.908" transform="translate(-13132.52 -2050.978)"/><path class="f" d="M669.3,190.03s5.884,17.652,10.163,18.722-16.582,9.093-16.582,9.093-6.419-14.977-9.628-18.722S669.3,190.03,669.3,190.03Z" transform="translate(-13777.215 -2228.705)"/><path class="h" d="M731.266,419.605c11.53-1.845,5.166-24.365-.235-34.994a7.083,7.083,0,0,1,1.305,1.3c5.349,6.954,16.047,36.908,2.675,39.048s-37.443,10.163-37.443,10.163l-.728-6.331C703.718,426.578,720.78,421.283,731.266,419.605Z" transform="translate(-13805.749 -2355.044)"/><path class="e" d="M804.048,746.723s13.373,10.7,12.3,11.768-12.3,18.187-21.931,19.792-13.907,1.6-13.907,0,2.674-5.349,7.489-6.954,5.349-12.3,4.814-14.442S804.048,746.723,804.048,746.723Z" transform="translate(-13860.076 -2590.158)"/><path class="e" d="M689.659,519.47l8.558,40.118s35.3,39.583,34.234,40.118-11.768,11.233-13.907,11.233S679.5,569.216,679.5,569.216l-13.373-34.769Z" transform="translate(-13785.805 -2442.606)"/><path class="h" d="M689.659,519.47l8.558,40.118s35.3,39.583,34.234,40.118-11.768,11.233-13.907,11.233S679.5,569.216,679.5,569.216l-13.373-34.769Z" transform="translate(-13785.805 -2442.606)"/><path class="e" d="M637.737,479.345s-4.279,18.187-16.047,30.49-17.117,37.443-17.117,37.443L592.8,597.559s-20.861-2.674-19.791-8.024l11.233-44.4s12.838-61.514,19.792-65.793S637.737,479.345,637.737,479.345Z" transform="translate(-13725.324 -2415.318)"/><path class="e" d="M550.137,798.818s3.209,10.163,1.07,11.233-40.118,3.209-42.258-4.279c0,0-1.07-3.744,7.489-3.744S534.09,794,534.09,794Z" transform="translate(-13683.727 -2620.857)"/><path class="i" d="M651.868,239.363s13.908-13.908,17.652-12.838,3.744,6.419,3.744,6.419,11.768,1.6,10.7,40.118,9.628,42.792,5.884,44.932-46.537,11.768-48.141,2.14-1.07-46.537,3.209-58.3S654.543,242.573,651.868,239.363Z" transform="translate(-13769.41 -2252.363)"/><path class="i" d="M631.635,272.222s16.047,7.489,6.954,21.931-16.047,29.955-25.675,29.42-24.606-9.628-28.885-9.628,1.6-15.512,4.814-16.047,18.187,8.558,18.187,8.558S612.378,270.082,631.635,272.222Z" transform="translate(-13731.525 -2282.012)"/><path class="e" d="M643.033,151.75a18.684,18.684,0,0,0-3.523.487,8.917,8.917,0,0,1-9.531-6.648,5.1,5.1,0,0,0-.487-1.588c-.649-1.059-2.126-1.261-3.344-1.018a25.817,25.817,0,0,1-3.613.879,5.532,5.532,0,0,1-4.774-2.7,9.164,9.164,0,0,1-1.172-5.534l.918.964a4.663,4.663,0,0,0,.416-2.534,2.941,2.941,0,0,1,2.786.713c.81.086.2-1.5.8-2.05a1.391,1.391,0,0,1,.979-.183c1.722.017,3.115-1.3,4.473-2.361a19.006,19.006,0,0,1,8.027-3.661,10.561,10.561,0,0,1,5.857.284A12.511,12.511,0,0,1,644.8,129.6a24.147,24.147,0,0,1,6.646,9.86,16.6,16.6,0,0,1,.079,9.625c-.484,1.634-1.943,7.228-4.078,7.359C644.762,156.608,646.373,151.95,643.033,151.75Z" transform="translate(-13753.622 -2187.284)"/></g></svg>